<svg width="123" height="281" viewBox="0 0 123 281" fill="none" xmlns="http://www.w3.org/2000/svg">
<path d="M1.836 21.8916C1.716 21.8916 1.614 21.8496 1.53 21.7656C1.446 21.6816 1.404 21.5796 1.404 21.4596V9.7416C1.404 9.6096 1.44 9.5016 1.512 9.4176C1.596 9.3336 1.704 9.2916 1.836 9.2916H9.774C9.906 9.2916 10.014 9.3336 10.098 9.4176C10.182 9.5016 10.224 9.6096 10.224 9.7416V10.9476C10.224 11.0796 10.182 11.1876 10.098 11.2716C10.014 11.3436 9.906 11.3796 9.774 11.3796H3.87V14.5296H9.378C9.51 14.5296 9.618 14.5716 9.702 14.6556C9.786 14.7396 9.828 14.8476 9.828 14.9796V16.1136C9.828 16.2456 9.786 16.3536 9.702 16.4376C9.618 16.5096 9.51 16.5456 9.378 16.5456H3.87V19.8036H9.918C10.05 19.8036 10.158 19.8456 10.242 19.9296C10.326 20.0016 10.368 20.1036 10.368 20.2356V21.4596C10.368 21.5916 10.326 21.6996 10.242 21.7836C10.158 21.8556 10.05 21.8916 9.918 21.8916H1.836ZM12.8348 21.8916C12.7148 21.8916 12.6128 21.8496 12.5288 21.7656C12.4448 21.6816 12.4028 21.5796 12.4028 21.4596V12.9636C12.4028 12.8316 12.4448 12.7296 12.5288 12.6576C12.6128 12.5736 12.7148 12.5316 12.8348 12.5316H14.3288C14.4608 12.5316 14.5628 12.5736 14.6348 12.6576C14.7188 12.7296 14.7608 12.8316 14.7608 12.9636V13.7016C15.4928 12.8016 16.4948 12.3516 17.7668 12.3516C18.8708 12.3516 19.7468 12.7116 20.3948 13.4316C21.0428 14.1516 21.3668 15.1416 21.3668 16.4016V21.4596C21.3668 21.5796 21.3248 21.6816 21.2408 21.7656C21.1688 21.8496 21.0668 21.8916 20.9348 21.8916H19.3148C19.1948 21.8916 19.0928 21.8496 19.0088 21.7656C18.9248 21.6816 18.8828 21.5796 18.8828 21.4596V16.5096C18.8828 15.8136 18.7088 15.2736 18.3608 14.8896C18.0248 14.4936 17.5388 14.2956 16.9028 14.2956C16.2908 14.2956 15.7988 14.4936 15.4268 14.8896C15.0548 15.2856 14.8688 15.8256 14.8688 16.5096V21.4596C14.8688 21.5796 14.8268 21.6816 14.7428 21.7656C14.6708 21.8496 14.5688 21.8916 14.4368 21.8916H12.8348ZM27.8828 25.8516C26.8148 25.8516 25.9508 25.6716 25.2908 25.3116C24.6308 24.9636 24.1628 24.5616 23.8868 24.1056C23.6108 23.6496 23.4728 23.2596 23.4728 22.9356C23.4728 22.8156 23.5148 22.7136 23.5988 22.6296C23.6828 22.5576 23.7848 22.5216 23.9048 22.5216H25.5068C25.6148 22.5216 25.7048 22.5456 25.7768 22.5936C25.8608 22.6536 25.9268 22.7556 25.9748 22.8996C26.1068 23.2116 26.3048 23.4756 26.5688 23.6916C26.8328 23.9196 27.2408 24.0336 27.7928 24.0336C28.5128 24.0336 29.0408 23.8716 29.3768 23.5476C29.7128 23.2356 29.8808 22.6836 29.8808 21.8916V20.6676C29.2328 21.4356 28.3148 21.8196 27.1268 21.8196C25.8788 21.8196 24.9368 21.4416 24.3008 20.6856C23.6768 19.9296 23.3408 18.8976 23.2928 17.5896L23.2748 17.1036L23.2928 16.6176C23.3408 15.3336 23.6828 14.3016 24.3188 13.5216C24.9548 12.7416 25.8908 12.3516 27.1268 12.3516C27.7628 12.3516 28.3208 12.4716 28.8008 12.7116C29.2808 12.9516 29.6768 13.2756 29.9888 13.6836V12.9816C29.9888 12.8496 30.0308 12.7416 30.1148 12.6576C30.2108 12.5736 30.3188 12.5316 30.4388 12.5316H31.9148C32.0348 12.5316 32.1368 12.5736 32.2208 12.6576C32.3048 12.7416 32.3468 12.8496 32.3468 12.9816L32.3648 21.6576C32.3648 22.9896 31.9928 24.0216 31.2488 24.7536C30.5048 25.4856 29.3828 25.8516 27.8828 25.8516ZM27.8108 19.9116C28.4828 19.9116 28.9868 19.6956 29.3228 19.2636C29.6588 18.8316 29.8448 18.3036 29.8808 17.6796C29.8928 17.5836 29.8988 17.3916 29.8988 17.1036C29.8988 16.8156 29.8928 16.6236 29.8808 16.5276C29.8448 15.9036 29.6588 15.3756 29.3228 14.9436C28.9868 14.5116 28.4828 14.2956 27.8108 14.2956C26.5148 14.2956 25.8308 15.0876 25.7588 16.6716L25.7408 17.1036C25.7408 18.9756 26.4308 19.9116 27.8108 19.9116ZM37.4626 22.0716C36.8506 22.0716 36.2866 21.9516 35.7706 21.7116C35.2666 21.4596 34.8646 21.1236 34.5646 20.7036C34.2766 20.2836 34.1326 19.8216 34.1326 19.3176C34.1326 18.5016 34.4626 17.8416 35.1226 17.3376C35.7826 16.8336 36.6886 16.4916 37.8406 16.3116L40.3066 15.9516V15.5736C40.3066 15.0576 40.1746 14.6676 39.9106 14.4036C39.6466 14.1396 39.2266 14.0076 38.6506 14.0076C38.2546 14.0076 37.9366 14.0796 37.6966 14.2236C37.4566 14.3676 37.2586 14.5176 37.1026 14.6736C36.9586 14.8176 36.8626 14.9136 36.8146 14.9616C36.7666 15.1056 36.6766 15.1776 36.5446 15.1776H35.1406C35.0326 15.1776 34.9366 15.1416 34.8526 15.0696C34.7806 14.9976 34.7446 14.9016 34.7446 14.7816C34.7566 14.4816 34.9006 14.1456 35.1766 13.7736C35.4646 13.3896 35.9026 13.0596 36.4906 12.7836C37.0786 12.4956 37.8046 12.3516 38.6686 12.3516C40.0846 12.3516 41.1166 12.6696 41.7646 13.3056C42.4126 13.9416 42.7366 14.7756 42.7366 15.8076V21.4596C42.7366 21.5796 42.6946 21.6816 42.6106 21.7656C42.5386 21.8496 42.4366 21.8916 42.3046 21.8916H40.8106C40.6906 21.8916 40.5886 21.8496 40.5046 21.7656C40.4206 21.6816 40.3786 21.5796 40.3786 21.4596V20.7576C40.1146 21.1416 39.7426 21.4596 39.2626 21.7116C38.7826 21.9516 38.1826 22.0716 37.4626 22.0716ZM38.0746 20.3436C38.7346 20.3436 39.2746 20.1276 39.6946 19.6956C40.1146 19.2636 40.3246 18.6396 40.3246 17.8236V17.4636L38.5246 17.7516C37.1446 17.9676 36.4546 18.4296 36.4546 19.1376C36.4546 19.5216 36.6106 19.8216 36.9226 20.0376C37.2466 20.2416 37.6306 20.3436 38.0746 20.3436ZM49.2754 25.8516C48.2074 25.8516 47.3434 25.6716 46.6834 25.3116C46.0234 24.9636 45.5554 24.5616 45.2794 24.1056C45.0034 23.6496 44.8654 23.2596 44.8654 22.9356C44.8654 22.8156 44.9074 22.7136 44.9914 22.6296C45.0754 22.5576 45.1774 22.5216 45.2974 22.5216H46.8994C47.0074 22.5216 47.0974 22.5456 47.1694 22.5936C47.2534 22.6536 47.3194 22.7556 47.3674 22.8996C47.4994 23.2116 47.6974 23.4756 47.9614 23.6916C48.2254 23.9196 48.6334 24.0336 49.1854 24.0336C49.9054 24.0336 50.4334 23.8716 50.7694 23.5476C51.1054 23.2356 51.2734 22.6836 51.2734 21.8916V20.6676C50.6254 21.4356 49.7074 21.8196 48.5194 21.8196C47.2714 21.8196 46.3294 21.4416 45.6934 20.6856C45.0694 19.9296 44.7334 18.8976 44.6854 17.5896L44.6674 17.1036L44.6854 16.6176C44.7334 15.3336 45.0754 14.3016 45.7114 13.5216C46.3474 12.7416 47.2834 12.3516 48.5194 12.3516C49.1554 12.3516 49.7134 12.4716 50.1934 12.7116C50.6734 12.9516 51.0694 13.2756 51.3814 13.6836V12.9816C51.3814 12.8496 51.4234 12.7416 51.5074 12.6576C51.6034 12.5736 51.7114 12.5316 51.8314 12.5316H53.3074C53.4274 12.5316 53.5294 12.5736 53.6134 12.6576C53.6974 12.7416 53.7394 12.8496 53.7394 12.9816L53.7574 21.6576C53.7574 22.9896 53.3854 24.0216 52.6414 24.7536C51.8974 25.4856 50.7754 25.8516 49.2754 25.8516ZM49.2034 19.9116C49.8754 19.9116 50.3794 19.6956 50.7154 19.2636C51.0514 18.8316 51.2374 18.3036 51.2734 17.6796C51.2854 17.5836 51.2914 17.3916 51.2914 17.1036C51.2914 16.8156 51.2854 16.6236 51.2734 16.5276C51.2374 15.9036 51.0514 15.3756 50.7154 14.9436C50.3794 14.5116 49.8754 14.2956 49.2034 14.2956C47.9074 14.2956 47.2234 15.0876 47.1514 16.6716L47.1334 17.1036C47.1334 18.9756 47.8234 19.9116 49.2034 19.9116ZM60.1872 22.0716C58.8432 22.0716 57.7752 21.6876 56.9832 20.9196C56.2032 20.1516 55.7892 19.0596 55.7412 17.6436L55.7232 17.1936C55.7232 15.6936 56.1132 14.5116 56.8932 13.6476C57.6852 12.7836 58.7772 12.3516 60.1692 12.3516C61.5972 12.3516 62.6952 12.7836 63.4632 13.6476C64.2432 14.5116 64.6332 15.6636 64.6332 17.1036V17.4816C64.6332 17.6016 64.5912 17.7036 64.5072 17.7876C64.4232 17.8716 64.3152 17.9136 64.1832 17.9136H58.2072V18.0576C58.2312 18.7296 58.4112 19.2876 58.7472 19.7316C59.0952 20.1636 59.5692 20.3796 60.1692 20.3796C60.8532 20.3796 61.4112 20.1036 61.8432 19.5516C61.9512 19.4196 62.0352 19.3416 62.0952 19.3176C62.1552 19.2816 62.2572 19.2636 62.4012 19.2636H63.9852C64.0932 19.2636 64.1832 19.2936 64.2552 19.3536C64.3392 19.4136 64.3812 19.4976 64.3812 19.6056C64.3812 19.8936 64.2072 20.2356 63.8592 20.6316C63.5232 21.0156 63.0372 21.3516 62.4012 21.6396C61.7652 21.9276 61.0272 22.0716 60.1872 22.0716ZM62.1492 16.3836V16.3476C62.1492 15.6396 61.9692 15.0756 61.6092 14.6556C61.2612 14.2236 60.7812 14.0076 60.1692 14.0076C59.5572 14.0076 59.0772 14.2236 58.7292 14.6556C58.3812 15.0756 58.2072 15.6396 58.2072 16.3476V16.3836H62.1492Z" fill="#0B132A"/>
<path d="M1.76 70.8916C1.65333 70.8916 1.568 70.8596 1.504 70.7956C1.44 70.7209 1.408 70.6303 1.408 70.5236V60.0596C1.408 59.9529 1.44 59.8676 1.504 59.8036C1.568 59.7289 1.65333 59.6916 1.76 59.6916H2.56C2.66667 59.6916 2.752 59.7289 2.816 59.8036C2.88 59.8676 2.912 59.9529 2.912 60.0596V69.5476H8.256C8.37333 69.5476 8.464 69.5849 8.528 69.6596C8.60267 69.7236 8.64 69.8089 8.64 69.9156V70.5236C8.64 70.6303 8.60267 70.7209 8.528 70.7956C8.45333 70.8596 8.36267 70.8916 8.256 70.8916H1.76ZM12.4728 71.0516C11.9501 71.0516 11.4648 70.9449 11.0168 70.7316C10.5794 70.5183 10.2274 70.2303 9.96075 69.8676C9.70475 69.4943 9.57675 69.0836 9.57675 68.6356C9.57675 67.9316 9.86475 67.3556 10.4408 66.9076C11.0168 66.4596 11.8008 66.1609 12.7928 66.0116L15.1928 65.6756V65.2116C15.1928 64.1129 14.5581 63.5636 13.2888 63.5636C12.7981 63.5636 12.4034 63.6649 12.1048 63.8676C11.8061 64.0596 11.5874 64.2889 11.4488 64.5556C11.4061 64.6623 11.3581 64.7369 11.3048 64.7796C11.2621 64.8116 11.1981 64.8276 11.1128 64.8276H10.4888C10.3928 64.8276 10.3074 64.7956 10.2328 64.7316C10.1688 64.6569 10.1368 64.5716 10.1368 64.4756C10.1368 64.2303 10.2488 63.9476 10.4728 63.6276C10.7074 63.2969 11.0648 63.0143 11.5448 62.7796C12.0248 62.5343 12.6114 62.4116 13.3048 62.4116C14.4994 62.4116 15.3528 62.6889 15.8648 63.2436C16.3874 63.7983 16.6488 64.4916 16.6488 65.3236V70.5236C16.6488 70.6303 16.6114 70.7209 16.5368 70.7956C16.4728 70.8596 16.3874 70.8916 16.2808 70.8916H15.5768C15.4701 70.8916 15.3848 70.8596 15.3208 70.7956C15.2568 70.7209 15.2248 70.6303 15.2248 70.5236V69.8196C14.9901 70.1716 14.6488 70.4649 14.2008 70.6996C13.7528 70.9343 13.1768 71.0516 12.4728 71.0516ZM12.7928 69.8836C13.4968 69.8836 14.0728 69.6543 14.5208 69.1956C14.9688 68.7369 15.1928 68.0703 15.1928 67.1956V66.7476L13.3208 67.0196C12.5528 67.1263 11.9714 67.3076 11.5768 67.5636C11.1821 67.8196 10.9848 68.1396 10.9848 68.5236C10.9848 68.9609 11.1608 69.2969 11.5128 69.5316C11.8754 69.7663 12.3021 69.8836 12.7928 69.8836ZM21.8136 71.0516C21.0776 71.0516 20.4536 70.9343 19.9416 70.6996C19.4403 70.4543 19.067 70.1769 18.8216 69.8676C18.5763 69.5583 18.4536 69.3023 18.4536 69.0996C18.4536 68.9929 18.491 68.9129 18.5656 68.8596C18.6403 68.7956 18.7203 68.7636 18.8056 68.7636H19.4776C19.5416 68.7636 19.5896 68.7743 19.6216 68.7956C19.6643 68.8169 19.7176 68.8649 19.7816 68.9396C20.027 69.2383 20.299 69.4729 20.5976 69.6436C20.907 69.8143 21.3176 69.8996 21.8296 69.8996C22.4056 69.8996 22.8643 69.7929 23.2056 69.5796C23.5576 69.3663 23.7336 69.0569 23.7336 68.6516C23.7336 68.3849 23.659 68.1716 23.5096 68.0116C23.3603 67.8516 23.1096 67.7076 22.7576 67.5796C22.4163 67.4516 21.9043 67.3129 21.2216 67.1636C20.2936 66.9609 19.6376 66.6676 19.2536 66.2836C18.8696 65.8996 18.6776 65.4036 18.6776 64.7956C18.6776 64.4009 18.795 64.0223 19.0296 63.6596C19.2643 63.2863 19.611 62.9876 20.0696 62.7636C20.539 62.5289 21.0936 62.4116 21.7336 62.4116C22.4056 62.4116 22.9763 62.5236 23.4456 62.7476C23.9256 62.9716 24.283 63.2329 24.5176 63.5316C24.763 63.8303 24.8856 64.0809 24.8856 64.2836C24.8856 64.3796 24.8483 64.4596 24.7736 64.5236C24.7096 64.5876 24.6296 64.6196 24.5336 64.6196H23.9256C23.7763 64.6196 23.6696 64.5609 23.6056 64.4436C23.4243 64.2409 23.2696 64.0863 23.1416 63.9796C23.0243 63.8623 22.8483 63.7663 22.6136 63.6916C22.379 63.6063 22.0856 63.5636 21.7336 63.5636C21.211 63.5636 20.811 63.6756 20.5336 63.8996C20.2563 64.1129 20.1176 64.4009 20.1176 64.7636C20.1176 64.9876 20.1763 65.1796 20.2936 65.3396C20.411 65.4889 20.635 65.6329 20.9656 65.7716C21.2963 65.8996 21.787 66.0329 22.4376 66.1716C23.451 66.3849 24.1656 66.6889 24.5816 67.0836C25.0083 67.4783 25.2216 67.9849 25.2216 68.6036C25.2216 69.0623 25.0883 69.4783 24.8216 69.8516C24.5656 70.2249 24.1763 70.5183 23.6536 70.7316C23.1416 70.9449 22.5283 71.0516 21.8136 71.0516ZM27.4746 70.8916C27.368 70.8916 27.2773 70.8596 27.2026 70.7956C27.1386 70.7209 27.1066 70.6303 27.1066 70.5236V59.8996C27.1066 59.7823 27.1386 59.6916 27.2026 59.6276C27.2773 59.5636 27.368 59.5316 27.4746 59.5316H28.1786C28.2853 59.5316 28.3706 59.5689 28.4346 59.6436C28.5093 59.7076 28.5466 59.7929 28.5466 59.8996V70.5236C28.5466 70.6303 28.5093 70.7209 28.4346 70.7956C28.3706 70.8596 28.2853 70.8916 28.1786 70.8916H27.4746ZM34.246 71.0516C33.158 71.0516 32.2887 70.7156 31.638 70.0436C30.9873 69.3609 30.63 68.4329 30.566 67.2596L30.55 66.7156L30.566 66.1876C30.63 65.0356 30.9873 64.1183 31.638 63.4356C32.2887 62.7529 33.158 62.4116 34.246 62.4116C35.4193 62.4116 36.326 62.7849 36.966 63.5316C37.6167 64.2783 37.942 65.2916 37.942 66.5716V66.8596C37.942 66.9663 37.9047 67.0569 37.83 67.1316C37.766 67.1956 37.6807 67.2276 37.574 67.2276H32.022V67.3716C32.054 68.0649 32.2673 68.6569 32.662 69.1476C33.0567 69.6383 33.5793 69.8836 34.23 69.8836C34.7313 69.8836 35.1367 69.7876 35.446 69.5956C35.766 69.3929 36.006 69.1849 36.166 68.9716C36.262 68.8436 36.3367 68.7689 36.39 68.7476C36.4433 68.7156 36.534 68.6996 36.662 68.6996H37.366C37.462 68.6996 37.542 68.7263 37.606 68.7796C37.6807 68.8329 37.718 68.9023 37.718 68.9876C37.718 69.2223 37.574 69.5049 37.286 69.8356C36.998 70.1663 36.5873 70.4543 36.054 70.6996C35.5313 70.9343 34.9287 71.0516 34.246 71.0516ZM36.486 66.1396V66.0916C36.486 65.3449 36.2833 64.7369 35.878 64.2676C35.4727 63.7983 34.9287 63.5636 34.246 63.5636C33.5527 63.5636 33.0087 63.7983 32.614 64.2676C32.2193 64.7369 32.022 65.3449 32.022 66.0916V66.1396H36.486ZM42.7355 71.0516C41.9995 71.0516 41.3755 70.9343 40.8635 70.6996C40.3622 70.4543 39.9888 70.1769 39.7435 69.8676C39.4982 69.5583 39.3755 69.3023 39.3755 69.0996C39.3755 68.9929 39.4128 68.9129 39.4875 68.8596C39.5622 68.7956 39.6422 68.7636 39.7275 68.7636H40.3995C40.4635 68.7636 40.5115 68.7743 40.5435 68.7956C40.5862 68.8169 40.6395 68.8649 40.7035 68.9396C40.9488 69.2383 41.2208 69.4729 41.5195 69.6436C41.8288 69.8143 42.2395 69.8996 42.7515 69.8996C43.3275 69.8996 43.7862 69.7929 44.1275 69.5796C44.4795 69.3663 44.6555 69.0569 44.6555 68.6516C44.6555 68.3849 44.5808 68.1716 44.4315 68.0116C44.2822 67.8516 44.0315 67.7076 43.6795 67.5796C43.3382 67.4516 42.8262 67.3129 42.1435 67.1636C41.2155 66.9609 40.5595 66.6676 40.1755 66.2836C39.7915 65.8996 39.5995 65.4036 39.5995 64.7956C39.5995 64.4009 39.7168 64.0223 39.9515 63.6596C40.1862 63.2863 40.5328 62.9876 40.9915 62.7636C41.4608 62.5289 42.0155 62.4116 42.6555 62.4116C43.3275 62.4116 43.8982 62.5236 44.3675 62.7476C44.8475 62.9716 45.2048 63.2329 45.4395 63.5316C45.6848 63.8303 45.8075 64.0809 45.8075 64.2836C45.8075 64.3796 45.7702 64.4596 45.6955 64.5236C45.6315 64.5876 45.5515 64.6196 45.4555 64.6196H44.8475C44.6982 64.6196 44.5915 64.5609 44.5275 64.4436C44.3462 64.2409 44.1915 64.0863 44.0635 63.9796C43.9462 63.8623 43.7702 63.7663 43.5355 63.6916C43.3008 63.6063 43.0075 63.5636 42.6555 63.5636C42.1328 63.5636 41.7328 63.6756 41.4555 63.8996C41.1782 64.1129 41.0395 64.4009 41.0395 64.7636C41.0395 64.9876 41.0982 65.1796 41.2155 65.3396C41.3328 65.4889 41.5568 65.6329 41.8875 65.7716C42.2182 65.8996 42.7088 66.0329 43.3595 66.1716C44.3728 66.3849 45.0875 66.6889 45.5035 67.0836C45.9302 67.4783 46.1435 67.9849 46.1435 68.6036C46.1435 69.0623 46.0102 69.4783 45.7435 69.8516C45.4875 70.2249 45.0982 70.5183 44.5755 70.7316C44.0635 70.9449 43.4502 71.0516 42.7355 71.0516ZM50.7204 70.8916C50.443 70.8916 50.251 70.7529 50.1444 70.4756L46.5444 60.1876L46.5124 60.0116C46.5124 59.9263 46.5444 59.8516 46.6084 59.7876C46.683 59.7236 46.763 59.6916 46.8484 59.6916H47.6164C47.7337 59.6916 47.8244 59.7236 47.8884 59.7876C47.963 59.8409 48.011 59.9049 48.0324 59.9796L51.2004 69.1316L54.3844 59.9796C54.4057 59.9049 54.4484 59.8409 54.5124 59.7876C54.587 59.7236 54.683 59.6916 54.8004 59.6916H55.5684C55.6537 59.6916 55.7284 59.7236 55.7924 59.7876C55.8564 59.8516 55.8884 59.9263 55.8884 60.0116C55.8884 60.0863 55.883 60.1449 55.8724 60.1876L52.2724 70.4756C52.1657 70.7529 51.9737 70.8916 51.6964 70.8916H50.7204ZM58.1975 70.8916C58.0908 70.8916 58.0055 70.8596 57.9415 70.7956C57.8775 70.7209 57.8455 70.6303 57.8455 70.5236V60.0756C57.8455 59.9583 57.8775 59.8676 57.9415 59.8036C58.0055 59.7289 58.0908 59.6916 58.1975 59.6916H62.2455C63.4508 59.6916 64.3948 59.9849 65.0775 60.5716C65.7708 61.1476 66.1175 61.9903 66.1175 63.0996C66.1175 64.2089 65.7708 65.0516 65.0775 65.6276C64.3948 66.2036 63.4508 66.4916 62.2455 66.4916H59.3655V70.5236C59.3655 70.6303 59.3282 70.7209 59.2535 70.7956C59.1895 70.8596 59.1042 70.8916 58.9975 70.8916H58.1975ZM62.1655 65.1956C63.7762 65.1956 64.5815 64.4969 64.5815 63.0996C64.5815 62.4169 64.3788 61.8943 63.9735 61.5316C63.5788 61.1689 62.9762 60.9876 62.1655 60.9876H59.3655V65.1956H62.1655ZM68.4475 70.8916C68.3408 70.8916 68.2555 70.8596 68.1915 70.7956C68.1275 70.7209 68.0955 70.6303 68.0955 70.5236V60.0756C68.0955 59.9583 68.1275 59.8676 68.1915 59.8036C68.2555 59.7289 68.3408 59.6916 68.4475 59.6916H69.1515C69.2582 59.6916 69.3382 59.7129 69.3915 59.7556C69.4448 59.7983 69.4982 59.8516 69.5515 59.9156L74.9115 68.1716V60.0756C74.9115 59.9583 74.9435 59.8676 75.0075 59.8036C75.0822 59.7289 75.1728 59.6916 75.2795 59.6916H75.9995C76.1168 59.6916 76.2075 59.7289 76.2715 59.8036C76.3462 59.8676 76.3835 59.9583 76.3835 60.0756V70.5076C76.3835 70.6143 76.3462 70.7049 76.2715 70.7796C76.2075 70.8543 76.1222 70.8916 76.0155 70.8916H75.2955C75.1142 70.8916 74.9862 70.8169 74.9115 70.6676L69.5515 62.4916V70.5236C69.5515 70.6303 69.5142 70.7209 69.4395 70.7956C69.3755 70.8596 69.2902 70.8916 69.1835 70.8916H68.4475ZM85.6228 68.3156C85.5161 68.3156 85.4308 68.2836 85.3668 68.2196C85.3028 68.1556 85.2708 68.0703 85.2708 67.9636V67.3076C85.2921 66.7423 85.4361 66.2516 85.7028 65.8356C85.9801 65.4196 86.3694 64.9556 86.8708 64.4436C87.2548 64.0489 87.5374 63.7236 87.7188 63.4676C87.9108 63.2116 88.0228 62.9343 88.0548 62.6356C88.0654 62.5929 88.0708 62.5236 88.0708 62.4276C88.0708 61.9369 87.8628 61.5476 87.4468 61.2596C87.0308 60.9716 86.5454 60.8276 85.9908 60.8276C85.3934 60.8276 84.8921 60.9876 84.4868 61.3076C84.0921 61.6169 83.8361 62.1076 83.7188 62.7796C83.6761 63.0143 83.5374 63.1316 83.3028 63.1316H82.5988C82.5028 63.1316 82.4174 63.0996 82.3428 63.0356C82.2788 62.9716 82.2467 62.8863 82.2467 62.7796C82.2681 62.1929 82.4334 61.6543 82.7428 61.1636C83.0628 60.6623 83.5054 60.2676 84.0707 59.9796C84.6468 59.6809 85.3028 59.5316 86.0388 59.5316C86.8174 59.5316 87.4734 59.6649 88.0068 59.9316C88.5401 60.1983 88.9348 60.5503 89.1908 60.9876C89.4468 61.4143 89.5748 61.8676 89.5748 62.3476C89.5748 62.8916 89.4521 63.3609 89.2068 63.7556C88.9614 64.1503 88.5934 64.6089 88.1028 65.1316C87.6974 65.5689 87.3934 65.9423 87.1908 66.2516C86.9881 66.5503 86.8708 66.8863 86.8388 67.2596C86.8174 67.5583 86.8068 67.7823 86.8068 67.9316C86.7534 68.1876 86.6201 68.3156 86.4068 68.3156H85.6228ZM85.4788 70.8916C85.3721 70.8916 85.2814 70.8596 85.2068 70.7956C85.1428 70.7209 85.1108 70.6303 85.1108 70.5236V69.5956C85.1108 69.4889 85.1428 69.3983 85.2068 69.3236C85.2814 69.2489 85.3721 69.2116 85.4788 69.2116H86.4708C86.5774 69.2116 86.6681 69.2489 86.7428 69.3236C86.8174 69.3983 86.8548 69.4889 86.8548 69.5956V70.5236C86.8548 70.6303 86.8174 70.7209 86.7428 70.7956C86.6681 70.8596 86.5774 70.8916 86.4708 70.8916H85.4788Z" fill="#4F5665"/>
<path d="M1.76 110.892C1.65333 110.892 1.568 110.86 1.504 110.796C1.44 110.721 1.408 110.63 1.408 110.524V100.076C1.408 99.9583 1.44 99.8676 1.504 99.8036C1.568 99.7289 1.65333 99.6916 1.76 99.6916H8.256C8.37333 99.6916 8.464 99.7289 8.528 99.8036C8.60267 99.8676 8.64 99.9583 8.64 100.076V100.668C8.64 100.774 8.60267 100.865 8.528 100.94C8.464 101.004 8.37333 101.036 8.256 101.036H2.896V104.828H7.936C8.05333 104.828 8.144 104.865 8.208 104.94C8.28267 105.004 8.32 105.089 8.32 105.196V105.804C8.32 105.91 8.28267 106.001 8.208 106.076C8.13333 106.14 8.04267 106.172 7.936 106.172H2.896V110.524C2.896 110.63 2.85867 110.721 2.784 110.796C2.70933 110.86 2.61867 110.892 2.512 110.892H1.76ZM9.265 110.892C9.17967 110.892 9.105 110.86 9.041 110.796C8.977 110.732 8.945 110.657 8.945 110.572L8.977 110.396L12.945 100.044C13.0303 99.8089 13.201 99.6916 13.457 99.6916H14.481C14.737 99.6916 14.9077 99.8089 14.993 100.044L18.961 110.396L18.993 110.572C18.993 110.657 18.9557 110.732 18.881 110.796C18.817 110.86 18.7423 110.892 18.657 110.892H17.905C17.7983 110.892 17.7077 110.865 17.633 110.812C17.569 110.748 17.5263 110.684 17.505 110.62L16.609 108.316H11.313L10.433 110.62C10.3477 110.801 10.2143 110.892 10.033 110.892H9.265ZM11.777 106.988H16.161L13.969 101.244L11.777 106.988ZM27.7334 111.932C27.616 111.932 27.5147 111.894 27.4294 111.82C27.344 111.756 27.264 111.67 27.1894 111.564L26.5334 110.652C25.968 110.918 25.296 111.052 24.5174 111.052C23.1307 111.052 22.0587 110.689 21.3014 109.964C20.544 109.228 20.144 108.124 20.1014 106.652C20.0907 106.332 20.0854 105.878 20.0854 105.292C20.0854 104.705 20.0907 104.257 20.1014 103.948C20.144 102.497 20.5547 101.398 21.3334 100.652C22.1227 99.9049 23.184 99.5316 24.5174 99.5316C25.8507 99.5316 26.9067 99.9049 27.6854 100.652C28.464 101.398 28.8747 102.497 28.9174 103.948C28.9387 104.566 28.9494 105.014 28.9494 105.292C28.9494 105.558 28.9387 106.012 28.9174 106.652C28.8747 108.124 28.4854 109.217 27.7494 109.932L28.8214 111.436C28.8534 111.5 28.8694 111.558 28.8694 111.612C28.8694 111.697 28.8374 111.772 28.7734 111.836C28.7094 111.9 28.6347 111.932 28.5494 111.932H27.7334ZM24.5174 109.724C25.3707 109.724 26.0534 109.468 26.5654 108.956C27.0774 108.433 27.3494 107.638 27.3814 106.572C27.4027 105.932 27.4134 105.505 27.4134 105.292C27.4134 105.057 27.4027 104.63 27.3814 104.012C27.3494 102.945 27.0774 102.15 26.5654 101.628C26.0534 101.105 25.3707 100.844 24.5174 100.844C23.664 100.844 22.976 101.105 22.4534 101.628C21.9414 102.15 21.6694 102.945 21.6374 104.012C21.6267 104.321 21.6214 104.748 21.6214 105.292C21.6214 105.825 21.6267 106.252 21.6374 106.572C21.6694 107.638 21.9414 108.433 22.4534 108.956C22.9654 109.468 23.6534 109.724 24.5174 109.724Z" fill="#4F5665"/>
<path d="M4.224 150.892C4.11733 150.892 4.02667 150.86 3.952 150.796C3.888 150.721 3.856 150.63 3.856 150.524V141.068H0.768C0.661333 141.068 0.570667 141.036 0.496 140.972C0.432 140.897 0.4 140.806 0.4 140.7V140.076C0.4 139.958 0.432 139.868 0.496 139.804C0.570667 139.729 0.661333 139.692 0.768 139.692H8.448C8.56533 139.692 8.656 139.729 8.72 139.804C8.784 139.868 8.816 139.958 8.816 140.076V140.7C8.816 140.806 8.77867 140.897 8.704 140.972C8.64 141.036 8.55467 141.068 8.448 141.068H5.376V150.524C5.376 150.63 5.33867 150.721 5.264 150.796C5.18933 150.86 5.09867 150.892 4.992 150.892H4.224ZM12.2415 151.052C11.2282 151.052 10.4442 150.726 9.8895 150.076C9.33483 149.414 9.0575 148.54 9.0575 147.452V142.94C9.0575 142.833 9.0895 142.748 9.1535 142.684C9.22817 142.609 9.31883 142.572 9.4255 142.572H10.1615C10.2682 142.572 10.3535 142.609 10.4175 142.684C10.4922 142.748 10.5295 142.833 10.5295 142.94V147.372C10.5295 148.993 11.2335 149.804 12.6415 149.804C13.3242 149.804 13.8628 149.59 14.2575 149.164C14.6628 148.726 14.8655 148.129 14.8655 147.372V142.94C14.8655 142.833 14.8975 142.748 14.9615 142.684C15.0362 142.609 15.1268 142.572 15.2335 142.572H15.9695C16.0762 142.572 16.1615 142.609 16.2255 142.684C16.3002 142.748 16.3375 142.833 16.3375 142.94V150.524C16.3375 150.63 16.3002 150.721 16.2255 150.796C16.1615 150.86 16.0762 150.892 15.9695 150.892H15.2815C15.1748 150.892 15.0842 150.86 15.0095 150.796C14.9455 150.721 14.9135 150.63 14.9135 150.524V149.804C14.6042 150.22 14.2415 150.534 13.8255 150.748C13.4095 150.95 12.8815 151.052 12.2415 151.052ZM21.9313 150.892C20.2779 150.892 19.4513 149.958 19.4513 148.092V143.804H18.1873C18.0806 143.804 17.9953 143.772 17.9313 143.708C17.8673 143.644 17.8353 143.558 17.8353 143.452V142.94C17.8353 142.833 17.8673 142.748 17.9313 142.684C17.9953 142.609 18.0806 142.572 18.1873 142.572H19.4513V139.9C19.4513 139.793 19.4833 139.708 19.5473 139.644C19.6113 139.569 19.6966 139.532 19.8033 139.532H20.5073C20.6139 139.532 20.6993 139.569 20.7633 139.644C20.8379 139.708 20.8753 139.793 20.8753 139.9V142.572H22.8593C22.9659 142.572 23.0513 142.609 23.1153 142.684C23.1899 142.748 23.2273 142.833 23.2273 142.94V143.452C23.2273 143.558 23.1899 143.644 23.1153 143.708C23.0513 143.772 22.9659 143.804 22.8593 143.804H20.8753V147.98C20.8753 148.524 20.9606 148.934 21.1313 149.212C21.3126 149.489 21.6166 149.628 22.0433 149.628H23.0193C23.1259 149.628 23.2113 149.665 23.2753 149.74C23.3393 149.804 23.3713 149.889 23.3713 149.996V150.524C23.3713 150.63 23.3393 150.721 23.2753 150.796C23.2113 150.86 23.1259 150.892 23.0193 150.892H21.9313ZM28.3104 151.052C27.137 151.052 26.2304 150.721 25.5904 150.06C24.961 149.398 24.625 148.518 24.5824 147.42L24.5664 146.732L24.5824 146.044C24.625 144.945 24.9664 144.065 25.6064 143.404C26.257 142.742 27.1584 142.412 28.3104 142.412C29.4624 142.412 30.3584 142.742 30.9984 143.404C31.649 144.065 31.9957 144.945 32.0384 146.044C32.0597 146.278 32.0704 146.508 32.0704 146.732C32.0704 146.956 32.0597 147.185 32.0384 147.42C31.9957 148.518 31.6544 149.398 31.0144 150.06C30.385 150.721 29.4837 151.052 28.3104 151.052ZM28.3104 149.852C28.993 149.852 29.5317 149.638 29.9264 149.212C30.3317 148.774 30.5504 148.15 30.5824 147.34C30.593 147.233 30.5984 147.03 30.5984 146.732C30.5984 146.433 30.593 146.23 30.5824 146.124C30.5504 145.313 30.3317 144.694 29.9264 144.268C29.5317 143.83 28.993 143.612 28.3104 143.612C27.6277 143.612 27.0837 143.83 26.6784 144.268C26.2837 144.694 26.0704 145.313 26.0384 146.124L26.0224 146.732L26.0384 147.34C26.0704 148.15 26.2837 148.774 26.6784 149.212C27.0837 149.638 27.6277 149.852 28.3104 149.852ZM34.4586 150.892C34.352 150.892 34.2613 150.86 34.1866 150.796C34.1226 150.721 34.0906 150.63 34.0906 150.524V142.956C34.0906 142.849 34.1226 142.758 34.1866 142.684C34.2613 142.609 34.352 142.572 34.4586 142.572H35.1306C35.248 142.572 35.3386 142.609 35.4026 142.684C35.4773 142.748 35.5146 142.838 35.5146 142.956V143.66C35.952 142.934 36.6933 142.572 37.7386 142.572H38.3626C38.48 142.572 38.5706 142.604 38.6346 142.668C38.6986 142.732 38.7306 142.822 38.7306 142.94V143.532C38.7306 143.638 38.6986 143.729 38.6346 143.804C38.5706 143.868 38.48 143.9 38.3626 143.9H37.4506C36.864 143.9 36.4 144.07 36.0586 144.412C35.728 144.753 35.5626 145.217 35.5626 145.804V150.524C35.5626 150.63 35.5253 150.721 35.4506 150.796C35.376 150.86 35.2853 150.892 35.1786 150.892H34.4586ZM40.3463 141.004C40.2396 141.004 40.1489 140.972 40.0743 140.908C40.0103 140.833 39.9783 140.742 39.9783 140.636V139.804C39.9783 139.697 40.0103 139.606 40.0743 139.532C40.1489 139.457 40.2396 139.42 40.3463 139.42H41.2903C41.3969 139.42 41.4876 139.457 41.5623 139.532C41.6369 139.606 41.6743 139.697 41.6743 139.804V140.636C41.6743 140.742 41.6369 140.833 41.5623 140.908C41.4876 140.972 41.3969 141.004 41.2903 141.004H40.3463ZM40.4743 150.892C40.3676 150.892 40.2769 150.86 40.2023 150.796C40.1383 150.721 40.1063 150.63 40.1063 150.524V142.94C40.1063 142.833 40.1383 142.748 40.2023 142.684C40.2769 142.609 40.3676 142.572 40.4743 142.572H41.1783C41.2849 142.572 41.3703 142.609 41.4343 142.684C41.5089 142.748 41.5463 142.833 41.5463 142.94V150.524C41.5463 150.63 41.5089 150.721 41.4343 150.796C41.3703 150.86 41.2849 150.892 41.1783 150.892H40.4743ZM46.254 151.052C45.7313 151.052 45.246 150.945 44.798 150.732C44.3607 150.518 44.0087 150.23 43.742 149.868C43.486 149.494 43.358 149.084 43.358 148.636C43.358 147.932 43.646 147.356 44.222 146.908C44.798 146.46 45.582 146.161 46.574 146.012L48.974 145.676V145.212C48.974 144.113 48.3393 143.564 47.07 143.564C46.5793 143.564 46.1847 143.665 45.886 143.868C45.5873 144.06 45.3687 144.289 45.23 144.556C45.1873 144.662 45.1393 144.737 45.086 144.78C45.0433 144.812 44.9793 144.828 44.894 144.828H44.27C44.174 144.828 44.0887 144.796 44.014 144.732C43.95 144.657 43.918 144.572 43.918 144.476C43.918 144.23 44.03 143.948 44.254 143.628C44.4887 143.297 44.846 143.014 45.326 142.78C45.806 142.534 46.3927 142.412 47.086 142.412C48.2807 142.412 49.134 142.689 49.646 143.244C50.1687 143.798 50.43 144.492 50.43 145.324V150.524C50.43 150.63 50.3927 150.721 50.318 150.796C50.254 150.86 50.1687 150.892 50.062 150.892H49.358C49.2513 150.892 49.166 150.86 49.102 150.796C49.038 150.721 49.006 150.63 49.006 150.524V149.82C48.7713 150.172 48.43 150.465 47.982 150.7C47.534 150.934 46.958 151.052 46.254 151.052ZM46.574 149.884C47.278 149.884 47.854 149.654 48.302 149.196C48.75 148.737 48.974 148.07 48.974 147.196V146.748L47.102 147.02C46.334 147.126 45.7527 147.308 45.358 147.564C44.9633 147.82 44.766 148.14 44.766 148.524C44.766 148.961 44.942 149.297 45.294 149.532C45.6567 149.766 46.0833 149.884 46.574 149.884ZM53.1309 150.892C53.0242 150.892 52.9335 150.86 52.8589 150.796C52.7949 150.721 52.7629 150.63 52.7629 150.524V139.9C52.7629 139.782 52.7949 139.692 52.8589 139.628C52.9335 139.564 53.0242 139.532 53.1309 139.532H53.8349C53.9415 139.532 54.0269 139.569 54.0909 139.644C54.1655 139.708 54.2029 139.793 54.2029 139.9V150.524C54.2029 150.63 54.1655 150.721 54.0909 150.796C54.0269 150.86 53.9415 150.892 53.8349 150.892H53.1309ZM59.4543 151.052C58.7183 151.052 58.0943 150.934 57.5823 150.7C57.0809 150.454 56.7076 150.177 56.4622 149.868C56.2169 149.558 56.0943 149.302 56.0943 149.1C56.0943 148.993 56.1316 148.913 56.2063 148.86C56.2809 148.796 56.3609 148.764 56.4463 148.764H57.1183C57.1823 148.764 57.2303 148.774 57.2623 148.796C57.3049 148.817 57.3583 148.865 57.4223 148.94C57.6676 149.238 57.9396 149.473 58.2383 149.644C58.5476 149.814 58.9583 149.9 59.4703 149.9C60.0463 149.9 60.5049 149.793 60.8463 149.58C61.1983 149.366 61.3743 149.057 61.3743 148.652C61.3743 148.385 61.2996 148.172 61.1503 148.012C61.0009 147.852 60.7503 147.708 60.3983 147.58C60.0569 147.452 59.5449 147.313 58.8623 147.164C57.9343 146.961 57.2783 146.668 56.8943 146.284C56.5103 145.9 56.3183 145.404 56.3183 144.796C56.3183 144.401 56.4356 144.022 56.6703 143.66C56.9049 143.286 57.2516 142.988 57.7103 142.764C58.1796 142.529 58.7343 142.412 59.3743 142.412C60.0463 142.412 60.6169 142.524 61.0863 142.748C61.5663 142.972 61.9236 143.233 62.1583 143.532C62.4036 143.83 62.5263 144.081 62.5263 144.284C62.5263 144.38 62.4889 144.46 62.4143 144.524C62.3503 144.588 62.2703 144.62 62.1743 144.62H61.5663C61.4169 144.62 61.3103 144.561 61.2463 144.444C61.0649 144.241 60.9103 144.086 60.7823 143.98C60.6649 143.862 60.4889 143.766 60.2543 143.692C60.0196 143.606 59.7263 143.564 59.3743 143.564C58.8516 143.564 58.4516 143.676 58.1743 143.9C57.8969 144.113 57.7582 144.401 57.7582 144.764C57.7582 144.988 57.8169 145.18 57.9343 145.34C58.0516 145.489 58.2756 145.633 58.6063 145.772C58.9369 145.9 59.4276 146.033 60.0783 146.172C61.0916 146.385 61.8063 146.689 62.2223 147.084C62.6489 147.478 62.8623 147.985 62.8623 148.604C62.8623 149.062 62.7289 149.478 62.4623 149.852C62.2063 150.225 61.8169 150.518 61.2943 150.732C60.7823 150.945 60.1689 151.052 59.4543 151.052Z" fill="#4F5665"/>
<path d="M0.64 190.892C0.554667 190.892 0.48 190.86 0.416 190.796C0.352 190.732 0.32 190.657 0.32 190.572L0.352 190.396L4.32 180.044C4.40533 179.809 4.576 179.692 4.832 179.692H5.856C6.112 179.692 6.28267 179.809 6.368 180.044L10.336 190.396L10.368 190.572C10.368 190.657 10.3307 190.732 10.256 190.796C10.192 190.86 10.1173 190.892 10.032 190.892H9.28C9.17333 190.892 9.08267 190.865 9.008 190.812C8.944 190.748 8.90133 190.684 8.88 190.62L7.984 188.316H2.688L1.808 190.62C1.72267 190.801 1.58933 190.892 1.408 190.892H0.64ZM3.152 186.988H7.536L5.344 181.244L3.152 186.988ZM15.9515 191.052C14.7995 191.052 13.9195 190.646 13.3115 189.836V190.524C13.3115 190.63 13.2742 190.721 13.1995 190.796C13.1355 190.86 13.0502 190.892 12.9435 190.892H12.2715C12.1648 190.892 12.0742 190.86 11.9995 190.796C11.9355 190.721 11.9035 190.63 11.9035 190.524V179.9C11.9035 179.782 11.9355 179.692 11.9995 179.628C12.0742 179.564 12.1648 179.532 12.2715 179.532H12.9915C13.0982 179.532 13.1835 179.569 13.2475 179.644C13.3222 179.708 13.3595 179.793 13.3595 179.9V183.596C13.9568 182.806 14.8208 182.412 15.9515 182.412C17.0715 182.412 17.9088 182.78 18.4635 183.516C19.0288 184.241 19.3275 185.153 19.3595 186.252C19.3702 186.369 19.3755 186.529 19.3755 186.732C19.3755 186.934 19.3702 187.094 19.3595 187.212C19.3275 188.31 19.0288 189.228 18.4635 189.964C17.9088 190.689 17.0715 191.052 15.9515 191.052ZM15.6475 189.804C16.4155 189.804 16.9755 189.564 17.3275 189.084C17.6795 188.604 17.8715 187.974 17.9035 187.196C17.9142 187.089 17.9195 186.934 17.9195 186.732C17.9195 184.684 17.1622 183.66 15.6475 183.66C14.9222 183.66 14.3622 183.9 13.9675 184.38C13.5835 184.849 13.3808 185.409 13.3595 186.06C13.3488 186.177 13.3435 186.385 13.3435 186.684C13.3435 186.972 13.3488 187.174 13.3595 187.292C13.3808 187.974 13.5782 188.566 13.9515 189.068C14.3355 189.558 14.9008 189.804 15.6475 189.804ZM24.7635 191.052C23.5902 191.052 22.6835 190.721 22.0435 190.06C21.4142 189.398 21.0782 188.518 21.0355 187.42L21.0195 186.732L21.0355 186.044C21.0782 184.945 21.4195 184.065 22.0595 183.404C22.7102 182.742 23.6115 182.412 24.7635 182.412C25.9155 182.412 26.8115 182.742 27.4515 183.404C28.1022 184.065 28.4488 184.945 28.4915 186.044C28.5128 186.278 28.5235 186.508 28.5235 186.732C28.5235 186.956 28.5128 187.185 28.4915 187.42C28.4488 188.518 28.1075 189.398 27.4675 190.06C26.8382 190.721 25.9368 191.052 24.7635 191.052ZM24.7635 189.852C25.4462 189.852 25.9848 189.638 26.3795 189.212C26.7848 188.774 27.0035 188.15 27.0355 187.34C27.0462 187.233 27.0515 187.03 27.0515 186.732C27.0515 186.433 27.0462 186.23 27.0355 186.124C27.0035 185.313 26.7848 184.694 26.3795 184.268C25.9848 183.83 25.4462 183.612 24.7635 183.612C24.0808 183.612 23.5368 183.83 23.1315 184.268C22.7368 184.694 22.5235 185.313 22.4915 186.124L22.4755 186.732L22.4915 187.34C22.5235 188.15 22.7368 188.774 23.1315 189.212C23.5368 189.638 24.0808 189.852 24.7635 189.852ZM33.6478 191.052C32.6344 191.052 31.8504 190.726 31.2958 190.076C30.7411 189.414 30.4638 188.54 30.4638 187.452V182.94C30.4638 182.833 30.4958 182.748 30.5598 182.684C30.6344 182.609 30.7251 182.572 30.8318 182.572H31.5678C31.6744 182.572 31.7598 182.609 31.8238 182.684C31.8984 182.748 31.9358 182.833 31.9358 182.94V187.372C31.9358 188.993 32.6398 189.804 34.0477 189.804C34.7304 189.804 35.2691 189.59 35.6638 189.164C36.0691 188.726 36.2718 188.129 36.2718 187.372V182.94C36.2718 182.833 36.3038 182.748 36.3678 182.684C36.4424 182.609 36.5331 182.572 36.6398 182.572H37.3758C37.4824 182.572 37.5678 182.609 37.6318 182.684C37.7064 182.748 37.7438 182.833 37.7438 182.94V190.524C37.7438 190.63 37.7064 190.721 37.6318 190.796C37.5678 190.86 37.4824 190.892 37.3758 190.892H36.6878C36.5811 190.892 36.4904 190.86 36.4158 190.796C36.3518 190.721 36.3198 190.63 36.3198 190.524V189.804C36.0104 190.22 35.6478 190.534 35.2318 190.748C34.8158 190.95 34.2878 191.052 33.6478 191.052ZM43.3375 190.892C41.6842 190.892 40.8575 189.958 40.8575 188.092V183.804H39.5935C39.4868 183.804 39.4015 183.772 39.3375 183.708C39.2735 183.644 39.2415 183.558 39.2415 183.452V182.94C39.2415 182.833 39.2735 182.748 39.3375 182.684C39.4015 182.609 39.4868 182.572 39.5935 182.572H40.8575V179.9C40.8575 179.793 40.8895 179.708 40.9535 179.644C41.0175 179.569 41.1028 179.532 41.2095 179.532H41.9135C42.0202 179.532 42.1055 179.569 42.1695 179.644C42.2442 179.708 42.2815 179.793 42.2815 179.9V182.572H44.2655C44.3722 182.572 44.4575 182.609 44.5215 182.684C44.5962 182.748 44.6335 182.833 44.6335 182.94V183.452C44.6335 183.558 44.5962 183.644 44.5215 183.708C44.4575 183.772 44.3722 183.804 44.2655 183.804H42.2815V187.98C42.2815 188.524 42.3668 188.934 42.5375 189.212C42.7188 189.489 43.0228 189.628 43.4495 189.628H44.4255C44.5322 189.628 44.6175 189.665 44.6815 189.74C44.7455 189.804 44.7775 189.889 44.7775 189.996V190.524C44.7775 190.63 44.7455 190.721 44.6815 190.796C44.6175 190.86 44.5322 190.892 44.4255 190.892H43.3375ZM54.6941 191.052C53.3181 191.052 52.2568 190.684 51.5101 189.948C50.7635 189.201 50.3901 188.076 50.3901 186.572V180.076C50.3901 179.958 50.4221 179.868 50.4861 179.804C50.5501 179.729 50.6355 179.692 50.7421 179.692H51.5101C51.6275 179.692 51.7181 179.729 51.7821 179.804C51.8568 179.868 51.8941 179.958 51.8941 180.076V186.604C51.8941 187.649 52.1341 188.428 52.6141 188.94C53.1048 189.452 53.7981 189.708 54.6941 189.708C55.5795 189.708 56.2621 189.452 56.7421 188.94C57.2328 188.417 57.4781 187.638 57.4781 186.604V180.076C57.4781 179.958 57.5101 179.868 57.5741 179.804C57.6381 179.729 57.7288 179.692 57.8461 179.692H58.6141C58.7208 179.692 58.8061 179.729 58.8701 179.804C58.9448 179.868 58.9821 179.958 58.9821 180.076V186.572C58.9821 188.076 58.6088 189.201 57.8621 189.948C57.1261 190.684 56.0701 191.052 54.6941 191.052ZM64.2668 191.052C63.5308 191.052 62.9068 190.934 62.3948 190.7C61.8934 190.454 61.5201 190.177 61.2747 189.868C61.0294 189.558 60.9068 189.302 60.9068 189.1C60.9068 188.993 60.9441 188.913 61.0188 188.86C61.0934 188.796 61.1734 188.764 61.2588 188.764H61.9308C61.9948 188.764 62.0428 188.774 62.0748 188.796C62.1174 188.817 62.1708 188.865 62.2348 188.94C62.4801 189.238 62.7521 189.473 63.0508 189.644C63.3601 189.814 63.7708 189.9 64.2828 189.9C64.8588 189.9 65.3174 189.793 65.6588 189.58C66.0108 189.366 66.1868 189.057 66.1868 188.652C66.1868 188.385 66.1121 188.172 65.9628 188.012C65.8134 187.852 65.5628 187.708 65.2108 187.58C64.8694 187.452 64.3574 187.313 63.6748 187.164C62.7468 186.961 62.0908 186.668 61.7068 186.284C61.3228 185.9 61.1308 185.404 61.1308 184.796C61.1308 184.401 61.2481 184.022 61.4828 183.66C61.7174 183.286 62.0641 182.988 62.5228 182.764C62.9921 182.529 63.5468 182.412 64.1868 182.412C64.8588 182.412 65.4294 182.524 65.8988 182.748C66.3788 182.972 66.7361 183.233 66.9708 183.532C67.2161 183.83 67.3388 184.081 67.3388 184.284C67.3388 184.38 67.3014 184.46 67.2268 184.524C67.1628 184.588 67.0828 184.62 66.9868 184.62H66.3788C66.2294 184.62 66.1228 184.561 66.0588 184.444C65.8774 184.241 65.7228 184.086 65.5948 183.98C65.4774 183.862 65.3014 183.766 65.0668 183.692C64.8321 183.606 64.5388 183.564 64.1868 183.564C63.6641 183.564 63.2641 183.676 62.9868 183.9C62.7094 184.113 62.5707 184.401 62.5707 184.764C62.5707 184.988 62.6294 185.18 62.7468 185.34C62.8641 185.489 63.0881 185.633 63.4188 185.772C63.7494 185.9 64.2401 186.033 64.8908 186.172C65.9041 186.385 66.6188 186.689 67.0348 187.084C67.4614 187.478 67.6748 187.985 67.6748 188.604C67.6748 189.062 67.5414 189.478 67.2748 189.852C67.0188 190.225 66.6294 190.518 66.1068 190.732C65.5948 190.945 64.9814 191.052 64.2668 191.052Z" fill="#4F5665"/>
<path d="M1.76 230.892C1.65333 230.892 1.568 230.86 1.504 230.796C1.44 230.721 1.408 230.63 1.408 230.524V220.076C1.408 219.958 1.44 219.868 1.504 219.804C1.568 219.729 1.65333 219.692 1.76 219.692H5.808C7.01333 219.692 7.95733 219.985 8.64 220.572C9.33333 221.148 9.68 221.99 9.68 223.1C9.68 224.209 9.33333 225.052 8.64 225.628C7.95733 226.204 7.01333 226.492 5.808 226.492H2.928V230.524C2.928 230.63 2.89067 230.721 2.816 230.796C2.752 230.86 2.66667 230.892 2.56 230.892H1.76ZM5.728 225.196C7.33867 225.196 8.144 224.497 8.144 223.1C8.144 222.417 7.94133 221.894 7.536 221.532C7.14133 221.169 6.53867 220.988 5.728 220.988H2.928V225.196H5.728ZM11.818 230.892C11.7113 230.892 11.6207 230.86 11.546 230.796C11.482 230.721 11.45 230.63 11.45 230.524V222.956C11.45 222.849 11.482 222.758 11.546 222.684C11.6207 222.609 11.7113 222.572 11.818 222.572H12.49C12.6073 222.572 12.698 222.609 12.762 222.684C12.8367 222.748 12.874 222.838 12.874 222.956V223.66C13.3113 222.934 14.0527 222.572 15.098 222.572H15.722C15.8393 222.572 15.93 222.604 15.994 222.668C16.058 222.732 16.09 222.822 16.09 222.94V223.532C16.09 223.638 16.058 223.729 15.994 223.804C15.93 223.868 15.8393 223.9 15.722 223.9H14.81C14.2233 223.9 13.7593 224.07 13.418 224.412C13.0873 224.753 12.922 225.217 12.922 225.804V230.524C12.922 230.63 12.8847 230.721 12.81 230.796C12.7353 230.86 12.6447 230.892 12.538 230.892H11.818ZM17.7056 221.004C17.599 221.004 17.5083 220.972 17.4336 220.908C17.3696 220.833 17.3376 220.742 17.3376 220.636V219.804C17.3376 219.697 17.3696 219.606 17.4336 219.532C17.5083 219.457 17.599 219.42 17.7056 219.42H18.6496C18.7563 219.42 18.847 219.457 18.9216 219.532C18.9963 219.606 19.0336 219.697 19.0336 219.804V220.636C19.0336 220.742 18.9963 220.833 18.9216 220.908C18.847 220.972 18.7563 221.004 18.6496 221.004H17.7056ZM17.8336 230.892C17.727 230.892 17.6363 230.86 17.5616 230.796C17.4976 230.721 17.4656 230.63 17.4656 230.524V222.94C17.4656 222.833 17.4976 222.748 17.5616 222.684C17.6363 222.609 17.727 222.572 17.8336 222.572H18.5376C18.6443 222.572 18.7296 222.609 18.7936 222.684C18.8683 222.748 18.9056 222.833 18.9056 222.94V230.524C18.9056 230.63 18.8683 230.721 18.7936 230.796C18.7296 230.86 18.6443 230.892 18.5376 230.892H17.8336ZM24.2054 230.892C23.928 230.892 23.7307 230.758 23.6134 230.492L20.6374 223.068C20.6267 223.036 20.6214 222.982 20.6214 222.908C20.6214 222.812 20.6534 222.732 20.7174 222.668C20.7814 222.604 20.856 222.572 20.9414 222.572H21.6774C21.848 222.572 21.976 222.657 22.0614 222.828L24.5254 229.212L26.9894 222.828C27.0107 222.764 27.0534 222.705 27.1174 222.652C27.192 222.598 27.2774 222.572 27.3734 222.572H28.1094C28.1947 222.572 28.2694 222.604 28.3334 222.668C28.3974 222.732 28.4294 222.812 28.4294 222.908L28.3974 223.068L25.4374 230.492C25.32 230.758 25.1227 230.892 24.8454 230.892H24.2054ZM32.129 231.052C31.6063 231.052 31.121 230.945 30.673 230.732C30.2357 230.518 29.8837 230.23 29.617 229.868C29.361 229.494 29.233 229.084 29.233 228.636C29.233 227.932 29.521 227.356 30.097 226.908C30.673 226.46 31.457 226.161 32.449 226.012L34.849 225.676V225.212C34.849 224.113 34.2143 223.564 32.945 223.564C32.4543 223.564 32.0597 223.665 31.761 223.868C31.4623 224.06 31.2437 224.289 31.105 224.556C31.0623 224.662 31.0143 224.737 30.961 224.78C30.9183 224.812 30.8543 224.828 30.769 224.828H30.145C30.049 224.828 29.9637 224.796 29.889 224.732C29.825 224.657 29.793 224.572 29.793 224.476C29.793 224.23 29.905 223.948 30.129 223.628C30.3637 223.297 30.721 223.014 31.201 222.78C31.681 222.534 32.2677 222.412 32.961 222.412C34.1557 222.412 35.009 222.689 35.521 223.244C36.0437 223.798 36.305 224.492 36.305 225.324V230.524C36.305 230.63 36.2677 230.721 36.193 230.796C36.129 230.86 36.0437 230.892 35.937 230.892H35.233C35.1263 230.892 35.041 230.86 34.977 230.796C34.913 230.721 34.881 230.63 34.881 230.524V229.82C34.6463 230.172 34.305 230.465 33.857 230.7C33.409 230.934 32.833 231.052 32.129 231.052ZM32.449 229.884C33.153 229.884 33.729 229.654 34.177 229.196C34.625 228.737 34.849 228.07 34.849 227.196V226.748L32.977 227.02C32.209 227.126 31.6277 227.308 31.233 227.564C30.8383 227.82 30.641 228.14 30.641 228.524C30.641 228.961 30.817 229.297 31.169 229.532C31.5317 229.766 31.9583 229.884 32.449 229.884ZM41.9499 231.052C40.8085 231.052 39.9179 230.732 39.2779 230.092C38.6379 229.441 38.3019 228.534 38.2699 227.372L38.2539 226.732L38.2699 226.092C38.3019 224.929 38.6379 224.028 39.2779 223.388C39.9179 222.737 40.8085 222.412 41.9499 222.412C42.7179 222.412 43.3632 222.55 43.8859 222.828C44.4192 223.094 44.8139 223.43 45.0699 223.836C45.3365 224.241 45.4805 224.646 45.5019 225.052C45.5125 225.148 45.4752 225.233 45.3899 225.308C45.3152 225.382 45.2299 225.42 45.1339 225.42H44.4299C44.3232 225.42 44.2432 225.398 44.1899 225.356C44.1365 225.302 44.0832 225.212 44.0299 225.084C43.8379 224.561 43.5712 224.193 43.2299 223.98C42.8992 223.756 42.4779 223.644 41.9659 223.644C41.2939 223.644 40.7605 223.852 40.3659 224.268C39.9712 224.684 39.7579 225.318 39.7259 226.172L39.7099 226.732L39.7259 227.292C39.7579 228.145 39.9712 228.78 40.3659 229.196C40.7605 229.612 41.2939 229.82 41.9659 229.82C42.4885 229.82 42.9152 229.713 43.2459 229.5C43.5765 229.276 43.8379 228.902 44.0299 228.38C44.0832 228.252 44.1365 228.166 44.1899 228.124C44.2432 228.07 44.3232 228.044 44.4299 228.044H45.1339C45.2299 228.044 45.3152 228.081 45.3899 228.156C45.4752 228.23 45.5125 228.316 45.5019 228.412C45.4805 228.806 45.3365 229.206 45.0699 229.612C44.8139 230.017 44.4192 230.358 43.8859 230.636C43.3632 230.913 42.7179 231.052 41.9499 231.052ZM48.6404 233.932C48.5444 233.932 48.4644 233.9 48.4004 233.836C48.3364 233.772 48.3044 233.697 48.3044 233.612C48.3044 233.58 48.331 233.484 48.3844 233.324L49.6324 230.396L46.5764 223.18C46.5124 223.052 46.4804 222.961 46.4804 222.908C46.491 222.812 46.5284 222.732 46.5924 222.668C46.6564 222.604 46.731 222.572 46.8164 222.572H47.5524C47.723 222.572 47.851 222.657 47.9364 222.828L50.4004 228.716L52.9284 222.828C53.0137 222.657 53.1417 222.572 53.3124 222.572H54.0324C54.1177 222.572 54.1924 222.604 54.2564 222.668C54.3204 222.732 54.3524 222.806 54.3524 222.892C54.3524 222.966 54.3257 223.062 54.2724 223.18L49.7444 233.676C49.691 233.761 49.6324 233.825 49.5684 233.868C49.515 233.91 49.4404 233.932 49.3444 233.932H48.6404ZM60.0256 230.892C59.919 230.892 59.8336 230.86 59.7696 230.796C59.7056 230.721 59.6736 230.63 59.6736 230.524V220.076C59.6736 219.958 59.7056 219.868 59.7696 219.804C59.8336 219.729 59.919 219.692 60.0256 219.692H64.0736C65.279 219.692 66.223 219.985 66.9056 220.572C67.599 221.148 67.9456 221.99 67.9456 223.1C67.9456 224.209 67.599 225.052 66.9056 225.628C66.223 226.204 65.279 226.492 64.0736 226.492H61.1936V230.524C61.1936 230.63 61.1563 230.721 61.0816 230.796C61.0176 230.86 60.9323 230.892 60.8256 230.892H60.0256ZM63.9936 225.196C65.6043 225.196 66.4096 224.497 66.4096 223.1C66.4096 222.417 66.207 221.894 65.8016 221.532C65.407 221.169 64.8043 220.988 63.9936 220.988H61.1936V225.196H63.9936ZM72.9823 231.052C71.8089 231.052 70.9023 230.721 70.2623 230.06C69.6329 229.398 69.2969 228.518 69.2543 227.42L69.2383 226.732L69.2543 226.044C69.2969 224.945 69.6383 224.065 70.2783 223.404C70.9289 222.742 71.8303 222.412 72.9823 222.412C74.1343 222.412 75.0303 222.742 75.6703 223.404C76.3209 224.065 76.6676 224.945 76.7103 226.044C76.7316 226.278 76.7423 226.508 76.7423 226.732C76.7423 226.956 76.7316 227.185 76.7103 227.42C76.6676 228.518 76.3263 229.398 75.6863 230.06C75.0569 230.721 74.1556 231.052 72.9823 231.052ZM72.9823 229.852C73.6649 229.852 74.2036 229.638 74.5983 229.212C75.0036 228.774 75.2223 228.15 75.2543 227.34C75.2649 227.233 75.2703 227.03 75.2703 226.732C75.2703 226.433 75.2649 226.23 75.2543 226.124C75.2223 225.313 75.0036 224.694 74.5983 224.268C74.2036 223.83 73.6649 223.612 72.9823 223.612C72.2996 223.612 71.7556 223.83 71.3503 224.268C70.9556 224.694 70.7423 225.313 70.7103 226.124L70.6943 226.732L70.7103 227.34C70.7423 228.15 70.9556 228.774 71.3503 229.212C71.7556 229.638 72.2996 229.852 72.9823 229.852ZM79.1465 230.892C79.0398 230.892 78.9492 230.86 78.8745 230.796C78.8105 230.721 78.7785 230.63 78.7785 230.524V219.9C78.7785 219.782 78.8105 219.692 78.8745 219.628C78.9492 219.564 79.0398 219.532 79.1465 219.532H79.8505C79.9572 219.532 80.0425 219.569 80.1065 219.644C80.1812 219.708 80.2185 219.793 80.2185 219.9V230.524C80.2185 230.63 80.1812 230.721 80.1065 230.796C80.0425 230.86 79.9572 230.892 79.8505 230.892H79.1465ZM82.8619 221.004C82.7552 221.004 82.6645 220.972 82.5899 220.908C82.5259 220.833 82.4939 220.742 82.4939 220.636V219.804C82.4939 219.697 82.5259 219.606 82.5899 219.532C82.6645 219.457 82.7552 219.42 82.8619 219.42H83.8059C83.9125 219.42 84.0032 219.457 84.0779 219.532C84.1525 219.606 84.1899 219.697 84.1899 219.804V220.636C84.1899 220.742 84.1525 220.833 84.0779 220.908C84.0032 220.972 83.9125 221.004 83.8059 221.004H82.8619ZM82.9899 230.892C82.8832 230.892 82.7925 230.86 82.7179 230.796C82.6539 230.721 82.6219 230.63 82.6219 230.524V222.94C82.6219 222.833 82.6539 222.748 82.7179 222.684C82.7925 222.609 82.8832 222.572 82.9899 222.572H83.6939C83.8005 222.572 83.8859 222.609 83.9499 222.684C84.0245 222.748 84.0619 222.833 84.0619 222.94V230.524C84.0619 230.63 84.0245 230.721 83.9499 230.796C83.8859 230.86 83.8005 230.892 83.6939 230.892H82.9899ZM89.7936 231.052C88.6523 231.052 87.7616 230.732 87.1216 230.092C86.4816 229.441 86.1456 228.534 86.1136 227.372L86.0976 226.732L86.1136 226.092C86.1456 224.929 86.4816 224.028 87.1216 223.388C87.7616 222.737 88.6523 222.412 89.7936 222.412C90.5616 222.412 91.207 222.55 91.7296 222.828C92.263 223.094 92.6576 223.43 92.9136 223.836C93.1803 224.241 93.3243 224.646 93.3456 225.052C93.3563 225.148 93.319 225.233 93.2336 225.308C93.159 225.382 93.0736 225.42 92.9776 225.42H92.2736C92.167 225.42 92.087 225.398 92.0336 225.356C91.9803 225.302 91.927 225.212 91.8736 225.084C91.6816 224.561 91.415 224.193 91.0736 223.98C90.743 223.756 90.3216 223.644 89.8096 223.644C89.1376 223.644 88.6043 223.852 88.2096 224.268C87.815 224.684 87.6016 225.318 87.5696 226.172L87.5536 226.732L87.5696 227.292C87.6016 228.145 87.815 228.78 88.2096 229.196C88.6043 229.612 89.1376 229.82 89.8096 229.82C90.3323 229.82 90.759 229.713 91.0896 229.5C91.4203 229.276 91.6816 228.902 91.8736 228.38C91.927 228.252 91.9803 228.166 92.0336 228.124C92.087 228.07 92.167 228.044 92.2736 228.044H92.9776C93.0736 228.044 93.159 228.081 93.2336 228.156C93.319 228.23 93.3563 228.316 93.3456 228.412C93.3243 228.806 93.1803 229.206 92.9136 229.612C92.6576 230.017 92.263 230.358 91.7296 230.636C91.207 230.913 90.5616 231.052 89.7936 231.052ZM96.4841 233.932C96.3881 233.932 96.3081 233.9 96.2441 233.836C96.1801 233.772 96.1481 233.697 96.1481 233.612C96.1481 233.58 96.1748 233.484 96.2281 233.324L97.4761 230.396L94.4201 223.18C94.3561 223.052 94.3241 222.961 94.3241 222.908C94.3348 222.812 94.3721 222.732 94.4361 222.668C94.5001 222.604 94.5748 222.572 94.6601 222.572H95.3961C95.5668 222.572 95.6948 222.657 95.7801 222.828L98.2441 228.716L100.772 222.828C100.857 222.657 100.985 222.572 101.156 222.572H101.876C101.961 222.572 102.036 222.604 102.1 222.668C102.164 222.732 102.196 222.806 102.196 222.892C102.196 222.966 102.169 223.062 102.116 223.18L97.5881 233.676C97.5348 233.761 97.4761 233.825 97.4121 233.868C97.3588 233.91 97.2841 233.932 97.1881 233.932H96.4841Z" fill="#4F5665"/>
<path d="M4.224 270.892C4.11733 270.892 4.02667 270.86 3.952 270.796C3.888 270.721 3.856 270.63 3.856 270.524V261.068H0.768C0.661333 261.068 0.570667 261.036 0.496 260.972C0.432 260.897 0.4 260.806 0.4 260.7V260.076C0.4 259.958 0.432 259.868 0.496 259.804C0.570667 259.729 0.661333 259.692 0.768 259.692H8.448C8.56533 259.692 8.656 259.729 8.72 259.804C8.784 259.868 8.816 259.958 8.816 260.076V260.7C8.816 260.806 8.77867 260.897 8.704 260.972C8.64 261.036 8.55467 261.068 8.448 261.068H5.376V270.524C5.376 270.63 5.33867 270.721 5.264 270.796C5.18933 270.86 5.09867 270.892 4.992 270.892H4.224ZM12.1991 271.052C11.1111 271.052 10.2418 270.716 9.59113 270.044C8.94046 269.361 8.58313 268.433 8.51913 267.26L8.50313 266.716L8.51913 266.188C8.58313 265.036 8.94046 264.118 9.59113 263.436C10.2418 262.753 11.1111 262.412 12.1991 262.412C13.3725 262.412 14.2791 262.785 14.9191 263.532C15.5698 264.278 15.8951 265.292 15.8951 266.572V266.86C15.8951 266.966 15.8578 267.057 15.7831 267.132C15.7191 267.196 15.6338 267.228 15.5271 267.228H9.97513V267.372C10.0071 268.065 10.2205 268.657 10.6151 269.148C11.0098 269.638 11.5325 269.884 12.1831 269.884C12.6845 269.884 13.0898 269.788 13.3991 269.596C13.7191 269.393 13.9591 269.185 14.1191 268.972C14.2151 268.844 14.2898 268.769 14.3431 268.748C14.3965 268.716 14.4871 268.7 14.6151 268.7H15.3191C15.4151 268.7 15.4951 268.726 15.5591 268.78C15.6338 268.833 15.6711 268.902 15.6711 268.988C15.6711 269.222 15.5271 269.505 15.2391 269.836C14.9511 270.166 14.5405 270.454 14.0071 270.7C13.4845 270.934 12.8818 271.052 12.1991 271.052ZM14.4391 266.14V266.092C14.4391 265.345 14.2365 264.737 13.8311 264.268C13.4258 263.798 12.8818 263.564 12.1991 263.564C11.5058 263.564 10.9618 263.798 10.5671 264.268C10.1725 264.737 9.97513 265.345 9.97513 266.092V266.14H14.4391ZM18.2086 270.892C18.102 270.892 18.0113 270.86 17.9366 270.796C17.8726 270.721 17.8406 270.63 17.8406 270.524V262.956C17.8406 262.849 17.8726 262.758 17.9366 262.684C18.0113 262.609 18.102 262.572 18.2086 262.572H18.8806C18.998 262.572 19.0886 262.609 19.1526 262.684C19.2273 262.748 19.2646 262.838 19.2646 262.956V263.66C19.702 262.934 20.4433 262.572 21.4886 262.572H22.1126C22.23 262.572 22.3206 262.604 22.3846 262.668C22.4486 262.732 22.4806 262.822 22.4806 262.94V263.532C22.4806 263.638 22.4486 263.729 22.3846 263.804C22.3206 263.868 22.23 263.9 22.1126 263.9H21.2006C20.614 263.9 20.15 264.07 19.8086 264.412C19.478 264.753 19.3126 265.217 19.3126 265.804V270.524C19.3126 270.63 19.2753 270.721 19.2006 270.796C19.126 270.86 19.0353 270.892 18.9286 270.892H18.2086ZM24.2243 270.892C24.1176 270.892 24.0269 270.86 23.9523 270.796C23.8883 270.721 23.8563 270.63 23.8563 270.524V262.94C23.8563 262.833 23.8883 262.748 23.9523 262.684C24.0269 262.609 24.1176 262.572 24.2243 262.572H24.8963C25.0029 262.572 25.0883 262.609 25.1523 262.684C25.2163 262.748 25.2483 262.833 25.2483 262.94V263.484C25.8243 262.769 26.6029 262.412 27.5843 262.412C28.7576 262.412 29.5896 262.902 30.0803 263.884C30.3363 263.436 30.6989 263.078 31.1683 262.812C31.6483 262.545 32.1816 262.412 32.7683 262.412C33.6429 262.412 34.3576 262.71 34.9123 263.308C35.4669 263.905 35.7443 264.769 35.7443 265.9V270.524C35.7443 270.63 35.7069 270.721 35.6323 270.796C35.5683 270.86 35.4829 270.892 35.3763 270.892H34.6883C34.5816 270.892 34.4909 270.86 34.4163 270.796C34.3523 270.721 34.3203 270.63 34.3203 270.524V266.044C34.3203 265.19 34.1443 264.582 33.7923 264.22C33.4403 263.846 32.9763 263.66 32.4003 263.66C31.8883 263.66 31.4456 263.852 31.0723 264.236C30.7096 264.609 30.5283 265.212 30.5283 266.044V270.524C30.5283 270.63 30.4909 270.721 30.4163 270.796C30.3523 270.86 30.2669 270.892 30.1603 270.892H29.4563C29.3496 270.892 29.2589 270.86 29.1843 270.796C29.1203 270.721 29.0883 270.63 29.0883 270.524V266.044C29.0883 265.201 28.9016 264.593 28.5283 264.22C28.1656 263.846 27.7123 263.66 27.1683 263.66C26.6563 263.66 26.2136 263.846 25.8403 264.22C25.4776 264.593 25.2963 265.196 25.2963 266.028V270.524C25.2963 270.63 25.2589 270.721 25.1843 270.796C25.1203 270.86 25.0349 270.892 24.9283 270.892H24.2243ZM40.9074 271.052C40.1714 271.052 39.5474 270.934 39.0354 270.7C38.534 270.454 38.1607 270.177 37.9154 269.868C37.67 269.558 37.5474 269.302 37.5474 269.1C37.5474 268.993 37.5847 268.913 37.6594 268.86C37.734 268.796 37.814 268.764 37.8994 268.764H38.5714C38.6354 268.764 38.6834 268.774 38.7154 268.796C38.758 268.817 38.8114 268.865 38.8754 268.94C39.1207 269.238 39.3927 269.473 39.6914 269.644C40.0007 269.814 40.4114 269.9 40.9234 269.9C41.4994 269.9 41.958 269.793 42.2994 269.58C42.6514 269.366 42.8274 269.057 42.8274 268.652C42.8274 268.385 42.7527 268.172 42.6034 268.012C42.454 267.852 42.2034 267.708 41.8514 267.58C41.51 267.452 40.998 267.313 40.3154 267.164C39.3874 266.961 38.7314 266.668 38.3474 266.284C37.9634 265.9 37.7714 265.404 37.7714 264.796C37.7714 264.401 37.8887 264.022 38.1234 263.66C38.358 263.286 38.7047 262.988 39.1634 262.764C39.6327 262.529 40.1874 262.412 40.8274 262.412C41.4994 262.412 42.07 262.524 42.5394 262.748C43.0194 262.972 43.3767 263.233 43.6114 263.532C43.8567 263.83 43.9794 264.081 43.9794 264.284C43.9794 264.38 43.942 264.46 43.8674 264.524C43.8034 264.588 43.7234 264.62 43.6274 264.62H43.0194C42.87 264.62 42.7634 264.561 42.6994 264.444C42.518 264.241 42.3634 264.086 42.2354 263.98C42.118 263.862 41.942 263.766 41.7074 263.692C41.4727 263.606 41.1794 263.564 40.8274 263.564C40.3047 263.564 39.9047 263.676 39.6274 263.9C39.35 264.113 39.2114 264.401 39.2114 264.764C39.2114 264.988 39.27 265.18 39.3874 265.34C39.5047 265.489 39.7287 265.633 40.0594 265.772C40.39 265.9 40.8807 266.033 41.5314 266.172C42.5447 266.385 43.2594 266.689 43.6754 267.084C44.102 267.478 44.3154 267.985 44.3154 268.604C44.3154 269.062 44.182 269.478 43.9154 269.852C43.6594 270.225 43.27 270.518 42.7474 270.732C42.2354 270.945 41.622 271.052 40.9074 271.052ZM53.4979 271.052C52.3245 271.052 51.4179 270.721 50.7779 270.06C50.1485 269.398 49.8125 268.518 49.7699 267.42L49.7539 266.732L49.7699 266.044C49.8125 264.945 50.1539 264.065 50.7939 263.404C51.4445 262.742 52.3459 262.412 53.4979 262.412C54.6499 262.412 55.5459 262.742 56.1859 263.404C56.8365 264.065 57.1832 264.945 57.2259 266.044C57.2472 266.278 57.2579 266.508 57.2579 266.732C57.2579 266.956 57.2472 267.185 57.2259 267.42C57.1832 268.518 56.8419 269.398 56.2019 270.06C55.5725 270.721 54.6712 271.052 53.4979 271.052ZM53.4979 269.852C54.1805 269.852 54.7192 269.638 55.1139 269.212C55.5192 268.774 55.7379 268.15 55.7699 267.34C55.7805 267.233 55.7859 267.03 55.7859 266.732C55.7859 266.433 55.7805 266.23 55.7699 266.124C55.7379 265.313 55.5192 264.694 55.1139 264.268C54.7192 263.83 54.1805 263.612 53.4979 263.612C52.8152 263.612 52.2712 263.83 51.8659 264.268C51.4712 264.694 51.2579 265.313 51.2259 266.124L51.2099 266.732L51.2259 267.34C51.2579 268.15 51.4712 268.774 51.8659 269.212C52.2712 269.638 52.8152 269.852 53.4979 269.852ZM60.3844 270.892C60.2777 270.892 60.187 270.86 60.1124 270.796C60.0484 270.721 60.0164 270.63 60.0164 270.524V263.804H58.6404C58.5337 263.804 58.443 263.772 58.3684 263.708C58.3044 263.644 58.2724 263.558 58.2724 263.452V262.94C58.2724 262.833 58.3044 262.748 58.3684 262.684C58.443 262.609 58.5337 262.572 58.6404 262.572H60.0164V261.772C60.0164 260.908 60.2244 260.241 60.6404 259.772C61.067 259.292 61.7604 259.052 62.7204 259.052H63.6644C63.771 259.052 63.8564 259.089 63.9204 259.164C63.995 259.228 64.0324 259.313 64.0324 259.42V259.932C64.0324 260.038 63.995 260.124 63.9204 260.188C63.8564 260.252 63.771 260.284 63.6644 260.284H62.7524C62.2617 260.284 61.9204 260.412 61.7284 260.668C61.5364 260.924 61.4404 261.318 61.4404 261.852V262.572H63.5044C63.611 262.572 63.6964 262.609 63.7604 262.684C63.835 262.748 63.8724 262.833 63.8724 262.94V263.452C63.8724 263.558 63.835 263.644 63.7604 263.708C63.6964 263.772 63.611 263.804 63.5044 263.804H61.4404V270.524C61.4404 270.63 61.403 270.721 61.3284 270.796C61.2644 270.86 61.179 270.892 61.0724 270.892H60.3844ZM72.6479 271.052C71.7732 271.052 71.0105 270.913 70.3599 270.636C69.7199 270.358 69.2292 269.996 68.8879 269.548C68.5572 269.089 68.3812 268.598 68.3599 268.076C68.3599 267.99 68.3919 267.916 68.4559 267.852C68.5199 267.788 68.5999 267.756 68.6959 267.756H69.4799C69.6719 267.756 69.8052 267.862 69.8799 268.076C69.9759 268.524 70.2479 268.913 70.6959 269.244C71.1545 269.564 71.8052 269.724 72.6479 269.724C73.5545 269.724 74.2319 269.564 74.6799 269.244C75.1279 268.924 75.3519 268.481 75.3519 267.916C75.3519 267.553 75.2399 267.254 75.0159 267.02C74.8025 266.785 74.4772 266.582 74.0399 266.412C73.6132 266.23 72.9679 266.012 72.1039 265.756C71.2825 265.521 70.6265 265.27 70.1359 265.004C69.6559 264.737 69.2932 264.412 69.0479 264.028C68.8025 263.633 68.6799 263.137 68.6799 262.54C68.6799 261.964 68.8345 261.452 69.1439 261.004C69.4532 260.545 69.9012 260.188 70.4879 259.932C71.0745 259.665 71.7679 259.532 72.5679 259.532C73.3999 259.532 74.1092 259.681 74.6959 259.98C75.2932 260.268 75.7465 260.636 76.0559 261.084C76.3652 261.521 76.5305 261.964 76.5519 262.412C76.5519 262.508 76.5199 262.588 76.4559 262.652C76.3919 262.716 76.3119 262.748 76.2159 262.748H75.4159C75.3305 262.748 75.2505 262.721 75.1759 262.668C75.1012 262.614 75.0479 262.534 75.0159 262.428C74.9519 261.969 74.6959 261.59 74.2479 261.292C73.7999 260.993 73.2399 260.844 72.5679 260.844C71.8425 260.844 71.2665 260.988 70.8399 261.276C70.4132 261.553 70.1999 261.969 70.1999 262.524C70.1999 262.897 70.2959 263.201 70.4879 263.436C70.6905 263.67 70.9945 263.878 71.3999 264.06C71.8159 264.241 72.4185 264.449 73.2079 264.684C74.1145 264.94 74.8239 265.196 75.3359 265.452C75.8585 265.708 76.2479 266.028 76.5039 266.412C76.7599 266.785 76.8879 267.27 76.8879 267.868C76.8879 268.87 76.5039 269.654 75.7359 270.22C74.9785 270.774 73.9492 271.052 72.6479 271.052ZM82.0898 271.052C81.0018 271.052 80.1324 270.716 79.4818 270.044C78.8311 269.361 78.4738 268.433 78.4098 267.26L78.3938 266.716L78.4098 266.188C78.4738 265.036 78.8311 264.118 79.4818 263.436C80.1324 262.753 81.0018 262.412 82.0898 262.412C83.2631 262.412 84.1698 262.785 84.8098 263.532C85.4604 264.278 85.7858 265.292 85.7858 266.572V266.86C85.7858 266.966 85.7484 267.057 85.6737 267.132C85.6098 267.196 85.5244 267.228 85.4178 267.228H79.8658V267.372C79.8978 268.065 80.1111 268.657 80.5058 269.148C80.9004 269.638 81.4231 269.884 82.0738 269.884C82.5751 269.884 82.9804 269.788 83.2898 269.596C83.6098 269.393 83.8498 269.185 84.0098 268.972C84.1058 268.844 84.1804 268.769 84.2338 268.748C84.2871 268.716 84.3778 268.7 84.5058 268.7H85.2098C85.3058 268.7 85.3858 268.726 85.4498 268.78C85.5244 268.833 85.5618 268.902 85.5618 268.988C85.5618 269.222 85.4178 269.505 85.1298 269.836C84.8418 270.166 84.4311 270.454 83.8978 270.7C83.3751 270.934 82.7724 271.052 82.0898 271.052ZM84.3298 266.14V266.092C84.3298 265.345 84.1271 264.737 83.7218 264.268C83.3164 263.798 82.7724 263.564 82.0898 263.564C81.3964 263.564 80.8524 263.798 80.4578 264.268C80.0631 264.737 79.8658 265.345 79.8658 266.092V266.14H84.3298ZM88.0993 270.892C87.9926 270.892 87.9019 270.86 87.8273 270.796C87.7633 270.721 87.7313 270.63 87.7313 270.524V262.956C87.7313 262.849 87.7633 262.758 87.8273 262.684C87.9019 262.609 87.9926 262.572 88.0993 262.572H88.7713C88.8886 262.572 88.9793 262.609 89.0433 262.684C89.1179 262.748 89.1553 262.838 89.1553 262.956V263.66C89.5926 262.934 90.3339 262.572 91.3793 262.572H92.0033C92.1206 262.572 92.2113 262.604 92.2753 262.668C92.3393 262.732 92.3713 262.822 92.3713 262.94V263.532C92.3713 263.638 92.3393 263.729 92.2753 263.804C92.2113 263.868 92.1206 263.9 92.0033 263.9H91.0913C90.5046 263.9 90.0406 264.07 89.6993 264.412C89.3686 264.753 89.2033 265.217 89.2033 265.804V270.524C89.2033 270.63 89.1659 270.721 89.0913 270.796C89.0166 270.86 88.9259 270.892 88.8193 270.892H88.0993ZM96.6429 270.892C96.3655 270.892 96.1682 270.758 96.0509 270.492L93.0749 263.068C93.0642 263.036 93.0589 262.982 93.0589 262.908C93.0589 262.812 93.0909 262.732 93.1549 262.668C93.2189 262.604 93.2935 262.572 93.3789 262.572H94.1149C94.2855 262.572 94.4135 262.657 94.4989 262.828L96.9629 269.212L99.4269 262.828C99.4482 262.764 99.4909 262.705 99.5549 262.652C99.6295 262.598 99.7149 262.572 99.8109 262.572H100.547C100.632 262.572 100.707 262.604 100.771 262.668C100.835 262.732 100.867 262.812 100.867 262.908L100.835 263.068L97.8749 270.492C97.7575 270.758 97.5602 270.892 97.2829 270.892H96.6429ZM102.815 261.004C102.708 261.004 102.618 260.972 102.543 260.908C102.479 260.833 102.447 260.742 102.447 260.636V259.804C102.447 259.697 102.479 259.606 102.543 259.532C102.618 259.457 102.708 259.42 102.815 259.42H103.759C103.866 259.42 103.956 259.457 104.031 259.532C104.106 259.606 104.143 259.697 104.143 259.804V260.636C104.143 260.742 104.106 260.833 104.031 260.908C103.956 260.972 103.866 261.004 103.759 261.004H102.815ZM102.943 270.892C102.836 270.892 102.746 270.86 102.671 270.796C102.607 270.721 102.575 270.63 102.575 270.524V262.94C102.575 262.833 102.607 262.748 102.671 262.684C102.746 262.609 102.836 262.572 102.943 262.572H103.647C103.754 262.572 103.839 262.609 103.903 262.684C103.978 262.748 104.015 262.833 104.015 262.94V270.524C104.015 270.63 103.978 270.721 103.903 270.796C103.839 270.86 103.754 270.892 103.647 270.892H102.943ZM109.747 271.052C108.605 271.052 107.715 270.732 107.075 270.092C106.435 269.441 106.099 268.534 106.067 267.372L106.051 266.732L106.067 266.092C106.099 264.929 106.435 264.028 107.075 263.388C107.715 262.737 108.605 262.412 109.747 262.412C110.515 262.412 111.16 262.55 111.683 262.828C112.216 263.094 112.611 263.43 112.867 263.836C113.133 264.241 113.277 264.646 113.299 265.052C113.309 265.148 113.272 265.233 113.187 265.308C113.112 265.382 113.027 265.42 112.931 265.42H112.227C112.12 265.42 112.04 265.398 111.987 265.356C111.933 265.302 111.88 265.212 111.827 265.084C111.635 264.561 111.368 264.193 111.027 263.98C110.696 263.756 110.275 263.644 109.763 263.644C109.091 263.644 108.557 263.852 108.163 264.268C107.768 264.684 107.555 265.318 107.523 266.172L107.507 266.732L107.523 267.292C107.555 268.145 107.768 268.78 108.163 269.196C108.557 269.612 109.091 269.82 109.763 269.82C110.285 269.82 110.712 269.713 111.043 269.5C111.373 269.276 111.635 268.902 111.827 268.38C111.88 268.252 111.933 268.166 111.987 268.124C112.04 268.07 112.12 268.044 112.227 268.044H112.931C113.027 268.044 113.112 268.081 113.187 268.156C113.272 268.23 113.309 268.316 113.299 268.412C113.277 268.806 113.133 269.206 112.867 269.612C112.611 270.017 112.216 270.358 111.683 270.636C111.16 270.913 110.515 271.052 109.747 271.052ZM118.512 271.052C117.424 271.052 116.554 270.716 115.904 270.044C115.253 269.361 114.896 268.433 114.832 267.26L114.816 266.716L114.832 266.188C114.896 265.036 115.253 264.118 115.904 263.436C116.554 262.753 117.424 262.412 118.512 262.412C119.685 262.412 120.592 262.785 121.232 263.532C121.882 264.278 122.208 265.292 122.208 266.572V266.86C122.208 266.966 122.17 267.057 122.096 267.132C122.032 267.196 121.946 267.228 121.84 267.228H116.288V267.372C116.32 268.065 116.533 268.657 116.928 269.148C117.322 269.638 117.845 269.884 118.496 269.884C118.997 269.884 119.402 269.788 119.712 269.596C120.032 269.393 120.272 269.185 120.432 268.972C120.528 268.844 120.602 268.769 120.656 268.748C120.709 268.716 120.8 268.7 120.928 268.7H121.632C121.728 268.7 121.808 268.726 121.872 268.78C121.946 268.833 121.984 268.902 121.984 268.988C121.984 269.222 121.84 269.505 121.552 269.836C121.264 270.166 120.853 270.454 120.32 270.7C119.797 270.934 119.194 271.052 118.512 271.052ZM120.752 266.14V266.092C120.752 265.345 120.549 264.737 120.144 264.268C119.738 263.798 119.194 263.564 118.512 263.564C117.818 263.564 117.274 263.798 116.88 264.268C116.485 264.737 116.288 265.345 116.288 266.092V266.14H120.752Z" fill="#4F5665"/>
</svg>
