<svg width="191" height="190" viewBox="0 0 191 190" fill="none" xmlns="http://www.w3.org/2000/svg">
<path d="M46.0804 60C45.9871 60 45.9124 59.972 45.8564 59.916C45.8004 59.8507 45.7724 59.7713 45.7724 59.678V50.536C45.7724 50.4333 45.8004 50.354 45.8564 50.298C45.9124 50.2327 45.9871 50.2 46.0804 50.2H51.8344C51.9371 50.2 52.0164 50.2327 52.0724 50.298C52.1377 50.354 52.1704 50.4333 52.1704 50.536V51.04C52.1704 51.1333 52.1377 51.208 52.0724 51.264C52.0164 51.32 51.9371 51.348 51.8344 51.348H47.0604V54.47H51.5264C51.6291 54.47 51.7084 54.5027 51.7644 54.568C51.8297 54.624 51.8624 54.7033 51.8624 54.806V55.282C51.8624 55.3753 51.8297 55.4547 51.7644 55.52C51.7084 55.576 51.6291 55.604 51.5264 55.604H47.0604V58.838H51.9464C52.0491 58.838 52.1284 58.8707 52.1844 58.936C52.2497 58.992 52.2824 59.0713 52.2824 59.174V59.678C52.2824 59.7713 52.2497 59.8507 52.1844 59.916C52.1191 59.972 52.0397 60 51.9464 60H46.0804ZM54.389 60C54.2956 60 54.2163 59.972 54.151 59.916C54.095 59.8507 54.067 59.7713 54.067 59.678V53.042C54.067 52.9487 54.095 52.874 54.151 52.818C54.2163 52.7527 54.2956 52.72 54.389 52.72H54.991C55.0936 52.72 55.173 52.748 55.229 52.804C55.285 52.86 55.313 52.9393 55.313 53.042V53.658C55.593 53.3127 55.915 53.0467 56.279 52.86C56.6523 52.6733 57.1143 52.58 57.665 52.58C58.561 52.58 59.2563 52.8693 59.751 53.448C60.2456 54.0173 60.493 54.7733 60.493 55.716V59.678C60.493 59.7713 60.4603 59.8507 60.395 59.916C60.339 59.972 60.2643 60 60.171 60H59.527C59.4336 60 59.3543 59.972 59.289 59.916C59.233 59.8507 59.205 59.7713 59.205 59.678V55.8C59.205 55.128 59.0416 54.6053 58.715 54.232C58.3883 53.8587 57.9216 53.672 57.315 53.672C56.7176 53.672 56.2416 53.8633 55.887 54.246C55.5323 54.6193 55.355 55.1373 55.355 55.8V59.678C55.355 59.7713 55.3223 59.8507 55.257 59.916C55.201 59.972 55.1263 60 55.033 60H54.389ZM65.4282 60.14C64.4295 60.14 63.6502 59.86 63.0902 59.3C62.5302 58.7307 62.2362 57.9373 62.2082 56.92L62.1942 56.36L62.2082 55.8C62.2362 54.7827 62.5302 53.994 63.0902 53.434C63.6502 52.8647 64.4295 52.58 65.4282 52.58C66.1002 52.58 66.6649 52.7013 67.1222 52.944C67.5889 53.1773 67.9342 53.4713 68.1582 53.826C68.3915 54.1807 68.5175 54.5353 68.5362 54.89C68.5455 54.974 68.5129 55.0487 68.4382 55.114C68.3729 55.1793 68.2982 55.212 68.2142 55.212H67.5982C67.5049 55.212 67.4349 55.1933 67.3882 55.156C67.3415 55.1093 67.2949 55.03 67.2482 54.918C67.0802 54.4607 66.8469 54.1387 66.5482 53.952C66.2589 53.756 65.8902 53.658 65.4422 53.658C64.8542 53.658 64.3875 53.84 64.0422 54.204C63.6969 54.568 63.5102 55.1233 63.4822 55.87L63.4682 56.36L63.4822 56.85C63.5102 57.5967 63.6969 58.152 64.0422 58.516C64.3875 58.88 64.8542 59.062 65.4422 59.062C65.8995 59.062 66.2729 58.9687 66.5622 58.782C66.8515 58.586 67.0802 58.2593 67.2482 57.802C67.2949 57.69 67.3415 57.6153 67.3882 57.578C67.4349 57.5313 67.5049 57.508 67.5982 57.508H68.2142C68.2982 57.508 68.3729 57.5407 68.4382 57.606C68.5129 57.6713 68.5455 57.746 68.5362 57.83C68.5175 58.1753 68.3915 58.5253 68.1582 58.88C67.9342 59.2347 67.5889 59.5333 67.1222 59.776C66.6649 60.0187 66.1002 60.14 65.4282 60.14ZM70.5355 60C70.4421 60 70.3628 59.972 70.2975 59.916C70.2415 59.8507 70.2135 59.7713 70.2135 59.678V53.056C70.2135 52.9627 70.2415 52.8833 70.2975 52.818C70.3628 52.7527 70.4421 52.72 70.5355 52.72H71.1235C71.2261 52.72 71.3055 52.7527 71.3615 52.818C71.4268 52.874 71.4595 52.9533 71.4595 53.056V53.672C71.8421 53.0373 72.4908 52.72 73.4055 52.72H73.9515C74.0541 52.72 74.1335 52.748 74.1895 52.804C74.2455 52.86 74.2735 52.9393 74.2735 53.042V53.56C74.2735 53.6533 74.2455 53.7327 74.1895 53.798C74.1335 53.854 74.0541 53.882 73.9515 53.882H73.1535C72.6401 53.882 72.2341 54.0313 71.9355 54.33C71.6461 54.6287 71.5015 55.0347 71.5015 55.548V59.678C71.5015 59.7713 71.4688 59.8507 71.4035 59.916C71.3381 59.972 71.2588 60 71.1655 60H70.5355ZM76.7511 62.66C76.6671 62.66 76.5971 62.632 76.5411 62.576C76.4851 62.52 76.4571 62.4547 76.4571 62.38C76.4571 62.352 76.4805 62.268 76.5271 62.128L77.6191 59.566L74.9451 53.252C74.8891 53.14 74.8611 53.0607 74.8611 53.014C74.8705 52.93 74.9031 52.86 74.9591 52.804C75.0151 52.748 75.0805 52.72 75.1551 52.72H75.7991C75.9485 52.72 76.0605 52.7947 76.1351 52.944L78.2911 58.096L80.5031 52.944C80.5778 52.7947 80.6898 52.72 80.8391 52.72H81.4691C81.5438 52.72 81.6091 52.748 81.6651 52.804C81.7211 52.86 81.7491 52.9253 81.7491 53C81.7491 53.0653 81.7258 53.1493 81.6791 53.252L77.7171 62.436C77.6705 62.5107 77.6191 62.5667 77.5631 62.604C77.5165 62.6413 77.4511 62.66 77.3671 62.66H76.7511ZM83.4967 62.66C83.4034 62.66 83.3241 62.632 83.2587 62.576C83.2027 62.52 83.1747 62.4407 83.1747 62.338V53.042C83.1747 52.9393 83.2027 52.86 83.2587 52.804C83.3241 52.748 83.4034 52.72 83.4967 52.72H84.0847C84.1874 52.72 84.2667 52.748 84.3227 52.804C84.3787 52.86 84.4067 52.9393 84.4067 53.042V53.658C84.9481 52.9393 85.7181 52.58 86.7167 52.58C87.6967 52.58 88.4294 52.8927 88.9147 53.518C89.4094 54.134 89.6707 54.9227 89.6987 55.884C89.7081 55.9867 89.7127 56.1453 89.7127 56.36C89.7127 56.5747 89.7081 56.7333 89.6987 56.836C89.6707 57.788 89.4094 58.5767 88.9147 59.202C88.4294 59.8273 87.6967 60.14 86.7167 60.14C85.7181 60.14 84.9621 59.7853 84.4487 59.076V62.338C84.4487 62.4313 84.4161 62.506 84.3507 62.562C84.2947 62.6273 84.2201 62.66 84.1267 62.66H83.4967ZM86.4507 59.048C87.1227 59.048 87.6127 58.838 87.9207 58.418C88.2287 57.998 88.3967 57.4473 88.4247 56.766C88.4341 56.6727 88.4387 56.5373 88.4387 56.36C88.4387 54.568 87.7761 53.672 86.4507 53.672C85.7974 53.672 85.3027 53.8913 84.9667 54.33C84.6401 54.7593 84.4674 55.268 84.4487 55.856C84.4394 55.9587 84.4347 56.1407 84.4347 56.402C84.4347 56.6633 84.4394 56.8453 84.4487 56.948C84.4674 57.5173 84.6447 58.012 84.9807 58.432C85.3261 58.8427 85.8161 59.048 86.4507 59.048ZM94.1912 60C92.7445 60 92.0212 59.1833 92.0212 57.55V53.798H90.9152C90.8219 53.798 90.7472 53.77 90.6912 53.714C90.6352 53.658 90.6072 53.5833 90.6072 53.49V53.042C90.6072 52.9487 90.6352 52.874 90.6912 52.818C90.7472 52.7527 90.8219 52.72 90.9152 52.72H92.0212V50.382C92.0212 50.2887 92.0492 50.214 92.1052 50.158C92.1612 50.0927 92.2359 50.06 92.3292 50.06H92.9452C93.0385 50.06 93.1132 50.0927 93.1692 50.158C93.2345 50.214 93.2672 50.2887 93.2672 50.382V52.72H95.0032C95.0965 52.72 95.1712 52.7527 95.2272 52.818C95.2925 52.874 95.3252 52.9487 95.3252 53.042V53.49C95.3252 53.5833 95.2925 53.658 95.2272 53.714C95.1712 53.77 95.0965 53.798 95.0032 53.798H93.2672V57.452C93.2672 57.928 93.3419 58.2873 93.4912 58.53C93.6499 58.7727 93.9159 58.894 94.2892 58.894H95.1432C95.2365 58.894 95.3112 58.9267 95.3672 58.992C95.4232 59.048 95.4512 59.1227 95.4512 59.216V59.678C95.4512 59.7713 95.4232 59.8507 95.3672 59.916C95.3112 59.972 95.2365 60 95.1432 60H94.1912ZM99.7029 60.14C98.7509 60.14 97.9903 59.846 97.4209 59.258C96.8516 58.6607 96.5389 57.8487 96.4829 56.822L96.4689 56.346L96.4829 55.884C96.5389 54.876 96.8516 54.0733 97.4209 53.476C97.9903 52.8787 98.7509 52.58 99.7029 52.58C100.73 52.58 101.523 52.9067 102.083 53.56C102.652 54.2133 102.937 55.1 102.937 56.22V56.472C102.937 56.5653 102.904 56.6447 102.839 56.71C102.783 56.766 102.708 56.794 102.615 56.794H97.7569V56.92C97.7849 57.5267 97.9716 58.0447 98.3169 58.474C98.6623 58.9033 99.1196 59.118 99.6889 59.118C100.128 59.118 100.482 59.034 100.753 58.866C101.033 58.6887 101.243 58.5067 101.383 58.32C101.467 58.208 101.532 58.1427 101.579 58.124C101.626 58.096 101.705 58.082 101.817 58.082H102.433C102.517 58.082 102.587 58.1053 102.643 58.152C102.708 58.1987 102.741 58.2593 102.741 58.334C102.741 58.5393 102.615 58.7867 102.363 59.076C102.111 59.3653 101.752 59.6173 101.285 59.832C100.828 60.0373 100.3 60.14 99.7029 60.14ZM101.663 55.842V55.8C101.663 55.1467 101.486 54.6147 101.131 54.204C100.776 53.7933 100.3 53.588 99.7029 53.588C99.0963 53.588 98.6203 53.7933 98.2749 54.204C97.9296 54.6147 97.7569 55.1467 97.7569 55.8V55.842H101.663ZM107.299 60.14C106.319 60.14 105.582 59.8227 105.087 59.188C104.602 58.5533 104.341 57.7507 104.303 56.78L104.289 56.36L104.303 55.94C104.341 54.9787 104.607 54.1807 105.101 53.546C105.596 52.902 106.329 52.58 107.299 52.58C108.27 52.58 109.026 52.9253 109.567 53.616V50.382C109.567 50.2887 109.595 50.214 109.651 50.158C109.717 50.0927 109.796 50.06 109.889 50.06H110.519C110.613 50.06 110.687 50.0927 110.743 50.158C110.809 50.214 110.841 50.2887 110.841 50.382V59.678C110.841 59.7713 110.809 59.8507 110.743 59.916C110.687 59.972 110.613 60 110.519 60H109.917C109.824 60 109.749 59.972 109.693 59.916C109.637 59.8507 109.609 59.7713 109.609 59.678V59.076C109.077 59.7853 108.307 60.14 107.299 60.14ZM107.565 59.048C108.219 59.048 108.709 58.8333 109.035 58.404C109.362 57.9653 109.539 57.4473 109.567 56.85C109.577 56.7473 109.581 56.57 109.581 56.318C109.581 56.0567 109.577 55.8747 109.567 55.772C109.549 55.2027 109.367 54.7127 109.021 54.302C108.685 53.882 108.2 53.672 107.565 53.672C106.893 53.672 106.403 53.882 106.095 54.302C105.787 54.722 105.619 55.2727 105.591 55.954L105.577 56.36C105.577 58.152 106.24 59.048 107.565 59.048ZM120.079 60.14C118.838 60.14 117.89 59.804 117.237 59.132C116.593 58.4507 116.248 57.522 116.201 56.346C116.192 56.094 116.187 55.6833 116.187 55.114C116.187 54.5353 116.192 54.1153 116.201 53.854C116.248 52.678 116.593 51.754 117.237 51.082C117.89 50.4007 118.838 50.06 120.079 50.06C120.91 50.06 121.614 50.2093 122.193 50.508C122.772 50.7973 123.206 51.18 123.495 51.656C123.794 52.132 123.957 52.6407 123.985 53.182C123.985 53.266 123.952 53.336 123.887 53.392C123.831 53.4387 123.761 53.462 123.677 53.462H122.977C122.884 53.462 122.809 53.4387 122.753 53.392C122.697 53.3453 122.655 53.266 122.627 53.154C122.468 52.4353 122.179 51.9313 121.759 51.642C121.348 51.3527 120.788 51.208 120.079 51.208C118.455 51.208 117.61 52.1133 117.545 53.924C117.536 54.176 117.531 54.5633 117.531 55.086C117.531 55.6087 117.536 56.0053 117.545 56.276C117.61 58.0773 118.455 58.978 120.079 58.978C120.779 58.978 121.339 58.8333 121.759 58.544C122.179 58.2547 122.468 57.7553 122.627 57.046C122.655 56.934 122.697 56.8547 122.753 56.808C122.809 56.7613 122.884 56.738 122.977 56.738H123.677C123.761 56.738 123.831 56.766 123.887 56.822C123.952 56.8687 123.985 56.934 123.985 57.018C123.957 57.5593 123.794 58.068 123.495 58.544C123.206 59.02 122.772 59.4073 122.193 59.706C121.614 59.9953 120.91 60.14 120.079 60.14ZM128.662 60.14C127.635 60.14 126.842 59.8507 126.282 59.272C125.731 58.6933 125.437 57.9233 125.4 56.962L125.386 56.36L125.4 55.758C125.437 54.7967 125.736 54.0267 126.296 53.448C126.865 52.8693 127.654 52.58 128.662 52.58C129.67 52.58 130.454 52.8693 131.014 53.448C131.583 54.0267 131.886 54.7967 131.924 55.758C131.942 55.9633 131.952 56.164 131.952 56.36C131.952 56.556 131.942 56.7567 131.924 56.962C131.886 57.9233 131.588 58.6933 131.028 59.272C130.477 59.8507 129.688 60.14 128.662 60.14ZM128.662 59.09C129.259 59.09 129.73 58.9033 130.076 58.53C130.43 58.1473 130.622 57.6013 130.65 56.892C130.659 56.7987 130.664 56.6213 130.664 56.36C130.664 56.0987 130.659 55.9213 130.65 55.828C130.622 55.1187 130.43 54.5773 130.076 54.204C129.73 53.8213 129.259 53.63 128.662 53.63C128.064 53.63 127.588 53.8213 127.234 54.204C126.888 54.5773 126.702 55.1187 126.674 55.828L126.66 56.36L126.674 56.892C126.702 57.6013 126.888 58.1473 127.234 58.53C127.588 58.9033 128.064 59.09 128.662 59.09ZM134.041 60C133.948 60 133.869 59.972 133.803 59.916C133.747 59.8507 133.719 59.7713 133.719 59.678V53.042C133.719 52.9487 133.747 52.874 133.803 52.818C133.869 52.7527 133.948 52.72 134.041 52.72H134.643C134.746 52.72 134.825 52.748 134.881 52.804C134.937 52.86 134.965 52.9393 134.965 53.042V53.658C135.245 53.3127 135.567 53.0467 135.931 52.86C136.305 52.6733 136.767 52.58 137.317 52.58C138.213 52.58 138.909 52.8693 139.403 53.448C139.898 54.0173 140.145 54.7733 140.145 55.716V59.678C140.145 59.7713 140.113 59.8507 140.047 59.916C139.991 59.972 139.917 60 139.823 60H139.179C139.086 60 139.007 59.972 138.941 59.916C138.885 59.8507 138.857 59.7713 138.857 59.678V55.8C138.857 55.128 138.694 54.6053 138.367 54.232C138.041 53.8587 137.574 53.672 136.967 53.672C136.37 53.672 135.894 53.8633 135.539 54.246C135.185 54.6193 135.007 55.1373 135.007 55.8V59.678C135.007 59.7713 134.975 59.8507 134.909 59.916C134.853 59.972 134.779 60 134.685 60H134.041ZM142.491 60C142.397 60 142.318 59.972 142.253 59.916C142.197 59.8507 142.169 59.7713 142.169 59.678V53.042C142.169 52.9487 142.197 52.874 142.253 52.818C142.318 52.7527 142.397 52.72 142.491 52.72H143.093C143.195 52.72 143.275 52.748 143.331 52.804C143.387 52.86 143.415 52.9393 143.415 53.042V53.658C143.695 53.3127 144.017 53.0467 144.381 52.86C144.754 52.6733 145.216 52.58 145.767 52.58C146.663 52.58 147.358 52.8693 147.853 53.448C148.347 54.0173 148.595 54.7733 148.595 55.716V59.678C148.595 59.7713 148.562 59.8507 148.497 59.916C148.441 59.972 148.366 60 148.273 60H147.629C147.535 60 147.456 59.972 147.391 59.916C147.335 59.8507 147.307 59.7713 147.307 59.678V55.8C147.307 55.128 147.143 54.6053 146.817 54.232C146.49 53.8587 146.023 53.672 145.417 53.672C144.819 53.672 144.343 53.8633 143.989 54.246C143.634 54.6193 143.457 55.1373 143.457 55.8V59.678C143.457 59.7713 143.424 59.8507 143.359 59.916C143.303 59.972 143.228 60 143.135 60H142.491ZM153.502 60.14C152.55 60.14 151.789 59.846 151.22 59.258C150.65 58.6607 150.338 57.8487 150.282 56.822L150.268 56.346L150.282 55.884C150.338 54.876 150.65 54.0733 151.22 53.476C151.789 52.8787 152.55 52.58 153.502 52.58C154.528 52.58 155.322 52.9067 155.882 53.56C156.451 54.2133 156.736 55.1 156.736 56.22V56.472C156.736 56.5653 156.703 56.6447 156.638 56.71C156.582 56.766 156.507 56.794 156.414 56.794H151.556V56.92C151.584 57.5267 151.77 58.0447 152.116 58.474C152.461 58.9033 152.918 59.118 153.488 59.118C153.926 59.118 154.281 59.034 154.552 58.866C154.832 58.6887 155.042 58.5067 155.182 58.32C155.266 58.208 155.331 58.1427 155.378 58.124C155.424 58.096 155.504 58.082 155.616 58.082H156.232C156.316 58.082 156.386 58.1053 156.442 58.152C156.507 58.1987 156.54 58.2593 156.54 58.334C156.54 58.5393 156.414 58.7867 156.162 59.076C155.91 59.3653 155.55 59.6173 155.084 59.832C154.626 60.0373 154.099 60.14 153.502 60.14ZM155.462 55.842V55.8C155.462 55.1467 155.284 54.6147 154.93 54.204C154.575 53.7933 154.099 53.588 153.502 53.588C152.895 53.588 152.419 53.7933 152.074 54.204C151.728 54.6147 151.556 55.1467 151.556 55.8V55.842H155.462ZM161.35 60.14C160.351 60.14 159.572 59.86 159.012 59.3C158.452 58.7307 158.158 57.9373 158.13 56.92L158.116 56.36L158.13 55.8C158.158 54.7827 158.452 53.994 159.012 53.434C159.572 52.8647 160.351 52.58 161.35 52.58C162.022 52.58 162.587 52.7013 163.044 52.944C163.511 53.1773 163.856 53.4713 164.08 53.826C164.313 54.1807 164.439 54.5353 164.458 54.89C164.467 54.974 164.435 55.0487 164.36 55.114C164.295 55.1793 164.22 55.212 164.136 55.212H163.52C163.427 55.212 163.357 55.1933 163.31 55.156C163.263 55.1093 163.217 55.03 163.17 54.918C163.002 54.4607 162.769 54.1387 162.47 53.952C162.181 53.756 161.812 53.658 161.364 53.658C160.776 53.658 160.309 53.84 159.964 54.204C159.619 54.568 159.432 55.1233 159.404 55.87L159.39 56.36L159.404 56.85C159.432 57.5967 159.619 58.152 159.964 58.516C160.309 58.88 160.776 59.062 161.364 59.062C161.821 59.062 162.195 58.9687 162.484 58.782C162.773 58.586 163.002 58.2593 163.17 57.802C163.217 57.69 163.263 57.6153 163.31 57.578C163.357 57.5313 163.427 57.508 163.52 57.508H164.136C164.22 57.508 164.295 57.5407 164.36 57.606C164.435 57.6713 164.467 57.746 164.458 57.83C164.439 58.1753 164.313 58.5253 164.08 58.88C163.856 59.2347 163.511 59.5333 163.044 59.776C162.587 60.0187 162.022 60.14 161.35 60.14ZM168.935 60C167.489 60 166.765 59.1833 166.765 57.55V53.798H165.659C165.566 53.798 165.491 53.77 165.435 53.714C165.379 53.658 165.351 53.5833 165.351 53.49V53.042C165.351 52.9487 165.379 52.874 165.435 52.818C165.491 52.7527 165.566 52.72 165.659 52.72H166.765V50.382C166.765 50.2887 166.793 50.214 166.849 50.158C166.905 50.0927 166.98 50.06 167.073 50.06H167.689C167.783 50.06 167.857 50.0927 167.913 50.158C167.979 50.214 168.011 50.2887 168.011 50.382V52.72H169.747C169.841 52.72 169.915 52.7527 169.971 52.818C170.037 52.874 170.069 52.9487 170.069 53.042V53.49C170.069 53.5833 170.037 53.658 169.971 53.714C169.915 53.77 169.841 53.798 169.747 53.798H168.011V57.452C168.011 57.928 168.086 58.2873 168.235 58.53C168.394 58.7727 168.66 58.894 169.033 58.894H169.887C169.981 58.894 170.055 58.9267 170.111 58.992C170.167 59.048 170.195 59.1227 170.195 59.216V59.678C170.195 59.7713 170.167 59.8507 170.111 59.916C170.055 59.972 169.981 60 169.887 60H168.935ZM171.773 51.348C171.68 51.348 171.6 51.32 171.535 51.264C171.479 51.1987 171.451 51.1193 171.451 51.026V50.298C171.451 50.2047 171.479 50.1253 171.535 50.06C171.6 49.9947 171.68 49.962 171.773 49.962H172.599C172.692 49.962 172.772 49.9947 172.837 50.06C172.902 50.1253 172.935 50.2047 172.935 50.298V51.026C172.935 51.1193 172.902 51.1987 172.837 51.264C172.772 51.32 172.692 51.348 172.599 51.348H171.773ZM171.885 60C171.792 60 171.712 59.972 171.647 59.916C171.591 59.8507 171.563 59.7713 171.563 59.678V53.042C171.563 52.9487 171.591 52.874 171.647 52.818C171.712 52.7527 171.792 52.72 171.885 52.72H172.501C172.594 52.72 172.669 52.7527 172.725 52.818C172.79 52.874 172.823 52.9487 172.823 53.042V59.678C172.823 59.7713 172.79 59.8507 172.725 59.916C172.669 59.972 172.594 60 172.501 60H171.885ZM177.88 60.14C176.854 60.14 176.06 59.8507 175.5 59.272C174.95 58.6933 174.656 57.9233 174.618 56.962L174.604 56.36L174.618 55.758C174.656 54.7967 174.954 54.0267 175.514 53.448C176.084 52.8693 176.872 52.58 177.88 52.58C178.888 52.58 179.672 52.8693 180.232 53.448C180.802 54.0267 181.105 54.7967 181.142 55.758C181.161 55.9633 181.17 56.164 181.17 56.36C181.17 56.556 181.161 56.7567 181.142 56.962C181.105 57.9233 180.806 58.6933 180.246 59.272C179.696 59.8507 178.907 60.14 177.88 60.14ZM177.88 59.09C178.478 59.09 178.949 58.9033 179.294 58.53C179.649 58.1473 179.84 57.6013 179.868 56.892C179.878 56.7987 179.882 56.6213 179.882 56.36C179.882 56.0987 179.878 55.9213 179.868 55.828C179.84 55.1187 179.649 54.5773 179.294 54.204C178.949 53.8213 178.478 53.63 177.88 53.63C177.283 53.63 176.807 53.8213 176.452 54.204C176.107 54.5773 175.92 55.1187 175.892 55.828L175.878 56.36L175.892 56.892C175.92 57.6013 176.107 58.1473 176.452 58.53C176.807 58.9033 177.283 59.09 177.88 59.09ZM183.26 60C183.167 60 183.087 59.972 183.022 59.916C182.966 59.8507 182.938 59.7713 182.938 59.678V53.042C182.938 52.9487 182.966 52.874 183.022 52.818C183.087 52.7527 183.167 52.72 183.26 52.72H183.862C183.965 52.72 184.044 52.748 184.1 52.804C184.156 52.86 184.184 52.9393 184.184 53.042V53.658C184.464 53.3127 184.786 53.0467 185.15 52.86C185.523 52.6733 185.985 52.58 186.536 52.58C187.432 52.58 188.127 52.8693 188.622 53.448C189.117 54.0173 189.364 54.7733 189.364 55.716V59.678C189.364 59.7713 189.331 59.8507 189.266 59.916C189.21 59.972 189.135 60 189.042 60H188.398C188.305 60 188.225 59.972 188.16 59.916C188.104 59.8507 188.076 59.7713 188.076 59.678V55.8C188.076 55.128 187.913 54.6053 187.586 54.232C187.259 53.8587 186.793 53.672 186.186 53.672C185.589 53.672 185.113 53.8633 184.758 54.246C184.403 54.6193 184.226 55.1373 184.226 55.8V59.678C184.226 59.7713 184.193 59.8507 184.128 59.916C184.072 59.972 183.997 60 183.904 60H183.26Z" fill="#4F5665"/>
<path d="M10.8464 59.73C10.7151 59.7303 10.5851 59.7046 10.4637 59.6545C10.3424 59.6044 10.2322 59.5308 10.1394 59.438L5.89735 55.195C5.80178 55.1028 5.72552 54.9925 5.67303 54.8706C5.62054 54.7486 5.59286 54.6174 5.59161 54.4846C5.59037 54.3518 5.61557 54.2201 5.66577 54.0972C5.71596 53.9743 5.79014 53.8626 5.88396 53.7686C5.97779 53.6747 6.08938 53.6003 6.21224 53.55C6.3351 53.4996 6.46676 53.4742 6.59954 53.4753C6.73232 53.4763 6.86356 53.5038 6.9856 53.5561C7.10764 53.6085 7.21804 53.6846 7.31035 53.78L10.8454 57.315L17.2104 50.952C17.3979 50.7644 17.6522 50.6589 17.9175 50.6588C18.1828 50.6587 18.4372 50.764 18.6249 50.9515C18.8125 51.139 18.918 51.3934 18.9181 51.6586C18.9182 51.9239 18.8129 52.1784 18.6254 52.366L11.5534 59.438C11.4605 59.5308 11.3503 59.6044 11.229 59.6545C11.1076 59.7046 10.9776 59.7303 10.8464 59.73Z" fill="#2FAB73"/>
<path d="M48.7124 100C48.6191 100 48.5397 99.972 48.4744 99.916C48.4184 99.8507 48.3904 99.7713 48.3904 99.678V96.36L45.0164 90.662C44.9884 90.606 44.9744 90.5453 44.9744 90.48C44.9744 90.4053 45.0024 90.34 45.0584 90.284C45.1144 90.228 45.1797 90.2 45.2544 90.2H45.9264C46.0944 90.2 46.2157 90.2793 46.2904 90.438L49.0624 95.016L51.8204 90.438C51.9137 90.2793 52.0351 90.2 52.1844 90.2H52.8564C52.9311 90.2 52.9964 90.228 53.0524 90.284C53.1177 90.34 53.1504 90.4053 53.1504 90.48C53.1504 90.5267 53.1317 90.5873 53.0944 90.662L49.7204 96.36V99.678C49.7204 99.7713 49.6877 99.8507 49.6224 99.916C49.5664 99.972 49.4871 100 49.3844 100H48.7124ZM56.3221 100.14C55.3701 100.14 54.6094 99.846 54.0401 99.258C53.4707 98.6607 53.1581 97.8487 53.1021 96.822L53.0881 96.346L53.1021 95.884C53.1581 94.876 53.4707 94.0733 54.0401 93.476C54.6094 92.8787 55.3701 92.58 56.3221 92.58C57.3487 92.58 58.1421 92.9067 58.7021 93.56C59.2714 94.2133 59.5561 95.1 59.5561 96.22V96.472C59.5561 96.5653 59.5234 96.6447 59.4581 96.71C59.4021 96.766 59.3274 96.794 59.2341 96.794H54.3761V96.92C54.4041 97.5267 54.5907 98.0447 54.9361 98.474C55.2814 98.9033 55.7387 99.118 56.3081 99.118C56.7467 99.118 57.1014 99.034 57.3721 98.866C57.6521 98.6887 57.8621 98.5067 58.0021 98.32C58.0861 98.208 58.1514 98.1427 58.1981 98.124C58.2447 98.096 58.3241 98.082 58.4361 98.082H59.0521C59.1361 98.082 59.2061 98.1053 59.2621 98.152C59.3274 98.1987 59.3601 98.2593 59.3601 98.334C59.3601 98.5393 59.2341 98.7867 58.9821 99.076C58.7301 99.3653 58.3707 99.6173 57.9041 99.832C57.4467 100.037 56.9194 100.14 56.3221 100.14ZM58.2821 95.842V95.8C58.2821 95.1467 58.1047 94.6147 57.7501 94.204C57.3954 93.7933 56.9194 93.588 56.3221 93.588C55.7154 93.588 55.2394 93.7933 54.8941 94.204C54.5487 94.6147 54.3761 95.1467 54.3761 95.8V95.842H58.2821ZM63.7504 100.14C63.1064 100.14 62.5604 100.037 62.1124 99.832C61.6737 99.6173 61.347 99.3747 61.1324 99.104C60.9177 98.8333 60.8104 98.6093 60.8104 98.432C60.8104 98.3387 60.843 98.2687 60.9084 98.222C60.9737 98.166 61.0437 98.138 61.1184 98.138H61.7064C61.7624 98.138 61.8044 98.1473 61.8324 98.166C61.8697 98.1847 61.9164 98.2267 61.9724 98.292C62.187 98.5533 62.425 98.7587 62.6864 98.908C62.957 99.0573 63.3164 99.132 63.7644 99.132C64.2684 99.132 64.6697 99.0387 64.9684 98.852C65.2764 98.6653 65.4304 98.3947 65.4304 98.04C65.4304 97.8067 65.365 97.62 65.2344 97.48C65.1037 97.34 64.8844 97.214 64.5764 97.102C64.2777 96.99 63.8297 96.8687 63.2324 96.738C62.4204 96.5607 61.8464 96.304 61.5104 95.968C61.1744 95.632 61.0064 95.198 61.0064 94.666C61.0064 94.3207 61.109 93.9893 61.3144 93.672C61.5197 93.3453 61.823 93.084 62.2244 92.888C62.635 92.6827 63.1204 92.58 63.6804 92.58C64.2684 92.58 64.7677 92.678 65.1784 92.874C65.5984 93.07 65.911 93.2987 66.1164 93.56C66.331 93.8213 66.4384 94.0407 66.4384 94.218C66.4384 94.302 66.4057 94.372 66.3404 94.428C66.2844 94.484 66.2144 94.512 66.1304 94.512H65.5984C65.4677 94.512 65.3744 94.4607 65.3184 94.358C65.1597 94.1807 65.0244 94.0453 64.9124 93.952C64.8097 93.8493 64.6557 93.7653 64.4504 93.7C64.245 93.6253 63.9884 93.588 63.6804 93.588C63.223 93.588 62.873 93.686 62.6304 93.882C62.3877 94.0687 62.2664 94.3207 62.2664 94.638C62.2664 94.834 62.3177 95.002 62.4204 95.142C62.523 95.2727 62.719 95.3987 63.0084 95.52C63.2977 95.632 63.727 95.7487 64.2964 95.87C65.183 96.0567 65.8084 96.3227 66.1724 96.668C66.5457 97.0133 66.7324 97.4567 66.7324 97.998C66.7324 98.3993 66.6157 98.7633 66.3824 99.09C66.1584 99.4167 65.8177 99.6733 65.3604 99.86C64.9124 100.047 64.3757 100.14 63.7504 100.14ZM74.1036 100C74.0103 100 73.9309 99.972 73.8656 99.916C73.8096 99.8507 73.7816 99.7713 73.7816 99.678V91.404H71.0796C70.9863 91.404 70.9069 91.376 70.8416 91.32C70.7856 91.2547 70.7576 91.1753 70.7576 91.082V90.536C70.7576 90.4333 70.7856 90.354 70.8416 90.298C70.9069 90.2327 70.9863 90.2 71.0796 90.2H77.7996C77.9023 90.2 77.9816 90.2327 78.0376 90.298C78.0936 90.354 78.1216 90.4333 78.1216 90.536V91.082C78.1216 91.1753 78.0889 91.2547 78.0236 91.32C77.9676 91.376 77.8929 91.404 77.7996 91.404H75.1116V99.678C75.1116 99.7713 75.0789 99.8507 75.0136 99.916C74.9483 99.972 74.8689 100 74.7756 100H74.1036ZM78.6976 100C78.6042 100 78.5249 99.972 78.4596 99.916C78.4036 99.8507 78.3756 99.7713 78.3756 99.678V93.056C78.3756 92.9627 78.4036 92.8833 78.4596 92.818C78.5249 92.7527 78.6042 92.72 78.6976 92.72H79.2856C79.3882 92.72 79.4676 92.7527 79.5236 92.818C79.5889 92.874 79.6216 92.9533 79.6216 93.056V93.672C80.0042 93.0373 80.6529 92.72 81.5676 92.72H82.1136C82.2162 92.72 82.2956 92.748 82.3516 92.804C82.4076 92.86 82.4356 92.9393 82.4356 93.042V93.56C82.4356 93.6533 82.4076 93.7327 82.3516 93.798C82.2956 93.854 82.2162 93.882 82.1136 93.882H81.3156C80.8022 93.882 80.3962 94.0313 80.0976 94.33C79.8082 94.6287 79.6636 95.0347 79.6636 95.548V99.678C79.6636 99.7713 79.6309 99.8507 79.5656 99.916C79.5002 99.972 79.4209 100 79.3276 100H78.6976ZM85.5459 100.14C85.0885 100.14 84.6639 100.047 84.2719 99.86C83.8892 99.6733 83.5812 99.4213 83.3479 99.104C83.1239 98.7773 83.0119 98.418 83.0119 98.026C83.0119 97.41 83.2639 96.906 83.7679 96.514C84.2719 96.122 84.9579 95.8607 85.8259 95.73L87.9259 95.436V95.03C87.9259 94.0687 87.3705 93.588 86.2599 93.588C85.8305 93.588 85.4852 93.6767 85.2239 93.854C84.9625 94.022 84.7712 94.2227 84.6499 94.456C84.6125 94.5493 84.5705 94.6147 84.5239 94.652C84.4865 94.68 84.4305 94.694 84.3559 94.694H83.8099C83.7259 94.694 83.6512 94.666 83.5859 94.61C83.5299 94.5447 83.5019 94.47 83.5019 94.386C83.5019 94.1713 83.5999 93.924 83.7959 93.644C84.0012 93.3547 84.3139 93.1073 84.7339 92.902C85.1539 92.6873 85.6672 92.58 86.2739 92.58C87.3192 92.58 88.0659 92.8227 88.5139 93.308C88.9712 93.7933 89.1999 94.4 89.1999 95.128V99.678C89.1999 99.7713 89.1672 99.8507 89.1019 99.916C89.0459 99.972 88.9712 100 88.8779 100H88.2619C88.1685 100 88.0939 99.972 88.0379 99.916C87.9819 99.8507 87.9539 99.7713 87.9539 99.678V99.062C87.7485 99.37 87.4499 99.6267 87.0579 99.832C86.6659 100.037 86.1619 100.14 85.5459 100.14ZM85.8259 99.118C86.4419 99.118 86.9459 98.9173 87.3379 98.516C87.7299 98.1147 87.9259 97.5313 87.9259 96.766V96.374L86.2879 96.612C85.6159 96.7053 85.1072 96.864 84.7619 97.088C84.4165 97.312 84.2439 97.592 84.2439 97.928C84.2439 98.3107 84.3979 98.6047 84.7059 98.81C85.0232 99.0153 85.3965 99.118 85.8259 99.118ZM92.2088 100C92.1154 100 92.0361 99.972 91.9708 99.916C91.9148 99.8507 91.8868 99.7713 91.8868 99.678V93.798H90.6828C90.5894 93.798 90.5101 93.77 90.4448 93.714C90.3888 93.658 90.3608 93.5833 90.3608 93.49V93.042C90.3608 92.9487 90.3888 92.874 90.4448 92.818C90.5101 92.7527 90.5894 92.72 90.6828 92.72H91.8868V92.02C91.8868 91.264 92.0688 90.6807 92.4328 90.27C92.8061 89.85 93.4128 89.64 94.2528 89.64H95.0788C95.1721 89.64 95.2468 89.6727 95.3028 89.738C95.3681 89.794 95.4008 89.8687 95.4008 89.962V90.41C95.4008 90.5033 95.3681 90.578 95.3028 90.634C95.2468 90.69 95.1721 90.718 95.0788 90.718H94.2808C93.8514 90.718 93.5528 90.83 93.3848 91.054C93.2168 91.278 93.1328 91.6233 93.1328 92.09V92.72H96.1428V92.02C96.1428 91.264 96.3248 90.6807 96.6888 90.27C97.0621 89.85 97.6688 89.64 98.5088 89.64H100.595C100.697 89.64 100.777 89.668 100.833 89.724C100.889 89.78 100.917 89.8593 100.917 89.962V90.41C100.917 90.5033 100.884 90.578 100.819 90.634C100.763 90.69 100.688 90.718 100.595 90.718H98.5368C98.1074 90.718 97.8088 90.83 97.6408 91.054C97.4728 91.278 97.3888 91.6233 97.3888 92.09V92.72H100.595C100.697 92.72 100.777 92.748 100.833 92.804C100.889 92.86 100.917 92.9393 100.917 93.042V99.678C100.917 99.7713 100.884 99.8507 100.819 99.916C100.763 99.972 100.688 100 100.595 100H99.9928C99.8994 100 99.8201 99.972 99.7548 99.916C99.6988 99.8507 99.6708 99.7713 99.6708 99.678V93.798H97.3888V99.678C97.3888 99.7713 97.3561 99.8507 97.2908 99.916C97.2348 99.972 97.1601 100 97.0668 100H96.4508C96.3574 100 96.2828 99.972 96.2268 99.916C96.1708 99.8507 96.1428 99.7713 96.1428 99.678V93.798H93.1328V99.678C93.1328 99.7713 93.1001 99.8507 93.0348 99.916C92.9788 99.972 92.9041 100 92.8108 100H92.2088ZM105.924 100.14C104.926 100.14 104.146 99.86 103.586 99.3C103.026 98.7307 102.732 97.9373 102.704 96.92L102.69 96.36L102.704 95.8C102.732 94.7827 103.026 93.994 103.586 93.434C104.146 92.8647 104.926 92.58 105.924 92.58C106.596 92.58 107.161 92.7013 107.618 92.944C108.085 93.1773 108.43 93.4713 108.654 93.826C108.888 94.1807 109.014 94.5353 109.032 94.89C109.042 94.974 109.009 95.0487 108.934 95.114C108.869 95.1793 108.794 95.212 108.71 95.212H108.094C108.001 95.212 107.931 95.1933 107.884 95.156C107.838 95.1093 107.791 95.03 107.744 94.918C107.576 94.4607 107.343 94.1387 107.044 93.952C106.755 93.756 106.386 93.658 105.938 93.658C105.35 93.658 104.884 93.84 104.538 94.204C104.193 94.568 104.006 95.1233 103.978 95.87L103.964 96.36L103.978 96.85C104.006 97.5967 104.193 98.152 104.538 98.516C104.884 98.88 105.35 99.062 105.938 99.062C106.396 99.062 106.769 98.9687 107.058 98.782C107.348 98.586 107.576 98.2593 107.744 97.802C107.791 97.69 107.838 97.6153 107.884 97.578C107.931 97.5313 108.001 97.508 108.094 97.508H108.71C108.794 97.508 108.869 97.5407 108.934 97.606C109.009 97.6713 109.042 97.746 109.032 97.83C109.014 98.1753 108.888 98.5253 108.654 98.88C108.43 99.2347 108.085 99.5333 107.618 99.776C107.161 100.019 106.596 100.14 105.924 100.14ZM114.645 100C114.552 100 114.477 99.972 114.421 99.916C114.365 99.8507 114.337 99.7713 114.337 99.678V90.522C114.337 90.4287 114.365 90.354 114.421 90.298C114.477 90.2327 114.552 90.2 114.645 90.2H115.345C115.438 90.2 115.513 90.2327 115.569 90.298C115.625 90.354 115.653 90.4287 115.653 90.522V98.824H120.329C120.432 98.824 120.511 98.8567 120.567 98.922C120.632 98.978 120.665 99.0527 120.665 99.146V99.678C120.665 99.7713 120.632 99.8507 120.567 99.916C120.502 99.972 120.422 100 120.329 100H114.645ZM124.806 100.14C123.779 100.14 122.986 99.8507 122.426 99.272C121.875 98.6933 121.581 97.9233 121.544 96.962L121.53 96.36L121.544 95.758C121.581 94.7967 121.88 94.0267 122.44 93.448C123.009 92.8693 123.798 92.58 124.806 92.58C125.814 92.58 126.598 92.8693 127.158 93.448C127.727 94.0267 128.031 94.7967 128.068 95.758C128.087 95.9633 128.096 96.164 128.096 96.36C128.096 96.556 128.087 96.7567 128.068 96.962C128.031 97.9233 127.732 98.6933 127.172 99.272C126.621 99.8507 125.833 100.14 124.806 100.14ZM124.806 99.09C125.403 99.09 125.875 98.9033 126.22 98.53C126.575 98.1473 126.766 97.6013 126.794 96.892C126.803 96.7987 126.808 96.6213 126.808 96.36C126.808 96.0987 126.803 95.9213 126.794 95.828C126.766 95.1187 126.575 94.5773 126.22 94.204C125.875 93.8213 125.403 93.63 124.806 93.63C124.209 93.63 123.733 93.8213 123.378 94.204C123.033 94.5773 122.846 95.1187 122.818 95.828L122.804 96.36L122.818 96.892C122.846 97.6013 123.033 98.1473 123.378 98.53C123.733 98.9033 124.209 99.09 124.806 99.09ZM132.818 103.08C132.043 103.08 131.423 102.949 130.956 102.688C130.489 102.427 130.158 102.128 129.962 101.792C129.775 101.456 129.682 101.167 129.682 100.924C129.682 100.84 129.715 100.765 129.78 100.7C129.845 100.644 129.92 100.616 130.004 100.616H130.62C130.704 100.616 130.774 100.635 130.83 100.672C130.886 100.719 130.933 100.798 130.97 100.91C131.231 101.657 131.824 102.03 132.748 102.03C133.448 102.03 133.966 101.881 134.302 101.582C134.638 101.283 134.806 100.756 134.806 100V99.034C134.265 99.7247 133.509 100.07 132.538 100.07C131.549 100.07 130.807 99.7527 130.312 99.118C129.827 98.4833 129.57 97.6807 129.542 96.71L129.528 96.318L129.542 95.94C129.57 94.9787 129.827 94.1807 130.312 93.546C130.807 92.902 131.549 92.58 132.538 92.58C133.518 92.58 134.283 92.9393 134.834 93.658V93.056C134.834 92.9627 134.862 92.8833 134.918 92.818C134.983 92.7527 135.063 92.72 135.156 92.72H135.758C135.851 92.72 135.926 92.7527 135.982 92.818C136.047 92.8833 136.08 92.9627 136.08 93.056V99.846C136.08 102.002 134.993 103.08 132.818 103.08ZM132.79 98.978C133.443 98.978 133.933 98.768 134.26 98.348C134.596 97.9187 134.778 97.4053 134.806 96.808C134.815 96.724 134.82 96.5607 134.82 96.318C134.82 96.0847 134.815 95.926 134.806 95.842C134.778 95.2447 134.596 94.736 134.26 94.316C133.933 93.8867 133.443 93.672 132.79 93.672C132.118 93.672 131.628 93.8867 131.32 94.316C131.021 94.736 130.858 95.282 130.83 95.954L130.816 96.318L130.83 96.696C130.858 97.368 131.021 97.9187 131.32 98.348C131.628 98.768 132.118 98.978 132.79 98.978ZM140.682 100.14C140.038 100.14 139.492 100.037 139.044 99.832C138.605 99.6173 138.279 99.3747 138.064 99.104C137.849 98.8333 137.742 98.6093 137.742 98.432C137.742 98.3387 137.775 98.2687 137.84 98.222C137.905 98.166 137.975 98.138 138.05 98.138H138.638C138.694 98.138 138.736 98.1473 138.764 98.166C138.801 98.1847 138.848 98.2267 138.904 98.292C139.119 98.5533 139.357 98.7587 139.618 98.908C139.889 99.0573 140.248 99.132 140.696 99.132C141.2 99.132 141.601 99.0387 141.9 98.852C142.208 98.6653 142.362 98.3947 142.362 98.04C142.362 97.8067 142.297 97.62 142.166 97.48C142.035 97.34 141.816 97.214 141.508 97.102C141.209 96.99 140.761 96.8687 140.164 96.738C139.352 96.5607 138.778 96.304 138.442 95.968C138.106 95.632 137.938 95.198 137.938 94.666C137.938 94.3207 138.041 93.9893 138.246 93.672C138.451 93.3453 138.755 93.084 139.156 92.888C139.567 92.6827 140.052 92.58 140.612 92.58C141.2 92.58 141.699 92.678 142.11 92.874C142.53 93.07 142.843 93.2987 143.048 93.56C143.263 93.8213 143.37 94.0407 143.37 94.218C143.37 94.302 143.337 94.372 143.272 94.428C143.216 94.484 143.146 94.512 143.062 94.512H142.53C142.399 94.512 142.306 94.4607 142.25 94.358C142.091 94.1807 141.956 94.0453 141.844 93.952C141.741 93.8493 141.587 93.7653 141.382 93.7C141.177 93.6253 140.92 93.588 140.612 93.588C140.155 93.588 139.805 93.686 139.562 93.882C139.319 94.0687 139.198 94.3207 139.198 94.638C139.198 94.834 139.249 95.002 139.352 95.142C139.455 95.2727 139.651 95.3987 139.94 95.52C140.229 95.632 140.659 95.7487 141.228 95.87C142.115 96.0567 142.74 96.3227 143.104 96.668C143.477 97.0133 143.664 97.4567 143.664 97.998C143.664 98.3993 143.547 98.7633 143.314 99.09C143.09 99.4167 142.749 99.6733 142.292 99.86C141.844 100.047 141.307 100.14 140.682 100.14Z" fill="#4F5665"/>
<path d="M10.486 99.73C10.3547 99.7303 10.2247 99.7046 10.1034 99.6545C9.98206 99.6044 9.87182 99.5308 9.779 99.438L5.537 95.195C5.44143 95.1028 5.36517 94.9925 5.31268 94.8706C5.26018 94.7486 5.23251 94.6174 5.23126 94.4846C5.23001 94.3518 5.25522 94.2201 5.30542 94.0972C5.35561 93.9743 5.42978 93.8626 5.52361 93.7686C5.61744 93.6747 5.72903 93.6003 5.85189 93.55C5.97475 93.4996 6.10641 93.4742 6.23919 93.4753C6.37197 93.4763 6.50321 93.5038 6.62525 93.5561C6.74729 93.6085 6.85769 93.6846 6.95 93.78L10.485 97.315L16.85 90.952C17.0375 90.7644 17.2919 90.6589 17.5571 90.6588C17.8224 90.6587 18.0769 90.764 18.2645 90.9515C18.4521 91.139 18.5576 91.3934 18.5577 91.6586C18.5578 91.9239 18.4525 92.1784 18.265 92.366L11.193 99.438C11.1002 99.5308 10.9899 99.6044 10.8686 99.6545C10.7473 99.7046 10.6173 99.7303 10.486 99.73Z" fill="#2FAB73"/>
<path d="M47.4244 140C47.1911 140 47.0464 139.879 46.9904 139.636L45.1844 130.634L45.1564 130.48C45.1564 130.405 45.1844 130.34 45.2404 130.284C45.2964 130.228 45.3617 130.2 45.4364 130.2H46.1224C46.3184 130.2 46.4304 130.279 46.4584 130.438L47.9004 137.746L49.4544 132.706C49.5104 132.482 49.6551 132.37 49.8884 132.37H50.3784C50.6024 132.37 50.7517 132.482 50.8264 132.706L52.3664 137.746L53.8084 130.438C53.8364 130.279 53.9531 130.2 54.1584 130.2H54.8304C54.9051 130.2 54.9704 130.228 55.0264 130.284C55.0824 130.34 55.1104 130.405 55.1104 130.48C55.1104 130.536 55.1057 130.587 55.0964 130.634L53.2764 139.636C53.2297 139.879 53.0851 140 52.8424 140H52.3384C52.1051 140 51.9511 139.883 51.8764 139.65L50.1404 134.26L48.3904 139.65C48.3251 139.883 48.1757 140 47.9424 140H47.4244ZM59.4272 140.14C58.4006 140.14 57.6072 139.851 57.0472 139.272C56.4966 138.693 56.2026 137.923 56.1652 136.962L56.1512 136.36L56.1652 135.758C56.2026 134.797 56.5012 134.027 57.0612 133.448C57.6306 132.869 58.4192 132.58 59.4272 132.58C60.4352 132.58 61.2192 132.869 61.7792 133.448C62.3486 134.027 62.6519 134.797 62.6892 135.758C62.7079 135.963 62.7172 136.164 62.7172 136.36C62.7172 136.556 62.7079 136.757 62.6892 136.962C62.6519 137.923 62.3532 138.693 61.7932 139.272C61.2426 139.851 60.4539 140.14 59.4272 140.14ZM59.4272 139.09C60.0246 139.09 60.4959 138.903 60.8412 138.53C61.1959 138.147 61.3872 137.601 61.4152 136.892C61.4246 136.799 61.4292 136.621 61.4292 136.36C61.4292 136.099 61.4246 135.921 61.4152 135.828C61.3872 135.119 61.1959 134.577 60.8412 134.204C60.4959 133.821 60.0246 133.63 59.4272 133.63C58.8299 133.63 58.3539 133.821 57.9992 134.204C57.6539 134.577 57.4672 135.119 57.4392 135.828L57.4252 136.36L57.4392 136.892C57.4672 137.601 57.6539 138.147 57.9992 138.53C58.3539 138.903 58.8299 139.09 59.4272 139.09ZM64.8069 140C64.7136 140 64.6343 139.972 64.5689 139.916C64.5129 139.851 64.4849 139.771 64.4849 139.678V133.056C64.4849 132.963 64.5129 132.883 64.5689 132.818C64.6343 132.753 64.7136 132.72 64.8069 132.72H65.3949C65.4976 132.72 65.5769 132.753 65.6329 132.818C65.6983 132.874 65.7309 132.953 65.7309 133.056V133.672C66.1136 133.037 66.7623 132.72 67.6769 132.72H68.2229C68.3256 132.72 68.4049 132.748 68.4609 132.804C68.5169 132.86 68.5449 132.939 68.5449 133.042V133.56C68.5449 133.653 68.5169 133.733 68.4609 133.798C68.4049 133.854 68.3256 133.882 68.2229 133.882H67.4249C66.9116 133.882 66.5056 134.031 66.2069 134.33C65.9176 134.629 65.7729 135.035 65.7729 135.548V139.678C65.7729 139.771 65.7403 139.851 65.6749 139.916C65.6096 139.972 65.5303 140 65.4369 140H64.8069ZM70.0846 140C69.9913 140 69.9119 139.972 69.8466 139.916C69.7906 139.851 69.7626 139.771 69.7626 139.678V130.382C69.7626 130.279 69.7906 130.2 69.8466 130.144C69.9119 130.088 69.9913 130.06 70.0846 130.06H70.6866C70.7799 130.06 70.8546 130.093 70.9106 130.158C70.9759 130.214 71.0086 130.289 71.0086 130.382V135.268L73.8086 132.958C73.9486 132.855 74.0466 132.79 74.1026 132.762C74.1586 132.734 74.2473 132.72 74.3686 132.72H75.0686C75.1526 132.72 75.2179 132.748 75.2646 132.804C75.3206 132.851 75.3486 132.921 75.3486 133.014C75.3486 133.098 75.2973 133.187 75.1946 133.28L71.9186 135.968L75.5446 139.44C75.6473 139.543 75.6986 139.631 75.6986 139.706C75.6986 139.79 75.6706 139.86 75.6146 139.916C75.5679 139.972 75.5026 140 75.4186 140H74.7326C74.5926 140 74.4899 139.986 74.4246 139.958C74.3686 139.93 74.2846 139.865 74.1726 139.762L71.0086 136.766V139.678C71.0086 139.771 70.9759 139.851 70.9106 139.916C70.8546 139.972 70.7799 140 70.6866 140H70.0846ZM79.2816 140.14C78.6376 140.14 78.0916 140.037 77.6436 139.832C77.205 139.617 76.8783 139.375 76.6636 139.104C76.449 138.833 76.3416 138.609 76.3416 138.432C76.3416 138.339 76.3743 138.269 76.4396 138.222C76.505 138.166 76.575 138.138 76.6496 138.138H77.2376C77.2936 138.138 77.3356 138.147 77.3636 138.166C77.401 138.185 77.4476 138.227 77.5036 138.292C77.7183 138.553 77.9563 138.759 78.2176 138.908C78.4883 139.057 78.8476 139.132 79.2956 139.132C79.7996 139.132 80.201 139.039 80.4996 138.852C80.8076 138.665 80.9616 138.395 80.9616 138.04C80.9616 137.807 80.8963 137.62 80.7656 137.48C80.635 137.34 80.4156 137.214 80.1076 137.102C79.809 136.99 79.361 136.869 78.7636 136.738C77.9516 136.561 77.3776 136.304 77.0416 135.968C76.7056 135.632 76.5376 135.198 76.5376 134.666C76.5376 134.321 76.6403 133.989 76.8456 133.672C77.051 133.345 77.3543 133.084 77.7556 132.888C78.1663 132.683 78.6516 132.58 79.2116 132.58C79.7996 132.58 80.299 132.678 80.7096 132.874C81.1296 133.07 81.4423 133.299 81.6476 133.56C81.8623 133.821 81.9696 134.041 81.9696 134.218C81.9696 134.302 81.937 134.372 81.8716 134.428C81.8156 134.484 81.7456 134.512 81.6616 134.512H81.1296C80.999 134.512 80.9056 134.461 80.8496 134.358C80.691 134.181 80.5556 134.045 80.4436 133.952C80.341 133.849 80.187 133.765 79.9816 133.7C79.7763 133.625 79.5196 133.588 79.2116 133.588C78.7543 133.588 78.4043 133.686 78.1616 133.882C77.919 134.069 77.7976 134.321 77.7976 134.638C77.7976 134.834 77.849 135.002 77.9516 135.142C78.0543 135.273 78.2503 135.399 78.5396 135.52C78.829 135.632 79.2583 135.749 79.8276 135.87C80.7143 136.057 81.3396 136.323 81.7036 136.668C82.077 137.013 82.2636 137.457 82.2636 137.998C82.2636 138.399 82.147 138.763 81.9136 139.09C81.6896 139.417 81.349 139.673 80.8916 139.86C80.4436 140.047 79.907 140.14 79.2816 140.14ZM90.2983 140.14C89.2716 140.14 88.4783 139.851 87.9183 139.272C87.3676 138.693 87.0736 137.923 87.0363 136.962L87.0223 136.36L87.0363 135.758C87.0736 134.797 87.3723 134.027 87.9323 133.448C88.5016 132.869 89.2903 132.58 90.2983 132.58C91.3063 132.58 92.0903 132.869 92.6503 133.448C93.2196 134.027 93.523 134.797 93.5603 135.758C93.579 135.963 93.5883 136.164 93.5883 136.36C93.5883 136.556 93.579 136.757 93.5603 136.962C93.523 137.923 93.2243 138.693 92.6643 139.272C92.1136 139.851 91.325 140.14 90.2983 140.14ZM90.2983 139.09C90.8956 139.09 91.367 138.903 91.7123 138.53C92.067 138.147 92.2583 137.601 92.2863 136.892C92.2956 136.799 92.3003 136.621 92.3003 136.36C92.3003 136.099 92.2956 135.921 92.2863 135.828C92.2583 135.119 92.067 134.577 91.7123 134.204C91.367 133.821 90.8956 133.63 90.2983 133.63C89.701 133.63 89.225 133.821 88.8703 134.204C88.525 134.577 88.3383 135.119 88.3103 135.828L88.2963 136.36L88.3103 136.892C88.3383 137.601 88.525 138.147 88.8703 138.53C89.225 138.903 89.701 139.09 90.2983 139.09ZM95.678 140C95.5847 140 95.5054 139.972 95.44 139.916C95.384 139.851 95.356 139.771 95.356 139.678V133.042C95.356 132.949 95.384 132.874 95.44 132.818C95.5054 132.753 95.5847 132.72 95.678 132.72H96.28C96.3827 132.72 96.462 132.748 96.518 132.804C96.574 132.86 96.602 132.939 96.602 133.042V133.658C96.882 133.313 97.204 133.047 97.568 132.86C97.9414 132.673 98.4034 132.58 98.954 132.58C99.85 132.58 100.545 132.869 101.04 133.448C101.535 134.017 101.782 134.773 101.782 135.716V139.678C101.782 139.771 101.749 139.851 101.684 139.916C101.628 139.972 101.553 140 101.46 140H100.816C100.723 140 100.643 139.972 100.578 139.916C100.522 139.851 100.494 139.771 100.494 139.678V135.8C100.494 135.128 100.331 134.605 100.004 134.232C99.6774 133.859 99.2107 133.672 98.604 133.672C98.0067 133.672 97.5307 133.863 97.176 134.246C96.8214 134.619 96.644 135.137 96.644 135.8V139.678C96.644 139.771 96.6114 139.851 96.546 139.916C96.49 139.972 96.4154 140 96.322 140H95.678ZM106.378 140C106.303 140 106.238 139.972 106.182 139.916C106.126 139.86 106.098 139.795 106.098 139.72L106.126 139.566L109.598 130.508C109.672 130.303 109.822 130.2 110.046 130.2H110.942C111.166 130.2 111.315 130.303 111.39 130.508L114.862 139.566L114.89 139.72C114.89 139.795 114.857 139.86 114.792 139.916C114.736 139.972 114.67 140 114.596 140H113.938C113.844 140 113.765 139.977 113.7 139.93C113.644 139.874 113.606 139.818 113.588 139.762L112.804 137.746H108.17L107.4 139.762C107.325 139.921 107.208 140 107.05 140H106.378ZM108.576 136.584H112.412L110.494 131.558L108.576 136.584ZM116.555 140C116.462 140 116.383 139.972 116.317 139.916C116.261 139.851 116.233 139.771 116.233 139.678V130.382C116.233 130.279 116.261 130.2 116.317 130.144C116.383 130.088 116.462 130.06 116.555 130.06H117.171C117.265 130.06 117.339 130.093 117.395 130.158C117.461 130.214 117.493 130.289 117.493 130.382V139.678C117.493 139.771 117.461 139.851 117.395 139.916C117.339 139.972 117.265 140 117.171 140H116.555ZM119.932 140C119.839 140 119.76 139.972 119.694 139.916C119.638 139.851 119.61 139.771 119.61 139.678V130.382C119.61 130.279 119.638 130.2 119.694 130.144C119.76 130.088 119.839 130.06 119.932 130.06H120.548C120.642 130.06 120.716 130.093 120.772 130.158C120.838 130.214 120.87 130.289 120.87 130.382V139.678C120.87 139.771 120.838 139.851 120.772 139.916C120.716 139.972 120.642 140 120.548 140H119.932ZM126.909 140C126.815 140 126.741 139.972 126.685 139.916C126.629 139.851 126.601 139.771 126.601 139.678V130.536C126.601 130.433 126.629 130.354 126.685 130.298C126.741 130.233 126.815 130.2 126.909 130.2H130.073C131.482 130.2 132.499 130.517 133.125 131.152C133.75 131.777 134.072 132.725 134.091 133.994C134.1 134.265 134.105 134.629 134.105 135.086C134.105 135.543 134.1 135.912 134.091 136.192C134.072 137.079 133.927 137.802 133.657 138.362C133.395 138.913 132.98 139.323 132.411 139.594C131.841 139.865 131.085 140 130.143 140H126.909ZM130.073 138.838C130.726 138.838 131.244 138.749 131.627 138.572C132.019 138.385 132.299 138.101 132.467 137.718C132.644 137.326 132.742 136.799 132.761 136.136C132.779 135.576 132.789 135.226 132.789 135.086C132.789 134.937 132.779 134.591 132.761 134.05C132.742 133.117 132.518 132.435 132.089 132.006C131.669 131.567 130.973 131.348 130.003 131.348H127.917V138.838H130.073ZM138.941 140.14C137.989 140.14 137.229 139.846 136.659 139.258C136.09 138.661 135.777 137.849 135.721 136.822L135.707 136.346L135.721 135.884C135.777 134.876 136.09 134.073 136.659 133.476C137.229 132.879 137.989 132.58 138.941 132.58C139.968 132.58 140.761 132.907 141.321 133.56C141.891 134.213 142.175 135.1 142.175 136.22V136.472C142.175 136.565 142.143 136.645 142.077 136.71C142.021 136.766 141.947 136.794 141.853 136.794H136.995V136.92C137.023 137.527 137.21 138.045 137.555 138.474C137.901 138.903 138.358 139.118 138.927 139.118C139.366 139.118 139.721 139.034 139.991 138.866C140.271 138.689 140.481 138.507 140.621 138.32C140.705 138.208 140.771 138.143 140.817 138.124C140.864 138.096 140.943 138.082 141.055 138.082H141.671C141.755 138.082 141.825 138.105 141.881 138.152C141.947 138.199 141.979 138.259 141.979 138.334C141.979 138.539 141.853 138.787 141.601 139.076C141.349 139.365 140.99 139.617 140.523 139.832C140.066 140.037 139.539 140.14 138.941 140.14ZM140.901 135.842V135.8C140.901 135.147 140.724 134.615 140.369 134.204C140.015 133.793 139.539 133.588 138.941 133.588C138.335 133.588 137.859 133.793 137.513 134.204C137.168 134.615 136.995 135.147 136.995 135.8V135.842H140.901ZM146.165 140C145.923 140 145.75 139.883 145.647 139.65L143.043 133.154C143.034 133.126 143.029 133.079 143.029 133.014C143.029 132.93 143.057 132.86 143.113 132.804C143.169 132.748 143.235 132.72 143.309 132.72H143.953C144.103 132.72 144.215 132.795 144.289 132.944L146.445 138.53L148.601 132.944C148.62 132.888 148.657 132.837 148.713 132.79C148.779 132.743 148.853 132.72 148.937 132.72H149.581C149.656 132.72 149.721 132.748 149.777 132.804C149.833 132.86 149.861 132.93 149.861 133.014L149.833 133.154L147.243 139.65C147.141 139.883 146.968 140 146.725 140H146.165ZM151.566 131.348C151.473 131.348 151.393 131.32 151.328 131.264C151.272 131.199 151.244 131.119 151.244 131.026V130.298C151.244 130.205 151.272 130.125 151.328 130.06C151.393 129.995 151.473 129.962 151.566 129.962H152.392C152.485 129.962 152.565 129.995 152.63 130.06C152.695 130.125 152.728 130.205 152.728 130.298V131.026C152.728 131.119 152.695 131.199 152.63 131.264C152.565 131.32 152.485 131.348 152.392 131.348H151.566ZM151.678 140C151.585 140 151.505 139.972 151.44 139.916C151.384 139.851 151.356 139.771 151.356 139.678V133.042C151.356 132.949 151.384 132.874 151.44 132.818C151.505 132.753 151.585 132.72 151.678 132.72H152.294C152.387 132.72 152.462 132.753 152.518 132.818C152.583 132.874 152.616 132.949 152.616 133.042V139.678C152.616 139.771 152.583 139.851 152.518 139.916C152.462 139.972 152.387 140 152.294 140H151.678ZM157.631 140.14C156.633 140.14 155.853 139.86 155.293 139.3C154.733 138.731 154.439 137.937 154.411 136.92L154.397 136.36L154.411 135.8C154.439 134.783 154.733 133.994 155.293 133.434C155.853 132.865 156.633 132.58 157.631 132.58C158.303 132.58 158.868 132.701 159.325 132.944C159.792 133.177 160.137 133.471 160.361 133.826C160.595 134.181 160.721 134.535 160.739 134.89C160.749 134.974 160.716 135.049 160.641 135.114C160.576 135.179 160.501 135.212 160.417 135.212H159.801C159.708 135.212 159.638 135.193 159.591 135.156C159.545 135.109 159.498 135.03 159.451 134.918C159.283 134.461 159.05 134.139 158.751 133.952C158.462 133.756 158.093 133.658 157.645 133.658C157.057 133.658 156.591 133.84 156.245 134.204C155.9 134.568 155.713 135.123 155.685 135.87L155.671 136.36L155.685 136.85C155.713 137.597 155.9 138.152 156.245 138.516C156.591 138.88 157.057 139.062 157.645 139.062C158.103 139.062 158.476 138.969 158.765 138.782C159.055 138.586 159.283 138.259 159.451 137.802C159.498 137.69 159.545 137.615 159.591 137.578C159.638 137.531 159.708 137.508 159.801 137.508H160.417C160.501 137.508 160.576 137.541 160.641 137.606C160.716 137.671 160.749 137.746 160.739 137.83C160.721 138.175 160.595 138.525 160.361 138.88C160.137 139.235 159.792 139.533 159.325 139.776C158.868 140.019 158.303 140.14 157.631 140.14ZM165.301 140.14C164.349 140.14 163.588 139.846 163.019 139.258C162.449 138.661 162.137 137.849 162.081 136.822L162.067 136.346L162.081 135.884C162.137 134.876 162.449 134.073 163.019 133.476C163.588 132.879 164.349 132.58 165.301 132.58C166.327 132.58 167.121 132.907 167.681 133.56C168.25 134.213 168.535 135.1 168.535 136.22V136.472C168.535 136.565 168.502 136.645 168.437 136.71C168.381 136.766 168.306 136.794 168.213 136.794H163.355V136.92C163.383 137.527 163.569 138.045 163.915 138.474C164.26 138.903 164.717 139.118 165.287 139.118C165.725 139.118 166.08 139.034 166.351 138.866C166.631 138.689 166.841 138.507 166.981 138.32C167.065 138.208 167.13 138.143 167.177 138.124C167.223 138.096 167.303 138.082 167.415 138.082H168.031C168.115 138.082 168.185 138.105 168.241 138.152C168.306 138.199 168.339 138.259 168.339 138.334C168.339 138.539 168.213 138.787 167.961 139.076C167.709 139.365 167.349 139.617 166.883 139.832C166.425 140.037 165.898 140.14 165.301 140.14ZM167.261 135.842V135.8C167.261 135.147 167.083 134.615 166.729 134.204C166.374 133.793 165.898 133.588 165.301 133.588C164.694 133.588 164.218 133.793 163.873 134.204C163.527 134.615 163.355 135.147 163.355 135.8V135.842H167.261ZM172.729 140.14C172.085 140.14 171.539 140.037 171.091 139.832C170.652 139.617 170.326 139.375 170.111 139.104C169.896 138.833 169.789 138.609 169.789 138.432C169.789 138.339 169.822 138.269 169.887 138.222C169.952 138.166 170.022 138.138 170.097 138.138H170.685C170.741 138.138 170.783 138.147 170.811 138.166C170.848 138.185 170.895 138.227 170.951 138.292C171.166 138.553 171.404 138.759 171.665 138.908C171.936 139.057 172.295 139.132 172.743 139.132C173.247 139.132 173.648 139.039 173.947 138.852C174.255 138.665 174.409 138.395 174.409 138.04C174.409 137.807 174.344 137.62 174.213 137.48C174.082 137.34 173.863 137.214 173.555 137.102C173.256 136.99 172.808 136.869 172.211 136.738C171.399 136.561 170.825 136.304 170.489 135.968C170.153 135.632 169.985 135.198 169.985 134.666C169.985 134.321 170.088 133.989 170.293 133.672C170.498 133.345 170.802 133.084 171.203 132.888C171.614 132.683 172.099 132.58 172.659 132.58C173.247 132.58 173.746 132.678 174.157 132.874C174.577 133.07 174.89 133.299 175.095 133.56C175.31 133.821 175.417 134.041 175.417 134.218C175.417 134.302 175.384 134.372 175.319 134.428C175.263 134.484 175.193 134.512 175.109 134.512H174.577C174.446 134.512 174.353 134.461 174.297 134.358C174.138 134.181 174.003 134.045 173.891 133.952C173.788 133.849 173.634 133.765 173.429 133.7C173.224 133.625 172.967 133.588 172.659 133.588C172.202 133.588 171.852 133.686 171.609 133.882C171.366 134.069 171.245 134.321 171.245 134.638C171.245 134.834 171.296 135.002 171.399 135.142C171.502 135.273 171.698 135.399 171.987 135.52C172.276 135.632 172.706 135.749 173.275 135.87C174.162 136.057 174.787 136.323 175.151 136.668C175.524 137.013 175.711 137.457 175.711 137.998C175.711 138.399 175.594 138.763 175.361 139.09C175.137 139.417 174.796 139.673 174.339 139.86C173.891 140.047 173.354 140.14 172.729 140.14Z" fill="#4F5665"/>
<path d="M10.486 139.73C10.3547 139.73 10.2247 139.705 10.1034 139.655C9.98206 139.604 9.87182 139.531 9.779 139.438L5.537 135.195C5.44143 135.103 5.36517 134.993 5.31268 134.871C5.26018 134.749 5.23251 134.617 5.23126 134.485C5.23001 134.352 5.25522 134.22 5.30542 134.097C5.35561 133.974 5.42978 133.863 5.52361 133.769C5.61744 133.675 5.72903 133.6 5.85189 133.55C5.97475 133.5 6.10641 133.474 6.23919 133.475C6.37197 133.476 6.50321 133.504 6.62525 133.556C6.74729 133.608 6.85769 133.685 6.95 133.78L10.485 137.315L16.85 130.952C17.0375 130.764 17.2919 130.659 17.5571 130.659C17.8224 130.659 18.0769 130.764 18.2645 130.952C18.4521 131.139 18.5576 131.393 18.5577 131.659C18.5578 131.924 18.4525 132.178 18.265 132.366L11.193 139.438C11.1002 139.531 10.9899 139.604 10.8686 139.655C10.7473 139.705 10.6173 139.73 10.486 139.73Z" fill="#2FAB73"/>
<path d="M49.2724 180.14C48.0311 180.14 47.0837 179.804 46.4304 179.132C45.7864 178.451 45.4411 177.522 45.3944 176.346C45.3851 176.094 45.3804 175.683 45.3804 175.114C45.3804 174.535 45.3851 174.115 45.3944 173.854C45.4411 172.678 45.7864 171.754 46.4304 171.082C47.0837 170.401 48.0311 170.06 49.2724 170.06C50.1031 170.06 50.8077 170.209 51.3864 170.508C51.9651 170.797 52.3991 171.18 52.6884 171.656C52.9871 172.132 53.1504 172.641 53.1784 173.182C53.1784 173.266 53.1457 173.336 53.0804 173.392C53.0244 173.439 52.9544 173.462 52.8704 173.462H52.1704C52.0771 173.462 52.0024 173.439 51.9464 173.392C51.8904 173.345 51.8484 173.266 51.8204 173.154C51.6617 172.435 51.3724 171.931 50.9524 171.642C50.5417 171.353 49.9817 171.208 49.2724 171.208C47.6484 171.208 46.8037 172.113 46.7384 173.924C46.7291 174.176 46.7244 174.563 46.7244 175.086C46.7244 175.609 46.7291 176.005 46.7384 176.276C46.8037 178.077 47.6484 178.978 49.2724 178.978C49.9724 178.978 50.5324 178.833 50.9524 178.544C51.3724 178.255 51.6617 177.755 51.8204 177.046C51.8484 176.934 51.8904 176.855 51.9464 176.808C52.0024 176.761 52.0771 176.738 52.1704 176.738H52.8704C52.9544 176.738 53.0244 176.766 53.0804 176.822C53.1457 176.869 53.1784 176.934 53.1784 177.018C53.1504 177.559 52.9871 178.068 52.6884 178.544C52.3991 179.02 51.9651 179.407 51.3864 179.706C50.8077 179.995 50.1031 180.14 49.2724 180.14ZM57.855 180.14C56.8283 180.14 56.035 179.851 55.475 179.272C54.9243 178.693 54.6303 177.923 54.593 176.962L54.579 176.36L54.593 175.758C54.6303 174.797 54.929 174.027 55.489 173.448C56.0583 172.869 56.847 172.58 57.855 172.58C58.863 172.58 59.647 172.869 60.207 173.448C60.7763 174.027 61.0796 174.797 61.117 175.758C61.1356 175.963 61.145 176.164 61.145 176.36C61.145 176.556 61.1356 176.757 61.117 176.962C61.0796 177.923 60.781 178.693 60.221 179.272C59.6703 179.851 58.8816 180.14 57.855 180.14ZM57.855 179.09C58.4523 179.09 58.9236 178.903 59.269 178.53C59.6236 178.147 59.815 177.601 59.843 176.892C59.8523 176.799 59.857 176.621 59.857 176.36C59.857 176.099 59.8523 175.921 59.843 175.828C59.815 175.119 59.6236 174.577 59.269 174.204C58.9236 173.821 58.4523 173.63 57.855 173.63C57.2576 173.63 56.7816 173.821 56.427 174.204C56.0816 174.577 55.895 175.119 55.867 175.828L55.853 176.36L55.867 176.892C55.895 177.601 56.0816 178.147 56.427 178.53C56.7816 178.903 57.2576 179.09 57.855 179.09ZM63.2347 180C63.1413 180 63.062 179.972 62.9967 179.916C62.9407 179.851 62.9127 179.771 62.9127 179.678V173.042C62.9127 172.949 62.9407 172.874 62.9967 172.818C63.062 172.753 63.1413 172.72 63.2347 172.72H63.8367C63.9393 172.72 64.0187 172.748 64.0747 172.804C64.1307 172.86 64.1587 172.939 64.1587 173.042V173.658C64.4387 173.313 64.7607 173.047 65.1247 172.86C65.498 172.673 65.96 172.58 66.5107 172.58C67.4067 172.58 68.102 172.869 68.5967 173.448C69.0913 174.017 69.3387 174.773 69.3387 175.716V179.678C69.3387 179.771 69.306 179.851 69.2407 179.916C69.1847 179.972 69.11 180 69.0167 180H68.3727C68.2793 180 68.2 179.972 68.1347 179.916C68.0787 179.851 68.0507 179.771 68.0507 179.678V175.8C68.0507 175.128 67.8873 174.605 67.5607 174.232C67.234 173.859 66.7673 173.672 66.1607 173.672C65.5633 173.672 65.0873 173.863 64.7327 174.246C64.378 174.619 64.2007 175.137 64.2007 175.8V179.678C64.2007 179.771 64.168 179.851 64.1027 179.916C64.0467 179.972 63.972 180 63.8787 180H63.2347ZM71.6839 180C71.5906 180 71.5112 179.972 71.4459 179.916C71.3899 179.851 71.3619 179.771 71.3619 179.678V173.042C71.3619 172.949 71.3899 172.874 71.4459 172.818C71.5112 172.753 71.5906 172.72 71.6839 172.72H72.2859C72.3886 172.72 72.4679 172.748 72.5239 172.804C72.5799 172.86 72.6079 172.939 72.6079 173.042V173.658C72.8879 173.313 73.2099 173.047 73.5739 172.86C73.9472 172.673 74.4092 172.58 74.9599 172.58C75.8559 172.58 76.5512 172.869 77.0459 173.448C77.5406 174.017 77.7879 174.773 77.7879 175.716V179.678C77.7879 179.771 77.7552 179.851 77.6899 179.916C77.6339 179.972 77.5592 180 77.4659 180H76.8219C76.7286 180 76.6492 179.972 76.5839 179.916C76.5279 179.851 76.4999 179.771 76.4999 179.678V175.8C76.4999 175.128 76.3366 174.605 76.0099 174.232C75.6832 173.859 75.2166 173.672 74.6099 173.672C74.0126 173.672 73.5366 173.863 73.1819 174.246C72.8272 174.619 72.6499 175.137 72.6499 175.8V179.678C72.6499 179.771 72.6172 179.851 72.5519 179.916C72.4959 179.972 72.4212 180 72.3279 180H71.6839ZM82.6951 180.14C81.7431 180.14 80.9824 179.846 80.4131 179.258C79.8438 178.661 79.5311 177.849 79.4751 176.822L79.4611 176.346L79.4751 175.884C79.5311 174.876 79.8438 174.073 80.4131 173.476C80.9824 172.879 81.7431 172.58 82.6951 172.58C83.7218 172.58 84.5151 172.907 85.0751 173.56C85.6444 174.213 85.9291 175.1 85.9291 176.22V176.472C85.9291 176.565 85.8964 176.645 85.8311 176.71C85.7751 176.766 85.7004 176.794 85.6071 176.794H80.7491V176.92C80.7771 177.527 80.9638 178.045 81.3091 178.474C81.6544 178.903 82.1118 179.118 82.6811 179.118C83.1198 179.118 83.4744 179.034 83.7451 178.866C84.0251 178.689 84.2351 178.507 84.3751 178.32C84.4591 178.208 84.5244 178.143 84.5711 178.124C84.6178 178.096 84.6971 178.082 84.8091 178.082H85.4251C85.5091 178.082 85.5791 178.105 85.6351 178.152C85.7004 178.199 85.7331 178.259 85.7331 178.334C85.7331 178.539 85.6071 178.787 85.3551 179.076C85.1031 179.365 84.7438 179.617 84.2771 179.832C83.8198 180.037 83.2924 180.14 82.6951 180.14ZM84.6551 175.842V175.8C84.6551 175.147 84.4778 174.615 84.1231 174.204C83.7684 173.793 83.2924 173.588 82.6951 173.588C82.0884 173.588 81.6124 173.793 81.2671 174.204C80.9218 174.615 80.7491 175.147 80.7491 175.8V175.842H84.6551ZM90.5434 180.14C89.5448 180.14 88.7654 179.86 88.2054 179.3C87.6454 178.731 87.3514 177.937 87.3234 176.92L87.3094 176.36L87.3234 175.8C87.3514 174.783 87.6454 173.994 88.2054 173.434C88.7654 172.865 89.5448 172.58 90.5434 172.58C91.2154 172.58 91.7801 172.701 92.2374 172.944C92.7041 173.177 93.0494 173.471 93.2734 173.826C93.5068 174.181 93.6328 174.535 93.6514 174.89C93.6608 174.974 93.6281 175.049 93.5534 175.114C93.4881 175.179 93.4134 175.212 93.3294 175.212H92.7134C92.6201 175.212 92.5501 175.193 92.5034 175.156C92.4568 175.109 92.4101 175.03 92.3634 174.918C92.1954 174.461 91.9621 174.139 91.6634 173.952C91.3741 173.756 91.0054 173.658 90.5574 173.658C89.9694 173.658 89.5028 173.84 89.1574 174.204C88.8121 174.568 88.6254 175.123 88.5974 175.87L88.5834 176.36L88.5974 176.85C88.6254 177.597 88.8121 178.152 89.1574 178.516C89.5028 178.88 89.9694 179.062 90.5574 179.062C91.0148 179.062 91.3881 178.969 91.6774 178.782C91.9668 178.586 92.1954 178.259 92.3634 177.802C92.4101 177.69 92.4568 177.615 92.5034 177.578C92.5501 177.531 92.6201 177.508 92.7134 177.508H93.3294C93.4134 177.508 93.4881 177.541 93.5534 177.606C93.6281 177.671 93.6608 177.746 93.6514 177.83C93.6328 178.175 93.5068 178.525 93.2734 178.88C93.0494 179.235 92.7041 179.533 92.2374 179.776C91.7801 180.019 91.2154 180.14 90.5434 180.14ZM98.1287 180C96.682 180 95.9587 179.183 95.9587 177.55V173.798H94.8527C94.7594 173.798 94.6847 173.77 94.6287 173.714C94.5727 173.658 94.5447 173.583 94.5447 173.49V173.042C94.5447 172.949 94.5727 172.874 94.6287 172.818C94.6847 172.753 94.7594 172.72 94.8527 172.72H95.9587V170.382C95.9587 170.289 95.9867 170.214 96.0427 170.158C96.0987 170.093 96.1734 170.06 96.2667 170.06H96.8827C96.976 170.06 97.0507 170.093 97.1067 170.158C97.172 170.214 97.2047 170.289 97.2047 170.382V172.72H98.9407C99.034 172.72 99.1087 172.753 99.1647 172.818C99.23 172.874 99.2627 172.949 99.2627 173.042V173.49C99.2627 173.583 99.23 173.658 99.1647 173.714C99.1087 173.77 99.034 173.798 98.9407 173.798H97.2047V177.452C97.2047 177.928 97.2794 178.287 97.4287 178.53C97.5874 178.773 97.8534 178.894 98.2267 178.894H99.0807C99.174 178.894 99.2487 178.927 99.3047 178.992C99.3607 179.048 99.3887 179.123 99.3887 179.216V179.678C99.3887 179.771 99.3607 179.851 99.3047 179.916C99.2487 179.972 99.174 180 99.0807 180H98.1287ZM103.329 180C103.254 180 103.189 179.972 103.133 179.916C103.077 179.86 103.049 179.795 103.049 179.72L103.077 179.566L106.549 170.508C106.624 170.303 106.773 170.2 106.997 170.2H107.893C108.117 170.2 108.266 170.303 108.341 170.508L111.813 179.566L111.841 179.72C111.841 179.795 111.808 179.86 111.743 179.916C111.687 179.972 111.622 180 111.547 180H110.889C110.796 180 110.716 179.977 110.651 179.93C110.595 179.874 110.558 179.818 110.539 179.762L109.755 177.746H105.121L104.351 179.762C104.276 179.921 104.16 180 104.001 180H103.329ZM105.527 176.584H109.363L107.445 171.558L105.527 176.584ZM113.492 180C113.399 180 113.32 179.972 113.254 179.916C113.198 179.851 113.17 179.771 113.17 179.678V173.042C113.17 172.949 113.198 172.874 113.254 172.818C113.32 172.753 113.399 172.72 113.492 172.72H114.094C114.197 172.72 114.276 172.748 114.332 172.804C114.388 172.86 114.416 172.939 114.416 173.042V173.658C114.696 173.313 115.018 173.047 115.382 172.86C115.756 172.673 116.218 172.58 116.768 172.58C117.664 172.58 118.36 172.869 118.854 173.448C119.349 174.017 119.596 174.773 119.596 175.716V179.678C119.596 179.771 119.564 179.851 119.498 179.916C119.442 179.972 119.368 180 119.274 180H118.63C118.537 180 118.458 179.972 118.392 179.916C118.336 179.851 118.308 179.771 118.308 179.678V175.8C118.308 175.128 118.145 174.605 117.818 174.232C117.492 173.859 117.025 173.672 116.418 173.672C115.821 173.672 115.345 173.863 114.99 174.246C114.636 174.619 114.458 175.137 114.458 175.8V179.678C114.458 179.771 114.426 179.851 114.36 179.916C114.304 179.972 114.23 180 114.136 180H113.492ZM122.675 182.66C122.591 182.66 122.521 182.632 122.465 182.576C122.409 182.52 122.381 182.455 122.381 182.38C122.381 182.352 122.404 182.268 122.451 182.128L123.543 179.566L120.869 173.252C120.813 173.14 120.785 173.061 120.785 173.014C120.794 172.93 120.827 172.86 120.883 172.804C120.939 172.748 121.004 172.72 121.079 172.72H121.723C121.872 172.72 121.984 172.795 122.059 172.944L124.215 178.096L126.427 172.944C126.502 172.795 126.614 172.72 126.763 172.72H127.393C127.468 172.72 127.533 172.748 127.589 172.804C127.645 172.86 127.673 172.925 127.673 173C127.673 173.065 127.65 173.149 127.603 173.252L123.641 182.436C123.594 182.511 123.543 182.567 123.487 182.604C123.44 182.641 123.375 182.66 123.291 182.66H122.675ZM131.017 180C130.886 180 130.788 179.972 130.723 179.916C130.657 179.86 130.606 179.771 130.569 179.65L128.581 173.154L128.553 173.014C128.553 172.93 128.581 172.86 128.637 172.804C128.693 172.748 128.763 172.72 128.847 172.72H129.421C129.514 172.72 129.589 172.748 129.645 172.804C129.71 172.851 129.747 172.897 129.757 172.944L131.339 178.292L133.019 173.014C133.037 172.939 133.079 172.874 133.145 172.818C133.21 172.753 133.299 172.72 133.411 172.72H133.859C133.971 172.72 134.059 172.753 134.125 172.818C134.19 172.874 134.232 172.939 134.251 173.014L135.931 178.292L137.513 172.944C137.522 172.897 137.555 172.851 137.611 172.804C137.676 172.748 137.755 172.72 137.849 172.72H138.423C138.507 172.72 138.577 172.748 138.633 172.804C138.689 172.86 138.717 172.93 138.717 173.014L138.689 173.154L136.701 179.65C136.663 179.771 136.612 179.86 136.547 179.916C136.481 179.972 136.383 180 136.253 180H135.749C135.506 180 135.347 179.883 135.273 179.65L133.635 174.582L131.997 179.65C131.922 179.883 131.763 180 131.521 180H131.017ZM142.093 180.14C141.635 180.14 141.211 180.047 140.819 179.86C140.436 179.673 140.128 179.421 139.895 179.104C139.671 178.777 139.559 178.418 139.559 178.026C139.559 177.41 139.811 176.906 140.315 176.514C140.819 176.122 141.505 175.861 142.373 175.73L144.473 175.436V175.03C144.473 174.069 143.917 173.588 142.807 173.588C142.377 173.588 142.032 173.677 141.771 173.854C141.509 174.022 141.318 174.223 141.197 174.456C141.159 174.549 141.117 174.615 141.071 174.652C141.033 174.68 140.977 174.694 140.903 174.694H140.357C140.273 174.694 140.198 174.666 140.133 174.61C140.077 174.545 140.049 174.47 140.049 174.386C140.049 174.171 140.147 173.924 140.343 173.644C140.548 173.355 140.861 173.107 141.281 172.902C141.701 172.687 142.214 172.58 142.821 172.58C143.866 172.58 144.613 172.823 145.061 173.308C145.518 173.793 145.747 174.4 145.747 175.128V179.678C145.747 179.771 145.714 179.851 145.649 179.916C145.593 179.972 145.518 180 145.425 180H144.809C144.715 180 144.641 179.972 144.585 179.916C144.529 179.851 144.501 179.771 144.501 179.678V179.062C144.295 179.37 143.997 179.627 143.605 179.832C143.213 180.037 142.709 180.14 142.093 180.14ZM142.373 179.118C142.989 179.118 143.493 178.917 143.885 178.516C144.277 178.115 144.473 177.531 144.473 176.766V176.374L142.835 176.612C142.163 176.705 141.654 176.864 141.309 177.088C140.963 177.312 140.791 177.592 140.791 177.928C140.791 178.311 140.945 178.605 141.253 178.81C141.57 179.015 141.943 179.118 142.373 179.118ZM148.096 180C148.003 180 147.923 179.972 147.858 179.916C147.802 179.851 147.774 179.771 147.774 179.678V173.056C147.774 172.963 147.802 172.883 147.858 172.818C147.923 172.753 148.003 172.72 148.096 172.72H148.684C148.787 172.72 148.866 172.753 148.922 172.818C148.987 172.874 149.02 172.953 149.02 173.056V173.672C149.403 173.037 150.051 172.72 150.966 172.72H151.512C151.615 172.72 151.694 172.748 151.75 172.804C151.806 172.86 151.834 172.939 151.834 173.042V173.56C151.834 173.653 151.806 173.733 151.75 173.798C151.694 173.854 151.615 173.882 151.512 173.882H150.714C150.201 173.882 149.795 174.031 149.496 174.33C149.207 174.629 149.062 175.035 149.062 175.548V179.678C149.062 179.771 149.029 179.851 148.964 179.916C148.899 179.972 148.819 180 148.726 180H148.096ZM155.785 180.14C154.833 180.14 154.072 179.846 153.503 179.258C152.934 178.661 152.621 177.849 152.565 176.822L152.551 176.346L152.565 175.884C152.621 174.876 152.934 174.073 153.503 173.476C154.072 172.879 154.833 172.58 155.785 172.58C156.812 172.58 157.605 172.907 158.165 173.56C158.734 174.213 159.019 175.1 159.019 176.22V176.472C159.019 176.565 158.986 176.645 158.921 176.71C158.865 176.766 158.79 176.794 158.697 176.794H153.839V176.92C153.867 177.527 154.054 178.045 154.399 178.474C154.744 178.903 155.202 179.118 155.771 179.118C156.21 179.118 156.564 179.034 156.835 178.866C157.115 178.689 157.325 178.507 157.465 178.32C157.549 178.208 157.614 178.143 157.661 178.124C157.708 178.096 157.787 178.082 157.899 178.082H158.515C158.599 178.082 158.669 178.105 158.725 178.152C158.79 178.199 158.823 178.259 158.823 178.334C158.823 178.539 158.697 178.787 158.445 179.076C158.193 179.365 157.834 179.617 157.367 179.832C156.91 180.037 156.382 180.14 155.785 180.14ZM157.745 175.842V175.8C157.745 175.147 157.568 174.615 157.213 174.204C156.858 173.793 156.382 173.588 155.785 173.588C155.178 173.588 154.702 173.793 154.357 174.204C154.012 174.615 153.839 175.147 153.839 175.8V175.842H157.745Z" fill="#4F5665"/>
<path d="M11.0264 179.73C10.8951 179.73 10.7651 179.705 10.6438 179.655C10.5225 179.604 10.4122 179.531 10.3194 179.438L6.07741 175.195C5.98184 175.103 5.90558 174.993 5.85308 174.871C5.80059 174.749 5.77291 174.617 5.77167 174.485C5.77042 174.352 5.79563 174.22 5.84582 174.097C5.89602 173.974 5.97019 173.863 6.06402 173.769C6.15784 173.675 6.26944 173.6 6.3923 173.55C6.51516 173.5 6.64682 173.474 6.7796 173.475C6.91238 173.476 7.04361 173.504 7.16565 173.556C7.28769 173.608 7.39809 173.685 7.49041 173.78L11.0254 177.315L17.3904 170.952C17.5779 170.764 17.8323 170.659 18.0976 170.659C18.3628 170.659 18.6173 170.764 18.8049 170.952C18.9925 171.139 19.098 171.393 19.0981 171.659C19.0982 171.924 18.9929 172.178 18.8054 172.366L11.7334 179.438C11.6406 179.531 11.5304 179.604 11.409 179.655C11.2877 179.705 11.1577 179.73 11.0264 179.73Z" fill="#2FAB73"/>
<path d="M49.4544 20.14C48.2504 20.14 47.3217 19.818 46.6684 19.174C46.0151 18.5207 45.6884 17.536 45.6884 16.22V10.536C45.6884 10.4333 45.7164 10.354 45.7724 10.298C45.8284 10.2327 45.9031 10.2 45.9964 10.2H46.6684C46.7711 10.2 46.8504 10.2327 46.9064 10.298C46.9717 10.354 47.0044 10.4333 47.0044 10.536V16.248C47.0044 17.1627 47.2144 17.844 47.6344 18.292C48.0637 18.74 48.6704 18.964 49.4544 18.964C50.2291 18.964 50.8264 18.74 51.2464 18.292C51.6757 17.8347 51.8904 17.1533 51.8904 16.248V10.536C51.8904 10.4333 51.9184 10.354 51.9744 10.298C52.0304 10.2327 52.1097 10.2 52.2124 10.2H52.8844C52.9777 10.2 53.0524 10.2327 53.1084 10.298C53.1737 10.354 53.2064 10.4333 53.2064 10.536V16.22C53.2064 17.536 52.8797 18.5207 52.2264 19.174C51.5824 19.818 50.6584 20.14 49.4544 20.14ZM55.7151 20C55.6218 20 55.5425 19.972 55.4771 19.916C55.4211 19.8507 55.3931 19.7713 55.3931 19.678V13.042C55.3931 12.9487 55.4211 12.874 55.4771 12.818C55.5425 12.7527 55.6218 12.72 55.7151 12.72H56.3171C56.4198 12.72 56.4991 12.748 56.5551 12.804C56.6111 12.86 56.6391 12.9393 56.6391 13.042V13.658C56.9191 13.3127 57.2411 13.0467 57.6051 12.86C57.9785 12.6733 58.4405 12.58 58.9911 12.58C59.8871 12.58 60.5825 12.8693 61.0771 13.448C61.5718 14.0173 61.8191 14.7733 61.8191 15.716V19.678C61.8191 19.7713 61.7865 19.8507 61.7211 19.916C61.6651 19.972 61.5905 20 61.4971 20H60.8531C60.7598 20 60.6805 19.972 60.6151 19.916C60.5591 19.8507 60.5311 19.7713 60.5311 19.678V15.8C60.5311 15.128 60.3678 14.6053 60.0411 14.232C59.7145 13.8587 59.2478 13.672 58.6411 13.672C58.0438 13.672 57.5678 13.8633 57.2131 14.246C56.8585 14.6193 56.6811 15.1373 56.6811 15.8V19.678C56.6811 19.7713 56.6485 19.8507 56.5831 19.916C56.5271 19.972 56.4525 20 56.3591 20H55.7151ZM64.1784 20C64.085 20 64.0057 19.972 63.9404 19.916C63.8844 19.8507 63.8564 19.7713 63.8564 19.678V10.382C63.8564 10.2793 63.8844 10.2 63.9404 10.144C64.0057 10.088 64.085 10.06 64.1784 10.06H64.7944C64.8877 10.06 64.9624 10.0927 65.0184 10.158C65.0837 10.214 65.1164 10.2887 65.1164 10.382V19.678C65.1164 19.7713 65.0837 19.8507 65.0184 19.916C64.9624 19.972 64.8877 20 64.7944 20H64.1784ZM67.4293 11.348C67.336 11.348 67.2566 11.32 67.1913 11.264C67.1353 11.1987 67.1073 11.1193 67.1073 11.026V10.298C67.1073 10.2047 67.1353 10.1253 67.1913 10.06C67.2566 9.99467 67.336 9.962 67.4293 9.962H68.2553C68.3486 9.962 68.428 9.99467 68.4933 10.06C68.5586 10.1253 68.5913 10.2047 68.5913 10.298V11.026C68.5913 11.1193 68.5586 11.1987 68.4933 11.264C68.428 11.32 68.3486 11.348 68.2553 11.348H67.4293ZM67.5413 20C67.448 20 67.3686 19.972 67.3033 19.916C67.2473 19.8507 67.2193 19.7713 67.2193 19.678V13.042C67.2193 12.9487 67.2473 12.874 67.3033 12.818C67.3686 12.7527 67.448 12.72 67.5413 12.72H68.1573C68.2506 12.72 68.3253 12.7527 68.3813 12.818C68.4466 12.874 68.4793 12.9487 68.4793 13.042V19.678C68.4793 19.7713 68.4466 19.8507 68.3813 19.916C68.3253 19.972 68.2506 20 68.1573 20H67.5413ZM70.9046 20C70.8113 20 70.7319 19.972 70.6666 19.916C70.6106 19.8507 70.5826 19.7713 70.5826 19.678V13.042C70.5826 12.9487 70.6106 12.874 70.6666 12.818C70.7319 12.7527 70.8113 12.72 70.9046 12.72H71.4926C71.5859 12.72 71.6606 12.7527 71.7166 12.818C71.7726 12.874 71.8006 12.9487 71.8006 13.042V13.518C72.3046 12.8927 72.9859 12.58 73.8446 12.58C74.8713 12.58 75.5993 13.0093 76.0286 13.868C76.2526 13.476 76.5699 13.1633 76.9806 12.93C77.4006 12.6967 77.8673 12.58 78.3806 12.58C79.1459 12.58 79.7713 12.8413 80.2566 13.364C80.7419 13.8867 80.9846 14.6427 80.9846 15.632V19.678C80.9846 19.7713 80.9519 19.8507 80.8866 19.916C80.8306 19.972 80.7559 20 80.6626 20H80.0606C79.9673 20 79.8879 19.972 79.8226 19.916C79.7666 19.8507 79.7386 19.7713 79.7386 19.678V15.758C79.7386 15.0113 79.5846 14.4793 79.2766 14.162C78.9686 13.8353 78.5626 13.672 78.0586 13.672C77.6106 13.672 77.2233 13.84 76.8966 14.176C76.5793 14.5027 76.4206 15.03 76.4206 15.758V19.678C76.4206 19.7713 76.3879 19.8507 76.3226 19.916C76.2666 19.972 76.1919 20 76.0986 20H75.4826C75.3893 20 75.3099 19.972 75.2446 19.916C75.1886 19.8507 75.1606 19.7713 75.1606 19.678V15.758C75.1606 15.0207 74.9973 14.4887 74.6706 14.162C74.3533 13.8353 73.9566 13.672 73.4806 13.672C73.0326 13.672 72.6453 13.8353 72.3186 14.162C72.0013 14.4887 71.8426 15.016 71.8426 15.744V19.678C71.8426 19.7713 71.8099 19.8507 71.7446 19.916C71.6886 19.972 71.6139 20 71.5206 20H70.9046ZM83.2203 11.348C83.127 11.348 83.0477 11.32 82.9823 11.264C82.9263 11.1987 82.8983 11.1193 82.8983 11.026V10.298C82.8983 10.2047 82.9263 10.1253 82.9823 10.06C83.0477 9.99467 83.127 9.962 83.2203 9.962H84.0463C84.1397 9.962 84.219 9.99467 84.2843 10.06C84.3497 10.1253 84.3823 10.2047 84.3823 10.298V11.026C84.3823 11.1193 84.3497 11.1987 84.2843 11.264C84.219 11.32 84.1397 11.348 84.0463 11.348H83.2203ZM83.3323 20C83.239 20 83.1597 19.972 83.0943 19.916C83.0383 19.8507 83.0103 19.7713 83.0103 19.678V13.042C83.0103 12.9487 83.0383 12.874 83.0943 12.818C83.1597 12.7527 83.239 12.72 83.3323 12.72H83.9483C84.0417 12.72 84.1163 12.7527 84.1723 12.818C84.2377 12.874 84.2703 12.9487 84.2703 13.042V19.678C84.2703 19.7713 84.2377 19.8507 84.1723 19.916C84.1163 19.972 84.0417 20 83.9483 20H83.3323ZM89.1736 20C87.7269 20 87.0036 19.1833 87.0036 17.55V13.798H85.8976C85.8043 13.798 85.7296 13.77 85.6736 13.714C85.6176 13.658 85.5896 13.5833 85.5896 13.49V13.042C85.5896 12.9487 85.6176 12.874 85.6736 12.818C85.7296 12.7527 85.8043 12.72 85.8976 12.72H87.0036V10.382C87.0036 10.2887 87.0316 10.214 87.0876 10.158C87.1436 10.0927 87.2183 10.06 87.3116 10.06H87.9276C88.0209 10.06 88.0956 10.0927 88.1516 10.158C88.2169 10.214 88.2496 10.2887 88.2496 10.382V12.72H89.9856C90.0789 12.72 90.1536 12.7527 90.2096 12.818C90.2749 12.874 90.3076 12.9487 90.3076 13.042V13.49C90.3076 13.5833 90.2749 13.658 90.2096 13.714C90.1536 13.77 90.0789 13.798 89.9856 13.798H88.2496V17.452C88.2496 17.928 88.3243 18.2873 88.4736 18.53C88.6323 18.7727 88.8983 18.894 89.2716 18.894H90.1256C90.2189 18.894 90.2936 18.9267 90.3496 18.992C90.4056 19.048 90.4336 19.1227 90.4336 19.216V19.678C90.4336 19.7713 90.4056 19.8507 90.3496 19.916C90.2936 19.972 90.2189 20 90.1256 20H89.1736ZM94.6853 20.14C93.7333 20.14 92.9727 19.846 92.4033 19.258C91.834 18.6607 91.5213 17.8487 91.4653 16.822L91.4513 16.346L91.4653 15.884C91.5213 14.876 91.834 14.0733 92.4033 13.476C92.9727 12.8787 93.7333 12.58 94.6853 12.58C95.712 12.58 96.5053 12.9067 97.0653 13.56C97.6347 14.2133 97.9193 15.1 97.9193 16.22V16.472C97.9193 16.5653 97.8867 16.6447 97.8213 16.71C97.7653 16.766 97.6907 16.794 97.5973 16.794H92.7393V16.92C92.7673 17.5267 92.954 18.0447 93.2993 18.474C93.6447 18.9033 94.102 19.118 94.6713 19.118C95.11 19.118 95.4647 19.034 95.7353 18.866C96.0153 18.6887 96.2253 18.5067 96.3653 18.32C96.4493 18.208 96.5147 18.1427 96.5613 18.124C96.608 18.096 96.6873 18.082 96.7993 18.082H97.4153C97.4993 18.082 97.5693 18.1053 97.6253 18.152C97.6907 18.1987 97.7233 18.2593 97.7233 18.334C97.7233 18.5393 97.5973 18.7867 97.3453 19.076C97.0933 19.3653 96.734 19.6173 96.2673 19.832C95.81 20.0373 95.2827 20.14 94.6853 20.14ZM96.6453 15.842V15.8C96.6453 15.1467 96.468 14.6147 96.1133 14.204C95.7587 13.7933 95.2827 13.588 94.6853 13.588C94.0787 13.588 93.6027 13.7933 93.2573 14.204C92.912 14.6147 92.7393 15.1467 92.7393 15.8V15.842H96.6453ZM102.282 20.14C101.302 20.14 100.564 19.8227 100.07 19.188C99.5843 18.5533 99.323 17.7507 99.2857 16.78L99.2717 16.36L99.2857 15.94C99.323 14.9787 99.589 14.1807 100.084 13.546C100.578 12.902 101.311 12.58 102.282 12.58C103.252 12.58 104.008 12.9253 104.55 13.616V10.382C104.55 10.2887 104.578 10.214 104.634 10.158C104.699 10.0927 104.778 10.06 104.872 10.06H105.502C105.595 10.06 105.67 10.0927 105.726 10.158C105.791 10.214 105.824 10.2887 105.824 10.382V19.678C105.824 19.7713 105.791 19.8507 105.726 19.916C105.67 19.972 105.595 20 105.502 20H104.9C104.806 20 104.732 19.972 104.676 19.916C104.62 19.8507 104.592 19.7713 104.592 19.678V19.076C104.06 19.7853 103.29 20.14 102.282 20.14ZM102.548 19.048C103.201 19.048 103.691 18.8333 104.018 18.404C104.344 17.9653 104.522 17.4473 104.55 16.85C104.559 16.7473 104.564 16.57 104.564 16.318C104.564 16.0567 104.559 15.8747 104.55 15.772C104.531 15.2027 104.349 14.7127 104.004 14.302C103.668 13.882 103.182 13.672 102.548 13.672C101.876 13.672 101.386 13.882 101.078 14.302C100.77 14.722 100.602 15.2727 100.574 15.954L100.56 16.36C100.56 18.152 101.222 19.048 102.548 19.048ZM111.869 20C111.776 20 111.701 19.972 111.645 19.916C111.589 19.8507 111.561 19.7713 111.561 19.678V10.536C111.561 10.4333 111.589 10.354 111.645 10.298C111.701 10.2327 111.776 10.2 111.869 10.2H115.691C116.681 10.2 117.427 10.438 117.931 10.914C118.435 11.39 118.687 12.0107 118.687 12.776C118.687 13.2987 118.566 13.7373 118.323 14.092C118.081 14.4373 117.796 14.6893 117.469 14.848C117.871 15.044 118.207 15.3473 118.477 15.758C118.748 16.1687 118.883 16.64 118.883 17.172C118.883 17.6947 118.762 18.1707 118.519 18.6C118.286 19.0293 117.936 19.37 117.469 19.622C117.003 19.874 116.447 20 115.803 20H111.869ZM115.481 14.358C116.088 14.358 116.55 14.2227 116.867 13.952C117.185 13.672 117.343 13.2847 117.343 12.79C117.343 12.3047 117.185 11.936 116.867 11.684C116.559 11.432 116.097 11.306 115.481 11.306H112.877V14.358H115.481ZM115.621 18.894C116.219 18.894 116.685 18.7353 117.021 18.418C117.367 18.0913 117.539 17.676 117.539 17.172C117.539 16.6587 117.367 16.2433 117.021 15.926C116.685 15.6087 116.219 15.45 115.621 15.45H112.877V18.894H115.621ZM122.733 20.14C122.276 20.14 121.851 20.0467 121.459 19.86C121.077 19.6733 120.769 19.4213 120.535 19.104C120.311 18.7773 120.199 18.418 120.199 18.026C120.199 17.41 120.451 16.906 120.955 16.514C121.459 16.122 122.145 15.8607 123.013 15.73L125.113 15.436V15.03C125.113 14.0687 124.558 13.588 123.447 13.588C123.018 13.588 122.673 13.6767 122.411 13.854C122.15 14.022 121.959 14.2227 121.837 14.456C121.8 14.5493 121.758 14.6147 121.711 14.652C121.674 14.68 121.618 14.694 121.543 14.694H120.997C120.913 14.694 120.839 14.666 120.773 14.61C120.717 14.5447 120.689 14.47 120.689 14.386C120.689 14.1713 120.787 13.924 120.983 13.644C121.189 13.3547 121.501 13.1073 121.921 12.902C122.341 12.6873 122.855 12.58 123.461 12.58C124.507 12.58 125.253 12.8227 125.701 13.308C126.159 13.7933 126.387 14.4 126.387 15.128V19.678C126.387 19.7713 126.355 19.8507 126.289 19.916C126.233 19.972 126.159 20 126.065 20H125.449C125.356 20 125.281 19.972 125.225 19.916C125.169 19.8507 125.141 19.7713 125.141 19.678V19.062C124.936 19.37 124.637 19.6267 124.245 19.832C123.853 20.0373 123.349 20.14 122.733 20.14ZM123.013 19.118C123.629 19.118 124.133 18.9173 124.525 18.516C124.917 18.1147 125.113 17.5313 125.113 16.766V16.374L123.475 16.612C122.803 16.7053 122.295 16.864 121.949 17.088C121.604 17.312 121.431 17.592 121.431 17.928C121.431 18.3107 121.585 18.6047 121.893 18.81C122.211 19.0153 122.584 19.118 123.013 19.118ZM128.737 20C128.643 20 128.564 19.972 128.499 19.916C128.443 19.8507 128.415 19.7713 128.415 19.678V13.042C128.415 12.9487 128.443 12.874 128.499 12.818C128.564 12.7527 128.643 12.72 128.737 12.72H129.339C129.441 12.72 129.521 12.748 129.577 12.804C129.633 12.86 129.661 12.9393 129.661 13.042V13.658C129.941 13.3127 130.263 13.0467 130.627 12.86C131 12.6733 131.462 12.58 132.013 12.58C132.909 12.58 133.604 12.8693 134.099 13.448C134.593 14.0173 134.841 14.7733 134.841 15.716V19.678C134.841 19.7713 134.808 19.8507 134.743 19.916C134.687 19.972 134.612 20 134.519 20H133.875C133.781 20 133.702 19.972 133.637 19.916C133.581 19.8507 133.553 19.7713 133.553 19.678V15.8C133.553 15.128 133.389 14.6053 133.063 14.232C132.736 13.8587 132.269 13.672 131.663 13.672C131.065 13.672 130.589 13.8633 130.235 14.246C129.88 14.6193 129.703 15.1373 129.703 15.8V19.678C129.703 19.7713 129.67 19.8507 129.605 19.916C129.549 19.972 129.474 20 129.381 20H128.737ZM139.524 20.14C138.544 20.14 137.807 19.8227 137.312 19.188C136.827 18.5533 136.565 17.7507 136.528 16.78L136.514 16.36L136.528 15.94C136.565 14.9787 136.831 14.1807 137.326 13.546C137.821 12.902 138.553 12.58 139.524 12.58C140.495 12.58 141.251 12.9253 141.792 13.616V10.382C141.792 10.2887 141.82 10.214 141.876 10.158C141.941 10.0927 142.021 10.06 142.114 10.06H142.744C142.837 10.06 142.912 10.0927 142.968 10.158C143.033 10.214 143.066 10.2887 143.066 10.382V19.678C143.066 19.7713 143.033 19.8507 142.968 19.916C142.912 19.972 142.837 20 142.744 20H142.142C142.049 20 141.974 19.972 141.918 19.916C141.862 19.8507 141.834 19.7713 141.834 19.678V19.076C141.302 19.7853 140.532 20.14 139.524 20.14ZM139.79 19.048C140.443 19.048 140.933 18.8333 141.26 18.404C141.587 17.9653 141.764 17.4473 141.792 16.85C141.801 16.7473 141.806 16.57 141.806 16.318C141.806 16.0567 141.801 15.8747 141.792 15.772C141.773 15.2027 141.591 14.7127 141.246 14.302C140.91 13.882 140.425 13.672 139.79 13.672C139.118 13.672 138.628 13.882 138.32 14.302C138.012 14.722 137.844 15.2727 137.816 15.954L137.802 16.36C137.802 18.152 138.465 19.048 139.79 19.048ZM147.108 20C146.978 20 146.88 19.972 146.814 19.916C146.749 19.86 146.698 19.7713 146.66 19.65L144.672 13.154L144.644 13.014C144.644 12.93 144.672 12.86 144.728 12.804C144.784 12.748 144.854 12.72 144.938 12.72H145.512C145.606 12.72 145.68 12.748 145.736 12.804C145.802 12.8507 145.839 12.8973 145.848 12.944L147.43 18.292L149.11 13.014C149.129 12.9393 149.171 12.874 149.236 12.818C149.302 12.7527 149.39 12.72 149.502 12.72H149.95C150.062 12.72 150.151 12.7527 150.216 12.818C150.282 12.874 150.324 12.9393 150.342 13.014L152.022 18.292L153.604 12.944C153.614 12.8973 153.646 12.8507 153.702 12.804C153.768 12.748 153.847 12.72 153.94 12.72H154.514C154.598 12.72 154.668 12.748 154.724 12.804C154.78 12.86 154.808 12.93 154.808 13.014L154.78 13.154L152.792 19.65C152.755 19.7713 152.704 19.86 152.638 19.916C152.573 19.972 152.475 20 152.344 20H151.84C151.598 20 151.439 19.8833 151.364 19.65L149.726 14.582L148.088 19.65C148.014 19.8833 147.855 20 147.612 20H147.108ZM156.584 11.348C156.49 11.348 156.411 11.32 156.346 11.264C156.29 11.1987 156.262 11.1193 156.262 11.026V10.298C156.262 10.2047 156.29 10.1253 156.346 10.06C156.411 9.99467 156.49 9.962 156.584 9.962H157.41C157.503 9.962 157.582 9.99467 157.648 10.06C157.713 10.1253 157.746 10.2047 157.746 10.298V11.026C157.746 11.1193 157.713 11.1987 157.648 11.264C157.582 11.32 157.503 11.348 157.41 11.348H156.584ZM156.696 20C156.602 20 156.523 19.972 156.458 19.916C156.402 19.8507 156.374 19.7713 156.374 19.678V13.042C156.374 12.9487 156.402 12.874 156.458 12.818C156.523 12.7527 156.602 12.72 156.696 12.72H157.312C157.405 12.72 157.48 12.7527 157.536 12.818C157.601 12.874 157.634 12.9487 157.634 13.042V19.678C157.634 19.7713 157.601 19.8507 157.536 19.916C157.48 19.972 157.405 20 157.312 20H156.696ZM162.537 20C161.09 20 160.367 19.1833 160.367 17.55V13.798H159.261C159.168 13.798 159.093 13.77 159.037 13.714C158.981 13.658 158.953 13.5833 158.953 13.49V13.042C158.953 12.9487 158.981 12.874 159.037 12.818C159.093 12.7527 159.168 12.72 159.261 12.72H160.367V10.382C160.367 10.2887 160.395 10.214 160.451 10.158C160.507 10.0927 160.582 10.06 160.675 10.06H161.291C161.384 10.06 161.459 10.0927 161.515 10.158C161.58 10.214 161.613 10.2887 161.613 10.382V12.72H163.349C163.442 12.72 163.517 12.7527 163.573 12.818C163.638 12.874 163.671 12.9487 163.671 13.042V13.49C163.671 13.5833 163.638 13.658 163.573 13.714C163.517 13.77 163.442 13.798 163.349 13.798H161.613V17.452C161.613 17.928 161.688 18.2873 161.837 18.53C161.996 18.7727 162.262 18.894 162.635 18.894H163.489C163.582 18.894 163.657 18.9267 163.713 18.992C163.769 19.048 163.797 19.1227 163.797 19.216V19.678C163.797 19.7713 163.769 19.8507 163.713 19.916C163.657 19.972 163.582 20 163.489 20H162.537ZM168.077 20.14C167.078 20.14 166.299 19.86 165.739 19.3C165.179 18.7307 164.885 17.9373 164.857 16.92L164.843 16.36L164.857 15.8C164.885 14.7827 165.179 13.994 165.739 13.434C166.299 12.8647 167.078 12.58 168.077 12.58C168.749 12.58 169.313 12.7013 169.771 12.944C170.237 13.1773 170.583 13.4713 170.807 13.826C171.04 14.1807 171.166 14.5353 171.185 14.89C171.194 14.974 171.161 15.0487 171.087 15.114C171.021 15.1793 170.947 15.212 170.863 15.212H170.247C170.153 15.212 170.083 15.1933 170.037 15.156C169.99 15.1093 169.943 15.03 169.897 14.918C169.729 14.4607 169.495 14.1387 169.197 13.952C168.907 13.756 168.539 13.658 168.091 13.658C167.503 13.658 167.036 13.84 166.691 14.204C166.345 14.568 166.159 15.1233 166.131 15.87L166.117 16.36L166.131 16.85C166.159 17.5967 166.345 18.152 166.691 18.516C167.036 18.88 167.503 19.062 168.091 19.062C168.548 19.062 168.921 18.9687 169.211 18.782C169.5 18.586 169.729 18.2593 169.897 17.802C169.943 17.69 169.99 17.6153 170.037 17.578C170.083 17.5313 170.153 17.508 170.247 17.508H170.863C170.947 17.508 171.021 17.5407 171.087 17.606C171.161 17.6713 171.194 17.746 171.185 17.83C171.166 18.1753 171.04 18.5253 170.807 18.88C170.583 19.2347 170.237 19.5333 169.771 19.776C169.313 20.0187 168.749 20.14 168.077 20.14ZM173.198 20C173.105 20 173.025 19.972 172.96 19.916C172.904 19.8507 172.876 19.7713 172.876 19.678V10.382C172.876 10.2793 172.904 10.2 172.96 10.144C173.025 10.088 173.105 10.06 173.198 10.06H173.842C173.945 10.06 174.024 10.088 174.08 10.144C174.136 10.2 174.164 10.2793 174.164 10.382V13.644C174.435 13.2987 174.752 13.0373 175.116 12.86C175.489 12.6733 175.947 12.58 176.488 12.58C177.384 12.58 178.079 12.8693 178.574 13.448C179.078 14.0173 179.33 14.7733 179.33 15.716V19.678C179.33 19.7713 179.297 19.8507 179.232 19.916C179.176 19.972 179.101 20 179.008 20H178.35C178.257 20 178.177 19.972 178.112 19.916C178.056 19.8507 178.028 19.7713 178.028 19.678V15.8C178.028 15.128 177.865 14.6053 177.538 14.232C177.211 13.8587 176.74 13.672 176.124 13.672C175.527 13.672 175.051 13.8633 174.696 14.246C174.341 14.6193 174.164 15.1373 174.164 15.8V19.678C174.164 19.7713 174.131 19.8507 174.066 19.916C174.01 19.972 173.935 20 173.842 20H173.198Z" fill="#4F5665"/>
<path d="M10.6663 19.73C10.535 19.7303 10.405 19.7046 10.2837 19.6545C10.1624 19.6044 10.0521 19.5308 9.9593 19.438L5.7173 15.195C5.62173 15.1028 5.54547 14.9925 5.49298 14.8706C5.44048 14.7486 5.41281 14.6174 5.41156 14.4846C5.41031 14.3518 5.43552 14.2201 5.48571 14.0972C5.53591 13.9743 5.61008 13.8626 5.70391 13.7686C5.79773 13.6747 5.90933 13.6003 6.03219 13.55C6.15505 13.4996 6.28671 13.4742 6.41949 13.4753C6.55227 13.4763 6.68351 13.5038 6.80555 13.5561C6.92759 13.6085 7.03799 13.6846 7.1303 13.78L10.6653 17.315L17.0303 10.952C17.2178 10.7644 17.4722 10.6589 17.7374 10.6588C18.0027 10.6587 18.2572 10.764 18.4448 10.9515C18.6324 11.139 18.7379 11.3934 18.738 11.6586C18.7381 11.9239 18.6328 12.1784 18.4453 12.366L11.3733 19.438C11.2805 19.5308 11.1702 19.6044 11.0489 19.6545C10.9276 19.7046 10.7976 19.7303 10.6663 19.73Z" fill="#2FAB73"/>
</svg>
