<svg width="192" height="151" viewBox="0 0 192 151" fill="none" xmlns="http://www.w3.org/2000/svg">
<path d="M46.6718 60.5496C46.5784 60.5496 46.5038 60.5216 46.4478 60.4656C46.3918 60.4002 46.3638 60.3209 46.3638 60.2276V51.0856C46.3638 50.9829 46.3918 50.9036 46.4478 50.8476C46.5038 50.7822 46.5784 50.7496 46.6718 50.7496H52.4258C52.5284 50.7496 52.6078 50.7822 52.6638 50.8476C52.7291 50.9036 52.7618 50.9829 52.7618 51.0856V51.5896C52.7618 51.6829 52.7291 51.7576 52.6638 51.8136C52.6078 51.8696 52.5284 51.8976 52.4258 51.8976H47.6518V55.0196H52.1178C52.2204 55.0196 52.2998 55.0522 52.3558 55.1176C52.4211 55.1736 52.4538 55.2529 52.4538 55.3556V55.8316C52.4538 55.9249 52.4211 56.0042 52.3558 56.0696C52.2998 56.1256 52.2204 56.1536 52.1178 56.1536H47.6518V59.3876H52.5378C52.6404 59.3876 52.7198 59.4202 52.7758 59.4856C52.8411 59.5416 52.8738 59.6209 52.8738 59.7236V60.2276C52.8738 60.3209 52.8411 60.4002 52.7758 60.4656C52.7104 60.5216 52.6311 60.5496 52.5378 60.5496H46.6718ZM54.9803 60.5496C54.887 60.5496 54.8077 60.5216 54.7423 60.4656C54.6863 60.4002 54.6583 60.3209 54.6583 60.2276V53.5916C54.6583 53.4982 54.6863 53.4236 54.7423 53.3676C54.8077 53.3022 54.887 53.2696 54.9803 53.2696H55.5823C55.685 53.2696 55.7643 53.2976 55.8203 53.3536C55.8763 53.4096 55.9043 53.4889 55.9043 53.5916V54.2076C56.1843 53.8622 56.5063 53.5962 56.8703 53.4096C57.2437 53.2229 57.7057 53.1296 58.2563 53.1296C59.1523 53.1296 59.8477 53.4189 60.3423 53.9976C60.837 54.5669 61.0843 55.3229 61.0843 56.2656V60.2276C61.0843 60.3209 61.0517 60.4002 60.9863 60.4656C60.9303 60.5216 60.8557 60.5496 60.7623 60.5496H60.1183C60.025 60.5496 59.9457 60.5216 59.8803 60.4656C59.8243 60.4002 59.7963 60.3209 59.7963 60.2276V56.3496C59.7963 55.6776 59.633 55.1549 59.3063 54.7816C58.9797 54.4082 58.513 54.2216 57.9063 54.2216C57.309 54.2216 56.833 54.4129 56.4783 54.7956C56.1237 55.1689 55.9463 55.6869 55.9463 56.3496V60.2276C55.9463 60.3209 55.9137 60.4002 55.8483 60.4656C55.7923 60.5216 55.7177 60.5496 55.6243 60.5496H54.9803ZM66.0196 60.6896C65.0209 60.6896 64.2416 60.4096 63.6816 59.8496C63.1216 59.2802 62.8276 58.4869 62.7996 57.4696L62.7856 56.9096L62.7996 56.3496C62.8276 55.3322 63.1216 54.5436 63.6816 53.9836C64.2416 53.4142 65.0209 53.1296 66.0196 53.1296C66.6916 53.1296 67.2562 53.2509 67.7136 53.4936C68.1802 53.7269 68.5256 54.0209 68.7496 54.3756C68.9829 54.7302 69.1089 55.0849 69.1276 55.4396C69.1369 55.5236 69.1042 55.5982 69.0296 55.6636C68.9642 55.7289 68.8896 55.7616 68.8056 55.7616H68.1896C68.0962 55.7616 68.0262 55.7429 67.9796 55.7056C67.9329 55.6589 67.8862 55.5796 67.8396 55.4676C67.6716 55.0102 67.4382 54.6882 67.1396 54.5016C66.8502 54.3056 66.4816 54.2076 66.0336 54.2076C65.4456 54.2076 64.9789 54.3896 64.6336 54.7536C64.2882 55.1176 64.1016 55.6729 64.0736 56.4196L64.0596 56.9096L64.0736 57.3996C64.1016 58.1462 64.2882 58.7016 64.6336 59.0656C64.9789 59.4296 65.4456 59.6116 66.0336 59.6116C66.4909 59.6116 66.8642 59.5182 67.1536 59.3316C67.4429 59.1356 67.6716 58.8089 67.8396 58.3516C67.8862 58.2396 67.9329 58.1649 67.9796 58.1276C68.0262 58.0809 68.0962 58.0576 68.1896 58.0576H68.8056C68.8896 58.0576 68.9642 58.0902 69.0296 58.1556C69.1042 58.2209 69.1369 58.2956 69.1276 58.3796C69.1089 58.7249 68.9829 59.0749 68.7496 59.4296C68.5256 59.7842 68.1802 60.0829 67.7136 60.3256C67.2562 60.5682 66.6916 60.6896 66.0196 60.6896ZM71.1268 60.5496C71.0335 60.5496 70.9542 60.5216 70.8888 60.4656C70.8328 60.4002 70.8048 60.3209 70.8048 60.2276V53.6056C70.8048 53.5122 70.8328 53.4329 70.8888 53.3676C70.9542 53.3022 71.0335 53.2696 71.1268 53.2696H71.7148C71.8175 53.2696 71.8968 53.3022 71.9528 53.3676C72.0182 53.4236 72.0508 53.5029 72.0508 53.6056V54.2216C72.4335 53.5869 73.0822 53.2696 73.9968 53.2696H74.5428C74.6455 53.2696 74.7248 53.2976 74.7808 53.3536C74.8368 53.4096 74.8648 53.4889 74.8648 53.5916V54.1096C74.8648 54.2029 74.8368 54.2822 74.7808 54.3476C74.7248 54.4036 74.6455 54.4316 74.5428 54.4316H73.7448C73.2315 54.4316 72.8255 54.5809 72.5268 54.8796C72.2375 55.1782 72.0928 55.5842 72.0928 56.0976V60.2276C72.0928 60.3209 72.0602 60.4002 71.9948 60.4656C71.9295 60.5216 71.8502 60.5496 71.7568 60.5496H71.1268ZM77.3425 63.2096C77.2585 63.2096 77.1885 63.1816 77.1325 63.1256C77.0765 63.0696 77.0485 63.0042 77.0485 62.9296C77.0485 62.9016 77.0718 62.8176 77.1185 62.6776L78.2105 60.1156L75.5365 53.8016C75.4805 53.6896 75.4525 53.6102 75.4525 53.5636C75.4618 53.4796 75.4945 53.4096 75.5505 53.3536C75.6065 53.2976 75.6718 53.2696 75.7465 53.2696H76.3905C76.5398 53.2696 76.6518 53.3442 76.7265 53.4936L78.8825 58.6456L81.0945 53.4936C81.1692 53.3442 81.2812 53.2696 81.4305 53.2696H82.0605C82.1352 53.2696 82.2005 53.2976 82.2565 53.3536C82.3125 53.4096 82.3405 53.4749 82.3405 53.5496C82.3405 53.6149 82.3172 53.6989 82.2705 53.8016L78.3085 62.9856C78.2618 63.0602 78.2105 63.1162 78.1545 63.1536C78.1078 63.1909 78.0425 63.2096 77.9585 63.2096H77.3425ZM84.0881 63.2096C83.9948 63.2096 83.9154 63.1816 83.8501 63.1256C83.7941 63.0696 83.7661 62.9902 83.7661 62.8876V53.5916C83.7661 53.4889 83.7941 53.4096 83.8501 53.3536C83.9154 53.2976 83.9948 53.2696 84.0881 53.2696H84.6761C84.7788 53.2696 84.8581 53.2976 84.9141 53.3536C84.9701 53.4096 84.9981 53.4889 84.9981 53.5916V54.2076C85.5394 53.4889 86.3094 53.1296 87.3081 53.1296C88.2881 53.1296 89.0208 53.4422 89.5061 54.0676C90.0008 54.6836 90.2621 55.4722 90.2901 56.4336C90.2994 56.5362 90.3041 56.6949 90.3041 56.9096C90.3041 57.1242 90.2994 57.2829 90.2901 57.3856C90.2621 58.3376 90.0008 59.1262 89.5061 59.7516C89.0208 60.3769 88.2881 60.6896 87.3081 60.6896C86.3094 60.6896 85.5534 60.3349 85.0401 59.6256V62.8876C85.0401 62.9809 85.0074 63.0556 84.9421 63.1116C84.8861 63.1769 84.8114 63.2096 84.7181 63.2096H84.0881ZM87.0421 59.5976C87.7141 59.5976 88.2041 59.3876 88.5121 58.9676C88.8201 58.5476 88.9881 57.9969 89.0161 57.3156C89.0254 57.2222 89.0301 57.0869 89.0301 56.9096C89.0301 55.1176 88.3674 54.2216 87.0421 54.2216C86.3888 54.2216 85.8941 54.4409 85.5581 54.8796C85.2314 55.3089 85.0588 55.8176 85.0401 56.4056C85.0308 56.5082 85.0261 56.6902 85.0261 56.9516C85.0261 57.2129 85.0308 57.3949 85.0401 57.4976C85.0588 58.0669 85.2361 58.5616 85.5721 58.9816C85.9174 59.3922 86.4074 59.5976 87.0421 59.5976ZM94.7826 60.5496C93.3359 60.5496 92.6126 59.7329 92.6126 58.0996V54.3476H91.5066C91.4132 54.3476 91.3386 54.3196 91.2826 54.2636C91.2266 54.2076 91.1986 54.1329 91.1986 54.0396V53.5916C91.1986 53.4982 91.2266 53.4236 91.2826 53.3676C91.3386 53.3022 91.4132 53.2696 91.5066 53.2696H92.6126V50.9316C92.6126 50.8382 92.6406 50.7636 92.6966 50.7076C92.7526 50.6422 92.8272 50.6096 92.9206 50.6096H93.5366C93.6299 50.6096 93.7046 50.6422 93.7606 50.7076C93.8259 50.7636 93.8586 50.8382 93.8586 50.9316V53.2696H95.5946C95.6879 53.2696 95.7626 53.3022 95.8186 53.3676C95.8839 53.4236 95.9166 53.4982 95.9166 53.5916V54.0396C95.9166 54.1329 95.8839 54.2076 95.8186 54.2636C95.7626 54.3196 95.6879 54.3476 95.5946 54.3476H93.8586V58.0016C93.8586 58.4776 93.9332 58.8369 94.0826 59.0796C94.2412 59.3222 94.5072 59.4436 94.8806 59.4436H95.7346C95.8279 59.4436 95.9026 59.4762 95.9586 59.5416C96.0146 59.5976 96.0426 59.6722 96.0426 59.7656V60.2276C96.0426 60.3209 96.0146 60.4002 95.9586 60.4656C95.9026 60.5216 95.8279 60.5496 95.7346 60.5496H94.7826ZM100.294 60.6896C99.3423 60.6896 98.5816 60.3956 98.0123 59.8076C97.443 59.2102 97.1303 58.3982 97.0743 57.3716L97.0603 56.8956L97.0743 56.4336C97.1303 55.4256 97.443 54.6229 98.0123 54.0256C98.5816 53.4282 99.3423 53.1296 100.294 53.1296C101.321 53.1296 102.114 53.4562 102.674 54.1096C103.244 54.7629 103.528 55.6496 103.528 56.7696V57.0216C103.528 57.1149 103.496 57.1942 103.43 57.2596C103.374 57.3156 103.3 57.3436 103.206 57.3436H98.3483V57.4696C98.3763 58.0762 98.563 58.5942 98.9083 59.0236C99.2536 59.4529 99.711 59.6676 100.28 59.6676C100.719 59.6676 101.074 59.5836 101.344 59.4156C101.624 59.2382 101.834 59.0562 101.974 58.8696C102.058 58.7576 102.124 58.6922 102.17 58.6736C102.217 58.6456 102.296 58.6316 102.408 58.6316H103.024C103.108 58.6316 103.178 58.6549 103.234 58.7016C103.3 58.7482 103.332 58.8089 103.332 58.8836C103.332 59.0889 103.206 59.3362 102.954 59.6256C102.702 59.9149 102.343 60.1669 101.876 60.3816C101.419 60.5869 100.892 60.6896 100.294 60.6896ZM102.254 56.3916V56.3496C102.254 55.6962 102.077 55.1642 101.722 54.7536C101.368 54.3429 100.892 54.1376 100.294 54.1376C99.6876 54.1376 99.2116 54.3429 98.8663 54.7536C98.521 55.1642 98.3483 55.6962 98.3483 56.3496V56.3916H102.254ZM107.891 60.6896C106.911 60.6896 106.173 60.3722 105.679 59.7376C105.193 59.1029 104.932 58.3002 104.895 57.3296L104.881 56.9096L104.895 56.4896C104.932 55.5282 105.198 54.7302 105.693 54.0956C106.187 53.4516 106.92 53.1296 107.891 53.1296C108.861 53.1296 109.617 53.4749 110.159 54.1656V50.9316C110.159 50.8382 110.187 50.7636 110.243 50.7076C110.308 50.6422 110.387 50.6096 110.481 50.6096H111.111C111.204 50.6096 111.279 50.6422 111.335 50.7076C111.4 50.7636 111.433 50.8382 111.433 50.9316V60.2276C111.433 60.3209 111.4 60.4002 111.335 60.4656C111.279 60.5216 111.204 60.5496 111.111 60.5496H110.509C110.415 60.5496 110.341 60.5216 110.285 60.4656C110.229 60.4002 110.201 60.3209 110.201 60.2276V59.6256C109.669 60.3349 108.899 60.6896 107.891 60.6896ZM108.157 59.5976C108.81 59.5976 109.3 59.3829 109.627 58.9536C109.953 58.5149 110.131 57.9969 110.159 57.3996C110.168 57.2969 110.173 57.1196 110.173 56.8676C110.173 56.6062 110.168 56.4242 110.159 56.3216C110.14 55.7522 109.958 55.2622 109.613 54.8516C109.277 54.4316 108.791 54.2216 108.157 54.2216C107.485 54.2216 106.995 54.4316 106.687 54.8516C106.379 55.2716 106.211 55.8222 106.183 56.5036L106.169 56.9096C106.169 58.7016 106.831 59.5976 108.157 59.5976ZM120.67 60.6896C119.429 60.6896 118.482 60.3536 117.828 59.6816C117.184 59.0002 116.839 58.0716 116.792 56.8956C116.783 56.6436 116.778 56.2329 116.778 55.6636C116.778 55.0849 116.783 54.6649 116.792 54.4036C116.839 53.2276 117.184 52.3036 117.828 51.6316C118.482 50.9502 119.429 50.6096 120.67 50.6096C121.501 50.6096 122.206 50.7589 122.784 51.0576C123.363 51.3469 123.797 51.7296 124.086 52.2056C124.385 52.6816 124.548 53.1902 124.576 53.7316C124.576 53.8156 124.544 53.8856 124.478 53.9416C124.422 53.9882 124.352 54.0116 124.268 54.0116H123.568C123.475 54.0116 123.4 53.9882 123.344 53.9416C123.288 53.8949 123.246 53.8156 123.218 53.7036C123.06 52.9849 122.77 52.4809 122.35 52.1916C121.94 51.9022 121.38 51.7576 120.67 51.7576C119.046 51.7576 118.202 52.6629 118.136 54.4736C118.127 54.7256 118.122 55.1129 118.122 55.6356C118.122 56.1582 118.127 56.5549 118.136 56.8256C118.202 58.6269 119.046 59.5276 120.67 59.5276C121.37 59.5276 121.93 59.3829 122.35 59.0936C122.77 58.8042 123.06 58.3049 123.218 57.5956C123.246 57.4836 123.288 57.4042 123.344 57.3576C123.4 57.3109 123.475 57.2876 123.568 57.2876H124.268C124.352 57.2876 124.422 57.3156 124.478 57.3716C124.544 57.4182 124.576 57.4836 124.576 57.5676C124.548 58.1089 124.385 58.6176 124.086 59.0936C123.797 59.5696 123.363 59.9569 122.784 60.2556C122.206 60.5449 121.501 60.6896 120.67 60.6896ZM129.253 60.6896C128.226 60.6896 127.433 60.4002 126.873 59.8216C126.322 59.2429 126.028 58.4729 125.991 57.5116L125.977 56.9096L125.991 56.3076C126.028 55.3462 126.327 54.5762 126.887 53.9976C127.456 53.4189 128.245 53.1296 129.253 53.1296C130.261 53.1296 131.045 53.4189 131.605 53.9976C132.174 54.5762 132.478 55.3462 132.515 56.3076C132.534 56.5129 132.543 56.7136 132.543 56.9096C132.543 57.1056 132.534 57.3062 132.515 57.5116C132.478 58.4729 132.179 59.2429 131.619 59.8216C131.068 60.4002 130.28 60.6896 129.253 60.6896ZM129.253 59.6396C129.85 59.6396 130.322 59.4529 130.667 59.0796C131.022 58.6969 131.213 58.1509 131.241 57.4416C131.25 57.3482 131.255 57.1709 131.255 56.9096C131.255 56.6482 131.25 56.4709 131.241 56.3776C131.213 55.6682 131.022 55.1269 130.667 54.7536C130.322 54.3709 129.85 54.1796 129.253 54.1796C128.656 54.1796 128.18 54.3709 127.825 54.7536C127.48 55.1269 127.293 55.6682 127.265 56.3776L127.251 56.9096L127.265 57.4416C127.293 58.1509 127.48 58.6969 127.825 59.0796C128.18 59.4529 128.656 59.6396 129.253 59.6396ZM134.633 60.5496C134.539 60.5496 134.46 60.5216 134.395 60.4656C134.339 60.4002 134.311 60.3209 134.311 60.2276V53.5916C134.311 53.4982 134.339 53.4236 134.395 53.3676C134.46 53.3022 134.539 53.2696 134.633 53.2696H135.235C135.337 53.2696 135.417 53.2976 135.473 53.3536C135.529 53.4096 135.557 53.4889 135.557 53.5916V54.2076C135.837 53.8622 136.159 53.5962 136.523 53.4096C136.896 53.2229 137.358 53.1296 137.909 53.1296C138.805 53.1296 139.5 53.4189 139.995 53.9976C140.489 54.5669 140.737 55.3229 140.737 56.2656V60.2276C140.737 60.3209 140.704 60.4002 140.639 60.4656C140.583 60.5216 140.508 60.5496 140.415 60.5496H139.771C139.677 60.5496 139.598 60.5216 139.533 60.4656C139.477 60.4002 139.449 60.3209 139.449 60.2276V56.3496C139.449 55.6776 139.285 55.1549 138.959 54.7816C138.632 54.4082 138.165 54.2216 137.559 54.2216C136.961 54.2216 136.485 54.4129 136.131 54.7956C135.776 55.1689 135.599 55.6869 135.599 56.3496V60.2276C135.599 60.3209 135.566 60.4002 135.501 60.4656C135.445 60.5216 135.37 60.5496 135.277 60.5496H134.633ZM143.082 60.5496C142.989 60.5496 142.909 60.5216 142.844 60.4656C142.788 60.4002 142.76 60.3209 142.76 60.2276V53.5916C142.76 53.4982 142.788 53.4236 142.844 53.3676C142.909 53.3022 142.989 53.2696 143.082 53.2696H143.684C143.787 53.2696 143.866 53.2976 143.922 53.3536C143.978 53.4096 144.006 53.4889 144.006 53.5916V54.2076C144.286 53.8622 144.608 53.5962 144.972 53.4096C145.345 53.2229 145.807 53.1296 146.358 53.1296C147.254 53.1296 147.949 53.4189 148.444 53.9976C148.939 54.5669 149.186 55.3229 149.186 56.2656V60.2276C149.186 60.3209 149.153 60.4002 149.088 60.4656C149.032 60.5216 148.957 60.5496 148.864 60.5496H148.22C148.127 60.5496 148.047 60.5216 147.982 60.4656C147.926 60.4002 147.898 60.3209 147.898 60.2276V56.3496C147.898 55.6776 147.735 55.1549 147.408 54.7816C147.081 54.4082 146.615 54.2216 146.008 54.2216C145.411 54.2216 144.935 54.4129 144.58 54.7956C144.225 55.1689 144.048 55.6869 144.048 56.3496V60.2276C144.048 60.3209 144.015 60.4002 143.95 60.4656C143.894 60.5216 143.819 60.5496 143.726 60.5496H143.082ZM154.093 60.6896C153.141 60.6896 152.38 60.3956 151.811 59.8076C151.242 59.2102 150.929 58.3982 150.873 57.3716L150.859 56.8956L150.873 56.4336C150.929 55.4256 151.242 54.6229 151.811 54.0256C152.38 53.4282 153.141 53.1296 154.093 53.1296C155.12 53.1296 155.913 53.4562 156.473 54.1096C157.042 54.7629 157.327 55.6496 157.327 56.7696V57.0216C157.327 57.1149 157.294 57.1942 157.229 57.2596C157.173 57.3156 157.098 57.3436 157.005 57.3436H152.147V57.4696C152.175 58.0762 152.362 58.5942 152.707 59.0236C153.052 59.4529 153.51 59.6676 154.079 59.6676C154.518 59.6676 154.872 59.5836 155.143 59.4156C155.423 59.2382 155.633 59.0562 155.773 58.8696C155.857 58.7576 155.922 58.6922 155.969 58.6736C156.016 58.6456 156.095 58.6316 156.207 58.6316H156.823C156.907 58.6316 156.977 58.6549 157.033 58.7016C157.098 58.7482 157.131 58.8089 157.131 58.8836C157.131 59.0889 157.005 59.3362 156.753 59.6256C156.501 59.9149 156.142 60.1669 155.675 60.3816C155.218 60.5869 154.69 60.6896 154.093 60.6896ZM156.053 56.3916V56.3496C156.053 55.6962 155.876 55.1642 155.521 54.7536C155.166 54.3429 154.69 54.1376 154.093 54.1376C153.486 54.1376 153.01 54.3429 152.665 54.7536C152.32 55.1642 152.147 55.6962 152.147 56.3496V56.3916H156.053ZM161.941 60.6896C160.943 60.6896 160.163 60.4096 159.603 59.8496C159.043 59.2802 158.749 58.4869 158.721 57.4696L158.707 56.9096L158.721 56.3496C158.749 55.3322 159.043 54.5436 159.603 53.9836C160.163 53.4142 160.943 53.1296 161.941 53.1296C162.613 53.1296 163.178 53.2509 163.635 53.4936C164.102 53.7269 164.447 54.0209 164.671 54.3756C164.905 54.7302 165.031 55.0849 165.049 55.4396C165.059 55.5236 165.026 55.5982 164.951 55.6636C164.886 55.7289 164.811 55.7616 164.727 55.7616H164.111C164.018 55.7616 163.948 55.7429 163.901 55.7056C163.855 55.6589 163.808 55.5796 163.761 55.4676C163.593 55.0102 163.36 54.6882 163.061 54.5016C162.772 54.3056 162.403 54.2076 161.955 54.2076C161.367 54.2076 160.901 54.3896 160.555 54.7536C160.21 55.1176 160.023 55.6729 159.995 56.4196L159.981 56.9096L159.995 57.3996C160.023 58.1462 160.21 58.7016 160.555 59.0656C160.901 59.4296 161.367 59.6116 161.955 59.6116C162.413 59.6116 162.786 59.5182 163.075 59.3316C163.365 59.1356 163.593 58.8089 163.761 58.3516C163.808 58.2396 163.855 58.1649 163.901 58.1276C163.948 58.0809 164.018 58.0576 164.111 58.0576H164.727C164.811 58.0576 164.886 58.0902 164.951 58.1556C165.026 58.2209 165.059 58.2956 165.049 58.3796C165.031 58.7249 164.905 59.0749 164.671 59.4296C164.447 59.7842 164.102 60.0829 163.635 60.3256C163.178 60.5682 162.613 60.6896 161.941 60.6896ZM169.527 60.5496C168.08 60.5496 167.357 59.7329 167.357 58.0996V54.3476H166.251C166.157 54.3476 166.083 54.3196 166.027 54.2636C165.971 54.2076 165.943 54.1329 165.943 54.0396V53.5916C165.943 53.4982 165.971 53.4236 166.027 53.3676C166.083 53.3022 166.157 53.2696 166.251 53.2696H167.357V50.9316C167.357 50.8382 167.385 50.7636 167.441 50.7076C167.497 50.6422 167.571 50.6096 167.665 50.6096H168.281C168.374 50.6096 168.449 50.6422 168.505 50.7076C168.57 50.7636 168.603 50.8382 168.603 50.9316V53.2696H170.339C170.432 53.2696 170.507 53.3022 170.563 53.3676C170.628 53.4236 170.661 53.4982 170.661 53.5916V54.0396C170.661 54.1329 170.628 54.2076 170.563 54.2636C170.507 54.3196 170.432 54.3476 170.339 54.3476H168.603V58.0016C168.603 58.4776 168.677 58.8369 168.827 59.0796C168.985 59.3222 169.251 59.4436 169.625 59.4436H170.479C170.572 59.4436 170.647 59.4762 170.703 59.5416C170.759 59.5976 170.787 59.6722 170.787 59.7656V60.2276C170.787 60.3209 170.759 60.4002 170.703 60.4656C170.647 60.5216 170.572 60.5496 170.479 60.5496H169.527ZM172.364 51.8976C172.271 51.8976 172.192 51.8696 172.126 51.8136C172.07 51.7482 172.042 51.6689 172.042 51.5756V50.8476C172.042 50.7542 172.07 50.6749 172.126 50.6096C172.192 50.5442 172.271 50.5116 172.364 50.5116H173.19C173.284 50.5116 173.363 50.5442 173.428 50.6096C173.494 50.6749 173.526 50.7542 173.526 50.8476V51.5756C173.526 51.6689 173.494 51.7482 173.428 51.8136C173.363 51.8696 173.284 51.8976 173.19 51.8976H172.364ZM172.476 60.5496C172.383 60.5496 172.304 60.5216 172.238 60.4656C172.182 60.4002 172.154 60.3209 172.154 60.2276V53.5916C172.154 53.4982 172.182 53.4236 172.238 53.3676C172.304 53.3022 172.383 53.2696 172.476 53.2696H173.092C173.186 53.2696 173.26 53.3022 173.316 53.3676C173.382 53.4236 173.414 53.4982 173.414 53.5916V60.2276C173.414 60.3209 173.382 60.4002 173.316 60.4656C173.26 60.5216 173.186 60.5496 173.092 60.5496H172.476ZM178.472 60.6896C177.445 60.6896 176.652 60.4002 176.092 59.8216C175.541 59.2429 175.247 58.4729 175.21 57.5116L175.196 56.9096L175.21 56.3076C175.247 55.3462 175.546 54.5762 176.106 53.9976C176.675 53.4189 177.464 53.1296 178.472 53.1296C179.48 53.1296 180.264 53.4189 180.824 53.9976C181.393 54.5762 181.696 55.3462 181.734 56.3076C181.752 56.5129 181.762 56.7136 181.762 56.9096C181.762 57.1056 181.752 57.3062 181.734 57.5116C181.696 58.4729 181.398 59.2429 180.838 59.8216C180.287 60.4002 179.498 60.6896 178.472 60.6896ZM178.472 59.6396C179.069 59.6396 179.54 59.4529 179.886 59.0796C180.24 58.6969 180.432 58.1509 180.46 57.4416C180.469 57.3482 180.474 57.1709 180.474 56.9096C180.474 56.6482 180.469 56.4709 180.46 56.3776C180.432 55.6682 180.24 55.1269 179.886 54.7536C179.54 54.3709 179.069 54.1796 178.472 54.1796C177.874 54.1796 177.398 54.3709 177.044 54.7536C176.698 55.1269 176.512 55.6682 176.484 56.3776L176.47 56.9096L176.484 57.4416C176.512 58.1509 176.698 58.6969 177.044 59.0796C177.398 59.4529 177.874 59.6396 178.472 59.6396ZM183.851 60.5496C183.758 60.5496 183.679 60.5216 183.613 60.4656C183.557 60.4002 183.529 60.3209 183.529 60.2276V53.5916C183.529 53.4982 183.557 53.4236 183.613 53.3676C183.679 53.3022 183.758 53.2696 183.851 53.2696H184.453C184.556 53.2696 184.635 53.2976 184.691 53.3536C184.747 53.4096 184.775 53.4889 184.775 53.5916V54.2076C185.055 53.8622 185.377 53.5962 185.741 53.4096C186.115 53.2229 186.577 53.1296 187.127 53.1296C188.023 53.1296 188.719 53.4189 189.213 53.9976C189.708 54.5669 189.955 55.3229 189.955 56.2656V60.2276C189.955 60.3209 189.923 60.4002 189.857 60.4656C189.801 60.5216 189.727 60.5496 189.633 60.5496H188.989C188.896 60.5496 188.817 60.5216 188.751 60.4656C188.695 60.4002 188.667 60.3209 188.667 60.2276V56.3496C188.667 55.6776 188.504 55.1549 188.177 54.7816C187.851 54.4082 187.384 54.2216 186.777 54.2216C186.18 54.2216 185.704 54.4129 185.349 54.7956C184.995 55.1689 184.817 55.6869 184.817 56.3496V60.2276C184.817 60.3209 184.785 60.4002 184.719 60.4656C184.663 60.5216 184.589 60.5496 184.495 60.5496H183.851Z" fill="#4F5665"/>
<path d="M11.3797 60.2796C11.2485 60.2798 11.1184 60.2542 10.9971 60.2041C10.8758 60.154 10.7655 60.0804 10.6727 59.9876L6.43073 55.7446C6.33515 55.6524 6.25889 55.5421 6.2064 55.4201C6.15391 55.2982 6.12623 55.167 6.12498 55.0342C6.12374 54.9014 6.14895 54.7697 6.19914 54.6468C6.24933 54.5238 6.32351 54.4121 6.41733 54.3182C6.51116 54.2242 6.62276 54.1499 6.74562 54.0995C6.86847 54.0492 7.00013 54.0238 7.13291 54.0248C7.26569 54.0259 7.39693 54.0534 7.51897 54.1057C7.64101 54.158 7.75141 54.2341 7.84373 54.3296L11.3787 57.8646L17.7437 51.5016C17.9312 51.3139 18.1856 51.2085 18.4509 51.2084C18.7161 51.2083 18.9706 51.3136 19.1582 51.5011C19.3459 51.6886 19.4513 51.9429 19.4514 52.2082C19.4515 52.4735 19.3462 52.7279 19.1587 52.9156L12.0867 59.9876C11.9939 60.0804 11.8837 60.154 11.7623 60.2041C11.641 60.2542 11.511 60.2798 11.3797 60.2796Z" fill="#2FAB73"/>
<path d="M11.6178 100.28C11.4865 100.28 11.3565 100.254 11.2351 100.204C11.1138 100.154 11.0036 100.08 10.9108 99.9876L6.66876 95.7446C6.57319 95.6524 6.49693 95.5421 6.44444 95.4201C6.39194 95.2982 6.36427 95.167 6.36302 95.0342C6.36177 94.9014 6.38698 94.7697 6.43718 94.6468C6.48737 94.5238 6.56154 94.4121 6.65537 94.3182C6.74919 94.2242 6.86079 94.1499 6.98365 94.0995C7.10651 94.0492 7.23817 94.0238 7.37095 94.0248C7.50373 94.0259 7.63497 94.0534 7.75701 94.1057C7.87905 94.158 7.98945 94.2341 8.08176 94.3296L11.6168 97.8646L17.9818 91.5016C18.1693 91.3139 18.4236 91.2085 18.6889 91.2084C18.9542 91.2083 19.2086 91.3136 19.3963 91.5011C19.5839 91.6886 19.6894 91.9429 19.6895 92.2082C19.6896 92.4735 19.5843 92.7279 19.3968 92.9156L12.3248 99.9876C12.2319 100.08 12.1217 100.154 12.0004 100.204C11.8791 100.254 11.749 100.28 11.6178 100.28Z" fill="#2FAB73"/>
<path d="M46.6718 100.55C46.5784 100.55 46.5038 100.522 46.4478 100.466C46.3918 100.4 46.3638 100.321 46.3638 100.228V91.0856C46.3638 90.9829 46.3918 90.9036 46.4478 90.8476C46.5038 90.7822 46.5784 90.7496 46.6718 90.7496H47.2878C47.3811 90.7496 47.4511 90.7682 47.4978 90.8056C47.5444 90.8429 47.5911 90.8896 47.6378 90.9456L52.3278 98.1696V91.0856C52.3278 90.9829 52.3558 90.9036 52.4118 90.8476C52.4771 90.7822 52.5564 90.7496 52.6498 90.7496H53.2798C53.3824 90.7496 53.4618 90.7822 53.5178 90.8476C53.5831 90.9036 53.6158 90.9829 53.6158 91.0856V100.214C53.6158 100.307 53.5831 100.386 53.5178 100.452C53.4618 100.517 53.3871 100.55 53.2938 100.55H52.6638C52.5051 100.55 52.3931 100.484 52.3278 100.354L47.6378 93.1996V100.228C47.6378 100.321 47.6051 100.4 47.5398 100.466C47.4838 100.522 47.4091 100.55 47.3158 100.55H46.6718ZM58.8428 100.69C57.8161 100.69 57.0228 100.4 56.4628 99.8216C55.9121 99.2429 55.6181 98.4729 55.5808 97.5116L55.5668 96.9096L55.5808 96.3076C55.6181 95.3462 55.9168 94.5762 56.4768 93.9976C57.0461 93.4189 57.8348 93.1296 58.8428 93.1296C59.8508 93.1296 60.6348 93.4189 61.1948 93.9976C61.7641 94.5762 62.0675 95.3462 62.1048 96.3076C62.1235 96.5129 62.1328 96.7136 62.1328 96.9096C62.1328 97.1056 62.1235 97.3062 62.1048 97.5116C62.0675 98.4729 61.7688 99.2429 61.2088 99.8216C60.6581 100.4 59.8695 100.69 58.8428 100.69ZM58.8428 99.6396C59.4401 99.6396 59.9115 99.4529 60.2568 99.0796C60.6115 98.6969 60.8028 98.1509 60.8308 97.4416C60.8401 97.3482 60.8448 97.1709 60.8448 96.9096C60.8448 96.6482 60.8401 96.4709 60.8308 96.3776C60.8028 95.6682 60.6115 95.1269 60.2568 94.7536C59.9115 94.3709 59.4401 94.1796 58.8428 94.1796C58.2455 94.1796 57.7695 94.3709 57.4148 94.7536C57.0695 95.1269 56.8828 95.6682 56.8548 96.3776L56.8408 96.9096L56.8548 97.4416C56.8828 98.1509 57.0695 98.6969 57.4148 99.0796C57.7695 99.4529 58.2455 99.6396 58.8428 99.6396ZM69.6364 100.55C69.543 100.55 69.4637 100.522 69.3984 100.466C69.3424 100.4 69.3144 100.321 69.3144 100.228V91.9536H66.6124C66.519 91.9536 66.4397 91.9256 66.3744 91.8696C66.3184 91.8042 66.2904 91.7249 66.2904 91.6316V91.0856C66.2904 90.9829 66.3184 90.9036 66.3744 90.8476C66.4397 90.7822 66.519 90.7496 66.6124 90.7496H73.3324C73.435 90.7496 73.5144 90.7822 73.5704 90.8476C73.6264 90.9036 73.6544 90.9829 73.6544 91.0856V91.6316C73.6544 91.7249 73.6217 91.8042 73.5564 91.8696C73.5004 91.9256 73.4257 91.9536 73.3324 91.9536H70.6444V100.228C70.6444 100.321 70.6117 100.4 70.5464 100.466C70.481 100.522 70.4017 100.55 70.3084 100.55H69.6364ZM74.2303 100.55C74.137 100.55 74.0577 100.522 73.9923 100.466C73.9363 100.4 73.9083 100.321 73.9083 100.228V93.6056C73.9083 93.5122 73.9363 93.4329 73.9923 93.3676C74.0577 93.3022 74.137 93.2696 74.2303 93.2696H74.8183C74.921 93.2696 75.0003 93.3022 75.0563 93.3676C75.1217 93.4236 75.1543 93.5029 75.1543 93.6056V94.2216C75.537 93.5869 76.1857 93.2696 77.1003 93.2696H77.6463C77.749 93.2696 77.8283 93.2976 77.8843 93.3536C77.9403 93.4096 77.9683 93.4889 77.9683 93.5916V94.1096C77.9683 94.2029 77.9403 94.2822 77.8843 94.3476C77.8283 94.4036 77.749 94.4316 77.6463 94.4316H76.8483C76.335 94.4316 75.929 94.5809 75.6303 94.8796C75.341 95.1782 75.1963 95.5842 75.1963 96.0976V100.228C75.1963 100.321 75.1637 100.4 75.0983 100.466C75.033 100.522 74.9537 100.55 74.8603 100.55H74.2303ZM81.0786 100.69C80.6213 100.69 80.1966 100.596 79.8046 100.41C79.422 100.223 79.114 99.9709 78.8806 99.6536C78.6566 99.3269 78.5446 98.9676 78.5446 98.5756C78.5446 97.9596 78.7966 97.4556 79.3006 97.0636C79.8046 96.6716 80.4906 96.4102 81.3586 96.2796L83.4586 95.9856V95.5796C83.4586 94.6182 82.9033 94.1376 81.7926 94.1376C81.3633 94.1376 81.018 94.2262 80.7566 94.4036C80.4953 94.5716 80.304 94.7722 80.1826 95.0056C80.1453 95.0989 80.1033 95.1642 80.0566 95.2016C80.0193 95.2296 79.9633 95.2436 79.8886 95.2436H79.3426C79.2586 95.2436 79.184 95.2156 79.1186 95.1596C79.0626 95.0942 79.0346 95.0196 79.0346 94.9356C79.0346 94.7209 79.1326 94.4736 79.3286 94.1936C79.534 93.9042 79.8466 93.6569 80.2666 93.4516C80.6866 93.2369 81.2 93.1296 81.8066 93.1296C82.852 93.1296 83.5986 93.3722 84.0466 93.8576C84.504 94.3429 84.7326 94.9496 84.7326 95.6776V100.228C84.7326 100.321 84.7 100.4 84.6346 100.466C84.5786 100.522 84.504 100.55 84.4106 100.55H83.7946C83.7013 100.55 83.6266 100.522 83.5706 100.466C83.5146 100.4 83.4866 100.321 83.4866 100.228V99.6116C83.2813 99.9196 82.9826 100.176 82.5906 100.382C82.1986 100.587 81.6946 100.69 81.0786 100.69ZM81.3586 99.6676C81.9746 99.6676 82.4786 99.4669 82.8706 99.0656C83.2626 98.6642 83.4586 98.0809 83.4586 97.3156V96.9236L81.8206 97.1616C81.1486 97.2549 80.64 97.4136 80.2946 97.6376C79.9493 97.8616 79.7766 98.1416 79.7766 98.4776C79.7766 98.8602 79.9306 99.1542 80.2386 99.3596C80.556 99.5649 80.9293 99.6676 81.3586 99.6676ZM87.7415 100.55C87.6482 100.55 87.5689 100.522 87.5035 100.466C87.4475 100.4 87.4195 100.321 87.4195 100.228V94.3476H86.2155C86.1222 94.3476 86.0429 94.3196 85.9775 94.2636C85.9215 94.2076 85.8935 94.1329 85.8935 94.0396V93.5916C85.8935 93.4982 85.9215 93.4236 85.9775 93.3676C86.0429 93.3022 86.1222 93.2696 86.2155 93.2696H87.4195V92.5696C87.4195 91.8136 87.6015 91.2302 87.9655 90.8196C88.3389 90.3996 88.9455 90.1896 89.7855 90.1896H90.6115C90.7049 90.1896 90.7795 90.2222 90.8355 90.2876C90.9009 90.3436 90.9335 90.4182 90.9335 90.5116V90.9596C90.9335 91.0529 90.9009 91.1276 90.8355 91.1836C90.7795 91.2396 90.7049 91.2676 90.6115 91.2676H89.8135C89.3842 91.2676 89.0855 91.3796 88.9175 91.6036C88.7495 91.8276 88.6655 92.1729 88.6655 92.6396V93.2696H91.6755V92.5696C91.6755 91.8136 91.8575 91.2302 92.2215 90.8196C92.5949 90.3996 93.2015 90.1896 94.0415 90.1896H96.1275C96.2302 90.1896 96.3095 90.2176 96.3655 90.2736C96.4215 90.3296 96.4495 90.4089 96.4495 90.5116V90.9596C96.4495 91.0529 96.4169 91.1276 96.3515 91.1836C96.2955 91.2396 96.2209 91.2676 96.1275 91.2676H94.0695C93.6402 91.2676 93.3415 91.3796 93.1735 91.6036C93.0055 91.8276 92.9215 92.1729 92.9215 92.6396V93.2696H96.1275C96.2302 93.2696 96.3095 93.2976 96.3655 93.3536C96.4215 93.4096 96.4495 93.4889 96.4495 93.5916V100.228C96.4495 100.321 96.4169 100.4 96.3515 100.466C96.2955 100.522 96.2209 100.55 96.1275 100.55H95.5255C95.4322 100.55 95.3529 100.522 95.2875 100.466C95.2315 100.4 95.2035 100.321 95.2035 100.228V94.3476H92.9215V100.228C92.9215 100.321 92.8889 100.4 92.8235 100.466C92.7675 100.522 92.6929 100.55 92.5995 100.55H91.9835C91.8902 100.55 91.8155 100.522 91.7595 100.466C91.7035 100.4 91.6755 100.321 91.6755 100.228V94.3476H88.6655V100.228C88.6655 100.321 88.6329 100.4 88.5675 100.466C88.5115 100.522 88.4369 100.55 88.3435 100.55H87.7415ZM101.457 100.69C100.458 100.69 99.6791 100.41 99.1191 99.8496C98.5591 99.2802 98.2651 98.4869 98.2371 97.4696L98.2231 96.9096L98.2371 96.3496C98.2651 95.3322 98.5591 94.5436 99.1191 93.9836C99.6791 93.4142 100.458 93.1296 101.457 93.1296C102.129 93.1296 102.694 93.2509 103.151 93.4936C103.618 93.7269 103.963 94.0209 104.187 94.3756C104.42 94.7302 104.546 95.0849 104.565 95.4396C104.574 95.5236 104.542 95.5982 104.467 95.6636C104.402 95.7289 104.327 95.7616 104.243 95.7616H103.627C103.534 95.7616 103.464 95.7429 103.417 95.7056C103.37 95.6589 103.324 95.5796 103.277 95.4676C103.109 95.0102 102.876 94.6882 102.577 94.5016C102.288 94.3056 101.919 94.2076 101.471 94.2076C100.883 94.2076 100.416 94.3896 100.071 94.7536C99.7257 95.1176 99.5391 95.6729 99.5111 96.4196L99.4971 96.9096L99.5111 97.3996C99.5391 98.1462 99.7257 98.7016 100.071 99.0656C100.416 99.4296 100.883 99.6116 101.471 99.6116C101.928 99.6116 102.302 99.5182 102.591 99.3316C102.88 99.1356 103.109 98.8089 103.277 98.3516C103.324 98.2396 103.37 98.1649 103.417 98.1276C103.464 98.0809 103.534 98.0576 103.627 98.0576H104.243C104.327 98.0576 104.402 98.0902 104.467 98.1556C104.542 98.2209 104.574 98.2956 104.565 98.3796C104.546 98.7249 104.42 99.0749 104.187 99.4296C103.963 99.7842 103.618 100.083 103.151 100.326C102.694 100.568 102.129 100.69 101.457 100.69ZM110.178 100.55C110.084 100.55 110.01 100.522 109.954 100.466C109.898 100.4 109.87 100.321 109.87 100.228V91.0716C109.87 90.9782 109.898 90.9036 109.954 90.8476C110.01 90.7822 110.084 90.7496 110.178 90.7496H110.878C110.971 90.7496 111.046 90.7822 111.102 90.8476C111.158 90.9036 111.186 90.9782 111.186 91.0716V99.3736H115.862C115.964 99.3736 116.044 99.4062 116.1 99.4716C116.165 99.5276 116.198 99.6022 116.198 99.6956V100.228C116.198 100.321 116.165 100.4 116.1 100.466C116.034 100.522 115.955 100.55 115.862 100.55H110.178ZM120.339 100.69C119.312 100.69 118.519 100.4 117.959 99.8216C117.408 99.2429 117.114 98.4729 117.077 97.5116L117.063 96.9096L117.077 96.3076C117.114 95.3462 117.413 94.5762 117.973 93.9976C118.542 93.4189 119.331 93.1296 120.339 93.1296C121.347 93.1296 122.131 93.4189 122.691 93.9976C123.26 94.5762 123.564 95.3462 123.601 96.3076C123.62 96.5129 123.629 96.7136 123.629 96.9096C123.629 97.1056 123.62 97.3062 123.601 97.5116C123.564 98.4729 123.265 99.2429 122.705 99.8216C122.154 100.4 121.366 100.69 120.339 100.69ZM120.339 99.6396C120.936 99.6396 121.408 99.4529 121.753 99.0796C122.108 98.6969 122.299 98.1509 122.327 97.4416C122.336 97.3482 122.341 97.1709 122.341 96.9096C122.341 96.6482 122.336 96.4709 122.327 96.3776C122.299 95.6682 122.108 95.1269 121.753 94.7536C121.408 94.3709 120.936 94.1796 120.339 94.1796C119.742 94.1796 119.266 94.3709 118.911 94.7536C118.566 95.1269 118.379 95.6682 118.351 96.3776L118.337 96.9096L118.351 97.4416C118.379 98.1509 118.566 98.6969 118.911 99.0796C119.266 99.4529 119.742 99.6396 120.339 99.6396ZM128.351 103.63C127.576 103.63 126.955 103.499 126.489 103.238C126.022 102.976 125.691 102.678 125.495 102.342C125.308 102.006 125.215 101.716 125.215 101.474C125.215 101.39 125.247 101.315 125.313 101.25C125.378 101.194 125.453 101.166 125.537 101.166H126.153C126.237 101.166 126.307 101.184 126.363 101.222C126.419 101.268 126.465 101.348 126.503 101.46C126.764 102.206 127.357 102.58 128.281 102.58C128.981 102.58 129.499 102.43 129.835 102.132C130.171 101.833 130.339 101.306 130.339 100.55V99.5836C129.797 100.274 129.041 100.62 128.071 100.62C127.081 100.62 126.339 100.302 125.845 99.6676C125.359 99.0329 125.103 98.2302 125.075 97.2596L125.061 96.8676L125.075 96.4896C125.103 95.5282 125.359 94.7302 125.845 94.0956C126.339 93.4516 127.081 93.1296 128.071 93.1296C129.051 93.1296 129.816 93.4889 130.367 94.2076V93.6056C130.367 93.5122 130.395 93.4329 130.451 93.3676C130.516 93.3022 130.595 93.2696 130.689 93.2696H131.291C131.384 93.2696 131.459 93.3022 131.515 93.3676C131.58 93.4329 131.613 93.5122 131.613 93.6056V100.396C131.613 102.552 130.525 103.63 128.351 103.63ZM128.323 99.5276C128.976 99.5276 129.466 99.3176 129.793 98.8976C130.129 98.4682 130.311 97.9549 130.339 97.3576C130.348 97.2736 130.353 97.1102 130.353 96.8676C130.353 96.6342 130.348 96.4756 130.339 96.3916C130.311 95.7942 130.129 95.2856 129.793 94.8656C129.466 94.4362 128.976 94.2216 128.323 94.2216C127.651 94.2216 127.161 94.4362 126.853 94.8656C126.554 95.2856 126.391 95.8316 126.363 96.5036L126.349 96.8676L126.363 97.2456C126.391 97.9176 126.554 98.4682 126.853 98.8976C127.161 99.3176 127.651 99.5276 128.323 99.5276ZM136.215 100.69C135.571 100.69 135.025 100.587 134.577 100.382C134.138 100.167 133.811 99.9242 133.597 99.6536C133.382 99.3829 133.275 99.1589 133.275 98.9816C133.275 98.8882 133.307 98.8182 133.373 98.7716C133.438 98.7156 133.508 98.6876 133.583 98.6876H134.171C134.227 98.6876 134.269 98.6969 134.297 98.7156C134.334 98.7342 134.381 98.7762 134.437 98.8416C134.651 99.1029 134.889 99.3082 135.151 99.4576C135.421 99.6069 135.781 99.6816 136.229 99.6816C136.733 99.6816 137.134 99.5882 137.433 99.4016C137.741 99.2149 137.895 98.9442 137.895 98.5896C137.895 98.3562 137.829 98.1696 137.699 98.0296C137.568 97.8896 137.349 97.7636 137.041 97.6516C136.742 97.5396 136.294 97.4182 135.697 97.2876C134.885 97.1102 134.311 96.8536 133.975 96.5176C133.639 96.1816 133.471 95.7476 133.471 95.2156C133.471 94.8702 133.573 94.5389 133.779 94.2216C133.984 93.8949 134.287 93.6336 134.689 93.4376C135.099 93.2322 135.585 93.1296 136.145 93.1296C136.733 93.1296 137.232 93.2276 137.643 93.4236C138.063 93.6196 138.375 93.8482 138.581 94.1096C138.795 94.3709 138.903 94.5902 138.903 94.7676C138.903 94.8516 138.87 94.9216 138.805 94.9776C138.749 95.0336 138.679 95.0616 138.595 95.0616H138.063C137.932 95.0616 137.839 95.0102 137.783 94.9076C137.624 94.7302 137.489 94.5949 137.377 94.5016C137.274 94.3989 137.12 94.3149 136.915 94.2496C136.709 94.1749 136.453 94.1376 136.145 94.1376C135.687 94.1376 135.337 94.2356 135.095 94.4316C134.852 94.6182 134.731 94.8702 134.731 95.1876C134.731 95.3836 134.782 95.5516 134.885 95.6916C134.987 95.8222 135.183 95.9482 135.473 96.0696C135.762 96.1816 136.191 96.2982 136.761 96.4196C137.647 96.6062 138.273 96.8722 138.637 97.2176C139.01 97.5629 139.197 98.0062 139.197 98.5476C139.197 98.9489 139.08 99.3129 138.847 99.6396C138.623 99.9662 138.282 100.223 137.825 100.41C137.377 100.596 136.84 100.69 136.215 100.69Z" fill="#4F5665"/>
<path d="M11.3542 140.28C11.2229 140.28 11.0929 140.254 10.9716 140.204C10.8503 140.154 10.74 140.08 10.6472 139.988L6.40521 135.745C6.30964 135.652 6.23338 135.542 6.18089 135.42C6.12839 135.298 6.10072 135.167 6.09947 135.034C6.09822 134.901 6.12343 134.77 6.17363 134.647C6.22382 134.524 6.29799 134.412 6.39182 134.318C6.48565 134.224 6.59724 134.15 6.7201 134.1C6.84296 134.049 6.97462 134.024 7.1074 134.025C7.24018 134.026 7.37142 134.053 7.49346 134.106C7.6155 134.158 7.7259 134.234 7.81821 134.33L11.3532 137.865L17.7182 131.502C17.9057 131.314 18.1601 131.208 18.4254 131.208C18.6906 131.208 18.9451 131.314 19.1327 131.501C19.3204 131.689 19.4258 131.943 19.4259 132.208C19.426 132.473 19.3207 132.728 19.1332 132.916L12.0612 139.988C11.9684 140.08 11.8582 140.154 11.7368 140.204C11.6155 140.254 11.4855 140.28 11.3542 140.28Z" fill="#2FAB73"/>
<path d="M48.0158 140.55C47.7824 140.55 47.6378 140.428 47.5818 140.186L45.7758 131.184L45.7478 131.03C45.7478 130.955 45.7758 130.89 45.8318 130.834C45.8878 130.778 45.9531 130.75 46.0278 130.75H46.7138C46.9098 130.75 47.0218 130.829 47.0498 130.988L48.4918 138.296L50.0458 133.256C50.1018 133.032 50.2464 132.92 50.4798 132.92H50.9698C51.1938 132.92 51.3431 133.032 51.4178 133.256L52.9578 138.296L54.3998 130.988C54.4278 130.829 54.5444 130.75 54.7498 130.75H55.4218C55.4964 130.75 55.5618 130.778 55.6178 130.834C55.6738 130.89 55.7018 130.955 55.7018 131.03C55.7018 131.086 55.6971 131.137 55.6878 131.184L53.8678 140.186C53.8211 140.428 53.6764 140.55 53.4338 140.55H52.9298C52.6964 140.55 52.5424 140.433 52.4678 140.2L50.7318 134.81L48.9818 140.2C48.9164 140.433 48.7671 140.55 48.5338 140.55H48.0158ZM60.0186 140.69C58.9919 140.69 58.1986 140.4 57.6386 139.822C57.0879 139.243 56.7939 138.473 56.7566 137.512L56.7426 136.91L56.7566 136.308C56.7939 135.346 57.0926 134.576 57.6526 133.998C58.2219 133.419 59.0106 133.13 60.0186 133.13C61.0266 133.13 61.8106 133.419 62.3706 133.998C62.9399 134.576 63.2433 135.346 63.2806 136.308C63.2993 136.513 63.3086 136.714 63.3086 136.91C63.3086 137.106 63.2993 137.306 63.2806 137.512C63.2433 138.473 62.9446 139.243 62.3846 139.822C61.8339 140.4 61.0453 140.69 60.0186 140.69ZM60.0186 139.64C60.6159 139.64 61.0873 139.453 61.4326 139.08C61.7873 138.697 61.9786 138.151 62.0066 137.442C62.0159 137.348 62.0206 137.171 62.0206 136.91C62.0206 136.648 62.0159 136.471 62.0066 136.378C61.9786 135.668 61.7873 135.127 61.4326 134.754C61.0873 134.371 60.6159 134.18 60.0186 134.18C59.4213 134.18 58.9453 134.371 58.5906 134.754C58.2453 135.127 58.0586 135.668 58.0306 136.378L58.0166 136.91L58.0306 137.442C58.0586 138.151 58.2453 138.697 58.5906 139.08C58.9453 139.453 59.4213 139.64 60.0186 139.64ZM65.3983 140.55C65.305 140.55 65.2256 140.522 65.1603 140.466C65.1043 140.4 65.0763 140.321 65.0763 140.228V133.606C65.0763 133.512 65.1043 133.433 65.1603 133.368C65.2256 133.302 65.305 133.27 65.3983 133.27H65.9863C66.089 133.27 66.1683 133.302 66.2243 133.368C66.2896 133.424 66.3223 133.503 66.3223 133.606V134.222C66.705 133.587 67.3536 133.27 68.2683 133.27H68.8143C68.917 133.27 68.9963 133.298 69.0523 133.354C69.1083 133.41 69.1363 133.489 69.1363 133.592V134.11C69.1363 134.203 69.1083 134.282 69.0523 134.348C68.9963 134.404 68.917 134.432 68.8143 134.432H68.0163C67.503 134.432 67.097 134.581 66.7983 134.88C66.509 135.178 66.3643 135.584 66.3643 136.098V140.228C66.3643 140.321 66.3316 140.4 66.2663 140.466C66.201 140.522 66.1216 140.55 66.0283 140.55H65.3983ZM70.676 140.55C70.5826 140.55 70.5033 140.522 70.438 140.466C70.382 140.4 70.354 140.321 70.354 140.228V130.932C70.354 130.829 70.382 130.75 70.438 130.694C70.5033 130.638 70.5826 130.61 70.676 130.61H71.278C71.3713 130.61 71.446 130.642 71.502 130.708C71.5673 130.764 71.6 130.838 71.6 130.932V135.818L74.4 133.508C74.54 133.405 74.638 133.34 74.694 133.312C74.75 133.284 74.8386 133.27 74.96 133.27H75.66C75.744 133.27 75.8093 133.298 75.856 133.354C75.912 133.4 75.94 133.47 75.94 133.564C75.94 133.648 75.8886 133.736 75.786 133.83L72.51 136.518L76.136 139.99C76.2386 140.092 76.29 140.181 76.29 140.256C76.29 140.34 76.262 140.41 76.206 140.466C76.1593 140.522 76.094 140.55 76.01 140.55H75.324C75.184 140.55 75.0813 140.536 75.016 140.508C74.96 140.48 74.876 140.414 74.764 140.312L71.6 137.316V140.228C71.6 140.321 71.5673 140.4 71.502 140.466C71.446 140.522 71.3713 140.55 71.278 140.55H70.676ZM79.873 140.69C79.229 140.69 78.683 140.587 78.235 140.382C77.7963 140.167 77.4697 139.924 77.255 139.654C77.0403 139.383 76.933 139.159 76.933 138.982C76.933 138.888 76.9657 138.818 77.031 138.772C77.0963 138.716 77.1663 138.688 77.241 138.688H77.829C77.885 138.688 77.927 138.697 77.955 138.716C77.9923 138.734 78.039 138.776 78.095 138.842C78.3097 139.103 78.5477 139.308 78.809 139.458C79.0797 139.607 79.439 139.682 79.887 139.682C80.391 139.682 80.7923 139.588 81.091 139.402C81.399 139.215 81.553 138.944 81.553 138.59C81.553 138.356 81.4877 138.17 81.357 138.03C81.2263 137.89 81.007 137.764 80.699 137.652C80.4003 137.54 79.9523 137.418 79.355 137.288C78.543 137.11 77.969 136.854 77.633 136.518C77.297 136.182 77.129 135.748 77.129 135.216C77.129 134.87 77.2317 134.539 77.437 134.222C77.6423 133.895 77.9457 133.634 78.347 133.438C78.7577 133.232 79.243 133.13 79.803 133.13C80.391 133.13 80.8903 133.228 81.301 133.424C81.721 133.62 82.0337 133.848 82.239 134.11C82.4537 134.371 82.561 134.59 82.561 134.768C82.561 134.852 82.5283 134.922 82.463 134.978C82.407 135.034 82.337 135.062 82.253 135.062H81.721C81.5903 135.062 81.497 135.01 81.441 134.908C81.2823 134.73 81.147 134.595 81.035 134.502C80.9323 134.399 80.7783 134.315 80.573 134.25C80.3677 134.175 80.111 134.138 79.803 134.138C79.3457 134.138 78.9957 134.236 78.753 134.432C78.5103 134.618 78.389 134.87 78.389 135.188C78.389 135.384 78.4403 135.552 78.543 135.692C78.6457 135.822 78.8417 135.948 79.131 136.07C79.4203 136.182 79.8497 136.298 80.419 136.42C81.3057 136.606 81.931 136.872 82.295 137.218C82.6683 137.563 82.855 138.006 82.855 138.548C82.855 138.949 82.7383 139.313 82.505 139.64C82.281 139.966 81.9403 140.223 81.483 140.41C81.035 140.596 80.4983 140.69 79.873 140.69ZM90.8897 140.69C89.863 140.69 89.0697 140.4 88.5097 139.822C87.959 139.243 87.665 138.473 87.6277 137.512L87.6137 136.91L87.6277 136.308C87.665 135.346 87.9637 134.576 88.5237 133.998C89.093 133.419 89.8817 133.13 90.8897 133.13C91.8977 133.13 92.6817 133.419 93.2417 133.998C93.811 134.576 94.1143 135.346 94.1517 136.308C94.1703 136.513 94.1797 136.714 94.1797 136.91C94.1797 137.106 94.1703 137.306 94.1517 137.512C94.1143 138.473 93.8157 139.243 93.2557 139.822C92.705 140.4 91.9163 140.69 90.8897 140.69ZM90.8897 139.64C91.487 139.64 91.9583 139.453 92.3037 139.08C92.6583 138.697 92.8497 138.151 92.8777 137.442C92.887 137.348 92.8917 137.171 92.8917 136.91C92.8917 136.648 92.887 136.471 92.8777 136.378C92.8497 135.668 92.6583 135.127 92.3037 134.754C91.9583 134.371 91.487 134.18 90.8897 134.18C90.2923 134.18 89.8163 134.371 89.4617 134.754C89.1163 135.127 88.9297 135.668 88.9017 136.378L88.8877 136.91L88.9017 137.442C88.9297 138.151 89.1163 138.697 89.4617 139.08C89.8163 139.453 90.2923 139.64 90.8897 139.64ZM96.2694 140.55C96.1761 140.55 96.0967 140.522 96.0314 140.466C95.9754 140.4 95.9474 140.321 95.9474 140.228V133.592C95.9474 133.498 95.9754 133.424 96.0314 133.368C96.0967 133.302 96.1761 133.27 96.2694 133.27H96.8714C96.9741 133.27 97.0534 133.298 97.1094 133.354C97.1654 133.41 97.1934 133.489 97.1934 133.592V134.208C97.4734 133.862 97.7954 133.596 98.1594 133.41C98.5327 133.223 98.9947 133.13 99.5454 133.13C100.441 133.13 101.137 133.419 101.631 133.998C102.126 134.567 102.373 135.323 102.373 136.266V140.228C102.373 140.321 102.341 140.4 102.275 140.466C102.219 140.522 102.145 140.55 102.051 140.55H101.407C101.314 140.55 101.235 140.522 101.169 140.466C101.113 140.4 101.085 140.321 101.085 140.228V136.35C101.085 135.678 100.922 135.155 100.595 134.782C100.269 134.408 99.8021 134.222 99.1954 134.222C98.5981 134.222 98.1221 134.413 97.7674 134.796C97.4127 135.169 97.2354 135.687 97.2354 136.35V140.228C97.2354 140.321 97.2027 140.4 97.1374 140.466C97.0814 140.522 97.0067 140.55 96.9134 140.55H96.2694ZM106.969 140.55C106.894 140.55 106.829 140.522 106.773 140.466C106.717 140.41 106.689 140.344 106.689 140.27L106.717 140.116L110.189 131.058C110.264 130.852 110.413 130.75 110.637 130.75H111.533C111.757 130.75 111.906 130.852 111.981 131.058L115.453 140.116L115.481 140.27C115.481 140.344 115.448 140.41 115.383 140.466C115.327 140.522 115.262 140.55 115.187 140.55H114.529C114.436 140.55 114.356 140.526 114.291 140.48C114.235 140.424 114.198 140.368 114.179 140.312L113.395 138.296H108.761L107.991 140.312C107.916 140.47 107.8 140.55 107.641 140.55H106.969ZM109.167 137.134H113.003L111.085 132.108L109.167 137.134ZM117.147 140.55C117.053 140.55 116.974 140.522 116.909 140.466C116.853 140.4 116.825 140.321 116.825 140.228V130.932C116.825 130.829 116.853 130.75 116.909 130.694C116.974 130.638 117.053 130.61 117.147 130.61H117.763C117.856 130.61 117.931 130.642 117.987 130.708C118.052 130.764 118.085 130.838 118.085 130.932V140.228C118.085 140.321 118.052 140.4 117.987 140.466C117.931 140.522 117.856 140.55 117.763 140.55H117.147ZM120.524 140.55C120.43 140.55 120.351 140.522 120.286 140.466C120.23 140.4 120.202 140.321 120.202 140.228V130.932C120.202 130.829 120.23 130.75 120.286 130.694C120.351 130.638 120.43 130.61 120.524 130.61H121.14C121.233 130.61 121.308 130.642 121.364 130.708C121.429 130.764 121.462 130.838 121.462 130.932V140.228C121.462 140.321 121.429 140.4 121.364 140.466C121.308 140.522 121.233 140.55 121.14 140.55H120.524ZM127.5 140.55C127.407 140.55 127.332 140.522 127.276 140.466C127.22 140.4 127.192 140.321 127.192 140.228V131.086C127.192 130.983 127.22 130.904 127.276 130.848C127.332 130.782 127.407 130.75 127.5 130.75H130.664C132.073 130.75 133.091 131.067 133.716 131.702C134.341 132.327 134.663 133.274 134.682 134.544C134.691 134.814 134.696 135.178 134.696 135.636C134.696 136.093 134.691 136.462 134.682 136.742C134.663 137.628 134.519 138.352 134.248 138.912C133.987 139.462 133.571 139.873 133.002 140.144C132.433 140.414 131.677 140.55 130.734 140.55H127.5ZM130.664 139.388C131.317 139.388 131.835 139.299 132.218 139.122C132.61 138.935 132.89 138.65 133.058 138.268C133.235 137.876 133.333 137.348 133.352 136.686C133.371 136.126 133.38 135.776 133.38 135.636C133.38 135.486 133.371 135.141 133.352 134.6C133.333 133.666 133.109 132.985 132.68 132.556C132.26 132.117 131.565 131.898 130.594 131.898H128.508V139.388H130.664ZM139.533 140.69C138.581 140.69 137.82 140.396 137.251 139.808C136.681 139.21 136.369 138.398 136.313 137.372L136.299 136.896L136.313 136.434C136.369 135.426 136.681 134.623 137.251 134.026C137.82 133.428 138.581 133.13 139.533 133.13C140.559 133.13 141.353 133.456 141.913 134.11C142.482 134.763 142.767 135.65 142.767 136.77V137.022C142.767 137.115 142.734 137.194 142.669 137.26C142.613 137.316 142.538 137.344 142.445 137.344H137.587V137.47C137.615 138.076 137.801 138.594 138.147 139.024C138.492 139.453 138.949 139.668 139.519 139.668C139.957 139.668 140.312 139.584 140.583 139.416C140.863 139.238 141.073 139.056 141.213 138.87C141.297 138.758 141.362 138.692 141.409 138.674C141.455 138.646 141.535 138.632 141.647 138.632H142.263C142.347 138.632 142.417 138.655 142.473 138.702C142.538 138.748 142.571 138.809 142.571 138.884C142.571 139.089 142.445 139.336 142.193 139.626C141.941 139.915 141.581 140.167 141.115 140.382C140.657 140.587 140.13 140.69 139.533 140.69ZM141.493 136.392V136.35C141.493 135.696 141.315 135.164 140.961 134.754C140.606 134.343 140.13 134.138 139.533 134.138C138.926 134.138 138.45 134.343 138.105 134.754C137.759 135.164 137.587 135.696 137.587 136.35V136.392H141.493ZM146.757 140.55C146.514 140.55 146.341 140.433 146.239 140.2L143.635 133.704C143.625 133.676 143.621 133.629 143.621 133.564C143.621 133.48 143.649 133.41 143.705 133.354C143.761 133.298 143.826 133.27 143.901 133.27H144.545C144.694 133.27 144.806 133.344 144.881 133.494L147.037 139.08L149.193 133.494C149.211 133.438 149.249 133.386 149.305 133.34C149.37 133.293 149.445 133.27 149.529 133.27H150.173C150.247 133.27 150.313 133.298 150.369 133.354C150.425 133.41 150.453 133.48 150.453 133.564L150.425 133.704L147.835 140.2C147.732 140.433 147.559 140.55 147.317 140.55H146.757ZM152.157 131.898C152.064 131.898 151.985 131.87 151.919 131.814C151.863 131.748 151.835 131.669 151.835 131.576V130.848C151.835 130.754 151.863 130.675 151.919 130.61C151.985 130.544 152.064 130.512 152.157 130.512H152.983C153.077 130.512 153.156 130.544 153.221 130.61C153.287 130.675 153.319 130.754 153.319 130.848V131.576C153.319 131.669 153.287 131.748 153.221 131.814C153.156 131.87 153.077 131.898 152.983 131.898H152.157ZM152.269 140.55C152.176 140.55 152.097 140.522 152.031 140.466C151.975 140.4 151.947 140.321 151.947 140.228V133.592C151.947 133.498 151.975 133.424 152.031 133.368C152.097 133.302 152.176 133.27 152.269 133.27H152.885C152.979 133.27 153.053 133.302 153.109 133.368C153.175 133.424 153.207 133.498 153.207 133.592V140.228C153.207 140.321 153.175 140.4 153.109 140.466C153.053 140.522 152.979 140.55 152.885 140.55H152.269ZM158.223 140.69C157.224 140.69 156.445 140.41 155.885 139.85C155.325 139.28 155.031 138.487 155.003 137.47L154.989 136.91L155.003 136.35C155.031 135.332 155.325 134.544 155.885 133.984C156.445 133.414 157.224 133.13 158.223 133.13C158.895 133.13 159.459 133.251 159.917 133.494C160.383 133.727 160.729 134.021 160.953 134.376C161.186 134.73 161.312 135.085 161.331 135.44C161.34 135.524 161.307 135.598 161.233 135.664C161.167 135.729 161.093 135.762 161.009 135.762H160.393C160.299 135.762 160.229 135.743 160.183 135.706C160.136 135.659 160.089 135.58 160.043 135.468C159.875 135.01 159.641 134.688 159.343 134.502C159.053 134.306 158.685 134.208 158.237 134.208C157.649 134.208 157.182 134.39 156.837 134.754C156.491 135.118 156.305 135.673 156.277 136.42L156.263 136.91L156.277 137.4C156.305 138.146 156.491 138.702 156.837 139.066C157.182 139.43 157.649 139.612 158.237 139.612C158.694 139.612 159.067 139.518 159.357 139.332C159.646 139.136 159.875 138.809 160.043 138.352C160.089 138.24 160.136 138.165 160.183 138.128C160.229 138.081 160.299 138.058 160.393 138.058H161.009C161.093 138.058 161.167 138.09 161.233 138.156C161.307 138.221 161.34 138.296 161.331 138.38C161.312 138.725 161.186 139.075 160.953 139.43C160.729 139.784 160.383 140.083 159.917 140.326C159.459 140.568 158.895 140.69 158.223 140.69ZM165.892 140.69C164.94 140.69 164.179 140.396 163.61 139.808C163.041 139.21 162.728 138.398 162.672 137.372L162.658 136.896L162.672 136.434C162.728 135.426 163.041 134.623 163.61 134.026C164.179 133.428 164.94 133.13 165.892 133.13C166.919 133.13 167.712 133.456 168.272 134.11C168.841 134.763 169.126 135.65 169.126 136.77V137.022C169.126 137.115 169.093 137.194 169.028 137.26C168.972 137.316 168.897 137.344 168.804 137.344H163.946V137.47C163.974 138.076 164.161 138.594 164.506 139.024C164.851 139.453 165.309 139.668 165.878 139.668C166.317 139.668 166.671 139.584 166.942 139.416C167.222 139.238 167.432 139.056 167.572 138.87C167.656 138.758 167.721 138.692 167.768 138.674C167.815 138.646 167.894 138.632 168.006 138.632H168.622C168.706 138.632 168.776 138.655 168.832 138.702C168.897 138.748 168.93 138.809 168.93 138.884C168.93 139.089 168.804 139.336 168.552 139.626C168.3 139.915 167.941 140.167 167.474 140.382C167.017 140.587 166.489 140.69 165.892 140.69ZM167.852 136.392V136.35C167.852 135.696 167.675 135.164 167.32 134.754C166.965 134.343 166.489 134.138 165.892 134.138C165.285 134.138 164.809 134.343 164.464 134.754C164.119 135.164 163.946 135.696 163.946 136.35V136.392H167.852ZM173.32 140.69C172.676 140.69 172.13 140.587 171.682 140.382C171.244 140.167 170.917 139.924 170.702 139.654C170.488 139.383 170.38 139.159 170.38 138.982C170.38 138.888 170.413 138.818 170.478 138.772C170.544 138.716 170.614 138.688 170.688 138.688H171.276C171.332 138.688 171.374 138.697 171.402 138.716C171.44 138.734 171.486 138.776 171.542 138.842C171.757 139.103 171.995 139.308 172.256 139.458C172.527 139.607 172.886 139.682 173.334 139.682C173.838 139.682 174.24 139.588 174.538 139.402C174.846 139.215 175 138.944 175 138.59C175 138.356 174.935 138.17 174.804 138.03C174.674 137.89 174.454 137.764 174.146 137.652C173.848 137.54 173.4 137.418 172.802 137.288C171.99 137.11 171.416 136.854 171.08 136.518C170.744 136.182 170.576 135.748 170.576 135.216C170.576 134.87 170.679 134.539 170.884 134.222C171.09 133.895 171.393 133.634 171.794 133.438C172.205 133.232 172.69 133.13 173.25 133.13C173.838 133.13 174.338 133.228 174.748 133.424C175.168 133.62 175.481 133.848 175.686 134.11C175.901 134.371 176.008 134.59 176.008 134.768C176.008 134.852 175.976 134.922 175.91 134.978C175.854 135.034 175.784 135.062 175.7 135.062H175.168C175.038 135.062 174.944 135.01 174.888 134.908C174.73 134.73 174.594 134.595 174.482 134.502C174.38 134.399 174.226 134.315 174.02 134.25C173.815 134.175 173.558 134.138 173.25 134.138C172.793 134.138 172.443 134.236 172.2 134.432C171.958 134.618 171.836 134.87 171.836 135.188C171.836 135.384 171.888 135.552 171.99 135.692C172.093 135.822 172.289 135.948 172.578 136.07C172.868 136.182 173.297 136.298 173.866 136.42C174.753 136.606 175.378 136.872 175.742 137.218C176.116 137.563 176.302 138.006 176.302 138.548C176.302 138.949 176.186 139.313 175.952 139.64C175.728 139.966 175.388 140.223 174.93 140.41C174.482 140.596 173.946 140.69 173.32 140.69Z" fill="#4F5665"/>
<path d="M50.0458 20.6896C48.8418 20.6896 47.9131 20.3676 47.2598 19.7236C46.6064 19.0702 46.2798 18.0856 46.2798 16.7696V11.0856C46.2798 10.9829 46.3078 10.9036 46.3638 10.8476C46.4198 10.7822 46.4944 10.7496 46.5878 10.7496H47.2598C47.3624 10.7496 47.4418 10.7822 47.4978 10.8476C47.5631 10.9036 47.5958 10.9829 47.5958 11.0856V16.7976C47.5958 17.7122 47.8058 18.3936 48.2258 18.8416C48.6551 19.2896 49.2618 19.5136 50.0458 19.5136C50.8204 19.5136 51.4178 19.2896 51.8378 18.8416C52.2671 18.3842 52.4818 17.7029 52.4818 16.7976V11.0856C52.4818 10.9829 52.5098 10.9036 52.5658 10.8476C52.6218 10.7822 52.7011 10.7496 52.8038 10.7496H53.4758C53.5691 10.7496 53.6438 10.7822 53.6998 10.8476C53.7651 10.9036 53.7978 10.9829 53.7978 11.0856V16.7696C53.7978 18.0856 53.4711 19.0702 52.8178 19.7236C52.1738 20.3676 51.2498 20.6896 50.0458 20.6896ZM56.3065 20.5496C56.2132 20.5496 56.1338 20.5216 56.0685 20.4656C56.0125 20.4002 55.9845 20.3209 55.9845 20.2276V13.5916C55.9845 13.4982 56.0125 13.4236 56.0685 13.3676C56.1338 13.3022 56.2132 13.2696 56.3065 13.2696H56.9085C57.0112 13.2696 57.0905 13.2976 57.1465 13.3536C57.2025 13.4096 57.2305 13.4889 57.2305 13.5916V14.2076C57.5105 13.8622 57.8325 13.5962 58.1965 13.4096C58.5698 13.2229 59.0318 13.1296 59.5825 13.1296C60.4785 13.1296 61.1738 13.4189 61.6685 13.9976C62.1632 14.5669 62.4105 15.3229 62.4105 16.2656V20.2276C62.4105 20.3209 62.3778 20.4002 62.3125 20.4656C62.2565 20.5216 62.1818 20.5496 62.0885 20.5496H61.4445C61.3512 20.5496 61.2718 20.5216 61.2065 20.4656C61.1505 20.4002 61.1225 20.3209 61.1225 20.2276V16.3496C61.1225 15.6776 60.9592 15.1549 60.6325 14.7816C60.3058 14.4082 59.8392 14.2216 59.2325 14.2216C58.6352 14.2216 58.1592 14.4129 57.8045 14.7956C57.4498 15.1689 57.2725 15.6869 57.2725 16.3496V20.2276C57.2725 20.3209 57.2398 20.4002 57.1745 20.4656C57.1185 20.5216 57.0438 20.5496 56.9505 20.5496H56.3065ZM64.7697 20.5496C64.6764 20.5496 64.5971 20.5216 64.5317 20.4656C64.4757 20.4002 64.4477 20.3209 64.4477 20.2276V10.9316C64.4477 10.8289 64.4757 10.7496 64.5317 10.6936C64.5971 10.6376 64.6764 10.6096 64.7697 10.6096H65.3857C65.4791 10.6096 65.5537 10.6422 65.6097 10.7076C65.6751 10.7636 65.7077 10.8382 65.7077 10.9316V20.2276C65.7077 20.3209 65.6751 20.4002 65.6097 20.4656C65.5537 20.5216 65.4791 20.5496 65.3857 20.5496H64.7697ZM68.0207 11.8976C67.9273 11.8976 67.848 11.8696 67.7827 11.8136C67.7267 11.7482 67.6987 11.6689 67.6987 11.5756V10.8476C67.6987 10.7542 67.7267 10.6749 67.7827 10.6096C67.848 10.5442 67.9273 10.5116 68.0207 10.5116H68.8467C68.94 10.5116 69.0193 10.5442 69.0847 10.6096C69.15 10.6749 69.1827 10.7542 69.1827 10.8476V11.5756C69.1827 11.6689 69.15 11.7482 69.0847 11.8136C69.0193 11.8696 68.94 11.8976 68.8467 11.8976H68.0207ZM68.1327 20.5496C68.0393 20.5496 67.96 20.5216 67.8947 20.4656C67.8387 20.4002 67.8107 20.3209 67.8107 20.2276V13.5916C67.8107 13.4982 67.8387 13.4236 67.8947 13.3676C67.96 13.3022 68.0393 13.2696 68.1327 13.2696H68.7487C68.842 13.2696 68.9167 13.3022 68.9727 13.3676C69.038 13.4236 69.0707 13.4982 69.0707 13.5916V20.2276C69.0707 20.3209 69.038 20.4002 68.9727 20.4656C68.9167 20.5216 68.842 20.5496 68.7487 20.5496H68.1327ZM71.496 20.5496C71.4026 20.5496 71.3233 20.5216 71.258 20.4656C71.202 20.4002 71.174 20.3209 71.174 20.2276V13.5916C71.174 13.4982 71.202 13.4236 71.258 13.3676C71.3233 13.3022 71.4026 13.2696 71.496 13.2696H72.084C72.1773 13.2696 72.252 13.3022 72.308 13.3676C72.364 13.4236 72.392 13.4982 72.392 13.5916V14.0676C72.896 13.4422 73.5773 13.1296 74.436 13.1296C75.4626 13.1296 76.1906 13.5589 76.62 14.4176C76.844 14.0256 77.1613 13.7129 77.572 13.4796C77.992 13.2462 78.4586 13.1296 78.972 13.1296C79.7373 13.1296 80.3626 13.3909 80.848 13.9136C81.3333 14.4362 81.576 15.1922 81.576 16.1816V20.2276C81.576 20.3209 81.5433 20.4002 81.478 20.4656C81.422 20.5216 81.3473 20.5496 81.254 20.5496H80.652C80.5586 20.5496 80.4793 20.5216 80.414 20.4656C80.358 20.4002 80.33 20.3209 80.33 20.2276V16.3076C80.33 15.5609 80.176 15.0289 79.868 14.7116C79.56 14.3849 79.154 14.2216 78.65 14.2216C78.202 14.2216 77.8146 14.3896 77.488 14.7256C77.1706 15.0522 77.012 15.5796 77.012 16.3076V20.2276C77.012 20.3209 76.9793 20.4002 76.914 20.4656C76.858 20.5216 76.7833 20.5496 76.69 20.5496H76.074C75.9806 20.5496 75.9013 20.5216 75.836 20.4656C75.78 20.4002 75.752 20.3209 75.752 20.2276V16.3076C75.752 15.5702 75.5886 15.0382 75.262 14.7116C74.9446 14.3849 74.548 14.2216 74.072 14.2216C73.624 14.2216 73.2366 14.3849 72.91 14.7116C72.5926 15.0382 72.434 15.5656 72.434 16.2936V20.2276C72.434 20.3209 72.4013 20.4002 72.336 20.4656C72.28 20.5216 72.2053 20.5496 72.112 20.5496H71.496ZM83.8117 11.8976C83.7184 11.8976 83.639 11.8696 83.5737 11.8136C83.5177 11.7482 83.4897 11.6689 83.4897 11.5756V10.8476C83.4897 10.7542 83.5177 10.6749 83.5737 10.6096C83.639 10.5442 83.7184 10.5116 83.8117 10.5116H84.6377C84.731 10.5116 84.8104 10.5442 84.8757 10.6096C84.941 10.6749 84.9737 10.7542 84.9737 10.8476V11.5756C84.9737 11.6689 84.941 11.7482 84.8757 11.8136C84.8104 11.8696 84.731 11.8976 84.6377 11.8976H83.8117ZM83.9237 20.5496C83.8304 20.5496 83.751 20.5216 83.6857 20.4656C83.6297 20.4002 83.6017 20.3209 83.6017 20.2276V13.5916C83.6017 13.4982 83.6297 13.4236 83.6857 13.3676C83.751 13.3022 83.8304 13.2696 83.9237 13.2696H84.5397C84.633 13.2696 84.7077 13.3022 84.7637 13.3676C84.829 13.4236 84.8617 13.4982 84.8617 13.5916V20.2276C84.8617 20.3209 84.829 20.4002 84.7637 20.4656C84.7077 20.5216 84.633 20.5496 84.5397 20.5496H83.9237ZM89.765 20.5496C88.3183 20.5496 87.595 19.7329 87.595 18.0996V14.3476H86.489C86.3956 14.3476 86.321 14.3196 86.265 14.2636C86.209 14.2076 86.181 14.1329 86.181 14.0396V13.5916C86.181 13.4982 86.209 13.4236 86.265 13.3676C86.321 13.3022 86.3956 13.2696 86.489 13.2696H87.595V10.9316C87.595 10.8382 87.623 10.7636 87.679 10.7076C87.735 10.6422 87.8096 10.6096 87.903 10.6096H88.519C88.6123 10.6096 88.687 10.6422 88.743 10.7076C88.8083 10.7636 88.841 10.8382 88.841 10.9316V13.2696H90.577C90.6703 13.2696 90.745 13.3022 90.801 13.3676C90.8663 13.4236 90.899 13.4982 90.899 13.5916V14.0396C90.899 14.1329 90.8663 14.2076 90.801 14.2636C90.745 14.3196 90.6703 14.3476 90.577 14.3476H88.841V18.0016C88.841 18.4776 88.9156 18.8369 89.065 19.0796C89.2236 19.3222 89.4896 19.4436 89.863 19.4436H90.717C90.8103 19.4436 90.885 19.4762 90.941 19.5416C90.997 19.5976 91.025 19.6722 91.025 19.7656V20.2276C91.025 20.3209 90.997 20.4002 90.941 20.4656C90.885 20.5216 90.8103 20.5496 90.717 20.5496H89.765ZM95.2767 20.6896C94.3247 20.6896 93.564 20.3956 92.9947 19.8076C92.4254 19.2102 92.1127 18.3982 92.0567 17.3716L92.0427 16.8956L92.0567 16.4336C92.1127 15.4256 92.4254 14.6229 92.9947 14.0256C93.564 13.4282 94.3247 13.1296 95.2767 13.1296C96.3034 13.1296 97.0967 13.4562 97.6567 14.1096C98.226 14.7629 98.5107 15.6496 98.5107 16.7696V17.0216C98.5107 17.1149 98.478 17.1942 98.4127 17.2596C98.3567 17.3156 98.282 17.3436 98.1887 17.3436H93.3307V17.4696C93.3587 18.0762 93.5454 18.5942 93.8907 19.0236C94.236 19.4529 94.6934 19.6676 95.2627 19.6676C95.7014 19.6676 96.056 19.5836 96.3267 19.4156C96.6067 19.2382 96.8167 19.0562 96.9567 18.8696C97.0407 18.7576 97.106 18.6922 97.1527 18.6736C97.1994 18.6456 97.2787 18.6316 97.3907 18.6316H98.0067C98.0907 18.6316 98.1607 18.6549 98.2167 18.7016C98.282 18.7482 98.3147 18.8089 98.3147 18.8836C98.3147 19.0889 98.1887 19.3362 97.9367 19.6256C97.6847 19.9149 97.3254 20.1669 96.8587 20.3816C96.4014 20.5869 95.874 20.6896 95.2767 20.6896ZM97.2367 16.3916V16.3496C97.2367 15.6962 97.0594 15.1642 96.7047 14.7536C96.35 14.3429 95.874 14.1376 95.2767 14.1376C94.67 14.1376 94.194 14.3429 93.8487 14.7536C93.5034 15.1642 93.3307 15.6962 93.3307 16.3496V16.3916H97.2367ZM102.873 20.6896C101.893 20.6896 101.156 20.3722 100.661 19.7376C100.176 19.1029 99.9144 18.3002 99.877 17.3296L99.863 16.9096L99.877 16.4896C99.9144 15.5282 100.18 14.7302 100.675 14.0956C101.17 13.4516 101.902 13.1296 102.873 13.1296C103.844 13.1296 104.6 13.4749 105.141 14.1656V10.9316C105.141 10.8382 105.169 10.7636 105.225 10.7076C105.29 10.6422 105.37 10.6096 105.463 10.6096H106.093C106.186 10.6096 106.261 10.6422 106.317 10.7076C106.382 10.7636 106.415 10.8382 106.415 10.9316V20.2276C106.415 20.3209 106.382 20.4002 106.317 20.4656C106.261 20.5216 106.186 20.5496 106.093 20.5496H105.491C105.398 20.5496 105.323 20.5216 105.267 20.4656C105.211 20.4002 105.183 20.3209 105.183 20.2276V19.6256C104.651 20.3349 103.881 20.6896 102.873 20.6896ZM103.139 19.5976C103.792 19.5976 104.282 19.3829 104.609 18.9536C104.936 18.5149 105.113 17.9969 105.141 17.3996C105.15 17.2969 105.155 17.1196 105.155 16.8676C105.155 16.6062 105.15 16.4242 105.141 16.3216C105.122 15.7522 104.94 15.2622 104.595 14.8516C104.259 14.4316 103.774 14.2216 103.139 14.2216C102.467 14.2216 101.977 14.4316 101.669 14.8516C101.361 15.2716 101.193 15.8222 101.165 16.5036L101.151 16.9096C101.151 18.7016 101.814 19.5976 103.139 19.5976ZM112.461 20.5496C112.368 20.5496 112.293 20.5216 112.237 20.4656C112.181 20.4002 112.153 20.3209 112.153 20.2276V11.0856C112.153 10.9829 112.181 10.9036 112.237 10.8476C112.293 10.7822 112.368 10.7496 112.461 10.7496H116.283C117.272 10.7496 118.019 10.9876 118.523 11.4636C119.027 11.9396 119.279 12.5602 119.279 13.3256C119.279 13.8482 119.158 14.2869 118.915 14.6416C118.672 14.9869 118.388 15.2389 118.061 15.3976C118.462 15.5936 118.798 15.8969 119.069 16.3076C119.34 16.7182 119.475 17.1896 119.475 17.7216C119.475 18.2442 119.354 18.7202 119.111 19.1496C118.878 19.5789 118.528 19.9196 118.061 20.1716C117.594 20.4236 117.039 20.5496 116.395 20.5496H112.461ZM116.073 14.9076C116.68 14.9076 117.142 14.7722 117.459 14.5016C117.776 14.2216 117.935 13.8342 117.935 13.3396C117.935 12.8542 117.776 12.4856 117.459 12.2336C117.151 11.9816 116.689 11.8556 116.073 11.8556H113.469V14.9076H116.073ZM116.213 19.4436C116.81 19.4436 117.277 19.2849 117.613 18.9676C117.958 18.6409 118.131 18.2256 118.131 17.7216C118.131 17.2082 117.958 16.7929 117.613 16.4756C117.277 16.1582 116.81 15.9996 116.213 15.9996H113.469V19.4436H116.213ZM123.325 20.6896C122.867 20.6896 122.443 20.5962 122.051 20.4096C121.668 20.2229 121.36 19.9709 121.127 19.6536C120.903 19.3269 120.791 18.9676 120.791 18.5756C120.791 17.9596 121.043 17.4556 121.547 17.0636C122.051 16.6716 122.737 16.4102 123.605 16.2796L125.705 15.9856V15.5796C125.705 14.6182 125.149 14.1376 124.039 14.1376C123.609 14.1376 123.264 14.2262 123.003 14.4036C122.741 14.5716 122.55 14.7722 122.429 15.0056C122.391 15.0989 122.349 15.1642 122.303 15.2016C122.265 15.2296 122.209 15.2436 122.135 15.2436H121.589C121.505 15.2436 121.43 15.2156 121.365 15.1596C121.309 15.0942 121.281 15.0196 121.281 14.9356C121.281 14.7209 121.379 14.4736 121.575 14.1936C121.78 13.9042 122.093 13.6569 122.513 13.4516C122.933 13.2369 123.446 13.1296 124.053 13.1296C125.098 13.1296 125.845 13.3722 126.293 13.8576C126.75 14.3429 126.979 14.9496 126.979 15.6776V20.2276C126.979 20.3209 126.946 20.4002 126.881 20.4656C126.825 20.5216 126.75 20.5496 126.657 20.5496H126.041C125.947 20.5496 125.873 20.5216 125.817 20.4656C125.761 20.4002 125.733 20.3209 125.733 20.2276V19.6116C125.527 19.9196 125.229 20.1762 124.837 20.3816C124.445 20.5869 123.941 20.6896 123.325 20.6896ZM123.605 19.6676C124.221 19.6676 124.725 19.4669 125.117 19.0656C125.509 18.6642 125.705 18.0809 125.705 17.3156V16.9236L124.067 17.1616C123.395 17.2549 122.886 17.4136 122.541 17.6376C122.195 17.8616 122.023 18.1416 122.023 18.4776C122.023 18.8602 122.177 19.1542 122.485 19.3596C122.802 19.5649 123.175 19.6676 123.605 19.6676ZM129.328 20.5496C129.235 20.5496 129.155 20.5216 129.09 20.4656C129.034 20.4002 129.006 20.3209 129.006 20.2276V13.5916C129.006 13.4982 129.034 13.4236 129.09 13.3676C129.155 13.3022 129.235 13.2696 129.328 13.2696H129.93C130.033 13.2696 130.112 13.2976 130.168 13.3536C130.224 13.4096 130.252 13.4889 130.252 13.5916V14.2076C130.532 13.8622 130.854 13.5962 131.218 13.4096C131.591 13.2229 132.053 13.1296 132.604 13.1296C133.5 13.1296 134.195 13.4189 134.69 13.9976C135.185 14.5669 135.432 15.3229 135.432 16.2656V20.2276C135.432 20.3209 135.399 20.4002 135.334 20.4656C135.278 20.5216 135.203 20.5496 135.11 20.5496H134.466C134.373 20.5496 134.293 20.5216 134.228 20.4656C134.172 20.4002 134.144 20.3209 134.144 20.2276V16.3496C134.144 15.6776 133.981 15.1549 133.654 14.7816C133.327 14.4082 132.861 14.2216 132.254 14.2216C131.657 14.2216 131.181 14.4129 130.826 14.7956C130.471 15.1689 130.294 15.6869 130.294 16.3496V20.2276C130.294 20.3209 130.261 20.4002 130.196 20.4656C130.14 20.5216 130.065 20.5496 129.972 20.5496H129.328ZM140.115 20.6896C139.135 20.6896 138.398 20.3722 137.903 19.7376C137.418 19.1029 137.157 18.3002 137.119 17.3296L137.105 16.9096L137.119 16.4896C137.157 15.5282 137.423 14.7302 137.917 14.0956C138.412 13.4516 139.145 13.1296 140.115 13.1296C141.086 13.1296 141.842 13.4749 142.383 14.1656V10.9316C142.383 10.8382 142.411 10.7636 142.467 10.7076C142.533 10.6422 142.612 10.6096 142.705 10.6096H143.335C143.429 10.6096 143.503 10.6422 143.559 10.7076C143.625 10.7636 143.657 10.8382 143.657 10.9316V20.2276C143.657 20.3209 143.625 20.4002 143.559 20.4656C143.503 20.5216 143.429 20.5496 143.335 20.5496H142.733C142.64 20.5496 142.565 20.5216 142.509 20.4656C142.453 20.4002 142.425 20.3209 142.425 20.2276V19.6256C141.893 20.3349 141.123 20.6896 140.115 20.6896ZM140.381 19.5976C141.035 19.5976 141.525 19.3829 141.851 18.9536C142.178 18.5149 142.355 17.9969 142.383 17.3996C142.393 17.2969 142.397 17.1196 142.397 16.8676C142.397 16.6062 142.393 16.4242 142.383 16.3216C142.365 15.7522 142.183 15.2622 141.837 14.8516C141.501 14.4316 141.016 14.2216 140.381 14.2216C139.709 14.2216 139.219 14.4316 138.911 14.8516C138.603 15.2716 138.435 15.8222 138.407 16.5036L138.393 16.9096C138.393 18.7016 139.056 19.5976 140.381 19.5976ZM147.7 20.5496C147.569 20.5496 147.471 20.5216 147.406 20.4656C147.34 20.4096 147.289 20.3209 147.252 20.1996L145.264 13.7036L145.236 13.5636C145.236 13.4796 145.264 13.4096 145.32 13.3536C145.376 13.2976 145.446 13.2696 145.53 13.2696H146.104C146.197 13.2696 146.272 13.2976 146.328 13.3536C146.393 13.4002 146.43 13.4469 146.44 13.4936L148.022 18.8416L149.702 13.5636C149.72 13.4889 149.762 13.4236 149.828 13.3676C149.893 13.3022 149.982 13.2696 150.094 13.2696H150.542C150.654 13.2696 150.742 13.3022 150.808 13.3676C150.873 13.4236 150.915 13.4889 150.934 13.5636L152.614 18.8416L154.196 13.4936C154.205 13.4469 154.238 13.4002 154.294 13.3536C154.359 13.2976 154.438 13.2696 154.532 13.2696H155.106C155.19 13.2696 155.26 13.2976 155.316 13.3536C155.372 13.4096 155.4 13.4796 155.4 13.5636L155.372 13.7036L153.384 20.1996C153.346 20.3209 153.295 20.4096 153.23 20.4656C153.164 20.5216 153.066 20.5496 152.936 20.5496H152.432C152.189 20.5496 152.03 20.4329 151.956 20.1996L150.318 15.1316L148.68 20.1996C148.605 20.4329 148.446 20.5496 148.204 20.5496H147.7ZM157.175 11.8976C157.082 11.8976 157.002 11.8696 156.937 11.8136C156.881 11.7482 156.853 11.6689 156.853 11.5756V10.8476C156.853 10.7542 156.881 10.6749 156.937 10.6096C157.002 10.5442 157.082 10.5116 157.175 10.5116H158.001C158.094 10.5116 158.174 10.5442 158.239 10.6096C158.304 10.6749 158.337 10.7542 158.337 10.8476V11.5756C158.337 11.6689 158.304 11.7482 158.239 11.8136C158.174 11.8696 158.094 11.8976 158.001 11.8976H157.175ZM157.287 20.5496C157.194 20.5496 157.114 20.5216 157.049 20.4656C156.993 20.4002 156.965 20.3209 156.965 20.2276V13.5916C156.965 13.4982 156.993 13.4236 157.049 13.3676C157.114 13.3022 157.194 13.2696 157.287 13.2696H157.903C157.996 13.2696 158.071 13.3022 158.127 13.3676C158.192 13.4236 158.225 13.4982 158.225 13.5916V20.2276C158.225 20.3209 158.192 20.4002 158.127 20.4656C158.071 20.5216 157.996 20.5496 157.903 20.5496H157.287ZM163.128 20.5496C161.682 20.5496 160.958 19.7329 160.958 18.0996V14.3476H159.852C159.759 14.3476 159.684 14.3196 159.628 14.2636C159.572 14.2076 159.544 14.1329 159.544 14.0396V13.5916C159.544 13.4982 159.572 13.4236 159.628 13.3676C159.684 13.3022 159.759 13.2696 159.852 13.2696H160.958V10.9316C160.958 10.8382 160.986 10.7636 161.042 10.7076C161.098 10.6422 161.173 10.6096 161.266 10.6096H161.882C161.976 10.6096 162.05 10.6422 162.106 10.7076C162.172 10.7636 162.204 10.8382 162.204 10.9316V13.2696H163.94C164.034 13.2696 164.108 13.3022 164.164 13.3676C164.23 13.4236 164.262 13.4982 164.262 13.5916V14.0396C164.262 14.1329 164.23 14.2076 164.164 14.2636C164.108 14.3196 164.034 14.3476 163.94 14.3476H162.204V18.0016C162.204 18.4776 162.279 18.8369 162.428 19.0796C162.587 19.3222 162.853 19.4436 163.226 19.4436H164.08C164.174 19.4436 164.248 19.4762 164.304 19.5416C164.36 19.5976 164.388 19.6722 164.388 19.7656V20.2276C164.388 20.3209 164.36 20.4002 164.304 20.4656C164.248 20.5216 164.174 20.5496 164.08 20.5496H163.128ZM168.668 20.6896C167.669 20.6896 166.89 20.4096 166.33 19.8496C165.77 19.2802 165.476 18.4869 165.448 17.4696L165.434 16.9096L165.448 16.3496C165.476 15.3322 165.77 14.5436 166.33 13.9836C166.89 13.4142 167.669 13.1296 168.668 13.1296C169.34 13.1296 169.905 13.2509 170.362 13.4936C170.829 13.7269 171.174 14.0209 171.398 14.3756C171.631 14.7302 171.757 15.0849 171.776 15.4396C171.785 15.5236 171.753 15.5982 171.678 15.6636C171.613 15.7289 171.538 15.7616 171.454 15.7616H170.838C170.745 15.7616 170.675 15.7429 170.628 15.7056C170.581 15.6589 170.535 15.5796 170.488 15.4676C170.32 15.0102 170.087 14.6882 169.788 14.5016C169.499 14.3056 169.13 14.2076 168.682 14.2076C168.094 14.2076 167.627 14.3896 167.282 14.7536C166.937 15.1176 166.75 15.6729 166.722 16.4196L166.708 16.9096L166.722 17.3996C166.75 18.1462 166.937 18.7016 167.282 19.0656C167.627 19.4296 168.094 19.6116 168.682 19.6116C169.139 19.6116 169.513 19.5182 169.802 19.3316C170.091 19.1356 170.32 18.8089 170.488 18.3516C170.535 18.2396 170.581 18.1649 170.628 18.1276C170.675 18.0809 170.745 18.0576 170.838 18.0576H171.454C171.538 18.0576 171.613 18.0902 171.678 18.1556C171.753 18.2209 171.785 18.2956 171.776 18.3796C171.757 18.7249 171.631 19.0749 171.398 19.4296C171.174 19.7842 170.829 20.0829 170.362 20.3256C169.905 20.5682 169.34 20.6896 168.668 20.6896ZM173.789 20.5496C173.696 20.5496 173.617 20.5216 173.551 20.4656C173.495 20.4002 173.467 20.3209 173.467 20.2276V10.9316C173.467 10.8289 173.495 10.7496 173.551 10.6936C173.617 10.6376 173.696 10.6096 173.789 10.6096H174.433C174.536 10.6096 174.615 10.6376 174.671 10.6936C174.727 10.7496 174.755 10.8289 174.755 10.9316V14.1936C175.026 13.8482 175.343 13.5869 175.707 13.4096C176.081 13.2229 176.538 13.1296 177.079 13.1296C177.975 13.1296 178.671 13.4189 179.165 13.9976C179.669 14.5669 179.921 15.3229 179.921 16.2656V20.2276C179.921 20.3209 179.889 20.4002 179.823 20.4656C179.767 20.5216 179.693 20.5496 179.599 20.5496H178.941C178.848 20.5496 178.769 20.5216 178.703 20.4656C178.647 20.4002 178.619 20.3209 178.619 20.2276V16.3496C178.619 15.6776 178.456 15.1549 178.129 14.7816C177.803 14.4082 177.331 14.2216 176.715 14.2216C176.118 14.2216 175.642 14.4129 175.287 14.7956C174.933 15.1689 174.755 15.6869 174.755 16.3496V20.2276C174.755 20.3209 174.723 20.4002 174.657 20.4656C174.601 20.5216 174.527 20.5496 174.433 20.5496H173.789Z" fill="#4F5665"/>
<path d="M11.4487 20.2796C11.3174 20.2798 11.1874 20.2542 11.0661 20.2041C10.9448 20.154 10.8345 20.0804 10.7417 19.9876L6.4997 15.7446C6.40412 15.6524 6.32786 15.5421 6.27537 15.4201C6.22288 15.2982 6.1952 15.167 6.19395 15.0342C6.19271 14.9014 6.21792 14.7697 6.26811 14.6468C6.3183 14.5238 6.39248 14.4121 6.4863 14.3182C6.58013 14.2242 6.69173 14.1499 6.81458 14.0995C6.93744 14.0492 7.0691 14.0238 7.20188 14.0248C7.33466 14.0259 7.4659 14.0534 7.58794 14.1057C7.70998 14.158 7.82038 14.2341 7.9127 14.3296L11.4477 17.8646L17.8127 11.5016C18.0002 11.3139 18.2546 11.2085 18.5198 11.2084C18.7851 11.2083 19.0396 11.3136 19.2272 11.5011C19.4148 11.6886 19.5203 11.9429 19.5204 12.2082C19.5205 12.4735 19.4152 12.7279 19.2277 12.9156L12.1557 19.9876C12.0629 20.0804 11.9526 20.154 11.8313 20.2041C11.71 20.2542 11.58 20.2798 11.4487 20.2796Z" fill="#2FAB73"/>
</svg>
