<svg width="121" height="121" viewBox="0 0 121 121" fill="none" xmlns="http://www.w3.org/2000/svg">
<path d="M1.836 21.8916C1.716 21.8916 1.614 21.8496 1.53 21.7656C1.446 21.6816 1.404 21.5796 1.404 21.4596V9.7416C1.404 9.6096 1.44 9.5016 1.512 9.4176C1.596 9.3336 1.704 9.2916 1.836 9.2916H9.774C9.906 9.2916 10.014 9.3336 10.098 9.4176C10.182 9.5016 10.224 9.6096 10.224 9.7416V10.9476C10.224 11.0796 10.182 11.1876 10.098 11.2716C10.014 11.3436 9.906 11.3796 9.774 11.3796H3.87V14.5296H9.378C9.51 14.5296 9.618 14.5716 9.702 14.6556C9.786 14.7396 9.828 14.8476 9.828 14.9796V16.1136C9.828 16.2456 9.786 16.3536 9.702 16.4376C9.618 16.5096 9.51 16.5456 9.378 16.5456H3.87V19.8036H9.918C10.05 19.8036 10.158 19.8456 10.242 19.9296C10.326 20.0016 10.368 20.1036 10.368 20.2356V21.4596C10.368 21.5916 10.326 21.6996 10.242 21.7836C10.158 21.8556 10.05 21.8916 9.918 21.8916H1.836ZM15.1208 22.0716C14.5088 22.0716 13.9448 21.9516 13.4288 21.7116C12.9248 21.4596 12.5228 21.1236 12.2228 20.7036C11.9348 20.2836 11.7908 19.8216 11.7908 19.3176C11.7908 18.5016 12.1208 17.8416 12.7808 17.3376C13.4408 16.8336 14.3468 16.4916 15.4988 16.3116L17.9648 15.9516V15.5736C17.9648 15.0576 17.8328 14.6676 17.5688 14.4036C17.3048 14.1396 16.8848 14.0076 16.3088 14.0076C15.9128 14.0076 15.5948 14.0796 15.3548 14.2236C15.1148 14.3676 14.9168 14.5176 14.7608 14.6736C14.6168 14.8176 14.5208 14.9136 14.4728 14.9616C14.4248 15.1056 14.3348 15.1776 14.2028 15.1776H12.7988C12.6908 15.1776 12.5948 15.1416 12.5108 15.0696C12.4388 14.9976 12.4028 14.9016 12.4028 14.7816C12.4148 14.4816 12.5588 14.1456 12.8348 13.7736C13.1228 13.3896 13.5608 13.0596 14.1488 12.7836C14.7368 12.4956 15.4628 12.3516 16.3268 12.3516C17.7428 12.3516 18.7748 12.6696 19.4228 13.3056C20.0708 13.9416 20.3948 14.7756 20.3948 15.8076V21.4596C20.3948 21.5796 20.3528 21.6816 20.2688 21.7656C20.1968 21.8496 20.0948 21.8916 19.9628 21.8916H18.4688C18.3488 21.8916 18.2468 21.8496 18.1628 21.7656C18.0788 21.6816 18.0368 21.5796 18.0368 21.4596V20.7576C17.7728 21.1416 17.4008 21.4596 16.9208 21.7116C16.4408 21.9516 15.8408 22.0716 15.1208 22.0716ZM15.7328 20.3436C16.3928 20.3436 16.9328 20.1276 17.3528 19.6956C17.7728 19.2636 17.9828 18.6396 17.9828 17.8236V17.4636L16.1828 17.7516C14.8028 17.9676 14.1128 18.4296 14.1128 19.1376C14.1128 19.5216 14.2688 19.8216 14.5808 20.0376C14.9048 20.2416 15.2888 20.3436 15.7328 20.3436ZM23.1356 21.8916C23.0156 21.8916 22.9136 21.8496 22.8296 21.7656C22.7456 21.6816 22.7036 21.5796 22.7036 21.4596V12.9816C22.7036 12.8496 22.7456 12.7416 22.8296 12.6576C22.9136 12.5736 23.0156 12.5316 23.1356 12.5316H24.6116C24.7436 12.5316 24.8516 12.5736 24.9356 12.6576C25.0196 12.7416 25.0616 12.8496 25.0616 12.9816V13.7196C25.6616 12.9276 26.5256 12.5316 27.6536 12.5316H28.4096C28.5416 12.5316 28.6436 12.5736 28.7156 12.6576C28.7996 12.7296 28.8416 12.8316 28.8416 12.9636V14.2776C28.8416 14.3976 28.7996 14.4996 28.7156 14.5836C28.6436 14.6676 28.5416 14.7096 28.4096 14.7096H26.9876C26.4236 14.7096 25.9796 14.8716 25.6556 15.1956C25.3316 15.5196 25.1696 15.9636 25.1696 16.5276V21.4596C25.1696 21.5796 25.1276 21.6816 25.0436 21.7656C24.9596 21.8496 24.8576 21.8916 24.7376 21.8916H23.1356ZM30.6766 21.8916C30.5566 21.8916 30.4546 21.8496 30.3706 21.7656C30.2866 21.6816 30.2446 21.5796 30.2446 21.4596V12.9636C30.2446 12.8316 30.2866 12.7296 30.3706 12.6576C30.4546 12.5736 30.5566 12.5316 30.6766 12.5316H32.1706C32.3026 12.5316 32.4046 12.5736 32.4766 12.6576C32.5606 12.7296 32.6026 12.8316 32.6026 12.9636V13.7016C33.3346 12.8016 34.3366 12.3516 35.6086 12.3516C36.7126 12.3516 37.5886 12.7116 38.2366 13.4316C38.8846 14.1516 39.2086 15.1416 39.2086 16.4016V21.4596C39.2086 21.5796 39.1666 21.6816 39.0826 21.7656C39.0106 21.8496 38.9086 21.8916 38.7766 21.8916H37.1566C37.0366 21.8916 36.9346 21.8496 36.8506 21.7656C36.7666 21.6816 36.7246 21.5796 36.7246 21.4596V16.5096C36.7246 15.8136 36.5506 15.2736 36.2026 14.8896C35.8666 14.4936 35.3806 14.2956 34.7446 14.2956C34.1326 14.2956 33.6406 14.4936 33.2686 14.8896C32.8966 15.2856 32.7106 15.8256 32.7106 16.5096V21.4596C32.7106 21.5796 32.6686 21.6816 32.5846 21.7656C32.5126 21.8496 32.4106 21.8916 32.2786 21.8916H30.6766ZM46.2383 21.8916C46.1183 21.8916 46.0163 21.8496 45.9323 21.7656C45.8483 21.6816 45.8063 21.5796 45.8063 21.4596V9.7416C45.8063 9.6096 45.8423 9.5016 45.9143 9.4176C45.9983 9.3336 46.1063 9.2916 46.2383 9.2916H47.6963C47.9243 9.2916 48.1043 9.4056 48.2363 9.6336L51.7103 16.0776L55.1843 9.6336C55.3163 9.4056 55.4963 9.2916 55.7243 9.2916H57.1643C57.2963 9.2916 57.4043 9.3336 57.4883 9.4176C57.5723 9.5016 57.6143 9.6096 57.6143 9.7416V21.4596C57.6143 21.5916 57.5723 21.6996 57.4883 21.7836C57.4043 21.8556 57.2963 21.8916 57.1643 21.8916H55.6163C55.4963 21.8916 55.3943 21.8496 55.3103 21.7656C55.2263 21.6816 55.1843 21.5796 55.1843 21.4596V13.7196L52.6823 18.4716C52.5503 18.7356 52.3523 18.8676 52.0883 18.8676H51.3323C51.0803 18.8676 50.8763 18.7356 50.7203 18.4716L48.2183 13.7196V21.4596C48.2183 21.5796 48.1763 21.6816 48.0923 21.7656C48.0203 21.8496 47.9183 21.8916 47.7863 21.8916H46.2383ZM64.3558 22.0716C62.9398 22.0716 61.8478 21.7116 61.0798 20.9916C60.3118 20.2716 59.8978 19.2756 59.8378 18.0036L59.8198 17.2116L59.8378 16.4196C59.8978 15.1596 60.3178 14.1696 61.0978 13.4496C61.8778 12.7176 62.9638 12.3516 64.3558 12.3516C65.7358 12.3516 66.8158 12.7176 67.5958 13.4496C68.3758 14.1696 68.7958 15.1596 68.8558 16.4196C68.8678 16.5636 68.8738 16.8276 68.8738 17.2116C68.8738 17.5956 68.8678 17.8596 68.8558 18.0036C68.7958 19.2756 68.3818 20.2716 67.6138 20.9916C66.8458 21.7116 65.7598 22.0716 64.3558 22.0716ZM64.3558 20.2536C64.9918 20.2536 65.4778 20.0556 65.8138 19.6596C66.1618 19.2636 66.3478 18.6816 66.3718 17.9136C66.3838 17.7936 66.3898 17.5596 66.3898 17.2116C66.3898 16.8636 66.3838 16.6296 66.3718 16.5096C66.3478 15.7416 66.1618 15.1596 65.8138 14.7636C65.4658 14.3556 64.9798 14.1516 64.3558 14.1516C63.7198 14.1516 63.2278 14.3556 62.8798 14.7636C62.5318 15.1596 62.3458 15.7416 62.3218 16.5096L62.3038 17.2116L62.3218 17.9136C62.3458 18.6816 62.5318 19.2636 62.8798 19.6596C63.2278 20.0556 63.7198 20.2536 64.3558 20.2536ZM71.2997 21.8916C71.1797 21.8916 71.0777 21.8496 70.9937 21.7656C70.9097 21.6816 70.8677 21.5796 70.8677 21.4596V12.9636C70.8677 12.8316 70.9097 12.7296 70.9937 12.6576C71.0777 12.5736 71.1797 12.5316 71.2997 12.5316H72.7937C72.9257 12.5316 73.0277 12.5736 73.0997 12.6576C73.1837 12.7296 73.2257 12.8316 73.2257 12.9636V13.7016C73.9577 12.8016 74.9597 12.3516 76.2317 12.3516C77.3357 12.3516 78.2117 12.7116 78.8597 13.4316C79.5077 14.1516 79.8317 15.1416 79.8317 16.4016V21.4596C79.8317 21.5796 79.7897 21.6816 79.7057 21.7656C79.6337 21.8496 79.5317 21.8916 79.3997 21.8916H77.7797C77.6597 21.8916 77.5577 21.8496 77.4737 21.7656C77.3897 21.6816 77.3477 21.5796 77.3477 21.4596V16.5096C77.3477 15.8136 77.1737 15.2736 76.8257 14.8896C76.4897 14.4936 76.0037 14.2956 75.3677 14.2956C74.7557 14.2956 74.2637 14.4936 73.8917 14.8896C73.5197 15.2856 73.3337 15.8256 73.3337 16.5096V21.4596C73.3337 21.5796 73.2917 21.6816 73.2077 21.7656C73.1357 21.8496 73.0337 21.8916 72.9017 21.8916H71.2997ZM86.1677 22.0716C84.8237 22.0716 83.7557 21.6876 82.9637 20.9196C82.1837 20.1516 81.7697 19.0596 81.7217 17.6436L81.7037 17.1936C81.7037 15.6936 82.0937 14.5116 82.8737 13.6476C83.6657 12.7836 84.7577 12.3516 86.1497 12.3516C87.5777 12.3516 88.6757 12.7836 89.4437 13.6476C90.2237 14.5116 90.6137 15.6636 90.6137 17.1036V17.4816C90.6137 17.6016 90.5717 17.7036 90.4877 17.7876C90.4037 17.8716 90.2957 17.9136 90.1637 17.9136H84.1877V18.0576C84.2117 18.7296 84.3917 19.2876 84.7277 19.7316C85.0757 20.1636 85.5497 20.3796 86.1497 20.3796C86.8337 20.3796 87.3917 20.1036 87.8237 19.5516C87.9317 19.4196 88.0157 19.3416 88.0757 19.3176C88.1357 19.2816 88.2377 19.2636 88.3817 19.2636H89.9657C90.0737 19.2636 90.1637 19.2936 90.2357 19.3536C90.3197 19.4136 90.3617 19.4976 90.3617 19.6056C90.3617 19.8936 90.1877 20.2356 89.8397 20.6316C89.5037 21.0156 89.0177 21.3516 88.3817 21.6396C87.7457 21.9276 87.0077 22.0716 86.1677 22.0716ZM88.1297 16.3836V16.3476C88.1297 15.6396 87.9497 15.0756 87.5897 14.6556C87.2417 14.2236 86.7617 14.0076 86.1497 14.0076C85.5377 14.0076 85.0577 14.2236 84.7097 14.6556C84.3617 15.0756 84.1877 15.6396 84.1877 16.3476V16.3836H88.1297ZM93.8292 25.3116C93.7332 25.3116 93.6432 25.2756 93.5592 25.2036C93.4872 25.1316 93.4512 25.0476 93.4512 24.9516C93.4512 24.8676 93.4752 24.7716 93.5232 24.6636L94.9452 21.3336L91.4892 13.1796C91.4412 13.0716 91.4172 12.9876 91.4172 12.9276C91.4292 12.8196 91.4712 12.7296 91.5432 12.6576C91.6152 12.5736 91.7052 12.5316 91.8132 12.5316H93.3072C93.5232 12.5316 93.6792 12.6456 93.7752 12.8736L96.1692 18.7416L98.5992 12.8736C98.7192 12.6456 98.8872 12.5316 99.1032 12.5316H100.561C100.669 12.5316 100.759 12.5676 100.831 12.6396C100.903 12.7116 100.939 12.7956 100.939 12.8916C100.939 12.9756 100.915 13.0716 100.867 13.1796L95.7732 24.9696C95.6772 25.1976 95.5092 25.3116 95.2692 25.3116H93.8292Z" fill="#0B132A"/>
<path d="M0.64 70.8916C0.554667 70.8916 0.48 70.8596 0.416 70.7956C0.352 70.7316 0.32 70.6569 0.32 70.5716L0.352 70.3956L4.32 60.0436C4.40533 59.8089 4.576 59.6916 4.832 59.6916H5.856C6.112 59.6916 6.28267 59.8089 6.368 60.0436L10.336 70.3956L10.368 70.5716C10.368 70.6569 10.3307 70.7316 10.256 70.7956C10.192 70.8596 10.1173 70.8916 10.032 70.8916H9.28C9.17333 70.8916 9.08267 70.8649 9.008 70.8116C8.944 70.7476 8.90133 70.6836 8.88 70.6196L7.984 68.3156H2.688L1.808 70.6196C1.72267 70.8009 1.58933 70.8916 1.408 70.8916H0.64ZM3.152 66.9876H7.536L5.344 61.2436L3.152 66.9876ZM12.7438 70.8916C12.6371 70.8916 12.5464 70.8596 12.4718 70.7956C12.4078 70.7209 12.3758 70.6303 12.3758 70.5236V63.8036H10.9998C10.8931 63.8036 10.8024 63.7716 10.7278 63.7076C10.6638 63.6436 10.6318 63.5583 10.6318 63.4516V62.9396C10.6318 62.8329 10.6638 62.7476 10.7278 62.6836C10.8024 62.6089 10.8931 62.5716 10.9998 62.5716H12.3758V61.7716C12.3758 60.9076 12.5838 60.2409 12.9998 59.7716C13.4264 59.2916 14.1198 59.0516 15.0798 59.0516H16.0238C16.1304 59.0516 16.2158 59.0889 16.2798 59.1636C16.3544 59.2276 16.3918 59.3129 16.3918 59.4196V59.9316C16.3918 60.0383 16.3544 60.1236 16.2798 60.1876C16.2158 60.2516 16.1304 60.2836 16.0238 60.2836H15.1118C14.6211 60.2836 14.2798 60.4116 14.0878 60.6676C13.8958 60.9236 13.7998 61.3183 13.7998 61.8516V62.5716H17.2398V61.7716C17.2398 60.9076 17.4478 60.2409 17.8638 59.7716C18.2904 59.2916 18.9838 59.0516 19.9438 59.0516H22.3278C22.4451 59.0516 22.5358 59.0836 22.5998 59.1476C22.6638 59.2116 22.6958 59.3023 22.6958 59.4196V59.9316C22.6958 60.0383 22.6584 60.1236 22.5838 60.1876C22.5198 60.2516 22.4344 60.2836 22.3278 60.2836H19.9758C19.4851 60.2836 19.1438 60.4116 18.9518 60.6676C18.7598 60.9236 18.6638 61.3183 18.6638 61.8516V62.5716H22.3278C22.4451 62.5716 22.5358 62.6036 22.5998 62.6676C22.6638 62.7316 22.6958 62.8223 22.6958 62.9396V70.5236C22.6958 70.6303 22.6584 70.7209 22.5838 70.7956C22.5198 70.8596 22.4344 70.8916 22.3278 70.8916H21.6398C21.5331 70.8916 21.4424 70.8596 21.3678 70.7956C21.3038 70.7209 21.2718 70.6303 21.2718 70.5236V63.8036H18.6638V70.5236C18.6638 70.6303 18.6264 70.7209 18.5518 70.7956C18.4878 70.8596 18.4024 70.8916 18.2958 70.8916H17.5918C17.4851 70.8916 17.3998 70.8596 17.3358 70.7956C17.2718 70.7209 17.2398 70.6303 17.2398 70.5236V63.8036H13.7998V70.5236C13.7998 70.6303 13.7624 70.7209 13.6878 70.7956C13.6238 70.8596 13.5384 70.8916 13.4318 70.8916H12.7438ZM25.4746 70.8916C25.368 70.8916 25.2773 70.8596 25.2026 70.7956C25.1386 70.7209 25.1066 70.6303 25.1066 70.5236V59.8996C25.1066 59.7823 25.1386 59.6916 25.2026 59.6276C25.2773 59.5636 25.368 59.5316 25.4746 59.5316H26.1786C26.2853 59.5316 26.3706 59.5689 26.4346 59.6436C26.5093 59.7076 26.5466 59.7929 26.5466 59.8996V70.5236C26.5466 70.6303 26.5093 70.7209 26.4346 70.7956C26.3706 70.8596 26.2853 70.8916 26.1786 70.8916H25.4746ZM29.19 61.0036C29.0833 61.0036 28.9927 60.9716 28.918 60.9076C28.854 60.8329 28.822 60.7423 28.822 60.6356V59.8036C28.822 59.6969 28.854 59.6063 28.918 59.5316C28.9927 59.4569 29.0833 59.4196 29.19 59.4196H30.134C30.2407 59.4196 30.3313 59.4569 30.406 59.5316C30.4807 59.6063 30.518 59.6969 30.518 59.8036V60.6356C30.518 60.7423 30.4807 60.8329 30.406 60.9076C30.3313 60.9716 30.2407 61.0036 30.134 61.0036H29.19ZM29.318 70.8916C29.2113 70.8916 29.1207 70.8596 29.046 70.7956C28.982 70.7209 28.95 70.6303 28.95 70.5236V62.9396C28.95 62.8329 28.982 62.7476 29.046 62.6836C29.1207 62.6089 29.2113 62.5716 29.318 62.5716H30.022C30.1287 62.5716 30.214 62.6089 30.278 62.6836C30.3527 62.7476 30.39 62.8329 30.39 62.9396V70.5236C30.39 70.6303 30.3527 70.7209 30.278 70.7956C30.214 70.8596 30.1287 70.8916 30.022 70.8916H29.318ZM35.0978 71.0516C34.5751 71.0516 34.0898 70.9449 33.6418 70.7316C33.2044 70.5183 32.8524 70.2303 32.5858 69.8676C32.3298 69.4943 32.2018 69.0836 32.2018 68.6356C32.2018 67.9316 32.4898 67.3556 33.0658 66.9076C33.6418 66.4596 34.4258 66.1609 35.4178 66.0116L37.8178 65.6756V65.2116C37.8178 64.1129 37.1831 63.5636 35.9138 63.5636C35.4231 63.5636 35.0284 63.6649 34.7298 63.8676C34.4311 64.0596 34.2124 64.2889 34.0738 64.5556C34.0311 64.6623 33.9831 64.7369 33.9298 64.7796C33.8871 64.8116 33.8231 64.8276 33.7378 64.8276H33.1138C33.0178 64.8276 32.9324 64.7956 32.8578 64.7316C32.7938 64.6569 32.7618 64.5716 32.7618 64.4756C32.7618 64.2303 32.8738 63.9476 33.0978 63.6276C33.3324 63.2969 33.6898 63.0143 34.1698 62.7796C34.6498 62.5343 35.2364 62.4116 35.9298 62.4116C37.1244 62.4116 37.9778 62.6889 38.4898 63.2436C39.0124 63.7983 39.2738 64.4916 39.2738 65.3236V70.5236C39.2738 70.6303 39.2364 70.7209 39.1618 70.7956C39.0978 70.8596 39.0124 70.8916 38.9058 70.8916H38.2018C38.0951 70.8916 38.0098 70.8596 37.9458 70.7956C37.8818 70.7209 37.8498 70.6303 37.8498 70.5236V69.8196C37.6151 70.1716 37.2738 70.4649 36.8258 70.6996C36.3778 70.9343 35.8018 71.0516 35.0978 71.0516ZM35.4178 69.8836C36.1218 69.8836 36.6978 69.6543 37.1458 69.1956C37.5938 68.7369 37.8178 68.0703 37.8178 67.1956V66.7476L35.9458 67.0196C35.1778 67.1263 34.5964 67.3076 34.2018 67.5636C33.8071 67.8196 33.6098 68.1396 33.6098 68.5236C33.6098 68.9609 33.7858 69.2969 34.1378 69.5316C34.5004 69.7663 34.9271 69.8836 35.4178 69.8836ZM44.7125 70.8916C43.0592 70.8916 42.2325 69.9583 42.2325 68.0916V63.8036H40.9685C40.8618 63.8036 40.7765 63.7716 40.7125 63.7076C40.6485 63.6436 40.6165 63.5583 40.6165 63.4516V62.9396C40.6165 62.8329 40.6485 62.7476 40.7125 62.6836C40.7765 62.6089 40.8618 62.5716 40.9685 62.5716H42.2325V59.8996C42.2325 59.7929 42.2645 59.7076 42.3285 59.6436C42.3925 59.5689 42.4778 59.5316 42.5845 59.5316H43.2885C43.3952 59.5316 43.4805 59.5689 43.5445 59.6436C43.6192 59.7076 43.6565 59.7929 43.6565 59.8996V62.5716H45.6405C45.7472 62.5716 45.8325 62.6089 45.8965 62.6836C45.9712 62.7476 46.0085 62.8329 46.0085 62.9396V63.4516C46.0085 63.5583 45.9712 63.6436 45.8965 63.7076C45.8325 63.7716 45.7472 63.8036 45.6405 63.8036H43.6565V67.9796C43.6565 68.5236 43.7418 68.9343 43.9125 69.2116C44.0938 69.4889 44.3978 69.6276 44.8245 69.6276H45.8005C45.9072 69.6276 45.9925 69.6649 46.0565 69.7396C46.1205 69.8036 46.1525 69.8889 46.1525 69.9956V70.5236C46.1525 70.6303 46.1205 70.7209 46.0565 70.7956C45.9925 70.8596 45.9072 70.8916 45.8005 70.8916H44.7125ZM51.0116 71.0516C49.9236 71.0516 49.0543 70.7156 48.4036 70.0436C47.753 69.3609 47.3956 68.4329 47.3316 67.2596L47.3156 66.7156L47.3316 66.1876C47.3956 65.0356 47.753 64.1183 48.4036 63.4356C49.0543 62.7529 49.9236 62.4116 51.0116 62.4116C52.185 62.4116 53.0916 62.7849 53.7316 63.5316C54.3823 64.2783 54.7076 65.2916 54.7076 66.5716V66.8596C54.7076 66.9663 54.6703 67.0569 54.5956 67.1316C54.5316 67.1956 54.4463 67.2276 54.3396 67.2276H48.7876V67.3716C48.8196 68.0649 49.033 68.6569 49.4276 69.1476C49.8223 69.6383 50.345 69.8836 50.9956 69.8836C51.497 69.8836 51.9023 69.7876 52.2116 69.5956C52.5316 69.3929 52.7716 69.1849 52.9316 68.9716C53.0276 68.8436 53.1023 68.7689 53.1556 68.7476C53.209 68.7156 53.2996 68.6996 53.4276 68.6996H54.1316C54.2276 68.6996 54.3076 68.7263 54.3716 68.7796C54.4463 68.8329 54.4836 68.9023 54.4836 68.9876C54.4836 69.2223 54.3396 69.5049 54.0516 69.8356C53.7636 70.1663 53.353 70.4543 52.8196 70.6996C52.297 70.9343 51.6943 71.0516 51.0116 71.0516ZM53.2516 66.1396V66.0916C53.2516 65.3449 53.049 64.7369 52.6436 64.2676C52.2383 63.7983 51.6943 63.5636 51.0116 63.5636C50.3183 63.5636 49.7743 63.7983 49.3796 64.2676C48.985 64.7369 48.7876 65.3449 48.7876 66.0916V66.1396H53.2516Z" fill="#4F5665"/>
<path d="M1.76 110.892C1.65333 110.892 1.568 110.86 1.504 110.796C1.44 110.721 1.408 110.63 1.408 110.524V100.076C1.408 99.9583 1.44 99.8676 1.504 99.8036C1.568 99.7289 1.65333 99.6916 1.76 99.6916H6.128C7.25867 99.6916 8.112 99.9636 8.688 100.508C9.264 101.052 9.552 101.761 9.552 102.636C9.552 103.233 9.41333 103.734 9.136 104.14C8.85867 104.534 8.53333 104.822 8.16 105.004C8.61867 105.228 9.00267 105.574 9.312 106.044C9.62133 106.513 9.776 107.052 9.776 107.66C9.776 108.257 9.63733 108.801 9.36 109.292C9.09333 109.782 8.69333 110.172 8.16 110.46C7.62667 110.748 6.992 110.892 6.256 110.892H1.76ZM5.888 104.444C6.58133 104.444 7.10933 104.289 7.472 103.98C7.83467 103.66 8.016 103.217 8.016 102.652C8.016 102.097 7.83467 101.676 7.472 101.388C7.12 101.1 6.592 100.956 5.888 100.956H2.912V104.444H5.888ZM6.048 109.628C6.73067 109.628 7.264 109.446 7.648 109.084C8.04267 108.71 8.24 108.236 8.24 107.66C8.24 107.073 8.04267 106.598 7.648 106.236C7.264 105.873 6.73067 105.692 6.048 105.692H2.912V109.628H6.048ZM15.1679 111.052C14.0799 111.052 13.2105 110.716 12.5599 110.044C11.9092 109.361 11.5519 108.433 11.4879 107.26L11.4719 106.716L11.4879 106.188C11.5519 105.036 11.9092 104.118 12.5599 103.436C13.2105 102.753 14.0799 102.412 15.1679 102.412C16.3412 102.412 17.2479 102.785 17.8879 103.532C18.5385 104.278 18.8639 105.292 18.8639 106.572V106.86C18.8639 106.966 18.8265 107.057 18.7519 107.132C18.6879 107.196 18.6025 107.228 18.4959 107.228H12.9439V107.372C12.9759 108.065 13.1892 108.657 13.5839 109.148C13.9785 109.638 14.5012 109.884 15.1519 109.884C15.6532 109.884 16.0585 109.788 16.3679 109.596C16.6879 109.393 16.9279 109.185 17.0879 108.972C17.1839 108.844 17.2585 108.769 17.3119 108.748C17.3652 108.716 17.4559 108.7 17.5839 108.7H18.2879C18.3839 108.7 18.4639 108.726 18.5279 108.78C18.6025 108.833 18.6399 108.902 18.6399 108.988C18.6399 109.222 18.4959 109.505 18.2079 109.836C17.9199 110.166 17.5092 110.454 16.9759 110.7C16.4532 110.934 15.8505 111.052 15.1679 111.052ZM17.4079 106.14V106.092C17.4079 105.345 17.2052 104.737 16.7999 104.268C16.3945 103.798 15.8505 103.564 15.1679 103.564C14.4745 103.564 13.9305 103.798 13.5359 104.268C13.1412 104.737 12.9439 105.345 12.9439 106.092V106.14H17.4079ZM24.1374 111.052C22.996 111.052 22.1054 110.732 21.4654 110.092C20.8254 109.441 20.4894 108.534 20.4574 107.372L20.4414 106.732L20.4574 106.092C20.4894 104.929 20.8254 104.028 21.4654 103.388C22.1054 102.737 22.996 102.412 24.1374 102.412C24.9054 102.412 25.5507 102.55 26.0734 102.828C26.6067 103.094 27.0014 103.43 27.2574 103.836C27.524 104.241 27.668 104.646 27.6894 105.052C27.7 105.148 27.6627 105.233 27.5774 105.308C27.5027 105.382 27.4174 105.42 27.3214 105.42H26.6174C26.5107 105.42 26.4307 105.398 26.3774 105.356C26.324 105.302 26.2707 105.212 26.2174 105.084C26.0254 104.561 25.7587 104.193 25.4174 103.98C25.0867 103.756 24.6654 103.644 24.1534 103.644C23.4814 103.644 22.948 103.852 22.5534 104.268C22.1587 104.684 21.9454 105.318 21.9134 106.172L21.8974 106.732L21.9134 107.292C21.9454 108.145 22.1587 108.78 22.5534 109.196C22.948 109.612 23.4814 109.82 24.1534 109.82C24.676 109.82 25.1027 109.713 25.4334 109.5C25.764 109.276 26.0254 108.902 26.2174 108.38C26.2707 108.252 26.324 108.166 26.3774 108.124C26.4307 108.07 26.5107 108.044 26.6174 108.044H27.3214C27.4174 108.044 27.5027 108.081 27.5774 108.156C27.6627 108.23 27.7 108.316 27.6894 108.412C27.668 108.806 27.524 109.206 27.2574 109.612C27.0014 110.017 26.6067 110.358 26.0734 110.636C25.5507 110.913 24.9054 111.052 24.1374 111.052ZM32.9823 111.052C31.8089 111.052 30.9023 110.721 30.2623 110.06C29.6329 109.398 29.2969 108.518 29.2543 107.42L29.2383 106.732L29.2543 106.044C29.2969 104.945 29.6383 104.065 30.2783 103.404C30.9289 102.742 31.8303 102.412 32.9823 102.412C34.1343 102.412 35.0303 102.742 35.6703 103.404C36.3209 104.065 36.6676 104.945 36.7103 106.044C36.7316 106.278 36.7423 106.508 36.7423 106.732C36.7423 106.956 36.7316 107.185 36.7103 107.42C36.6676 108.518 36.3263 109.398 35.6863 110.06C35.0569 110.721 34.1556 111.052 32.9823 111.052ZM32.9823 109.852C33.6649 109.852 34.2036 109.638 34.5983 109.212C35.0036 108.774 35.2223 108.15 35.2543 107.34C35.2649 107.233 35.2703 107.03 35.2703 106.732C35.2703 106.433 35.2649 106.23 35.2543 106.124C35.2223 105.313 35.0036 104.694 34.5983 104.268C34.2036 103.83 33.6649 103.612 32.9823 103.612C32.2996 103.612 31.7556 103.83 31.3503 104.268C30.9556 104.694 30.7423 105.313 30.7103 106.124L30.6943 106.732L30.7103 107.34C30.7423 108.15 30.9556 108.774 31.3503 109.212C31.7556 109.638 32.2996 109.852 32.9823 109.852ZM39.1305 110.892C39.0238 110.892 38.9332 110.86 38.8585 110.796C38.7945 110.721 38.7625 110.63 38.7625 110.524V102.94C38.7625 102.833 38.7945 102.748 38.8585 102.684C38.9332 102.609 39.0238 102.572 39.1305 102.572H39.8025C39.9092 102.572 39.9945 102.609 40.0585 102.684C40.1225 102.748 40.1545 102.833 40.1545 102.94V103.484C40.7305 102.769 41.5092 102.412 42.4905 102.412C43.6638 102.412 44.4958 102.902 44.9865 103.884C45.2425 103.436 45.6052 103.078 46.0745 102.812C46.5545 102.545 47.0878 102.412 47.6745 102.412C48.5492 102.412 49.2638 102.71 49.8185 103.308C50.3732 103.905 50.6505 104.769 50.6505 105.9V110.524C50.6505 110.63 50.6132 110.721 50.5385 110.796C50.4745 110.86 50.3892 110.892 50.2825 110.892H49.5945C49.4878 110.892 49.3972 110.86 49.3225 110.796C49.2585 110.721 49.2265 110.63 49.2265 110.524V106.044C49.2265 105.19 49.0505 104.582 48.6985 104.22C48.3465 103.846 47.8825 103.66 47.3065 103.66C46.7945 103.66 46.3518 103.852 45.9785 104.236C45.6158 104.609 45.4345 105.212 45.4345 106.044V110.524C45.4345 110.63 45.3972 110.721 45.3225 110.796C45.2585 110.86 45.1732 110.892 45.0665 110.892H44.3625C44.2558 110.892 44.1652 110.86 44.0905 110.796C44.0265 110.721 43.9945 110.63 43.9945 110.524V106.044C43.9945 105.201 43.8078 104.593 43.4345 104.22C43.0718 103.846 42.6185 103.66 42.0745 103.66C41.5625 103.66 41.1198 103.846 40.7465 104.22C40.3838 104.593 40.2025 105.196 40.2025 106.028V110.524C40.2025 110.63 40.1652 110.721 40.0905 110.796C40.0265 110.86 39.9412 110.892 39.8345 110.892H39.1305ZM56.2616 111.052C55.1736 111.052 54.3043 110.716 53.6536 110.044C53.003 109.361 52.6456 108.433 52.5816 107.26L52.5656 106.716L52.5816 106.188C52.6456 105.036 53.003 104.118 53.6536 103.436C54.3043 102.753 55.1736 102.412 56.2616 102.412C57.435 102.412 58.3416 102.785 58.9816 103.532C59.6323 104.278 59.9576 105.292 59.9576 106.572V106.86C59.9576 106.966 59.9203 107.057 59.8456 107.132C59.7816 107.196 59.6963 107.228 59.5896 107.228H54.0376V107.372C54.0696 108.065 54.283 108.657 54.6776 109.148C55.0723 109.638 55.595 109.884 56.2456 109.884C56.747 109.884 57.1523 109.788 57.4616 109.596C57.7816 109.393 58.0216 109.185 58.1816 108.972C58.2776 108.844 58.3523 108.769 58.4056 108.748C58.459 108.716 58.5496 108.7 58.6776 108.7H59.3816C59.4776 108.7 59.5576 108.726 59.6216 108.78C59.6963 108.833 59.7336 108.902 59.7336 108.988C59.7336 109.222 59.5896 109.505 59.3016 109.836C59.0136 110.166 58.603 110.454 58.0696 110.7C57.547 110.934 56.9443 111.052 56.2616 111.052ZM58.5016 106.14V106.092C58.5016 105.345 58.299 104.737 57.8936 104.268C57.4883 103.798 56.9443 103.564 56.2616 103.564C55.5683 103.564 55.0243 103.798 54.6296 104.268C54.235 104.737 54.0376 105.345 54.0376 106.092V106.14H58.5016ZM66.4006 110.892C66.294 110.892 66.2086 110.86 66.1446 110.796C66.0806 110.721 66.0486 110.63 66.0486 110.524V100.076C66.0486 99.9583 66.0806 99.8676 66.1446 99.8036C66.2086 99.7289 66.294 99.6916 66.4006 99.6916H70.4486C71.654 99.6916 72.598 99.9849 73.2806 100.572C73.974 101.148 74.3206 101.99 74.3206 103.1C74.3206 104.209 73.974 105.052 73.2806 105.628C72.598 106.204 71.654 106.492 70.4486 106.492H67.5686V110.524C67.5686 110.63 67.5313 110.721 67.4566 110.796C67.3926 110.86 67.3073 110.892 67.2006 110.892H66.4006ZM70.3686 105.196C71.9793 105.196 72.7846 104.497 72.7846 103.1C72.7846 102.417 72.582 101.894 72.1766 101.532C71.782 101.169 71.1793 100.988 70.3686 100.988H67.5686V105.196H70.3686ZM78.2384 111.052C77.7157 111.052 77.2304 110.945 76.7824 110.732C76.345 110.518 75.993 110.23 75.7264 109.868C75.4704 109.494 75.3424 109.084 75.3424 108.636C75.3424 107.932 75.6304 107.356 76.2064 106.908C76.7824 106.46 77.5664 106.161 78.5584 106.012L80.9584 105.676V105.212C80.9584 104.113 80.3237 103.564 79.0544 103.564C78.5637 103.564 78.169 103.665 77.8704 103.868C77.5717 104.06 77.353 104.289 77.2144 104.556C77.1717 104.662 77.1237 104.737 77.0704 104.78C77.0277 104.812 76.9637 104.828 76.8784 104.828H76.2544C76.1584 104.828 76.073 104.796 75.9984 104.732C75.9344 104.657 75.9024 104.572 75.9024 104.476C75.9024 104.23 76.0144 103.948 76.2384 103.628C76.473 103.297 76.8304 103.014 77.3104 102.78C77.7904 102.534 78.377 102.412 79.0704 102.412C80.265 102.412 81.1184 102.689 81.6304 103.244C82.153 103.798 82.4144 104.492 82.4144 105.324V110.524C82.4144 110.63 82.377 110.721 82.3024 110.796C82.2384 110.86 82.153 110.892 82.0464 110.892H81.3424C81.2357 110.892 81.1504 110.86 81.0864 110.796C81.0224 110.721 80.9904 110.63 80.9904 110.524V109.82C80.7557 110.172 80.4144 110.465 79.9664 110.7C79.5184 110.934 78.9424 111.052 78.2384 111.052ZM78.5584 109.884C79.2624 109.884 79.8384 109.654 80.2864 109.196C80.7344 108.737 80.9584 108.07 80.9584 107.196V106.748L79.0864 107.02C78.3184 107.126 77.737 107.308 77.3424 107.564C76.9477 107.82 76.7504 108.14 76.7504 108.524C76.7504 108.961 76.9264 109.297 77.2784 109.532C77.641 109.766 78.0677 109.884 78.5584 109.884ZM85.0993 110.892C84.9926 110.892 84.9019 110.86 84.8273 110.796C84.7633 110.721 84.7313 110.63 84.7313 110.524V102.956C84.7313 102.849 84.7633 102.758 84.8273 102.684C84.9019 102.609 84.9926 102.572 85.0993 102.572H85.7713C85.8886 102.572 85.9793 102.609 86.0433 102.684C86.1179 102.748 86.1553 102.838 86.1553 102.956V103.66C86.5926 102.934 87.3339 102.572 88.3793 102.572H89.0033C89.1206 102.572 89.2113 102.604 89.2753 102.668C89.3393 102.732 89.3713 102.822 89.3713 102.94V103.532C89.3713 103.638 89.3393 103.729 89.2753 103.804C89.2113 103.868 89.1206 103.9 89.0033 103.9H88.0913C87.5046 103.9 87.0406 104.07 86.6993 104.412C86.3686 104.753 86.2033 105.217 86.2033 105.804V110.524C86.2033 110.63 86.1659 110.721 86.0913 110.796C86.0166 110.86 85.9259 110.892 85.8193 110.892H85.0993ZM93.9469 110.892C92.2935 110.892 91.4669 109.958 91.4669 108.092V103.804H90.2029C90.0962 103.804 90.0109 103.772 89.9469 103.708C89.8829 103.644 89.8509 103.558 89.8509 103.452V102.94C89.8509 102.833 89.8829 102.748 89.9469 102.684C90.0109 102.609 90.0962 102.572 90.2029 102.572H91.4669V99.8996C91.4669 99.7929 91.4989 99.7076 91.5629 99.6436C91.6269 99.5689 91.7122 99.5316 91.8189 99.5316H92.5229C92.6295 99.5316 92.7149 99.5689 92.7789 99.6436C92.8535 99.7076 92.8909 99.7929 92.8909 99.8996V102.572H94.8749C94.9815 102.572 95.0669 102.609 95.1309 102.684C95.2055 102.748 95.2429 102.833 95.2429 102.94V103.452C95.2429 103.558 95.2055 103.644 95.1309 103.708C95.0669 103.772 94.9815 103.804 94.8749 103.804H92.8909V107.98C92.8909 108.524 92.9762 108.934 93.1469 109.212C93.3282 109.489 93.6322 109.628 94.0589 109.628H95.0349C95.1415 109.628 95.2269 109.665 95.2909 109.74C95.3549 109.804 95.3869 109.889 95.3869 109.996V110.524C95.3869 110.63 95.3549 110.721 95.2909 110.796C95.2269 110.86 95.1415 110.892 95.0349 110.892H93.9469ZM97.318 110.892C97.2113 110.892 97.1207 110.86 97.046 110.796C96.982 110.721 96.95 110.63 96.95 110.524V102.94C96.95 102.833 96.982 102.748 97.046 102.684C97.1207 102.609 97.2113 102.572 97.318 102.572H98.006C98.1233 102.572 98.214 102.604 98.278 102.668C98.342 102.732 98.374 102.822 98.374 102.94V103.644C98.694 103.249 99.062 102.945 99.478 102.732C99.9047 102.518 100.433 102.412 101.062 102.412C102.086 102.412 102.881 102.742 103.446 103.404C104.011 104.054 104.294 104.918 104.294 105.996V110.524C104.294 110.63 104.257 110.721 104.182 110.796C104.118 110.86 104.033 110.892 103.926 110.892H103.19C103.083 110.892 102.993 110.86 102.918 110.796C102.854 110.721 102.822 110.63 102.822 110.524V106.092C102.822 105.324 102.635 104.726 102.262 104.3C101.889 103.873 101.355 103.66 100.662 103.66C99.9793 103.66 99.4353 103.878 99.03 104.316C98.6247 104.742 98.422 105.334 98.422 106.092V110.524C98.422 110.63 98.3847 110.721 98.31 110.796C98.246 110.86 98.1607 110.892 98.054 110.892H97.318ZM109.902 111.052C108.814 111.052 107.945 110.716 107.294 110.044C106.644 109.361 106.286 108.433 106.222 107.26L106.206 106.716L106.222 106.188C106.286 105.036 106.644 104.118 107.294 103.436C107.945 102.753 108.814 102.412 109.902 102.412C111.076 102.412 111.982 102.785 112.622 103.532C113.273 104.278 113.598 105.292 113.598 106.572V106.86C113.598 106.966 113.561 107.057 113.486 107.132C113.422 107.196 113.337 107.228 113.23 107.228H107.678V107.372C107.71 108.065 107.924 108.657 108.318 109.148C108.713 109.638 109.236 109.884 109.886 109.884C110.388 109.884 110.793 109.788 111.102 109.596C111.422 109.393 111.662 109.185 111.822 108.972C111.918 108.844 111.993 108.769 112.046 108.748C112.1 108.716 112.19 108.7 112.318 108.7H113.022C113.118 108.7 113.198 108.726 113.262 108.78C113.337 108.833 113.374 108.902 113.374 108.988C113.374 109.222 113.23 109.505 112.942 109.836C112.654 110.166 112.244 110.454 111.71 110.7C111.188 110.934 110.585 111.052 109.902 111.052ZM112.142 106.14V106.092C112.142 105.345 111.94 104.737 111.534 104.268C111.129 103.798 110.585 103.564 109.902 103.564C109.209 103.564 108.665 103.798 108.27 104.268C107.876 104.737 107.678 105.345 107.678 106.092V106.14H112.142ZM115.912 110.892C115.805 110.892 115.714 110.86 115.64 110.796C115.576 110.721 115.544 110.63 115.544 110.524V102.956C115.544 102.849 115.576 102.758 115.64 102.684C115.714 102.609 115.805 102.572 115.912 102.572H116.584C116.701 102.572 116.792 102.609 116.856 102.684C116.93 102.748 116.968 102.838 116.968 102.956V103.66C117.405 102.934 118.146 102.572 119.192 102.572H119.816C119.933 102.572 120.024 102.604 120.088 102.668C120.152 102.732 120.184 102.822 120.184 102.94V103.532C120.184 103.638 120.152 103.729 120.088 103.804C120.024 103.868 119.933 103.9 119.816 103.9H118.904C118.317 103.9 117.853 104.07 117.512 104.412C117.181 104.753 117.016 105.217 117.016 105.804V110.524C117.016 110.63 116.978 110.721 116.904 110.796C116.829 110.86 116.738 110.892 116.632 110.892H115.912Z" fill="#4F5665"/>
</svg>
