<svg width="74" height="281" viewBox="0 0 74 281" fill="none" xmlns="http://www.w3.org/2000/svg">
<path d="M1.836 21.8916C1.716 21.8916 1.614 21.8496 1.53 21.7656C1.446 21.6816 1.404 21.5796 1.404 21.4596V9.7416C1.404 9.6096 1.44 9.5016 1.512 9.4176C1.596 9.3336 1.704 9.2916 1.836 9.2916H6.66C8.112 9.2916 9.252 9.6336 10.08 10.3176C10.908 11.0016 11.322 11.9976 11.322 13.3056C11.322 14.6016 10.908 15.5856 10.08 16.2576C9.252 16.9176 8.112 17.2476 6.66 17.2476H4.014V21.4596C4.014 21.5916 3.972 21.6996 3.888 21.7836C3.804 21.8556 3.696 21.8916 3.564 21.8916H1.836ZM6.57 15.2316C7.266 15.2316 7.794 15.0696 8.154 14.7456C8.526 14.4096 8.712 13.9236 8.712 13.2876C8.712 12.6636 8.532 12.1776 8.172 11.8296C7.824 11.4816 7.29 11.3076 6.57 11.3076H3.978V15.2316H6.57ZM13.5028 21.8916C13.3828 21.8916 13.2808 21.8496 13.1968 21.7656C13.1128 21.6816 13.0708 21.5796 13.0708 21.4596V12.9816C13.0708 12.8496 13.1128 12.7416 13.1968 12.6576C13.2808 12.5736 13.3828 12.5316 13.5028 12.5316H14.9788C15.1108 12.5316 15.2188 12.5736 15.3028 12.6576C15.3868 12.7416 15.4288 12.8496 15.4288 12.9816V13.7196C16.0288 12.9276 16.8928 12.5316 18.0208 12.5316H18.7768C18.9088 12.5316 19.0108 12.5736 19.0828 12.6576C19.1668 12.7296 19.2088 12.8316 19.2088 12.9636V14.2776C19.2088 14.3976 19.1668 14.4996 19.0828 14.5836C19.0108 14.6676 18.9088 14.7096 18.7768 14.7096H17.3548C16.7908 14.7096 16.3468 14.8716 16.0228 15.1956C15.6988 15.5196 15.5368 15.9636 15.5368 16.5276V21.4596C15.5368 21.5796 15.4948 21.6816 15.4108 21.7656C15.3268 21.8496 15.2248 21.8916 15.1048 21.8916H13.5028ZM24.6468 22.0716C23.2308 22.0716 22.1388 21.7116 21.3708 20.9916C20.6028 20.2716 20.1888 19.2756 20.1288 18.0036L20.1108 17.2116L20.1288 16.4196C20.1888 15.1596 20.6088 14.1696 21.3888 13.4496C22.1688 12.7176 23.2548 12.3516 24.6468 12.3516C26.0268 12.3516 27.1068 12.7176 27.8868 13.4496C28.6668 14.1696 29.0868 15.1596 29.1468 16.4196C29.1588 16.5636 29.1648 16.8276 29.1648 17.2116C29.1648 17.5956 29.1588 17.8596 29.1468 18.0036C29.0868 19.2756 28.6728 20.2716 27.9048 20.9916C27.1368 21.7116 26.0508 22.0716 24.6468 22.0716ZM24.6468 20.2536C25.2828 20.2536 25.7688 20.0556 26.1048 19.6596C26.4528 19.2636 26.6388 18.6816 26.6628 17.9136C26.6748 17.7936 26.6808 17.5596 26.6808 17.2116C26.6808 16.8636 26.6748 16.6296 26.6628 16.5096C26.6388 15.7416 26.4528 15.1596 26.1048 14.7636C25.7568 14.3556 25.2708 14.1516 24.6468 14.1516C24.0108 14.1516 23.5188 14.3556 23.1708 14.7636C22.8228 15.1596 22.6368 15.7416 22.6128 16.5096L22.5948 17.2116L22.6128 17.9136C22.6368 18.6816 22.8228 19.2636 23.1708 19.6596C23.5188 20.0556 24.0108 20.2536 24.6468 20.2536ZM34.6327 22.0716C33.4207 22.0716 32.4907 21.6876 31.8427 20.9196C31.1947 20.1396 30.8407 19.1016 30.7807 17.8056L30.7627 17.2116L30.7807 16.6176C30.8287 15.3456 31.1767 14.3196 31.8247 13.5396C32.4847 12.7476 33.4207 12.3516 34.6327 12.3516C35.7847 12.3516 36.7027 12.7476 37.3867 13.5396V9.5436C37.3867 9.4116 37.4287 9.3096 37.5127 9.2376C37.5967 9.1536 37.6987 9.1116 37.8187 9.1116H39.3847C39.5167 9.1116 39.6187 9.1536 39.6907 9.2376C39.7747 9.3096 39.8167 9.4116 39.8167 9.5436V21.4596C39.8167 21.5796 39.7747 21.6816 39.6907 21.7656C39.6187 21.8496 39.5167 21.8916 39.3847 21.8916H37.9267C37.8067 21.8916 37.7047 21.8496 37.6207 21.7656C37.5367 21.6816 37.4947 21.5796 37.4947 21.4596V20.7936C36.8347 21.6456 35.8807 22.0716 34.6327 22.0716ZM35.3167 20.1276C36.0007 20.1276 36.5047 19.9116 36.8287 19.4796C37.1647 19.0356 37.3507 18.4896 37.3867 17.8416C37.3987 17.6976 37.4047 17.4696 37.4047 17.1576C37.4047 16.8336 37.3987 16.5996 37.3867 16.4556C37.3627 15.8556 37.1767 15.3456 36.8287 14.9256C36.4807 14.5056 35.9767 14.2956 35.3167 14.2956C34.0327 14.2956 33.3487 15.0876 33.2647 16.6716L33.2467 17.2116L33.2647 17.7516C33.3487 19.3356 34.0327 20.1276 35.3167 20.1276ZM45.6893 22.0716C44.5853 22.0716 43.7153 21.7116 43.0793 20.9916C42.4433 20.2716 42.1253 19.2816 42.1253 18.0216V12.9636C42.1253 12.8316 42.1673 12.7296 42.2513 12.6576C42.3353 12.5736 42.4373 12.5316 42.5573 12.5316H44.1773C44.2973 12.5316 44.3993 12.5736 44.4833 12.6576C44.5673 12.7416 44.6093 12.8436 44.6093 12.9636V17.9136C44.6093 19.3896 45.2513 20.1276 46.5353 20.1276C47.1593 20.1276 47.6513 19.9296 48.0113 19.5336C48.3833 19.1376 48.5693 18.5976 48.5693 17.9136V12.9636C48.5693 12.8316 48.6113 12.7296 48.6953 12.6576C48.7793 12.5736 48.8813 12.5316 49.0013 12.5316H50.6033C50.7353 12.5316 50.8373 12.5736 50.9093 12.6576C50.9933 12.7296 51.0353 12.8316 51.0353 12.9636V21.4596C51.0353 21.5796 50.9933 21.6816 50.9093 21.7656C50.8373 21.8496 50.7353 21.8916 50.6033 21.8916H49.1093C48.9893 21.8916 48.8873 21.8496 48.8033 21.7656C48.7193 21.6816 48.6773 21.5796 48.6773 21.4596V20.7216C48.0173 21.6216 47.0213 22.0716 45.6893 22.0716ZM57.4626 22.0716C56.1426 22.0716 55.0866 21.7056 54.2946 20.9736C53.5146 20.2416 53.1006 19.2276 53.0526 17.9316L53.0346 17.2116L53.0526 16.4916C53.1006 15.1956 53.5146 14.1816 54.2946 13.4496C55.0866 12.7176 56.1426 12.3516 57.4626 12.3516C58.4106 12.3516 59.2086 12.5196 59.8566 12.8556C60.5166 13.1916 61.0026 13.6056 61.3146 14.0976C61.6386 14.5776 61.8126 15.0396 61.8366 15.4836C61.8486 15.6036 61.8066 15.7056 61.7106 15.7896C61.6266 15.8736 61.5246 15.9156 61.4046 15.9156H59.8026C59.6706 15.9156 59.5746 15.8916 59.5146 15.8436C59.4546 15.7836 59.3946 15.6816 59.3346 15.5376C59.1546 15.0816 58.9146 14.7516 58.6146 14.5476C58.3266 14.3436 57.9546 14.2416 57.4986 14.2416C56.8866 14.2416 56.4066 14.4336 56.0586 14.8176C55.7226 15.2016 55.5426 15.7896 55.5186 16.5816L55.5006 17.2476L55.5186 17.8416C55.5906 19.4016 56.2506 20.1816 57.4986 20.1816C57.9666 20.1816 58.3446 20.0856 58.6326 19.8936C58.9206 19.6896 59.1546 19.3536 59.3346 18.8856C59.3826 18.7536 59.4366 18.6576 59.4966 18.5976C59.5686 18.5376 59.6706 18.5076 59.8026 18.5076H61.4046C61.5246 18.5076 61.6266 18.5496 61.7106 18.6336C61.8066 18.7176 61.8486 18.8196 61.8366 18.9396C61.8126 19.3596 61.6446 19.8156 61.3326 20.3076C61.0206 20.7876 60.5406 21.2016 59.8926 21.5496C59.2446 21.8976 58.4346 22.0716 57.4626 22.0716ZM67.9614 21.8916C66.8694 21.8916 66.0474 21.6096 65.4954 21.0456C64.9434 20.4696 64.6674 19.6296 64.6674 18.5256V14.4576H63.2454C63.1254 14.4576 63.0234 14.4156 62.9394 14.3316C62.8554 14.2476 62.8134 14.1456 62.8134 14.0256V12.9636C62.8134 12.8436 62.8554 12.7416 62.9394 12.6576C63.0234 12.5736 63.1254 12.5316 63.2454 12.5316H64.6674V9.5436C64.6674 9.4116 64.7094 9.3096 64.7934 9.2376C64.8774 9.1536 64.9794 9.1116 65.0994 9.1116H66.5934C66.7254 9.1116 66.8274 9.1536 66.8994 9.2376C66.9834 9.3096 67.0254 9.4116 67.0254 9.5436V12.5316H69.2754C69.3954 12.5316 69.4974 12.5736 69.5814 12.6576C69.6654 12.7416 69.7074 12.8436 69.7074 12.9636V14.0256C69.7074 14.1456 69.6654 14.2476 69.5814 14.3316C69.4974 14.4156 69.3954 14.4576 69.2754 14.4576H67.0254V18.3276C67.0254 18.8436 67.1154 19.2336 67.2954 19.4976C67.4754 19.7616 67.7694 19.8936 68.1774 19.8936H69.4374C69.5694 19.8936 69.6714 19.9356 69.7434 20.0196C69.8274 20.0916 69.8694 20.1936 69.8694 20.3256V21.4596C69.8694 21.5796 69.8274 21.6816 69.7434 21.7656C69.6714 21.8496 69.5694 21.8916 69.4374 21.8916H67.9614Z" fill="#0B132A"/>
<path d="M1.76 70.8916C1.65333 70.8916 1.568 70.8596 1.504 70.7956C1.44 70.7209 1.408 70.6303 1.408 70.5236V60.0756C1.408 59.9583 1.44 59.8676 1.504 59.8036C1.568 59.7289 1.65333 59.6916 1.76 59.6916H5.376C6.98667 59.6916 8.14933 60.0543 8.864 60.7796C9.57867 61.4943 9.94667 62.5769 9.968 64.0276C9.97867 64.3369 9.984 64.7529 9.984 65.2756C9.984 65.7983 9.97867 66.2196 9.968 66.5396C9.94667 67.5529 9.78133 68.3796 9.472 69.0196C9.17333 69.6489 8.69867 70.1183 8.048 70.4276C7.39733 70.7369 6.53333 70.8916 5.456 70.8916H1.76ZM5.376 69.5636C6.12267 69.5636 6.71467 69.4623 7.152 69.2596C7.6 69.0463 7.92 68.7209 8.112 68.2836C8.31467 67.8356 8.42667 67.2329 8.448 66.4756C8.46933 65.8356 8.48 65.4356 8.48 65.2756C8.48 65.1049 8.46933 64.7103 8.448 64.0916C8.42667 63.0249 8.17067 62.2463 7.68 61.7556C7.2 61.2543 6.40533 61.0036 5.296 61.0036H2.912V69.5636H5.376ZM15.5916 71.0516C14.4183 71.0516 13.5116 70.7209 12.8716 70.0596C12.2423 69.3983 11.9063 68.5183 11.8636 67.4196L11.8476 66.7316L11.8636 66.0436C11.9063 64.9449 12.2476 64.0649 12.8876 63.4036C13.5383 62.7423 14.4396 62.4116 15.5916 62.4116C16.7436 62.4116 17.6396 62.7423 18.2796 63.4036C18.9303 64.0649 19.277 64.9449 19.3196 66.0436C19.341 66.2783 19.3516 66.5076 19.3516 66.7316C19.3516 66.9556 19.341 67.1849 19.3196 67.4196C19.277 68.5183 18.9356 69.3983 18.2956 70.0596C17.6663 70.7209 16.765 71.0516 15.5916 71.0516ZM15.5916 69.8516C16.2743 69.8516 16.813 69.6383 17.2076 69.2116C17.613 68.7743 17.8316 68.1503 17.8636 67.3396C17.8743 67.2329 17.8796 67.0303 17.8796 66.7316C17.8796 66.4329 17.8743 66.2303 17.8636 66.1236C17.8316 65.3129 17.613 64.6943 17.2076 64.2676C16.813 63.8303 16.2743 63.6116 15.5916 63.6116C14.909 63.6116 14.365 63.8303 13.9596 64.2676C13.565 64.6943 13.3516 65.3129 13.3196 66.1236L13.3036 66.7316L13.3196 67.3396C13.3516 68.1503 13.565 68.7743 13.9596 69.2116C14.365 69.6383 14.909 69.8516 15.5916 69.8516ZM23.3611 70.8916C23.2118 70.8916 23.0998 70.8596 23.0251 70.7956C22.9505 70.7316 22.8918 70.6303 22.8491 70.4916L20.5771 63.0676L20.5451 62.9076C20.5451 62.8116 20.5771 62.7316 20.6411 62.6676C20.7051 62.6036 20.7851 62.5716 20.8811 62.5716H21.5371C21.6438 62.5716 21.7291 62.6036 21.7931 62.6676C21.8678 62.7209 21.9105 62.7743 21.9211 62.8276L23.7291 68.9396L25.6491 62.9076C25.6705 62.8223 25.7185 62.7476 25.7931 62.6836C25.8678 62.6089 25.9691 62.5716 26.0971 62.5716H26.6091C26.7371 62.5716 26.8385 62.6089 26.9131 62.6836C26.9878 62.7476 27.0358 62.8223 27.0571 62.9076L28.9771 68.9396L30.7851 62.8276C30.7958 62.7743 30.8331 62.7209 30.8971 62.6676C30.9718 62.6036 31.0625 62.5716 31.1691 62.5716H31.8251C31.9211 62.5716 32.0011 62.6036 32.0651 62.6676C32.1291 62.7316 32.1611 62.8116 32.1611 62.9076L32.1291 63.0676L29.8571 70.4916C29.8145 70.6303 29.7558 70.7316 29.6811 70.7956C29.6065 70.8596 29.4945 70.8916 29.3451 70.8916H28.7691C28.4918 70.8916 28.3105 70.7583 28.2251 70.4916L26.3531 64.6996L24.4811 70.4916C24.3958 70.7583 24.2145 70.8916 23.9371 70.8916H23.3611ZM34.318 70.8916C34.2113 70.8916 34.1207 70.8596 34.046 70.7956C33.982 70.7209 33.95 70.6303 33.95 70.5236V62.9396C33.95 62.8329 33.982 62.7476 34.046 62.6836C34.1207 62.6089 34.2113 62.5716 34.318 62.5716H35.006C35.1233 62.5716 35.214 62.6036 35.278 62.6676C35.342 62.7316 35.374 62.8223 35.374 62.9396V63.6436C35.694 63.2489 36.062 62.9449 36.478 62.7316C36.9047 62.5183 37.4327 62.4116 38.062 62.4116C39.086 62.4116 39.8807 62.7423 40.446 63.4036C41.0113 64.0543 41.294 64.9183 41.294 65.9956V70.5236C41.294 70.6303 41.2567 70.7209 41.182 70.7956C41.118 70.8596 41.0327 70.8916 40.926 70.8916H40.19C40.0833 70.8916 39.9927 70.8596 39.918 70.7956C39.854 70.7209 39.822 70.6303 39.822 70.5236V66.0916C39.822 65.3236 39.6353 64.7263 39.262 64.2996C38.8887 63.8729 38.3553 63.6596 37.662 63.6596C36.9793 63.6596 36.4353 63.8783 36.03 64.3156C35.6247 64.7423 35.422 65.3343 35.422 66.0916V70.5236C35.422 70.6303 35.3847 70.7209 35.31 70.7956C35.246 70.8596 35.1607 70.8916 35.054 70.8916H34.318ZM43.9903 70.8916C43.8836 70.8916 43.7929 70.8596 43.7183 70.7956C43.6543 70.7209 43.6223 70.6303 43.6223 70.5236V59.8996C43.6223 59.7823 43.6543 59.6916 43.7183 59.6276C43.7929 59.5636 43.8836 59.5316 43.9903 59.5316H44.6943C44.8009 59.5316 44.8863 59.5689 44.9503 59.6436C45.0249 59.7076 45.0623 59.7929 45.0623 59.8996V70.5236C45.0623 70.6303 45.0249 70.7209 44.9503 70.7956C44.8863 70.8596 44.8009 70.8916 44.6943 70.8916H43.9903ZM50.8416 71.0516C49.6683 71.0516 48.7616 70.7209 48.1216 70.0596C47.4923 69.3983 47.1563 68.5183 47.1136 67.4196L47.0976 66.7316L47.1136 66.0436C47.1563 64.9449 47.4976 64.0649 48.1376 63.4036C48.7883 62.7423 49.6896 62.4116 50.8416 62.4116C51.9936 62.4116 52.8896 62.7423 53.5296 63.4036C54.1803 64.0649 54.527 64.9449 54.5696 66.0436C54.591 66.2783 54.6016 66.5076 54.6016 66.7316C54.6016 66.9556 54.591 67.1849 54.5696 67.4196C54.527 68.5183 54.1856 69.3983 53.5456 70.0596C52.9163 70.7209 52.015 71.0516 50.8416 71.0516ZM50.8416 69.8516C51.5243 69.8516 52.063 69.6383 52.4576 69.2116C52.863 68.7743 53.0816 68.1503 53.1136 67.3396C53.1243 67.2329 53.1296 67.0303 53.1296 66.7316C53.1296 66.4329 53.1243 66.2303 53.1136 66.1236C53.0816 65.3129 52.863 64.6943 52.4576 64.2676C52.063 63.8303 51.5243 63.6116 50.8416 63.6116C50.159 63.6116 49.615 63.8303 49.2096 64.2676C48.815 64.6943 48.6016 65.3129 48.5696 66.1236L48.5536 66.7316L48.5696 67.3396C48.6016 68.1503 48.815 68.7743 49.2096 69.2116C49.615 69.6383 50.159 69.8516 50.8416 69.8516ZM58.9259 71.0516C58.4032 71.0516 57.9179 70.9449 57.4699 70.7316C57.0325 70.5183 56.6805 70.2303 56.4139 69.8676C56.1579 69.4943 56.0299 69.0836 56.0299 68.6356C56.0299 67.9316 56.3179 67.3556 56.8939 66.9076C57.4699 66.4596 58.2539 66.1609 59.2459 66.0116L61.6459 65.6756V65.2116C61.6459 64.1129 61.0112 63.5636 59.7419 63.5636C59.2512 63.5636 58.8565 63.6649 58.5579 63.8676C58.2592 64.0596 58.0405 64.2889 57.9019 64.5556C57.8592 64.6623 57.8112 64.7369 57.7579 64.7796C57.7152 64.8116 57.6512 64.8276 57.5659 64.8276H56.9419C56.8459 64.8276 56.7605 64.7956 56.6859 64.7316C56.6219 64.6569 56.5899 64.5716 56.5899 64.4756C56.5899 64.2303 56.7019 63.9476 56.9259 63.6276C57.1605 63.2969 57.5179 63.0143 57.9979 62.7796C58.4779 62.5343 59.0645 62.4116 59.7579 62.4116C60.9525 62.4116 61.8059 62.6889 62.3179 63.2436C62.8405 63.7983 63.1019 64.4916 63.1019 65.3236V70.5236C63.1019 70.6303 63.0645 70.7209 62.9899 70.7956C62.9259 70.8596 62.8405 70.8916 62.7339 70.8916H62.0299C61.9232 70.8916 61.8379 70.8596 61.7739 70.7956C61.7099 70.7209 61.6779 70.6303 61.6779 70.5236V69.8196C61.4432 70.1716 61.1019 70.4649 60.6539 70.6996C60.2059 70.9343 59.6299 71.0516 58.9259 71.0516ZM59.2459 69.8836C59.9499 69.8836 60.5259 69.6543 60.9739 69.1956C61.4219 68.7369 61.6459 68.0703 61.6459 67.1956V66.7476L59.7739 67.0196C59.0059 67.1263 58.4245 67.3076 58.0299 67.5636C57.6352 67.8196 57.4379 68.1396 57.4379 68.5236C57.4379 68.9609 57.6139 69.2969 57.9659 69.5316C58.3285 69.7663 58.7552 69.8836 59.2459 69.8836ZM68.4588 71.0516C67.3388 71.0516 66.4961 70.6889 65.9308 69.9636C65.3761 69.2383 65.0774 68.3209 65.0348 67.2116L65.0188 66.7316L65.0348 66.2516C65.0774 65.1529 65.3814 64.2409 65.9468 63.5156C66.5121 62.7796 67.3494 62.4116 68.4588 62.4116C69.5681 62.4116 70.4321 62.8063 71.0508 63.5956V59.8996C71.0508 59.7929 71.0828 59.7076 71.1468 59.6436C71.2214 59.5689 71.3121 59.5316 71.4188 59.5316H72.1388C72.2454 59.5316 72.3308 59.5689 72.3948 59.6436C72.4694 59.7076 72.5068 59.7929 72.5068 59.8996V70.5236C72.5068 70.6303 72.4694 70.7209 72.3948 70.7956C72.3308 70.8596 72.2454 70.8916 72.1388 70.8916H71.4508C71.3441 70.8916 71.2588 70.8596 71.1948 70.7956C71.1308 70.7209 71.0988 70.6303 71.0988 70.5236V69.8356C70.4908 70.6463 69.6108 71.0516 68.4588 71.0516ZM68.7628 69.8036C69.5094 69.8036 70.0694 69.5583 70.4428 69.0676C70.8161 68.5663 71.0188 67.9743 71.0508 67.2916C71.0614 67.1743 71.0668 66.9716 71.0668 66.6836C71.0668 66.3849 71.0614 66.1769 71.0508 66.0596C71.0294 65.4089 70.8214 64.8489 70.4268 64.3796C70.0428 63.8996 69.4881 63.6596 68.7628 63.6596C67.9948 63.6596 67.4348 63.8996 67.0828 64.3796C66.7308 64.8596 66.5388 65.4889 66.5068 66.2676L66.4908 66.7316C66.4908 68.7796 67.2481 69.8036 68.7628 69.8036Z" fill="#4F5665"/>
<path d="M1.76 110.892C1.65333 110.892 1.568 110.86 1.504 110.796C1.44 110.721 1.408 110.63 1.408 110.524V100.076C1.408 99.9583 1.44 99.8676 1.504 99.8036C1.568 99.7289 1.65333 99.6916 1.76 99.6916H5.808C7.01333 99.6916 7.95733 99.9849 8.64 100.572C9.33333 101.148 9.68 101.99 9.68 103.1C9.68 104.209 9.33333 105.052 8.64 105.628C7.95733 106.204 7.01333 106.492 5.808 106.492H2.928V110.524C2.928 110.63 2.89067 110.721 2.816 110.796C2.752 110.86 2.66667 110.892 2.56 110.892H1.76ZM5.728 105.196C7.33867 105.196 8.144 104.497 8.144 103.1C8.144 102.417 7.94133 101.894 7.536 101.532C7.14133 101.169 6.53867 100.988 5.728 100.988H2.928V105.196H5.728ZM11.818 110.892C11.7113 110.892 11.6207 110.86 11.546 110.796C11.482 110.721 11.45 110.63 11.45 110.524V102.956C11.45 102.849 11.482 102.758 11.546 102.684C11.6207 102.609 11.7113 102.572 11.818 102.572H12.49C12.6073 102.572 12.698 102.609 12.762 102.684C12.8367 102.748 12.874 102.838 12.874 102.956V103.66C13.3113 102.934 14.0527 102.572 15.098 102.572H15.722C15.8393 102.572 15.93 102.604 15.994 102.668C16.058 102.732 16.09 102.822 16.09 102.94V103.532C16.09 103.638 16.058 103.729 15.994 103.804C15.93 103.868 15.8393 103.9 15.722 103.9H14.81C14.2233 103.9 13.7593 104.07 13.418 104.412C13.0873 104.753 12.922 105.217 12.922 105.804V110.524C12.922 110.63 12.8847 110.721 12.81 110.796C12.7353 110.86 12.6447 110.892 12.538 110.892H11.818ZM17.7056 101.004C17.599 101.004 17.5083 100.972 17.4336 100.908C17.3696 100.833 17.3376 100.742 17.3376 100.636V99.8036C17.3376 99.6969 17.3696 99.6063 17.4336 99.5316C17.5083 99.4569 17.599 99.4196 17.7056 99.4196H18.6496C18.7563 99.4196 18.847 99.4569 18.9216 99.5316C18.9963 99.6063 19.0336 99.6969 19.0336 99.8036V100.636C19.0336 100.742 18.9963 100.833 18.9216 100.908C18.847 100.972 18.7563 101.004 18.6496 101.004H17.7056ZM17.8336 110.892C17.727 110.892 17.6363 110.86 17.5616 110.796C17.4976 110.721 17.4656 110.63 17.4656 110.524V102.94C17.4656 102.833 17.4976 102.748 17.5616 102.684C17.6363 102.609 17.727 102.572 17.8336 102.572H18.5376C18.6443 102.572 18.7296 102.609 18.7936 102.684C18.8683 102.748 18.9056 102.833 18.9056 102.94V110.524C18.9056 110.63 18.8683 110.721 18.7936 110.796C18.7296 110.86 18.6443 110.892 18.5376 110.892H17.8336ZM24.6374 111.052C23.496 111.052 22.6054 110.732 21.9654 110.092C21.3254 109.441 20.9894 108.534 20.9574 107.372L20.9414 106.732L20.9574 106.092C20.9894 104.929 21.3254 104.028 21.9654 103.388C22.6054 102.737 23.496 102.412 24.6374 102.412C25.4054 102.412 26.0507 102.55 26.5734 102.828C27.1067 103.094 27.5014 103.43 27.7574 103.836C28.024 104.241 28.168 104.646 28.1894 105.052C28.2 105.148 28.1627 105.233 28.0774 105.308C28.0027 105.382 27.9174 105.42 27.8214 105.42H27.1174C27.0107 105.42 26.9307 105.398 26.8774 105.356C26.824 105.302 26.7707 105.212 26.7174 105.084C26.5254 104.561 26.2587 104.193 25.9174 103.98C25.5867 103.756 25.1654 103.644 24.6534 103.644C23.9814 103.644 23.448 103.852 23.0534 104.268C22.6587 104.684 22.4454 105.318 22.4134 106.172L22.3974 106.732L22.4134 107.292C22.4454 108.145 22.6587 108.78 23.0534 109.196C23.448 109.612 23.9814 109.82 24.6534 109.82C25.176 109.82 25.6027 109.713 25.9334 109.5C26.264 109.276 26.5254 108.902 26.7174 108.38C26.7707 108.252 26.824 108.166 26.8774 108.124C26.9307 108.07 27.0107 108.044 27.1174 108.044H27.8214C27.9174 108.044 28.0027 108.081 28.0774 108.156C28.1627 108.23 28.2 108.316 28.1894 108.412C28.168 108.806 28.024 109.206 27.7574 109.612C27.5014 110.017 27.1067 110.358 26.5734 110.636C26.0507 110.913 25.4054 111.052 24.6374 111.052ZM30.3463 101.004C30.2396 101.004 30.1489 100.972 30.0743 100.908C30.0103 100.833 29.9783 100.742 29.9783 100.636V99.8036C29.9783 99.6969 30.0103 99.6063 30.0743 99.5316C30.1489 99.4569 30.2396 99.4196 30.3463 99.4196H31.2903C31.3969 99.4196 31.4876 99.4569 31.5623 99.5316C31.6369 99.6063 31.6743 99.6969 31.6743 99.8036V100.636C31.6743 100.742 31.6369 100.833 31.5623 100.908C31.4876 100.972 31.3969 101.004 31.2903 101.004H30.3463ZM30.4743 110.892C30.3676 110.892 30.2769 110.86 30.2023 110.796C30.1383 110.721 30.1063 110.63 30.1063 110.524V102.94C30.1063 102.833 30.1383 102.748 30.2023 102.684C30.2769 102.609 30.3676 102.572 30.4743 102.572H31.1783C31.2849 102.572 31.3703 102.609 31.4343 102.684C31.5089 102.748 31.5463 102.833 31.5463 102.94V110.524C31.5463 110.63 31.5089 110.721 31.4343 110.796C31.3703 110.86 31.2849 110.892 31.1783 110.892H30.4743ZM34.318 110.892C34.2113 110.892 34.1207 110.86 34.046 110.796C33.982 110.721 33.95 110.63 33.95 110.524V102.94C33.95 102.833 33.982 102.748 34.046 102.684C34.1207 102.609 34.2113 102.572 34.318 102.572H35.006C35.1233 102.572 35.214 102.604 35.278 102.668C35.342 102.732 35.374 102.822 35.374 102.94V103.644C35.694 103.249 36.062 102.945 36.478 102.732C36.9047 102.518 37.4327 102.412 38.062 102.412C39.086 102.412 39.8807 102.742 40.446 103.404C41.0113 104.054 41.294 104.918 41.294 105.996V110.524C41.294 110.63 41.2567 110.721 41.182 110.796C41.118 110.86 41.0327 110.892 40.926 110.892H40.19C40.0833 110.892 39.9927 110.86 39.918 110.796C39.854 110.721 39.822 110.63 39.822 110.524V106.092C39.822 105.324 39.6353 104.726 39.262 104.3C38.8887 103.873 38.3553 103.66 37.662 103.66C36.9793 103.66 36.4353 103.878 36.03 104.316C35.6247 104.742 35.422 105.334 35.422 106.092V110.524C35.422 110.63 35.3847 110.721 35.31 110.796C35.246 110.86 35.1607 110.892 35.054 110.892H34.318ZM46.9823 114.412C46.0969 114.412 45.3876 114.262 44.8543 113.964C44.3209 113.665 43.9423 113.324 43.7183 112.94C43.5049 112.556 43.3983 112.225 43.3983 111.948C43.3983 111.852 43.4356 111.766 43.5103 111.692C43.5849 111.628 43.6703 111.596 43.7663 111.596H44.4703C44.5663 111.596 44.6463 111.617 44.7103 111.66C44.7743 111.713 44.8276 111.804 44.8703 111.932C45.1689 112.785 45.8463 113.212 46.9023 113.212C47.7023 113.212 48.2943 113.041 48.6783 112.7C49.0623 112.358 49.2543 111.756 49.2543 110.892V109.788C48.6356 110.577 47.7716 110.972 46.6623 110.972C45.5316 110.972 44.6836 110.609 44.1183 109.884C43.5636 109.158 43.2703 108.241 43.2383 107.132L43.2223 106.684L43.2383 106.252C43.2703 105.153 43.5636 104.241 44.1183 103.516C44.6836 102.78 45.5316 102.412 46.6623 102.412C47.7823 102.412 48.6569 102.822 49.2863 103.644V102.956C49.2863 102.849 49.3183 102.758 49.3823 102.684C49.4569 102.609 49.5476 102.572 49.6543 102.572H50.3423C50.4489 102.572 50.5343 102.609 50.5983 102.684C50.6729 102.758 50.7103 102.849 50.7103 102.956V110.716C50.7103 113.18 49.4676 114.412 46.9823 114.412ZM46.9503 109.724C47.6969 109.724 48.2569 109.484 48.6303 109.004C49.0143 108.513 49.2223 107.926 49.2543 107.244C49.2649 107.148 49.2703 106.961 49.2703 106.684C49.2703 106.417 49.2649 106.236 49.2543 106.14C49.2223 105.457 49.0143 104.876 48.6303 104.396C48.2569 103.905 47.6969 103.66 46.9503 103.66C46.1823 103.66 45.6223 103.905 45.2703 104.396C44.9289 104.876 44.7423 105.5 44.7103 106.268L44.6943 106.684L44.7103 107.116C44.7423 107.884 44.9289 108.513 45.2703 109.004C45.6223 109.484 46.1823 109.724 46.9503 109.724Z" fill="#4F5665"/>
<path d="M1.76 150.892C1.65333 150.892 1.568 150.86 1.504 150.796C1.44 150.721 1.408 150.63 1.408 150.524V140.06C1.408 139.953 1.44 139.868 1.504 139.804C1.568 139.729 1.65333 139.692 1.76 139.692H2.56C2.66667 139.692 2.752 139.729 2.816 139.804C2.88 139.868 2.912 139.953 2.912 140.06V149.548H8.256C8.37333 149.548 8.464 149.585 8.528 149.66C8.60267 149.724 8.64 149.809 8.64 149.916V150.524C8.64 150.63 8.60267 150.721 8.528 150.796C8.45333 150.86 8.36267 150.892 8.256 150.892H1.76ZM13.3729 151.052C12.1995 151.052 11.2929 150.721 10.6529 150.06C10.0235 149.398 9.68754 148.518 9.64488 147.42L9.62888 146.732L9.64488 146.044C9.68754 144.945 10.0289 144.065 10.6689 143.404C11.3195 142.742 12.2209 142.412 13.3729 142.412C14.5249 142.412 15.4209 142.742 16.0609 143.404C16.7115 144.065 17.0582 144.945 17.1009 146.044C17.1222 146.278 17.1329 146.508 17.1329 146.732C17.1329 146.956 17.1222 147.185 17.1009 147.42C17.0582 148.518 16.7169 149.398 16.0769 150.06C15.4475 150.721 14.5462 151.052 13.3729 151.052ZM13.3729 149.852C14.0555 149.852 14.5942 149.638 14.9889 149.212C15.3942 148.774 15.6129 148.15 15.6449 147.34C15.6555 147.233 15.6609 147.03 15.6609 146.732C15.6609 146.433 15.6555 146.23 15.6449 146.124C15.6129 145.313 15.3942 144.694 14.9889 144.268C14.5942 143.83 14.0555 143.612 13.3729 143.612C12.6902 143.612 12.1462 143.83 11.7409 144.268C11.3462 144.694 11.1329 145.313 11.1009 146.124L11.0849 146.732L11.1009 147.34C11.1329 148.15 11.3462 148.774 11.7409 149.212C12.1462 149.638 12.6902 149.852 13.3729 149.852ZM22.4811 151.052C21.3398 151.052 20.4491 150.732 19.8091 150.092C19.1691 149.441 18.8331 148.534 18.8011 147.372L18.7851 146.732L18.8011 146.092C18.8331 144.929 19.1691 144.028 19.8091 143.388C20.4491 142.737 21.3398 142.412 22.4811 142.412C23.2491 142.412 23.8945 142.55 24.4171 142.828C24.9505 143.094 25.3451 143.43 25.6011 143.836C25.8678 144.241 26.0118 144.646 26.0331 145.052C26.0438 145.148 26.0065 145.233 25.9211 145.308C25.8465 145.382 25.7611 145.42 25.6651 145.42H24.9611C24.8545 145.42 24.7745 145.398 24.7211 145.356C24.6678 145.302 24.6145 145.212 24.5611 145.084C24.3691 144.561 24.1025 144.193 23.7611 143.98C23.4305 143.756 23.0091 143.644 22.4971 143.644C21.8251 143.644 21.2918 143.852 20.8971 144.268C20.5025 144.684 20.2891 145.318 20.2571 146.172L20.2411 146.732L20.2571 147.292C20.2891 148.145 20.5025 148.78 20.8971 149.196C21.2918 149.612 21.8251 149.82 22.4971 149.82C23.0198 149.82 23.4465 149.713 23.7771 149.5C24.1078 149.276 24.3691 148.902 24.5611 148.38C24.6145 148.252 24.6678 148.166 24.7211 148.124C24.7745 148.07 24.8545 148.044 24.9611 148.044H25.6651C25.7611 148.044 25.8465 148.081 25.9211 148.156C26.0065 148.23 26.0438 148.316 26.0331 148.412C26.0118 148.806 25.8678 149.206 25.6011 149.612C25.3451 150.017 24.9505 150.358 24.4171 150.636C23.8945 150.913 23.2491 151.052 22.4811 151.052ZM30.254 151.052C29.7313 151.052 29.246 150.945 28.798 150.732C28.3607 150.518 28.0087 150.23 27.742 149.868C27.486 149.494 27.358 149.084 27.358 148.636C27.358 147.932 27.646 147.356 28.222 146.908C28.798 146.46 29.582 146.161 30.574 146.012L32.974 145.676V145.212C32.974 144.113 32.3393 143.564 31.07 143.564C30.5793 143.564 30.1847 143.665 29.886 143.868C29.5873 144.06 29.3687 144.289 29.23 144.556C29.1873 144.662 29.1393 144.737 29.086 144.78C29.0433 144.812 28.9793 144.828 28.894 144.828H28.27C28.174 144.828 28.0887 144.796 28.014 144.732C27.95 144.657 27.918 144.572 27.918 144.476C27.918 144.23 28.03 143.948 28.254 143.628C28.4887 143.297 28.846 143.014 29.326 142.78C29.806 142.534 30.3927 142.412 31.086 142.412C32.2807 142.412 33.134 142.689 33.646 143.244C34.1687 143.798 34.43 144.492 34.43 145.324V150.524C34.43 150.63 34.3927 150.721 34.318 150.796C34.254 150.86 34.1687 150.892 34.062 150.892H33.358C33.2513 150.892 33.166 150.86 33.102 150.796C33.038 150.721 33.006 150.63 33.006 150.524V149.82C32.7713 150.172 32.43 150.465 31.982 150.7C31.534 150.934 30.958 151.052 30.254 151.052ZM30.574 149.884C31.278 149.884 31.854 149.654 32.302 149.196C32.75 148.737 32.974 148.07 32.974 147.196V146.748L31.102 147.02C30.334 147.126 29.7527 147.308 29.358 147.564C28.9633 147.82 28.766 148.14 28.766 148.524C28.766 148.961 28.942 149.297 29.294 149.532C29.6567 149.766 30.0833 149.884 30.574 149.884ZM39.8688 150.892C38.2154 150.892 37.3888 149.958 37.3888 148.092V143.804H36.1248C36.0181 143.804 35.9328 143.772 35.8688 143.708C35.8048 143.644 35.7728 143.558 35.7728 143.452V142.94C35.7728 142.833 35.8048 142.748 35.8688 142.684C35.9328 142.609 36.0181 142.572 36.1248 142.572H37.3888V139.9C37.3888 139.793 37.4208 139.708 37.4848 139.644C37.5488 139.569 37.6341 139.532 37.7408 139.532H38.4448C38.5514 139.532 38.6368 139.569 38.7008 139.644C38.7754 139.708 38.8128 139.793 38.8128 139.9V142.572H40.7968C40.9034 142.572 40.9888 142.609 41.0528 142.684C41.1274 142.748 41.1648 142.833 41.1648 142.94V143.452C41.1648 143.558 41.1274 143.644 41.0528 143.708C40.9888 143.772 40.9034 143.804 40.7968 143.804H38.8128V147.98C38.8128 148.524 38.8981 148.934 39.0688 149.212C39.2501 149.489 39.5541 149.628 39.9808 149.628H40.9568C41.0634 149.628 41.1488 149.665 41.2128 149.74C41.2768 149.804 41.3088 149.889 41.3088 149.996V150.524C41.3088 150.63 41.2768 150.721 41.2128 150.796C41.1488 150.86 41.0634 150.892 40.9568 150.892H39.8688ZM43.1119 141.004C43.0052 141.004 42.9145 140.972 42.8399 140.908C42.7759 140.833 42.7439 140.742 42.7439 140.636V139.804C42.7439 139.697 42.7759 139.606 42.8399 139.532C42.9145 139.457 43.0052 139.42 43.1119 139.42H44.0559C44.1625 139.42 44.2532 139.457 44.3279 139.532C44.4025 139.606 44.4399 139.697 44.4399 139.804V140.636C44.4399 140.742 44.4025 140.833 44.3279 140.908C44.2532 140.972 44.1625 141.004 44.0559 141.004H43.1119ZM43.2399 150.892C43.1332 150.892 43.0425 150.86 42.9679 150.796C42.9039 150.721 42.8719 150.63 42.8719 150.524V142.94C42.8719 142.833 42.9039 142.748 42.9679 142.684C43.0425 142.609 43.1332 142.572 43.2399 142.572H43.9439C44.0505 142.572 44.1359 142.609 44.1999 142.684C44.2745 142.748 44.3119 142.833 44.3119 142.94V150.524C44.3119 150.63 44.2745 150.721 44.1999 150.796C44.1359 150.86 44.0505 150.892 43.9439 150.892H43.2399ZM50.0916 151.052C48.9183 151.052 48.0116 150.721 47.3716 150.06C46.7423 149.398 46.4063 148.518 46.3636 147.42L46.3476 146.732L46.3636 146.044C46.4063 144.945 46.7476 144.065 47.3876 143.404C48.0383 142.742 48.9396 142.412 50.0916 142.412C51.2436 142.412 52.1396 142.742 52.7796 143.404C53.4303 144.065 53.777 144.945 53.8196 146.044C53.841 146.278 53.8516 146.508 53.8516 146.732C53.8516 146.956 53.841 147.185 53.8196 147.42C53.777 148.518 53.4356 149.398 52.7956 150.06C52.1663 150.721 51.265 151.052 50.0916 151.052ZM50.0916 149.852C50.7743 149.852 51.313 149.638 51.7076 149.212C52.113 148.774 52.3316 148.15 52.3636 147.34C52.3743 147.233 52.3796 147.03 52.3796 146.732C52.3796 146.433 52.3743 146.23 52.3636 146.124C52.3316 145.313 52.113 144.694 51.7076 144.268C51.313 143.83 50.7743 143.612 50.0916 143.612C49.409 143.612 48.865 143.83 48.4596 144.268C48.065 144.694 47.8516 145.313 47.8196 146.124L47.8036 146.732L47.8196 147.34C47.8516 148.15 48.065 148.774 48.4596 149.212C48.865 149.638 49.409 149.852 50.0916 149.852ZM56.2399 150.892C56.1332 150.892 56.0425 150.86 55.9679 150.796C55.9039 150.721 55.8719 150.63 55.8719 150.524V142.94C55.8719 142.833 55.9039 142.748 55.9679 142.684C56.0425 142.609 56.1332 142.572 56.2399 142.572H56.9279C57.0452 142.572 57.1359 142.604 57.1999 142.668C57.2639 142.732 57.2959 142.822 57.2959 142.94V143.644C57.6159 143.249 57.9839 142.945 58.3999 142.732C58.8265 142.518 59.3545 142.412 59.9839 142.412C61.0079 142.412 61.8025 142.742 62.3679 143.404C62.9332 144.054 63.2159 144.918 63.2159 145.996V150.524C63.2159 150.63 63.1785 150.721 63.1039 150.796C63.0399 150.86 62.9545 150.892 62.8479 150.892H62.1119C62.0052 150.892 61.9145 150.86 61.8399 150.796C61.7759 150.721 61.7439 150.63 61.7439 150.524V146.092C61.7439 145.324 61.5572 144.726 61.1839 144.3C60.8105 143.873 60.2772 143.66 59.5839 143.66C58.9012 143.66 58.3572 143.878 57.9519 144.316C57.5465 144.742 57.3439 145.334 57.3439 146.092V150.524C57.3439 150.63 57.3065 150.721 57.2319 150.796C57.1679 150.86 57.0825 150.892 56.9759 150.892H56.2399ZM68.3761 151.052C67.6401 151.052 67.0161 150.934 66.5041 150.7C66.0028 150.454 65.6295 150.177 65.3841 149.868C65.1388 149.558 65.0161 149.302 65.0161 149.1C65.0161 148.993 65.0535 148.913 65.1281 148.86C65.2028 148.796 65.2828 148.764 65.3681 148.764H66.0401C66.1041 148.764 66.1521 148.774 66.1841 148.796C66.2268 148.817 66.2801 148.865 66.3441 148.94C66.5895 149.238 66.8615 149.473 67.1601 149.644C67.4695 149.814 67.8801 149.9 68.3921 149.9C68.9681 149.9 69.4268 149.793 69.7681 149.58C70.1201 149.366 70.2961 149.057 70.2961 148.652C70.2961 148.385 70.2215 148.172 70.0721 148.012C69.9228 147.852 69.6721 147.708 69.3201 147.58C68.9788 147.452 68.4668 147.313 67.7841 147.164C66.8561 146.961 66.2001 146.668 65.8161 146.284C65.4321 145.9 65.2401 145.404 65.2401 144.796C65.2401 144.401 65.3575 144.022 65.5921 143.66C65.8268 143.286 66.1735 142.988 66.6321 142.764C67.1015 142.529 67.6561 142.412 68.2961 142.412C68.9681 142.412 69.5388 142.524 70.0081 142.748C70.4881 142.972 70.8455 143.233 71.0801 143.532C71.3255 143.83 71.4481 144.081 71.4481 144.284C71.4481 144.38 71.4108 144.46 71.3361 144.524C71.2721 144.588 71.1921 144.62 71.0961 144.62H70.4881C70.3388 144.62 70.2321 144.561 70.1681 144.444C69.9868 144.241 69.8321 144.086 69.7041 143.98C69.5868 143.862 69.4108 143.766 69.1761 143.692C68.9415 143.606 68.6481 143.564 68.2961 143.564C67.7735 143.564 67.3735 143.676 67.0961 143.9C66.8188 144.113 66.6801 144.401 66.6801 144.764C66.6801 144.988 66.7388 145.18 66.8561 145.34C66.9735 145.489 67.1975 145.633 67.5281 145.772C67.8588 145.9 68.3495 146.033 69.0001 146.172C70.0135 146.385 70.7281 146.689 71.1441 147.084C71.5708 147.478 71.7841 147.985 71.7841 148.604C71.7841 149.062 71.6508 149.478 71.3841 149.852C71.1281 150.225 70.7388 150.518 70.2161 150.732C69.7041 150.945 69.0908 151.052 68.3761 151.052Z" fill="#4F5665"/>
<path d="M4.976 191.052C4.10133 191.052 3.33867 190.913 2.688 190.636C2.048 190.358 1.55733 189.996 1.216 189.548C0.885333 189.089 0.709333 188.598 0.688 188.076C0.688 187.99 0.72 187.916 0.784 187.852C0.848 187.788 0.928 187.756 1.024 187.756H1.808C2 187.756 2.13333 187.862 2.208 188.076C2.304 188.524 2.576 188.913 3.024 189.244C3.48267 189.564 4.13333 189.724 4.976 189.724C5.88267 189.724 6.56 189.564 7.008 189.244C7.456 188.924 7.68 188.481 7.68 187.916C7.68 187.553 7.568 187.254 7.344 187.02C7.13067 186.785 6.80533 186.582 6.368 186.412C5.94133 186.23 5.296 186.012 4.432 185.756C3.61067 185.521 2.95467 185.27 2.464 185.004C1.984 184.737 1.62133 184.412 1.376 184.028C1.13067 183.633 1.008 183.137 1.008 182.54C1.008 181.964 1.16267 181.452 1.472 181.004C1.78133 180.545 2.22933 180.188 2.816 179.932C3.40267 179.665 4.096 179.532 4.896 179.532C5.728 179.532 6.43733 179.681 7.024 179.98C7.62133 180.268 8.07467 180.636 8.384 181.084C8.69333 181.521 8.85867 181.964 8.88 182.412C8.88 182.508 8.848 182.588 8.784 182.652C8.72 182.716 8.64 182.748 8.544 182.748H7.744C7.65867 182.748 7.57867 182.721 7.504 182.668C7.42933 182.614 7.376 182.534 7.344 182.428C7.28 181.969 7.024 181.59 6.576 181.292C6.128 180.993 5.568 180.844 4.896 180.844C4.17067 180.844 3.59467 180.988 3.168 181.276C2.74133 181.553 2.528 181.969 2.528 182.524C2.528 182.897 2.624 183.201 2.816 183.436C3.01867 183.67 3.32267 183.878 3.728 184.06C4.144 184.241 4.74667 184.449 5.536 184.684C6.44267 184.94 7.152 185.196 7.664 185.452C8.18667 185.708 8.576 186.028 8.832 186.412C9.088 186.785 9.216 187.27 9.216 187.868C9.216 188.87 8.832 189.654 8.064 190.22C7.30667 190.774 6.27733 191.052 4.976 191.052ZM14.4179 191.052C13.3299 191.052 12.4605 190.716 11.8099 190.044C11.1592 189.361 10.8019 188.433 10.7379 187.26L10.7219 186.716L10.7379 186.188C10.8019 185.036 11.1592 184.118 11.8099 183.436C12.4605 182.753 13.3299 182.412 14.4179 182.412C15.5912 182.412 16.4979 182.785 17.1379 183.532C17.7885 184.278 18.1139 185.292 18.1139 186.572V186.86C18.1139 186.966 18.0765 187.057 18.0019 187.132C17.9379 187.196 17.8525 187.228 17.7459 187.228H12.1939V187.372C12.2259 188.065 12.4392 188.657 12.8339 189.148C13.2285 189.638 13.7512 189.884 14.4019 189.884C14.9032 189.884 15.3085 189.788 15.6179 189.596C15.9379 189.393 16.1779 189.185 16.3379 188.972C16.4339 188.844 16.5085 188.769 16.5619 188.748C16.6152 188.716 16.7059 188.7 16.8339 188.7H17.5379C17.6339 188.7 17.7139 188.726 17.7779 188.78C17.8525 188.833 17.8899 188.902 17.8899 188.988C17.8899 189.222 17.7459 189.505 17.4579 189.836C17.1699 190.166 16.7592 190.454 16.2259 190.7C15.7032 190.934 15.1005 191.052 14.4179 191.052ZM16.6579 186.14V186.092C16.6579 185.345 16.4552 184.737 16.0499 184.268C15.6445 183.798 15.1005 183.564 14.4179 183.564C13.7245 183.564 13.1805 183.798 12.7859 184.268C12.3912 184.737 12.1939 185.345 12.1939 186.092V186.14H16.6579ZM20.4274 190.892C20.3207 190.892 20.23 190.86 20.1554 190.796C20.0914 190.721 20.0594 190.63 20.0594 190.524V182.956C20.0594 182.849 20.0914 182.758 20.1554 182.684C20.23 182.609 20.3207 182.572 20.4274 182.572H21.0994C21.2167 182.572 21.3074 182.609 21.3714 182.684C21.446 182.748 21.4834 182.838 21.4834 182.956V183.66C21.9207 182.934 22.662 182.572 23.7074 182.572H24.3314C24.4487 182.572 24.5394 182.604 24.6034 182.668C24.6674 182.732 24.6994 182.822 24.6994 182.94V183.532C24.6994 183.638 24.6674 183.729 24.6034 183.804C24.5394 183.868 24.4487 183.9 24.3314 183.9H23.4194C22.8327 183.9 22.3687 184.07 22.0274 184.412C21.6967 184.753 21.5314 185.217 21.5314 185.804V190.524C21.5314 190.63 21.494 190.721 21.4194 190.796C21.3447 190.86 21.254 190.892 21.1474 190.892H20.4274ZM28.971 190.892C28.6937 190.892 28.4963 190.758 28.379 190.492L25.403 183.068C25.3923 183.036 25.387 182.982 25.387 182.908C25.387 182.812 25.419 182.732 25.483 182.668C25.547 182.604 25.6217 182.572 25.707 182.572H26.443C26.6137 182.572 26.7417 182.657 26.827 182.828L29.291 189.212L31.755 182.828C31.7763 182.764 31.819 182.705 31.883 182.652C31.9577 182.598 32.043 182.572 32.139 182.572H32.875C32.9603 182.572 33.035 182.604 33.099 182.668C33.163 182.732 33.195 182.812 33.195 182.908L33.163 183.068L30.203 190.492C30.0857 190.758 29.8883 190.892 29.611 190.892H28.971ZM37.9023 191.052C36.8143 191.052 35.9449 190.716 35.2943 190.044C34.6436 189.361 34.2863 188.433 34.2223 187.26L34.2063 186.716L34.2223 186.188C34.2863 185.036 34.6436 184.118 35.2943 183.436C35.9449 182.753 36.8143 182.412 37.9023 182.412C39.0756 182.412 39.9823 182.785 40.6223 183.532C41.2729 184.278 41.5983 185.292 41.5983 186.572V186.86C41.5983 186.966 41.5609 187.057 41.4862 187.132C41.4223 187.196 41.3369 187.228 41.2303 187.228H35.6783V187.372C35.7103 188.065 35.9236 188.657 36.3183 189.148C36.7129 189.638 37.2356 189.884 37.8863 189.884C38.3876 189.884 38.7929 189.788 39.1023 189.596C39.4223 189.393 39.6623 189.185 39.8223 188.972C39.9183 188.844 39.9929 188.769 40.0463 188.748C40.0996 188.716 40.1903 188.7 40.3183 188.7H41.0223C41.1183 188.7 41.1983 188.726 41.2623 188.78C41.3369 188.833 41.3743 188.902 41.3743 188.988C41.3743 189.222 41.2303 189.505 40.9423 189.836C40.6543 190.166 40.2436 190.454 39.7103 190.7C39.1876 190.934 38.5849 191.052 37.9023 191.052ZM40.1423 186.14V186.092C40.1423 185.345 39.9396 184.737 39.5343 184.268C39.1289 183.798 38.5849 183.564 37.9023 183.564C37.2089 183.564 36.6649 183.798 36.2703 184.268C35.8756 184.737 35.6783 185.345 35.6783 186.092V186.14H40.1423ZM43.9118 190.892C43.8051 190.892 43.7144 190.86 43.6398 190.796C43.5758 190.721 43.5438 190.63 43.5438 190.524V182.956C43.5438 182.849 43.5758 182.758 43.6398 182.684C43.7144 182.609 43.8051 182.572 43.9118 182.572H44.5838C44.7011 182.572 44.7918 182.609 44.8558 182.684C44.9304 182.748 44.9678 182.838 44.9678 182.956V183.66C45.4051 182.934 46.1464 182.572 47.1918 182.572H47.8158C47.9331 182.572 48.0238 182.604 48.0878 182.668C48.1518 182.732 48.1838 182.822 48.1838 182.94V183.532C48.1838 183.638 48.1518 183.729 48.0878 183.804C48.0238 183.868 47.9331 183.9 47.8158 183.9H46.9038C46.3171 183.9 45.8531 184.07 45.5118 184.412C45.1811 184.753 45.0158 185.217 45.0158 185.804V190.524C45.0158 190.63 44.9784 190.721 44.9038 190.796C44.8291 190.86 44.7384 190.892 44.6318 190.892H43.9118Z" fill="#4F5665"/>
<path d="M5.408 231.052C3.98933 231.052 2.90667 230.668 2.16 229.9C1.424 229.121 1.02933 228.06 0.976 226.716C0.965333 226.428 0.96 225.958 0.96 225.308C0.96 224.646 0.965333 224.166 0.976 223.868C1.02933 222.524 1.424 221.468 2.16 220.7C2.90667 219.921 3.98933 219.532 5.408 219.532C6.35733 219.532 7.16267 219.702 7.824 220.044C8.48533 220.374 8.98133 220.812 9.312 221.356C9.65333 221.9 9.84 222.481 9.872 223.1C9.872 223.196 9.83467 223.276 9.76 223.34C9.696 223.393 9.616 223.42 9.52 223.42H8.72C8.61333 223.42 8.528 223.393 8.464 223.34C8.4 223.286 8.352 223.196 8.32 223.068C8.13867 222.246 7.808 221.67 7.328 221.34C6.85867 221.009 6.21867 220.844 5.408 220.844C3.552 220.844 2.58667 221.878 2.512 223.948C2.50133 224.236 2.496 224.678 2.496 225.276C2.496 225.873 2.50133 226.326 2.512 226.636C2.58667 228.694 3.552 229.724 5.408 229.724C6.208 229.724 6.848 229.558 7.328 229.228C7.808 228.897 8.13867 228.326 8.32 227.516C8.352 227.388 8.4 227.297 8.464 227.244C8.528 227.19 8.61333 227.164 8.72 227.164H9.52C9.616 227.164 9.696 227.196 9.76 227.26C9.83467 227.313 9.872 227.388 9.872 227.484C9.84 228.102 9.65333 228.684 9.312 229.228C8.98133 229.772 8.48533 230.214 7.824 230.556C7.16267 230.886 6.35733 231.052 5.408 231.052ZM15.2166 231.052C14.0433 231.052 13.1366 230.721 12.4966 230.06C11.8673 229.398 11.5313 228.518 11.4886 227.42L11.4726 226.732L11.4886 226.044C11.5313 224.945 11.8726 224.065 12.5126 223.404C13.1633 222.742 14.0646 222.412 15.2166 222.412C16.3686 222.412 17.2646 222.742 17.9046 223.404C18.5553 224.065 18.902 224.945 18.9446 226.044C18.966 226.278 18.9766 226.508 18.9766 226.732C18.9766 226.956 18.966 227.185 18.9446 227.42C18.902 228.518 18.5606 229.398 17.9206 230.06C17.2913 230.721 16.39 231.052 15.2166 231.052ZM15.2166 229.852C15.8993 229.852 16.438 229.638 16.8326 229.212C17.238 228.774 17.4566 228.15 17.4886 227.34C17.4993 227.233 17.5046 227.03 17.5046 226.732C17.5046 226.433 17.4993 226.23 17.4886 226.124C17.4566 225.313 17.238 224.694 16.8326 224.268C16.438 223.83 15.8993 223.612 15.2166 223.612C14.534 223.612 13.99 223.83 13.5846 224.268C13.19 224.694 12.9766 225.313 12.9446 226.124L12.9286 226.732L12.9446 227.34C12.9766 228.15 13.19 228.774 13.5846 229.212C13.99 229.638 14.534 229.852 15.2166 229.852ZM24.1009 231.052C23.0875 231.052 22.3035 230.726 21.7489 230.076C21.1942 229.414 20.9169 228.54 20.9169 227.452V222.94C20.9169 222.833 20.9489 222.748 21.0129 222.684C21.0875 222.609 21.1782 222.572 21.2849 222.572H22.0209C22.1275 222.572 22.2129 222.609 22.2769 222.684C22.3515 222.748 22.3889 222.833 22.3889 222.94V227.372C22.3889 228.993 23.0929 229.804 24.5009 229.804C25.1835 229.804 25.7222 229.59 26.1169 229.164C26.5222 228.726 26.7249 228.129 26.7249 227.372V222.94C26.7249 222.833 26.7569 222.748 26.8209 222.684C26.8955 222.609 26.9862 222.572 27.0929 222.572H27.8289C27.9355 222.572 28.0209 222.609 28.0849 222.684C28.1595 222.748 28.1969 222.833 28.1969 222.94V230.524C28.1969 230.63 28.1595 230.721 28.0849 230.796C28.0209 230.86 27.9355 230.892 27.8289 230.892H27.1409C27.0342 230.892 26.9435 230.86 26.8689 230.796C26.8049 230.721 26.7729 230.63 26.7729 230.524V229.804C26.4635 230.22 26.1009 230.534 25.6849 230.748C25.2689 230.95 24.7409 231.052 24.1009 231.052ZM30.9586 230.892C30.852 230.892 30.7613 230.86 30.6866 230.796C30.6226 230.721 30.5906 230.63 30.5906 230.524V222.94C30.5906 222.833 30.6226 222.748 30.6866 222.684C30.7613 222.609 30.852 222.572 30.9586 222.572H31.6466C31.764 222.572 31.8546 222.604 31.9186 222.668C31.9826 222.732 32.0146 222.822 32.0146 222.94V223.644C32.3346 223.249 32.7026 222.945 33.1186 222.732C33.5453 222.518 34.0733 222.412 34.7026 222.412C35.7266 222.412 36.5213 222.742 37.0866 223.404C37.652 224.054 37.9346 224.918 37.9346 225.996V230.524C37.9346 230.63 37.8973 230.721 37.8226 230.796C37.7586 230.86 37.6733 230.892 37.5666 230.892H36.8306C36.724 230.892 36.6333 230.86 36.5586 230.796C36.4946 230.721 36.4626 230.63 36.4626 230.524V226.092C36.4626 225.324 36.276 224.726 35.9026 224.3C35.5293 223.873 34.996 223.66 34.3026 223.66C33.62 223.66 33.076 223.878 32.6706 224.316C32.2653 224.742 32.0626 225.334 32.0626 226.092V230.524C32.0626 230.63 32.0253 230.721 31.9506 230.796C31.8866 230.86 31.8013 230.892 31.6946 230.892H30.9586ZM43.3375 230.892C41.6842 230.892 40.8575 229.958 40.8575 228.092V223.804H39.5935C39.4868 223.804 39.4015 223.772 39.3375 223.708C39.2735 223.644 39.2415 223.558 39.2415 223.452V222.94C39.2415 222.833 39.2735 222.748 39.3375 222.684C39.4015 222.609 39.4868 222.572 39.5935 222.572H40.8575V219.9C40.8575 219.793 40.8895 219.708 40.9535 219.644C41.0175 219.569 41.1028 219.532 41.2095 219.532H41.9135C42.0202 219.532 42.1055 219.569 42.1695 219.644C42.2442 219.708 42.2815 219.793 42.2815 219.9V222.572H44.2655C44.3722 222.572 44.4575 222.609 44.5215 222.684C44.5962 222.748 44.6335 222.833 44.6335 222.94V223.452C44.6335 223.558 44.5962 223.644 44.5215 223.708C44.4575 223.772 44.3722 223.804 44.2655 223.804H42.2815V227.98C42.2815 228.524 42.3668 228.934 42.5375 229.212C42.7188 229.489 43.0228 229.628 43.4495 229.628H44.4255C44.5322 229.628 44.6175 229.665 44.6815 229.74C44.7455 229.804 44.7775 229.889 44.7775 229.996V230.524C44.7775 230.63 44.7455 230.721 44.6815 230.796C44.6175 230.86 44.5322 230.892 44.4255 230.892H43.3375ZM46.7086 230.892C46.602 230.892 46.5113 230.86 46.4366 230.796C46.3726 230.721 46.3406 230.63 46.3406 230.524V222.956C46.3406 222.849 46.3726 222.758 46.4366 222.684C46.5113 222.609 46.602 222.572 46.7086 222.572H47.3806C47.498 222.572 47.5886 222.609 47.6526 222.684C47.7273 222.748 47.7646 222.838 47.7646 222.956V223.66C48.202 222.934 48.9433 222.572 49.9886 222.572H50.6126C50.73 222.572 50.8206 222.604 50.8846 222.668C50.9486 222.732 50.9806 222.822 50.9806 222.94V223.532C50.9806 223.638 50.9486 223.729 50.8846 223.804C50.8206 223.868 50.73 223.9 50.6126 223.9H49.7006C49.114 223.9 48.65 224.07 48.3086 224.412C47.978 224.753 47.8126 225.217 47.8126 225.804V230.524C47.8126 230.63 47.7753 230.721 47.7006 230.796C47.626 230.86 47.5353 230.892 47.4286 230.892H46.7086ZM52.5963 221.004C52.4896 221.004 52.3989 220.972 52.3243 220.908C52.2603 220.833 52.2283 220.742 52.2283 220.636V219.804C52.2283 219.697 52.2603 219.606 52.3243 219.532C52.3989 219.457 52.4896 219.42 52.5963 219.42H53.5403C53.6469 219.42 53.7376 219.457 53.8123 219.532C53.8869 219.606 53.9243 219.697 53.9243 219.804V220.636C53.9243 220.742 53.8869 220.833 53.8123 220.908C53.7376 220.972 53.6469 221.004 53.5403 221.004H52.5963ZM52.7243 230.892C52.6176 230.892 52.5269 230.86 52.4523 230.796C52.3883 230.721 52.3563 230.63 52.3563 230.524V222.94C52.3563 222.833 52.3883 222.748 52.4523 222.684C52.5269 222.609 52.6176 222.572 52.7243 222.572H53.4283C53.5349 222.572 53.6203 222.609 53.6843 222.684C53.7589 222.748 53.7963 222.833 53.7963 222.94V230.524C53.7963 230.63 53.7589 230.721 53.6843 230.796C53.6203 230.86 53.5349 230.892 53.4283 230.892H52.7243ZM59.496 231.052C58.408 231.052 57.5387 230.716 56.888 230.044C56.2373 229.361 55.88 228.433 55.816 227.26L55.8 226.716L55.816 226.188C55.88 225.036 56.2373 224.118 56.888 223.436C57.5387 222.753 58.408 222.412 59.496 222.412C60.6693 222.412 61.576 222.785 62.216 223.532C62.8667 224.278 63.192 225.292 63.192 226.572V226.86C63.192 226.966 63.1547 227.057 63.08 227.132C63.016 227.196 62.9307 227.228 62.824 227.228H57.272V227.372C57.304 228.065 57.5173 228.657 57.912 229.148C58.3067 229.638 58.8293 229.884 59.48 229.884C59.9813 229.884 60.3867 229.788 60.696 229.596C61.016 229.393 61.256 229.185 61.416 228.972C61.512 228.844 61.5867 228.769 61.64 228.748C61.6933 228.716 61.784 228.7 61.912 228.7H62.616C62.712 228.7 62.792 228.726 62.856 228.78C62.9307 228.833 62.968 228.902 62.968 228.988C62.968 229.222 62.824 229.505 62.536 229.836C62.248 230.166 61.8373 230.454 61.304 230.7C60.7813 230.934 60.1787 231.052 59.496 231.052ZM61.736 226.14V226.092C61.736 225.345 61.5333 224.737 61.128 224.268C60.7227 223.798 60.1787 223.564 59.496 223.564C58.8027 223.564 58.2587 223.798 57.864 224.268C57.4693 224.737 57.272 225.345 57.272 226.092V226.14H61.736ZM67.9855 231.052C67.2495 231.052 66.6255 230.934 66.1135 230.7C65.6122 230.454 65.2388 230.177 64.9935 229.868C64.7482 229.558 64.6255 229.302 64.6255 229.1C64.6255 228.993 64.6628 228.913 64.7375 228.86C64.8122 228.796 64.8922 228.764 64.9775 228.764H65.6495C65.7135 228.764 65.7615 228.774 65.7935 228.796C65.8362 228.817 65.8895 228.865 65.9535 228.94C66.1988 229.238 66.4708 229.473 66.7695 229.644C67.0788 229.814 67.4895 229.9 68.0015 229.9C68.5775 229.9 69.0362 229.793 69.3775 229.58C69.7295 229.366 69.9055 229.057 69.9055 228.652C69.9055 228.385 69.8308 228.172 69.6815 228.012C69.5322 227.852 69.2815 227.708 68.9295 227.58C68.5882 227.452 68.0762 227.313 67.3935 227.164C66.4655 226.961 65.8095 226.668 65.4255 226.284C65.0415 225.9 64.8495 225.404 64.8495 224.796C64.8495 224.401 64.9668 224.022 65.2015 223.66C65.4362 223.286 65.7828 222.988 66.2415 222.764C66.7108 222.529 67.2655 222.412 67.9055 222.412C68.5775 222.412 69.1482 222.524 69.6175 222.748C70.0975 222.972 70.4548 223.233 70.6895 223.532C70.9348 223.83 71.0575 224.081 71.0575 224.284C71.0575 224.38 71.0202 224.46 70.9455 224.524C70.8815 224.588 70.8015 224.62 70.7055 224.62H70.0975C69.9482 224.62 69.8415 224.561 69.7775 224.444C69.5962 224.241 69.4415 224.086 69.3135 223.98C69.1962 223.862 69.0202 223.766 68.7855 223.692C68.5508 223.606 68.2575 223.564 67.9055 223.564C67.3828 223.564 66.9828 223.676 66.7055 223.9C66.4282 224.113 66.2895 224.401 66.2895 224.764C66.2895 224.988 66.3482 225.18 66.4655 225.34C66.5828 225.489 66.8068 225.633 67.1375 225.772C67.4682 225.9 67.9588 226.033 68.6095 226.172C69.6228 226.385 70.3375 226.689 70.7535 227.084C71.1802 227.478 71.3935 227.985 71.3935 228.604C71.3935 229.062 71.2602 229.478 70.9935 229.852C70.7375 230.225 70.3482 230.518 69.8255 230.732C69.3135 230.945 68.7002 231.052 67.9855 231.052Z" fill="#4F5665"/>
<path d="M1.76 270.892C1.65333 270.892 1.568 270.86 1.504 270.796C1.44 270.721 1.408 270.63 1.408 270.524V260.076C1.408 259.958 1.44 259.868 1.504 259.804C1.568 259.729 1.65333 259.692 1.76 259.692H6.128C7.25867 259.692 8.112 259.964 8.688 260.508C9.264 261.052 9.552 261.761 9.552 262.636C9.552 263.233 9.41333 263.734 9.136 264.14C8.85867 264.534 8.53333 264.822 8.16 265.004C8.61867 265.228 9.00267 265.574 9.312 266.044C9.62133 266.513 9.776 267.052 9.776 267.66C9.776 268.257 9.63733 268.801 9.36 269.292C9.09333 269.782 8.69333 270.172 8.16 270.46C7.62667 270.748 6.992 270.892 6.256 270.892H1.76ZM5.888 264.444C6.58133 264.444 7.10933 264.289 7.472 263.98C7.83467 263.66 8.016 263.217 8.016 262.652C8.016 262.097 7.83467 261.676 7.472 261.388C7.12 261.1 6.592 260.956 5.888 260.956H2.912V264.444H5.888ZM6.048 269.628C6.73067 269.628 7.264 269.446 7.648 269.084C8.04267 268.71 8.24 268.236 8.24 267.66C8.24 267.073 8.04267 266.598 7.648 266.236C7.264 265.873 6.73067 265.692 6.048 265.692H2.912V269.628H6.048ZM12.2559 270.892C12.1492 270.892 12.0585 270.86 11.9839 270.796C11.9199 270.721 11.8879 270.63 11.8879 270.524V259.9C11.8879 259.782 11.9199 259.692 11.9839 259.628C12.0585 259.564 12.1492 259.532 12.2559 259.532H12.9599C13.0665 259.532 13.1519 259.569 13.2159 259.644C13.2905 259.708 13.3279 259.793 13.3279 259.9V270.524C13.3279 270.63 13.2905 270.721 13.2159 270.796C13.1519 270.86 13.0665 270.892 12.9599 270.892H12.2559ZM19.1073 271.052C17.9339 271.052 17.0273 270.721 16.3873 270.06C15.7579 269.398 15.4219 268.518 15.3793 267.42L15.3633 266.732L15.3793 266.044C15.4219 264.945 15.7633 264.065 16.4033 263.404C17.0539 262.742 17.9553 262.412 19.1073 262.412C20.2593 262.412 21.1553 262.742 21.7953 263.404C22.4459 264.065 22.7926 264.945 22.8353 266.044C22.8566 266.278 22.8673 266.508 22.8673 266.732C22.8673 266.956 22.8566 267.185 22.8353 267.42C22.7926 268.518 22.4513 269.398 21.8113 270.06C21.1819 270.721 20.2806 271.052 19.1073 271.052ZM19.1073 269.852C19.7899 269.852 20.3286 269.638 20.7233 269.212C21.1286 268.774 21.3473 268.15 21.3793 267.34C21.3899 267.233 21.3953 267.03 21.3953 266.732C21.3953 266.433 21.3899 266.23 21.3793 266.124C21.3473 265.313 21.1286 264.694 20.7233 264.268C20.3286 263.83 19.7899 263.612 19.1073 263.612C18.4246 263.612 17.8806 263.83 17.4753 264.268C17.0806 264.694 16.8673 265.313 16.8353 266.124L16.8193 266.732L16.8353 267.34C16.8673 268.15 17.0806 268.774 17.4753 269.212C17.8806 269.638 18.4246 269.852 19.1073 269.852ZM28.2635 274.412C27.3782 274.412 26.6688 274.262 26.1355 273.964C25.6022 273.665 25.2235 273.324 24.9995 272.94C24.7862 272.556 24.6795 272.225 24.6795 271.948C24.6795 271.852 24.7168 271.766 24.7915 271.692C24.8662 271.628 24.9515 271.596 25.0475 271.596H25.7515C25.8475 271.596 25.9275 271.617 25.9915 271.66C26.0555 271.713 26.1088 271.804 26.1515 271.932C26.4502 272.785 27.1275 273.212 28.1835 273.212C28.9835 273.212 29.5755 273.041 29.9595 272.7C30.3435 272.358 30.5355 271.756 30.5355 270.892V269.788C29.9168 270.577 29.0528 270.972 27.9435 270.972C26.8128 270.972 25.9648 270.609 25.3995 269.884C24.8448 269.158 24.5515 268.241 24.5195 267.132L24.5035 266.684L24.5195 266.252C24.5515 265.153 24.8448 264.241 25.3995 263.516C25.9648 262.78 26.8128 262.412 27.9435 262.412C29.0635 262.412 29.9382 262.822 30.5675 263.644V262.956C30.5675 262.849 30.5995 262.758 30.6635 262.684C30.7382 262.609 30.8288 262.572 30.9355 262.572H31.6235C31.7302 262.572 31.8155 262.609 31.8795 262.684C31.9542 262.758 31.9915 262.849 31.9915 262.956V270.716C31.9915 273.18 30.7488 274.412 28.2635 274.412ZM28.2315 269.724C28.9782 269.724 29.5382 269.484 29.9115 269.004C30.2955 268.513 30.5035 267.926 30.5355 267.244C30.5462 267.148 30.5515 266.961 30.5515 266.684C30.5515 266.417 30.5462 266.236 30.5355 266.14C30.5035 265.457 30.2955 264.876 29.9115 264.396C29.5382 263.905 28.9782 263.66 28.2315 263.66C27.4635 263.66 26.9035 263.905 26.5515 264.396C26.2102 264.876 26.0235 265.5 25.9915 266.268L25.9755 266.684L25.9915 267.116C26.0235 267.884 26.2102 268.513 26.5515 269.004C26.9035 269.484 27.4635 269.724 28.2315 269.724Z" fill="#4F5665"/>
</svg>
